<svg xmlns="http://www.w3.org/2000/svg" viewBox="0 0 589.21 1532.39"><defs><style>.cls-1{fill:#2a4b60;opacity:0.3;}</style></defs><title>Asset 4</title><g id="Layer_2" data-name="Layer 2"><g id="Layer_1-2" data-name="Layer 1"><path class="cls-1" d="M589.21,746.66c0-418.14-234-684.58-294.63-746.66C234.11,61.89,0,328.52,0,746.66c0,354.81,231,701.14,291.5,785.73,0,0,48.69-59.89,106.8-160.81C483.67,1223.3,589.21,989,589.21,746.66ZM294.58,1205.77l-18.44-31.92a855.26,855.26,0,0,1,0-854l18.44-32.21,18.59,32.21A858.28,858.28,0,0,1,427.29,746.66a857.14,857.14,0,0,1-114.22,427.19Z"/></g></g></svg>