<svg xmlns="http://www.w3.org/2000/svg" viewBox="0 0 1920 92.05"><defs><style>.cls-1{fill:none;}.cls-2{fill:#2a4b60;}</style></defs><title>Asset 14</title><g id="Layer_2" data-name="Layer 2"><g id="Layer_1-2" data-name="Layer 1"><rect class="cls-1" width="1920" height="92.05"/><polygon class="cls-2" points="59 60.13 59 70.69 61.13 70.69 61.13 70.69 61.13 70.69 61.13 59.8 61.13 46.02 61.13 0 59 0 59 60.13"/><polygon class="cls-2" points="29.52 2.33 29.52 16.11 29.52 80.95 29.52 81.65 29.52 92.05 31.65 92.05 31.65 16.11 31.65 16.11 31.65 2.33 31.65 2.33 31.65 0 29.52 0 29.52 2.33"/><polygon class="cls-2" points="0 92.05 2.13 92.05 2.13 81.28 2.13 0 0 0 0 92.05"/><polygon class="cls-2" points="118.02 2.33 118.02 2.33 118.02 16.11 118.02 16.11 118.02 92.05 120.15 92.05 120.15 81.65 120.15 81.28 120.15 80.95 120.15 16.11 120.15 2.33 120.15 0 118.02 0 118.02 2.33"/><polygon class="cls-2" points="88.54 46.02 88.54 59.8 88.54 70.69 88.55 70.69 88.55 70.69 90.68 70.69 90.68 60.13 90.68 0 88.54 0 88.54 46.02"/><polygon class="cls-2" points="147.54 2.33 147.54 16.11 147.54 80.95 147.54 81.28 147.54 81.65 147.54 92.05 149.67 92.05 149.67 16.11 149.67 16.11 149.67 2.33 149.67 2.33 149.67 0 147.54 0 147.54 2.33"/><polygon class="cls-2" points="177.02 60.13 177.02 70.69 179.15 70.69 179.15 70.69 179.15 70.69 179.15 59.8 179.15 46.02 179.15 0 177.02 0 177.02 60.13"/><polygon class="cls-2" points="236.04 2.33 236.04 2.33 236.04 16.11 236.04 16.11 236.04 92.05 238.18 92.05 238.18 81.65 238.18 81.28 238.18 80.95 238.18 16.11 238.18 2.33 238.18 0 236.04 0 236.04 2.33"/><polygon class="cls-2" points="206.57 46.02 206.57 59.8 206.57 70.69 206.57 70.69 206.57 70.69 208.7 70.69 208.7 60.13 208.7 0 206.57 0 206.57 46.02"/><polygon class="cls-2" points="265.56 2.33 265.56 16.11 265.56 80.95 265.56 81.28 265.56 81.65 265.56 92.05 267.69 92.05 267.69 16.11 267.69 16.11 267.69 2.33 267.69 2.33 267.69 0 265.56 0 265.56 2.33"/><polygon class="cls-2" points="295.04 60.13 295.04 70.69 297.17 70.69 297.17 70.69 297.17 70.69 297.17 59.8 297.17 46.02 297.17 0 295.04 0 295.04 60.13"/><polygon class="cls-2" points="354.07 2.33 354.06 2.33 354.07 16.11 354.06 16.11 354.07 92.05 356.2 92.05 356.2 81.65 356.2 81.28 356.2 80.95 356.2 16.11 356.2 2.33 356.2 0 354.07 0 354.07 2.33"/><polygon class="cls-2" points="324.59 46.02 324.59 59.8 324.59 70.69 324.59 70.69 324.59 70.69 326.72 70.69 326.72 60.13 326.72 0 324.59 0 324.59 46.02"/><polygon class="cls-2" points="383.58 2.33 383.58 16.11 383.58 80.95 383.58 81.28 383.58 81.65 383.58 92.05 385.71 92.05 385.72 16.11 385.72 16.11 385.72 2.33 385.72 2.33 385.72 0 383.58 0 383.58 2.33"/><polygon class="cls-2" points="413.06 60.13 413.06 70.69 415.19 70.69 415.19 70.69 415.19 70.69 415.19 59.8 415.19 46.02 415.19 0 413.06 0 413.06 60.13"/><polygon class="cls-2" points="472.09 2.33 472.09 2.33 472.09 16.11 472.09 16.11 472.09 92.05 474.22 92.05 474.22 81.65 474.22 81.28 474.22 80.95 474.22 16.11 474.22 2.33 474.22 0 472.09 0 472.09 2.33"/><polygon class="cls-2" points="442.61 46.02 442.61 59.8 442.61 70.69 442.61 70.69 442.61 70.69 444.74 70.69 444.74 60.13 444.74 0 442.61 0 442.61 46.02"/><polygon class="cls-2" points="501.61 2.33 501.61 16.11 501.61 80.95 501.61 81.28 501.61 81.65 501.61 92.05 503.74 92.05 503.74 16.11 503.74 16.11 503.74 2.33 503.74 2.33 503.74 0 501.61 0 501.61 2.33"/><polygon class="cls-2" points="531.08 60.13 531.08 70.69 533.22 70.69 533.22 70.69 533.22 70.69 533.22 59.8 533.22 46.02 533.22 0 531.08 0 531.08 60.13"/><polygon class="cls-2" points="590.11 2.33 590.11 2.33 590.11 16.11 590.11 16.11 590.11 92.05 592.24 92.05 592.24 81.65 592.24 81.28 592.24 80.95 592.24 16.11 592.24 2.33 592.24 0 590.11 0 590.11 2.33"/><polygon class="cls-2" points="560.63 46.02 560.63 59.8 560.63 70.69 560.63 70.69 560.63 70.69 562.76 70.69 562.76 60.13 562.76 0 560.63 0 560.63 46.02"/><polygon class="cls-2" points="619.63 2.33 619.63 16.11 619.63 80.95 619.63 81.28 619.63 81.65 619.63 92.05 621.76 92.05 621.76 16.11 621.76 16.11 621.76 2.33 621.76 2.33 621.76 0 619.63 0 619.63 2.33"/><polygon class="cls-2" points="649.11 60.13 649.11 70.69 651.24 70.69 651.24 70.69 651.24 70.69 651.24 59.8 651.24 46.02 651.24 0 649.11 0 649.11 60.13"/><polygon class="cls-2" points="708.13 2.33 708.13 2.33 708.13 16.11 708.13 16.11 708.13 92.05 710.26 92.05 710.26 81.65 710.26 81.28 710.26 80.95 710.26 16.11 710.26 2.33 710.26 0 708.13 0 708.13 2.33"/><polygon class="cls-2" points="678.65 46.02 678.65 59.8 678.65 70.69 678.65 70.69 678.65 70.69 680.78 70.69 680.78 60.13 680.78 0 678.65 0 678.65 46.02"/><polygon class="cls-2" points="737.65 2.33 737.65 16.11 737.65 80.95 737.65 81.28 737.65 81.65 737.65 92.05 739.78 92.05 739.78 16.11 739.78 16.11 739.78 2.33 739.78 2.33 739.78 0 737.65 0 737.65 2.33"/><polygon class="cls-2" points="767.13 60.13 767.13 70.69 769.26 70.69 769.26 70.69 769.26 70.69 769.26 59.8 769.26 46.02 769.26 0 767.13 0 767.13 60.13"/><polygon class="cls-2" points="826.15 2.33 826.15 2.33 826.15 16.11 826.15 16.11 826.15 92.05 828.28 92.05 828.28 81.65 828.28 81.28 828.28 80.95 828.28 16.11 828.28 2.33 828.28 0 826.15 0 826.15 2.33"/><polygon class="cls-2" points="796.67 46.02 796.67 59.8 796.67 70.69 796.68 70.69 796.68 70.69 798.81 70.69 798.81 60.13 798.81 0 796.67 0 796.67 46.02"/><polygon class="cls-2" points="855.67 2.33 855.67 16.11 855.67 80.95 855.67 81.28 855.67 81.65 855.67 92.05 857.8 92.05 857.8 16.11 857.8 16.11 857.8 2.33 857.8 2.33 857.8 0 855.67 0 855.67 2.33"/><polygon class="cls-2" points="885.15 60.13 885.15 70.69 887.28 70.69 887.28 70.69 887.28 70.69 887.28 59.8 887.28 46.02 887.28 0 885.15 0 885.15 60.13"/><polygon class="cls-2" points="944.17 2.33 944.17 2.33 944.17 16.11 944.17 16.11 944.18 92.05 946.31 92.05 946.31 81.65 946.31 81.28 946.31 80.95 946.31 16.11 946.31 2.33 946.31 0 944.17 0 944.17 2.33"/><polygon class="cls-2" points="914.7 46.02 914.7 59.8 914.7 70.69 914.7 70.69 914.7 70.69 916.83 70.69 916.83 60.13 916.83 0 914.7 0 914.7 46.02"/><polygon class="cls-2" points="973.69 2.33 973.69 16.11 973.69 80.95 973.69 81.28 973.69 81.65 973.69 92.05 975.82 92.05 975.83 16.11 975.83 16.11 975.83 2.33 975.83 2.33 975.83 0 973.69 0 973.69 2.33"/><polygon class="cls-2" points="1003.17 60.13 1003.17 70.69 1005.3 70.69 1005.3 70.69 1005.3 70.69 1005.3 59.8 1005.3 46.02 1005.3 0 1003.17 0 1003.17 60.13"/><polygon class="cls-2" points="1062.2 2.33 1062.2 2.33 1062.2 16.11 1062.2 16.11 1062.2 92.05 1064.33 92.05 1064.33 81.65 1064.33 81.28 1064.33 80.95 1064.33 16.11 1064.33 2.33 1064.33 0 1062.2 0 1062.2 2.33"/><polygon class="cls-2" points="1032.72 46.02 1032.72 59.8 1032.72 70.69 1032.72 70.69 1032.72 70.69 1034.85 70.69 1034.85 60.13 1034.85 0 1032.72 0 1032.72 46.02"/><polygon class="cls-2" points="1091.72 2.33 1091.72 16.11 1091.72 80.95 1091.72 81.28 1091.72 81.65 1091.72 92.05 1093.85 92.05 1093.85 16.11 1093.85 16.11 1093.85 2.33 1093.85 2.33 1093.85 0 1091.72 0 1091.72 2.33"/><polygon class="cls-2" points="1121.19 60.13 1121.19 70.69 1123.32 70.69 1123.32 70.69 1123.33 70.69 1123.33 59.8 1123.33 46.02 1123.33 0 1121.19 0 1121.19 60.13"/><polygon class="cls-2" points="1180.22 2.33 1180.22 2.33 1180.22 16.11 1180.22 16.11 1180.22 92.05 1182.35 92.05 1182.35 81.65 1182.35 81.28 1182.35 80.95 1182.35 16.11 1182.35 2.33 1182.35 0 1180.22 0 1180.22 2.33"/><polygon class="cls-2" points="1150.74 46.02 1150.74 59.8 1150.74 70.69 1150.74 70.69 1150.74 70.69 1152.87 70.69 1152.87 60.13 1152.87 0 1150.74 0 1150.74 46.02"/><polygon class="cls-2" points="1209.74 2.33 1209.74 16.11 1209.74 80.95 1209.74 81.28 1209.74 81.65 1209.74 92.05 1211.87 92.05 1211.87 16.11 1211.87 16.11 1211.87 2.33 1211.87 2.33 1211.87 0 1209.74 0 1209.74 2.33"/><polygon class="cls-2" points="1239.21 60.13 1239.21 70.69 1241.35 70.69 1241.35 70.69 1241.35 70.69 1241.35 59.8 1241.35 46.02 1241.35 0 1239.21 0 1239.21 60.13"/><polygon class="cls-2" points="1298.24 2.33 1298.24 2.33 1298.24 16.11 1298.24 16.11 1298.24 92.05 1300.37 92.05 1300.37 81.65 1300.37 81.28 1300.37 80.95 1300.37 16.11 1300.37 2.33 1300.37 0 1298.24 0 1298.24 2.33"/><polygon class="cls-2" points="1268.76 46.02 1268.76 59.8 1268.76 70.69 1268.76 70.69 1268.76 70.69 1270.89 70.69 1270.89 60.13 1270.89 0 1268.76 0 1268.76 46.02"/><polygon class="cls-2" points="1327.76 2.33 1327.76 16.11 1327.76 80.95 1327.76 81.28 1327.76 81.65 1327.76 92.05 1329.89 92.05 1329.89 16.11 1329.89 16.11 1329.89 2.33 1329.89 2.33 1329.89 0 1327.76 0 1327.76 2.33"/><polygon class="cls-2" points="1357.24 60.13 1357.24 70.69 1359.37 70.69 1359.37 70.69 1359.37 70.69 1359.37 59.8 1359.37 46.02 1359.37 0 1357.24 0 1357.24 60.13"/><polygon class="cls-2" points="1416.26 2.33 1416.26 2.33 1416.26 16.11 1416.26 16.11 1416.26 92.05 1418.39 92.05 1418.39 81.65 1418.39 81.28 1418.39 80.95 1418.39 16.11 1418.39 2.33 1418.39 0 1416.26 0 1416.26 2.33"/><polygon class="cls-2" points="1386.78 46.02 1386.78 59.8 1386.78 70.69 1386.79 70.69 1386.79 70.69 1388.92 70.69 1388.92 60.13 1388.92 0 1386.78 0 1386.78 46.02"/><polygon class="cls-2" points="1445.78 2.33 1445.78 16.11 1445.78 80.95 1445.78 81.28 1445.78 81.65 1445.78 92.05 1447.91 92.05 1447.91 16.11 1447.91 16.11 1447.91 2.33 1447.91 2.33 1447.91 0 1445.78 0 1445.78 2.33"/><polygon class="cls-2" points="1475.26 60.13 1475.26 70.69 1477.39 70.69 1477.39 70.69 1477.39 70.69 1477.39 59.8 1477.39 46.02 1477.39 0 1475.26 0 1475.26 60.13"/><polygon class="cls-2" points="1534.28 2.33 1534.28 2.33 1534.28 16.11 1534.28 16.11 1534.29 92.05 1536.42 92.05 1536.42 81.65 1536.42 81.28 1536.42 80.95 1536.42 16.11 1536.42 2.33 1536.42 0 1534.28 0 1534.28 2.33"/><polygon class="cls-2" points="1504.81 46.02 1504.81 59.8 1504.81 70.69 1504.81 70.69 1504.81 70.69 1506.94 70.69 1506.94 60.13 1506.94 0 1504.81 0 1504.81 46.02"/><polygon class="cls-2" points="1563.8 2.33 1563.8 16.11 1563.8 80.95 1563.8 81.28 1563.8 81.65 1563.8 92.05 1565.93 92.05 1565.93 16.11 1565.93 16.11 1565.93 2.33 1565.93 2.33 1565.93 0 1563.8 0 1563.8 2.33"/><polygon class="cls-2" points="1593.28 60.13 1593.28 70.69 1595.41 70.69 1595.41 70.69 1595.41 70.69 1595.41 59.8 1595.41 46.02 1595.41 0 1593.28 0 1593.28 60.13"/><polygon class="cls-2" points="1652.31 2.33 1652.31 2.33 1652.31 16.11 1652.31 16.11 1652.31 92.05 1654.44 92.05 1654.44 81.65 1654.44 81.28 1654.44 80.95 1654.44 16.11 1654.44 2.33 1654.44 0 1652.31 0 1652.31 2.33"/><polygon class="cls-2" points="1622.83 46.02 1622.83 59.8 1622.83 70.69 1622.83 70.69 1622.83 70.69 1624.96 70.69 1624.96 60.13 1624.96 0 1622.83 0 1622.83 46.02"/><polygon class="cls-2" points="1681.82 2.33 1681.82 16.11 1681.82 80.95 1681.82 81.28 1681.82 81.65 1681.82 92.05 1683.95 92.05 1683.96 16.11 1683.96 16.11 1683.96 2.33 1683.96 2.33 1683.96 0 1681.82 0 1681.82 2.33"/><polygon class="cls-2" points="1711.3 60.13 1711.3 70.69 1713.43 70.69 1713.43 70.69 1713.43 70.69 1713.43 59.8 1713.43 46.02 1713.43 0 1711.3 0 1711.3 60.13"/><polygon class="cls-2" points="1770.33 2.33 1770.33 2.33 1770.33 16.11 1770.33 16.11 1770.33 92.05 1772.46 92.05 1772.46 81.65 1772.46 81.28 1772.46 80.95 1772.46 16.11 1772.46 2.33 1772.46 0 1770.33 0 1770.33 2.33"/><polygon class="cls-2" points="1740.85 46.02 1740.85 59.8 1740.85 70.69 1740.85 70.69 1740.85 70.69 1742.98 70.69 1742.98 60.13 1742.98 0 1740.85 0 1740.85 46.02"/><polygon class="cls-2" points="1799.85 2.33 1799.85 16.11 1799.85 80.95 1799.85 81.28 1799.85 81.65 1799.85 92.05 1801.98 92.05 1801.98 16.11 1801.98 16.11 1801.98 2.33 1801.98 2.33 1801.98 0 1799.85 0 1799.85 2.33"/><polygon class="cls-2" points="1829.32 60.13 1829.32 70.69 1831.45 70.69 1831.45 70.69 1831.46 70.69 1831.46 59.8 1831.46 46.02 1831.46 0 1829.32 0 1829.32 60.13"/><polygon class="cls-2" points="1888.35 2.33 1888.35 2.33 1888.35 16.11 1888.35 16.11 1888.35 92.05 1890.48 92.05 1890.48 81.65 1890.48 80.95 1890.48 16.11 1890.48 2.33 1890.48 0 1888.35 0 1888.35 2.33"/><polygon class="cls-2" points="1858.87 46.02 1858.87 59.8 1858.87 70.69 1858.87 70.69 1858.87 70.69 1861 70.69 1861 60.13 1861 0 1858.87 0 1858.87 46.02"/><polygon class="cls-2" points="1917.87 81.28 1917.87 92.05 1920 92.05 1920 0 1917.87 0 1917.87 81.28"/></g></g></svg>