<svg xmlns="http://www.w3.org/2000/svg" viewBox="0 0 1920.84 92.09"><defs><style>.cls-1{fill:none;}.cls-2{fill:#294b60;}</style></defs><title>Asset 3</title><g id="Layer_2" data-name="Layer 2"><g id="Layer_1-2" data-name="Layer 1"><path class="cls-1" d="M575.42.57l.18-.1,0,0,.55-.35h-1.46c.17.12.33.25.51.36Z"/><path class="cls-1" d="M655.73.47l.18.1.17-.11c.18-.12.34-.24.51-.36h-1.46l.55.35Z"/><path class="cls-1" d="M455.51.57l.18-.1,0,0,.55-.35h-1.46c.17.12.33.25.51.36Z"/><path class="cls-1" d="M535.81.47l.18.1.17-.11c.18-.12.34-.24.51-.36h-1.46l.55.35Z"/><path class="cls-1" d="M815.26.57l.18-.1,0,0L816,.09h-1.46c.17.12.33.25.51.36Z"/><path class="cls-1" d="M895.56.47l.18.1.17-.11c.18-.12.34-.24.51-.36H895l.55.35Z"/><path class="cls-1" d="M695.34.57l.18-.1,0,0,.55-.35h-1.46c.17.12.33.25.51.36Z"/><path class="cls-1" d="M775.64.47l.18.1L776,.46c.18-.12.34-.24.51-.36H775l.55.35Z"/><path class="cls-1" d="M95.76.57l.18-.1,0,0,.55-.35H95.07c.17.12.33.25.51.36Z"/><path class="cls-1" d="M176.06.47l.18.1.17-.11c.18-.12.34-.24.51-.36h-1.46l.55.35Z"/><path class="cls-1" d="M56.14.47l.18.1L56.5.46c.18-.12.34-.24.51-.36H55.55l.55.35Z"/><path class="cls-1" d="M215.67.57l.18-.1,0,0,.55-.35H215c.17.12.33.25.51.36Z"/><path class="cls-1" d="M296,.47l.18.1.17-.11c.18-.12.34-.24.51-.36h-1.46l.55.35Z"/><path class="cls-1" d="M335.59.57l.18-.1,0,0,.55-.35h-1.46c.17.12.33.25.51.36Z"/><path class="cls-1" d="M415.89.47l.18.1.17-.11c.18-.12.34-.24.51-.36H415.3l.55.35Z"/><path class="cls-1" d="M1894.51.57l.18-.1,0,0,.55-.35h-1.46c.17.12.33.25.51.36Z"/><path class="cls-1" d="M1854.9.47l.18.1.17-.11c.18-.12.34-.24.51-.36h-1.46l.55.35Z"/><path class="cls-1" d="M1778,1.85l-.5.29.46.27a13.88,13.88,0,0,0,6.9,1.85,13.87,13.87,0,0,0,6.91-1.85l.5-.29-.46-.27a13.9,13.9,0,0,0-5.37-1.75h-3.07A13.86,13.86,0,0,0,1778,1.85Z"/><path class="cls-1" d="M1654.68.57l.18-.1,0,0,.55-.35H1654c.17.12.33.25.51.36Z"/><path class="cls-1" d="M1774.6.57l.18-.1,0,0,.55-.35h-1.46c.17.12.33.25.51.36Z"/><path class="cls-1" d="M1615.06.47l.18.1.17-.11c.18-.12.34-.24.51-.36h-1.46l.55.35Z"/><path class="cls-1" d="M1735,.47l.18.1.17-.11c.18-.12.34-.24.51-.36h-1.46l.55.35Z"/><path class="cls-1" d="M1055.09.57l.18-.1,0,0,.55-.35h-1.46c.17.12.33.25.51.36Z"/><path class="cls-1" d="M935.18.57l.18-.1,0,0L936,.09h-1.46c.17.12.33.25.51.36Z"/><path class="cls-1" d="M1015.48.47l.18.1.17-.11c.18-.12.34-.24.51-.36h-1.46l.55.35Z"/><path class="cls-1" d="M1414.85.57l.18-.1,0,0,.55-.35h-1.46c.17.12.33.25.51.36Z"/><path class="cls-1" d="M1375.23.47l.18.1.17-.11c.18-.12.34-.24.51-.36h-1.46l.55.35Z"/><path class="cls-1" d="M1534.76.57l.18-.1,0,0,.55-.35h-1.46c.17.12.33.25.51.36Z"/><path class="cls-1" d="M1495.15.47l.18.1.17-.11c.18-.12.34-.24.51-.36h-1.46l.55.35Z"/><path class="cls-1" d="M1175,.57l.18-.1,0,0,.55-.35h-1.46c.17.12.33.25.51.36Z"/><path class="cls-1" d="M1255.31.47l.18.1.17-.11c.18-.12.34-.24.51-.36h-1.46l.55.35Z"/><path class="cls-1" d="M1294.93.57l.18-.1,0,0,.55-.35h-1.46c.17.12.33.25.51.36Z"/><path class="cls-2" d="M30,5.55V9.08a17.79,17.79,0,0,1,2.17-2.53V3A17.79,17.79,0,0,1,30,5.55Z"/><path class="cls-2" d="M30,19.55v3.53a17.79,17.79,0,0,1,2.17-2.53V17A17.79,17.79,0,0,1,30,19.55Z"/><path class="cls-2" d="M30,33.55v3.53a17.79,17.79,0,0,1,2.17-2.53V31A17.79,17.79,0,0,1,30,33.55Z"/><path class="cls-2" d="M30,47.55v3.53a17.79,17.79,0,0,1,2.17-2.53V45A17.79,17.79,0,0,1,30,47.55Z"/><path class="cls-2" d="M30,61.55v3.53a17.79,17.79,0,0,1,2.17-2.53V59A17.79,17.79,0,0,1,30,61.55Z"/><path class="cls-2" d="M90.62.09a17.36,17.36,0,0,1,1.51,1.84V1.28C91.74,1,91.25.56,90.74.09Z"/><path class="cls-2" d="M59.94,1.28v.66A17.36,17.36,0,0,1,61.46.09h-.12C60.82.56,60.34,1,59.94,1.28Z"/><path class="cls-2" d="M59.94.09V1.28c.39-.31.88-.72,1.39-1.19Z"/><path class="cls-2" d="M62.11,9.82c-.58.47-1.38,1.14-2.17,1.91v3.55c.58-.47,1.38-1.14,2.17-1.91Z"/><path class="cls-2" d="M62.11,23.82c-.58.47-1.38,1.14-2.17,1.91v3.55c.58-.47,1.38-1.14,2.17-1.91Z"/><path class="cls-2" d="M62.11,37.82c-.58.47-1.38,1.14-2.17,1.91v3.55c.58-.47,1.38-1.14,2.17-1.91Z"/><path class="cls-2" d="M90.74.09c.52.47,1,.87,1.39,1.19V.09Z"/><path class="cls-2" d="M90,9.82v3.55c.78.77,1.58,1.44,2.17,1.91V11.73C91.35,11,90.55,10.29,90,9.82Z"/><path class="cls-2" d="M90,23.82v3.55c.78.77,1.58,1.44,2.17,1.91V25.73C91.35,25,90.55,24.29,90,23.82Z"/><path class="cls-2" d="M90,37.82v3.55c.78.77,1.58,1.44,2.17,1.91V39.73C91.35,39,90.55,38.29,90,37.82Z"/><path class="cls-2" d="M179.86,1.93v9.75A17.8,17.8,0,0,0,182,9.17V.09h-.66A17.36,17.36,0,0,0,179.86,1.93Z"/><path class="cls-2" d="M179.86,70.38H182v-15c-.78.77-1.58,1.44-2.17,1.91Z"/><path class="cls-2" d="M179.86,39.69A17.79,17.79,0,0,0,182,37.17V27.41a17.8,17.8,0,0,0-2.17,2.52Z"/><path class="cls-2" d="M179.86,25.69A17.79,17.79,0,0,0,182,23.17V13.41a17.79,17.79,0,0,0-2.17,2.52Z"/><path class="cls-2" d="M179.86,53.69A17.79,17.79,0,0,0,182,51.17V41.41a17.79,17.79,0,0,0-2.17,2.52Z"/><path class="cls-2" d="M179.86,11.73c.78-.77,1.58-1.44,2.17-1.91V9.17a17.8,17.8,0,0,1-2.17,2.52Z"/><path class="cls-2" d="M179.86,25.73c.78-.77,1.58-1.44,2.17-1.91v-.66a17.79,17.79,0,0,1-2.17,2.52Z"/><path class="cls-2" d="M179.86,39.73c.78-.77,1.58-1.44,2.17-1.91v-.66a17.79,17.79,0,0,1-2.17,2.52Z"/><path class="cls-2" d="M179.86,57.28c.58-.47,1.38-1.14,2.17-1.91V51.17a17.79,17.79,0,0,1-2.17,2.53Z"/><path class="cls-2" d="M122.08,5.55A17.79,17.79,0,0,1,119.92,3V6.56a17.79,17.79,0,0,1,2.17,2.53Z"/><path class="cls-2" d="M149.91,5.55V9.08a17.79,17.79,0,0,1,2.17-2.53V3A17.79,17.79,0,0,1,149.91,5.55Z"/><path class="cls-2" d="M122.08,19.55A17.79,17.79,0,0,1,119.92,17v3.53a17.79,17.79,0,0,1,2.17,2.53Z"/><path class="cls-2" d="M149.91,19.55v3.53a17.79,17.79,0,0,1,2.17-2.53V17A17.79,17.79,0,0,1,149.91,19.55Z"/><path class="cls-2" d="M122.08,33.55A17.79,17.79,0,0,1,119.92,31v3.53a17.79,17.79,0,0,1,2.17,2.53Z"/><path class="cls-2" d="M149.91,33.55v3.53a17.79,17.79,0,0,1,2.17-2.53V31A17.79,17.79,0,0,1,149.91,33.55Z"/><path class="cls-2" d="M122.08,47.55A17.79,17.79,0,0,1,119.92,45v3.53a17.79,17.79,0,0,1,2.17,2.53Z"/><path class="cls-2" d="M149.91,47.55v3.53a17.79,17.79,0,0,1,2.17-2.53V45A17.79,17.79,0,0,1,149.91,47.55Z"/><path class="cls-2" d="M122.08,61.55A17.79,17.79,0,0,1,119.92,59v3.53a17.79,17.79,0,0,1,2.17,2.53Z"/><path class="cls-2" d="M149.91,61.55v3.53a17.79,17.79,0,0,1,2.17-2.53V59A17.79,17.79,0,0,1,149.91,61.55Z"/><path class="cls-2" d="M210.54.09A17.36,17.36,0,0,1,212,1.94V1.28c-.39-.31-.88-.72-1.39-1.19Z"/><polygon class="cls-2" points="179.86 1.28 179.86 1.94 179.86 1.94 179.86 1.28 179.86 1.28"/><path class="cls-2" d="M181.26.09c-.52.47-1,.87-1.39,1.19v.66A17.36,17.36,0,0,1,181.37.09Z"/><polygon class="cls-2" points="179.86 0.09 179.86 0.09 179.86 1.28 179.86 1.28 179.86 0.09"/><path class="cls-2" d="M179.86,1.28c.39-.31.88-.72,1.39-1.19h-1.39Z"/><polygon class="cls-2" points="179.86 15.28 179.86 15.94 179.86 15.94 179.86 15.28 179.86 15.28"/><path class="cls-2" d="M179.86,15.28v.66A17.79,17.79,0,0,1,182,13.41v0C181.24,14.14,180.45,14.81,179.86,15.28Z"/><polygon class="cls-2" points="179.86 11.73 179.86 11.73 179.86 15.28 179.86 15.28 179.86 11.73"/><path class="cls-2" d="M179.86,15.28c.58-.47,1.38-1.14,2.17-1.91V9.82c-.58.47-1.38,1.14-2.17,1.91Z"/><polygon class="cls-2" points="179.86 29.28 179.86 29.94 179.86 29.93 179.86 29.28 179.86 29.28"/><path class="cls-2" d="M179.86,29.28v.66A17.8,17.8,0,0,1,182,27.41v0C181.24,28.14,180.45,28.81,179.86,29.28Z"/><polygon class="cls-2" points="179.86 25.73 179.86 25.73 179.86 29.28 179.86 29.28 179.86 25.73"/><path class="cls-2" d="M179.86,29.28c.58-.47,1.38-1.14,2.17-1.91V23.82c-.58.47-1.38,1.14-2.17,1.91Z"/><polygon class="cls-2" points="179.86 43.28 179.86 43.94 179.86 43.94 179.86 43.28 179.86 43.28"/><path class="cls-2" d="M179.86,43.28v.66A17.79,17.79,0,0,1,182,41.41v0C181.24,42.14,180.45,42.81,179.86,43.28Z"/><polygon class="cls-2" points="179.86 39.73 179.86 39.73 179.86 43.28 179.86 43.28 179.86 39.73"/><path class="cls-2" d="M179.86,43.28c.58-.47,1.38-1.14,2.17-1.91V37.82c-.58.47-1.38,1.14-2.17,1.91Z"/><path class="cls-2" d="M210.65.09c.52.47,1,.87,1.39,1.19V.09Z"/><path class="cls-2" d="M212,15.28V11.73c-.78-.77-1.58-1.44-2.17-1.91v3.55C210.67,14.14,211.47,14.81,212,15.28Z"/><path class="cls-2" d="M212,29.28V25.73c-.78-.77-1.58-1.44-2.17-1.91v3.55C210.67,28.14,211.47,28.81,212,29.28Z"/><path class="cls-2" d="M212,43.28V39.73c-.78-.77-1.58-1.44-2.17-1.91v3.55C210.67,42.14,211.47,42.81,212,43.28Z"/><path class="cls-2" d="M242,5.55A17.79,17.79,0,0,1,239.83,3V6.56A17.79,17.79,0,0,1,242,9.08Z"/><path class="cls-2" d="M269.83,5.55V9.08A17.79,17.79,0,0,1,272,6.56V3A17.79,17.79,0,0,1,269.83,5.55Z"/><path class="cls-2" d="M239.83,20.56A17.79,17.79,0,0,1,242,23.08V19.55A17.79,17.79,0,0,1,239.83,17Z"/><path class="cls-2" d="M272,20.56V17a17.79,17.79,0,0,1-2.17,2.53v3.53A17.79,17.79,0,0,1,272,20.56Z"/><path class="cls-2" d="M239.83,34.56A17.79,17.79,0,0,1,242,37.08V33.55A17.79,17.79,0,0,1,239.83,31Z"/><path class="cls-2" d="M272,34.56V31a17.79,17.79,0,0,1-2.17,2.53v3.53A17.79,17.79,0,0,1,272,34.56Z"/><path class="cls-2" d="M239.83,48.56A17.79,17.79,0,0,1,242,51.08V47.55A17.79,17.79,0,0,1,239.83,45Z"/><path class="cls-2" d="M272,48.56V45a17.79,17.79,0,0,1-2.17,2.53v3.53A17.79,17.79,0,0,1,272,48.56Z"/><path class="cls-2" d="M242,61.55A17.79,17.79,0,0,1,239.83,59v3.53A17.79,17.79,0,0,1,242,65.08Z"/><path class="cls-2" d="M269.83,61.55v3.53A17.79,17.79,0,0,1,272,62.56V59A17.79,17.79,0,0,1,269.83,61.55Z"/><path class="cls-2" d="M330.46.09A17.36,17.36,0,0,1,332,1.94V1.28c-.39-.31-.88-.72-1.39-1.19Z"/><path class="cls-2" d="M299.78,1.28v.66A17.36,17.36,0,0,1,301.29.09h-.12C300.66.56,300.17,1,299.78,1.28Z"/><path class="cls-2" d="M299.78.09V1.28c.39-.31.88-.72,1.39-1.19Z"/><path class="cls-2" d="M299.78,15.28c.58-.47,1.38-1.14,2.17-1.91V9.82c-.58.47-1.38,1.14-2.17,1.91Z"/><path class="cls-2" d="M299.78,29.28c.58-.47,1.38-1.14,2.17-1.91V23.82c-.58.47-1.38,1.14-2.17,1.91Z"/><path class="cls-2" d="M299.78,43.28c.58-.47,1.38-1.14,2.17-1.91V37.82c-.58.47-1.38,1.14-2.17,1.91Z"/><path class="cls-2" d="M330.57.09c.52.47,1,.87,1.39,1.19V.09Z"/><path class="cls-2" d="M332,15.28V11.73c-.78-.77-1.58-1.44-2.17-1.91v3.55C330.58,14.14,331.38,14.81,332,15.28Z"/><path class="cls-2" d="M332,29.28V25.73c-.78-.77-1.58-1.44-2.17-1.91v3.55C330.58,28.14,331.38,28.81,332,29.28Z"/><path class="cls-2" d="M332,43.28V39.73c-.78-.77-1.58-1.44-2.17-1.91v3.55C330.58,42.14,331.38,42.81,332,43.28Z"/><path class="cls-2" d="M361.92,5.55A17.79,17.79,0,0,1,359.75,3V6.56a17.79,17.79,0,0,1,2.17,2.53Z"/><path class="cls-2" d="M389.74,5.55V9.08a17.79,17.79,0,0,1,2.17-2.53V3A17.79,17.79,0,0,1,389.74,5.55Z"/><path class="cls-2" d="M359.75,20.56a17.79,17.79,0,0,1,2.17,2.53V19.55A17.79,17.79,0,0,1,359.75,17Z"/><path class="cls-2" d="M391.91,20.56V17a17.79,17.79,0,0,1-2.17,2.53v3.53A17.79,17.79,0,0,1,391.91,20.56Z"/><path class="cls-2" d="M359.75,34.56a17.79,17.79,0,0,1,2.17,2.53V33.55A17.79,17.79,0,0,1,359.75,31Z"/><path class="cls-2" d="M391.91,34.56V31a17.79,17.79,0,0,1-2.17,2.53v3.53A17.79,17.79,0,0,1,391.91,34.56Z"/><path class="cls-2" d="M359.75,48.56a17.79,17.79,0,0,1,2.17,2.53V47.55A17.79,17.79,0,0,1,359.75,45Z"/><path class="cls-2" d="M391.91,48.56V45a17.79,17.79,0,0,1-2.17,2.53v3.53A17.79,17.79,0,0,1,391.91,48.56Z"/><path class="cls-2" d="M361.92,61.55A17.79,17.79,0,0,1,359.75,59v3.53a17.79,17.79,0,0,1,2.17,2.53Z"/><path class="cls-2" d="M389.74,61.55v3.53a17.79,17.79,0,0,1,2.17-2.53V59A17.79,17.79,0,0,1,389.74,61.55Z"/><path class="cls-2" d="M450.37.09a17.36,17.36,0,0,1,1.51,1.84V1.28C451.49,1,451,.56,450.49.09Z"/><path class="cls-2" d="M419.7,1.28v.66A17.36,17.36,0,0,1,421.21.09h-.12C420.57.56,420.09,1,419.7,1.28Z"/><path class="cls-2" d="M419.7.09V1.28c.39-.31.88-.72,1.39-1.19Z"/><path class="cls-2" d="M419.7,15.28c.58-.47,1.38-1.14,2.17-1.91V9.82c-.58.47-1.38,1.14-2.17,1.91Z"/><path class="cls-2" d="M419.7,29.28c.58-.47,1.38-1.14,2.17-1.91V23.82c-.58.47-1.38,1.14-2.17,1.91Z"/><path class="cls-2" d="M419.7,43.28c.58-.47,1.38-1.14,2.17-1.91V37.82c-.58.47-1.38,1.14-2.17,1.91Z"/><path class="cls-2" d="M450.49.09c.52.47,1,.87,1.39,1.19V.09Z"/><path class="cls-2" d="M451.88,15.28V11.73c-.78-.77-1.58-1.44-2.17-1.91v3.55C450.5,14.14,451.3,14.81,451.88,15.28Z"/><path class="cls-2" d="M451.88,29.28V25.73c-.78-.77-1.58-1.44-2.17-1.91v3.55C450.5,28.14,451.3,28.81,451.88,29.28Z"/><path class="cls-2" d="M451.88,43.28V39.73c-.78-.77-1.58-1.44-2.17-1.91v3.55C450.5,42.14,451.3,42.81,451.88,43.28Z"/><path class="cls-2" d="M481.83,5.55A17.79,17.79,0,0,1,479.67,3V6.56a17.79,17.79,0,0,1,2.17,2.53Z"/><path class="cls-2" d="M509.66,5.55V9.08a17.79,17.79,0,0,1,2.17-2.53V3A17.79,17.79,0,0,1,509.66,5.55Z"/><path class="cls-2" d="M479.67,20.56a17.79,17.79,0,0,1,2.17,2.53V19.55A17.79,17.79,0,0,1,479.67,17Z"/><path class="cls-2" d="M511.83,20.56V17a17.79,17.79,0,0,1-2.17,2.53v3.53A17.79,17.79,0,0,1,511.83,20.56Z"/><path class="cls-2" d="M479.67,34.56a17.79,17.79,0,0,1,2.17,2.53V33.55A17.79,17.79,0,0,1,479.67,31Z"/><path class="cls-2" d="M511.83,34.56V31a17.79,17.79,0,0,1-2.17,2.53v3.53A17.79,17.79,0,0,1,511.83,34.56Z"/><path class="cls-2" d="M479.67,48.56a17.79,17.79,0,0,1,2.17,2.53V47.55A17.79,17.79,0,0,1,479.67,45Z"/><path class="cls-2" d="M511.83,48.56V45a17.79,17.79,0,0,1-2.17,2.53v3.53A17.79,17.79,0,0,1,511.83,48.56Z"/><path class="cls-2" d="M481.83,61.55A17.79,17.79,0,0,1,479.67,59v3.53a17.79,17.79,0,0,1,2.17,2.53Z"/><path class="cls-2" d="M509.66,61.55v3.53a17.79,17.79,0,0,1,2.17-2.53V59A17.79,17.79,0,0,1,509.66,61.55Z"/><path class="cls-2" d="M539.61,1.28v.66A17.36,17.36,0,0,1,541.12.09H541C540.49.56,540,1,539.61,1.28Z"/><path class="cls-2" d="M570.29.09a17.36,17.36,0,0,1,1.51,1.84V1.28c-.39-.31-.88-.72-1.39-1.19Z"/><path class="cls-2" d="M539.61.09V1.28C540,1,540.49.56,541,.09Z"/><path class="cls-2" d="M539.61,15.28c.58-.47,1.38-1.14,2.17-1.91V9.82c-.58.47-1.38,1.14-2.17,1.91Z"/><path class="cls-2" d="M539.61,29.28c.58-.47,1.38-1.14,2.17-1.91V23.82c-.58.47-1.38,1.14-2.17,1.91Z"/><path class="cls-2" d="M539.61,43.28c.58-.47,1.38-1.14,2.17-1.91V37.82c-.58.47-1.38,1.14-2.17,1.91Z"/><path class="cls-2" d="M570.41.09c.52.47,1,.87,1.39,1.19V.09Z"/><path class="cls-2" d="M571.8,15.28V11.73c-.78-.77-1.58-1.44-2.17-1.91v3.55C570.42,14.14,571.22,14.81,571.8,15.28Z"/><path class="cls-2" d="M571.8,29.28V25.73c-.78-.77-1.58-1.44-2.17-1.91v3.55C570.42,28.14,571.22,28.81,571.8,29.28Z"/><path class="cls-2" d="M571.8,43.28V39.73c-.78-.77-1.58-1.44-2.17-1.91v3.55C570.42,42.14,571.22,42.81,571.8,43.28Z"/><path class="cls-2" d="M601.75,5.55A17.79,17.79,0,0,1,599.59,3V6.56a17.79,17.79,0,0,1,2.17,2.53Z"/><path class="cls-2" d="M629.58,5.55V9.08a17.79,17.79,0,0,1,2.17-2.53V3A17.79,17.79,0,0,1,629.58,5.55Z"/><path class="cls-2" d="M599.59,20.56a17.79,17.79,0,0,1,2.17,2.53V19.55A17.79,17.79,0,0,1,599.59,17Z"/><path class="cls-2" d="M631.75,20.56V17a17.79,17.79,0,0,1-2.17,2.53v3.53A17.79,17.79,0,0,1,631.75,20.56Z"/><path class="cls-2" d="M599.59,34.56a17.79,17.79,0,0,1,2.17,2.53V33.55A17.79,17.79,0,0,1,599.59,31Z"/><path class="cls-2" d="M631.75,34.56V31a17.79,17.79,0,0,1-2.17,2.53v3.53A17.79,17.79,0,0,1,631.75,34.56Z"/><path class="cls-2" d="M599.59,48.56a17.79,17.79,0,0,1,2.17,2.53V47.55A17.79,17.79,0,0,1,599.59,45Z"/><path class="cls-2" d="M631.75,48.56V45a17.79,17.79,0,0,1-2.17,2.53v3.53A17.79,17.79,0,0,1,631.75,48.56Z"/><path class="cls-2" d="M601.75,61.55A17.79,17.79,0,0,1,599.59,59v3.53a17.79,17.79,0,0,1,2.17,2.53Z"/><path class="cls-2" d="M629.58,61.55v3.53a17.79,17.79,0,0,1,2.17-2.53V59A17.79,17.79,0,0,1,629.58,61.55Z"/><path class="cls-2" d="M690.21.09a17.36,17.36,0,0,1,1.51,1.84V1.28c-.39-.31-.88-.72-1.39-1.19Z"/><path class="cls-2" d="M659.53,1.28v.66A17.36,17.36,0,0,1,661,.09h-.12C660.41.56,659.92,1,659.53,1.28Z"/><path class="cls-2" d="M659.53.09V1.28c.39-.31.88-.72,1.39-1.19Z"/><path class="cls-2" d="M659.53,15.28c.58-.47,1.38-1.14,2.17-1.91V9.82c-.58.47-1.38,1.14-2.17,1.91Z"/><path class="cls-2" d="M659.53,29.28c.58-.47,1.38-1.14,2.17-1.91V23.82c-.58.47-1.38,1.14-2.17,1.91Z"/><path class="cls-2" d="M659.53,43.28c.58-.47,1.38-1.14,2.17-1.91V37.82c-.58.47-1.38,1.14-2.17,1.91Z"/><path class="cls-2" d="M690.32.09c.52.47,1,.87,1.39,1.19V.09Z"/><path class="cls-2" d="M691.72,15.28V11.73c-.78-.77-1.58-1.44-2.17-1.91v3.55C690.34,14.14,691.13,14.81,691.72,15.28Z"/><path class="cls-2" d="M691.72,29.28V25.73c-.78-.77-1.58-1.44-2.17-1.91v3.55C690.34,28.14,691.13,28.81,691.72,29.28Z"/><path class="cls-2" d="M691.72,43.28V39.73c-.78-.77-1.58-1.44-2.17-1.91v3.55C690.34,42.14,691.13,42.81,691.72,43.28Z"/><path class="cls-2" d="M721.67,5.55A17.79,17.79,0,0,1,719.5,3V6.56a17.79,17.79,0,0,1,2.17,2.53Z"/><path class="cls-2" d="M749.5,5.55V9.08a17.79,17.79,0,0,1,2.17-2.53V3A17.79,17.79,0,0,1,749.5,5.55Z"/><path class="cls-2" d="M719.5,20.56a17.79,17.79,0,0,1,2.17,2.53V19.55A17.79,17.79,0,0,1,719.5,17Z"/><path class="cls-2" d="M751.66,20.56V17a17.79,17.79,0,0,1-2.17,2.53v3.53A17.79,17.79,0,0,1,751.66,20.56Z"/><path class="cls-2" d="M719.5,34.56a17.79,17.79,0,0,1,2.17,2.53V33.55A17.79,17.79,0,0,1,719.5,31Z"/><path class="cls-2" d="M751.66,34.56V31a17.79,17.79,0,0,1-2.17,2.53v3.53A17.79,17.79,0,0,1,751.66,34.56Z"/><path class="cls-2" d="M719.5,48.56a17.79,17.79,0,0,1,2.17,2.53V47.55A17.79,17.79,0,0,1,719.5,45Z"/><path class="cls-2" d="M751.66,48.56V45a17.79,17.79,0,0,1-2.17,2.53v3.53A17.79,17.79,0,0,1,751.66,48.56Z"/><path class="cls-2" d="M721.67,61.55A17.79,17.79,0,0,1,719.5,59v3.53a17.79,17.79,0,0,1,2.17,2.53Z"/><path class="cls-2" d="M749.5,61.55v3.53a17.79,17.79,0,0,1,2.17-2.53V59A17.79,17.79,0,0,1,749.5,61.55Z"/><path class="cls-2" d="M779.45,1.28v.66A17.36,17.36,0,0,1,781,.09h-.12C780.32.56,779.84,1,779.45,1.28Z"/><path class="cls-2" d="M810.12.09a17.36,17.36,0,0,1,1.51,1.84V1.28c-.39-.31-.88-.72-1.39-1.19Z"/><path class="cls-2" d="M779.45.09V1.28c.39-.31.88-.72,1.39-1.19Z"/><path class="cls-2" d="M779.45,15.28c.58-.47,1.38-1.14,2.17-1.91V9.82c-.58.47-1.38,1.14-2.17,1.91Z"/><path class="cls-2" d="M779.45,29.28c.58-.47,1.38-1.14,2.17-1.91V23.82c-.58.47-1.38,1.14-2.17,1.91Z"/><path class="cls-2" d="M779.45,43.28c.58-.47,1.38-1.14,2.17-1.91V37.82c-.58.47-1.38,1.14-2.17,1.91Z"/><path class="cls-2" d="M810.24.09c.52.47,1,.87,1.39,1.19V.09Z"/><path class="cls-2" d="M811.64,15.28V11.73c-.78-.77-1.58-1.44-2.17-1.91v3.55C810.25,14.14,811.05,14.81,811.64,15.28Z"/><path class="cls-2" d="M811.64,29.28V25.73c-.78-.77-1.58-1.44-2.17-1.91v3.55C810.25,28.14,811.05,28.81,811.64,29.28Z"/><path class="cls-2" d="M811.64,43.28V39.73c-.78-.77-1.58-1.44-2.17-1.91v3.55C810.25,42.14,811.05,42.81,811.64,43.28Z"/><path class="cls-2" d="M841.59,5.55A17.79,17.79,0,0,1,839.42,3V6.56a17.79,17.79,0,0,1,2.17,2.53Z"/><path class="cls-2" d="M869.41,5.55V9.08a17.79,17.79,0,0,1,2.17-2.53V3A17.79,17.79,0,0,1,869.41,5.55Z"/><path class="cls-2" d="M839.42,20.56a17.79,17.79,0,0,1,2.17,2.53V19.55A17.79,17.79,0,0,1,839.42,17Z"/><path class="cls-2" d="M871.58,20.56V17a17.79,17.79,0,0,1-2.17,2.53v3.53A17.79,17.79,0,0,1,871.58,20.56Z"/><path class="cls-2" d="M839.42,34.56a17.79,17.79,0,0,1,2.17,2.53V33.55A17.79,17.79,0,0,1,839.42,31Z"/><path class="cls-2" d="M871.58,34.56V31a17.79,17.79,0,0,1-2.17,2.53v3.53A17.79,17.79,0,0,1,871.58,34.56Z"/><path class="cls-2" d="M839.42,48.56a17.79,17.79,0,0,1,2.17,2.53V47.55A17.79,17.79,0,0,1,839.42,45Z"/><path class="cls-2" d="M871.58,48.56V45a17.79,17.79,0,0,1-2.17,2.53v3.53A17.79,17.79,0,0,1,871.58,48.56Z"/><path class="cls-2" d="M841.59,61.55A17.79,17.79,0,0,1,839.42,59v3.53a17.79,17.79,0,0,1,2.17,2.53Z"/><path class="cls-2" d="M869.41,61.55v3.53a17.79,17.79,0,0,1,2.17-2.53V59A17.79,17.79,0,0,1,869.41,61.55Z"/><path class="cls-2" d="M899.37,1.28v.66A17.36,17.36,0,0,1,900.88.09h-.12C900.24.56,899.76,1,899.37,1.28Z"/><path class="cls-2" d="M930,.09a17.36,17.36,0,0,1,1.51,1.84V1.28c-.39-.31-.88-.72-1.39-1.19Z"/><path class="cls-2" d="M899.37.09V1.28c.39-.31.88-.72,1.39-1.19Z"/><path class="cls-2" d="M899.37,15.28c.58-.47,1.38-1.14,2.17-1.91V9.82c-.58.47-1.38,1.14-2.17,1.91Z"/><path class="cls-2" d="M899.37,29.28c.58-.47,1.38-1.14,2.17-1.91V23.82c-.58.47-1.38,1.14-2.17,1.91Z"/><path class="cls-2" d="M899.37,43.28c.58-.47,1.38-1.14,2.17-1.91V37.82c-.58.47-1.38,1.14-2.17,1.91Z"/><path class="cls-2" d="M930.16.09c.52.47,1,.87,1.39,1.19V.09Z"/><path class="cls-2" d="M931.55,15.28V11.73c-.78-.77-1.58-1.44-2.17-1.91v3.55C930.17,14.14,931,14.81,931.55,15.28Z"/><path class="cls-2" d="M931.55,29.28V25.73c-.78-.77-1.58-1.44-2.17-1.91v3.55C930.17,28.14,931,28.81,931.55,29.28Z"/><path class="cls-2" d="M931.55,43.28V39.73c-.78-.77-1.58-1.44-2.17-1.91v3.55C930.17,42.14,931,42.81,931.55,43.28Z"/><path class="cls-2" d="M961.5,5.55A17.79,17.79,0,0,1,959.34,3V6.56a17.79,17.79,0,0,1,2.17,2.53Z"/><path class="cls-2" d="M989.33,5.55V9.08a17.79,17.79,0,0,1,2.17-2.53V3A17.79,17.79,0,0,1,989.33,5.55Z"/><path class="cls-2" d="M959.34,20.56a17.79,17.79,0,0,1,2.17,2.53V19.55A17.79,17.79,0,0,1,959.34,17Z"/><path class="cls-2" d="M991.5,20.56V17a17.79,17.79,0,0,1-2.17,2.53v3.53A17.79,17.79,0,0,1,991.5,20.56Z"/><path class="cls-2" d="M959.34,34.56a17.79,17.79,0,0,1,2.17,2.53V33.55A17.79,17.79,0,0,1,959.34,31Z"/><path class="cls-2" d="M991.5,34.56V31a17.79,17.79,0,0,1-2.17,2.53v3.53A17.79,17.79,0,0,1,991.5,34.56Z"/><path class="cls-2" d="M959.34,48.56a17.79,17.79,0,0,1,2.17,2.53V47.55A17.79,17.79,0,0,1,959.34,45Z"/><path class="cls-2" d="M991.5,48.56V45a17.79,17.79,0,0,1-2.17,2.53v3.53A17.79,17.79,0,0,1,991.5,48.56Z"/><path class="cls-2" d="M961.5,61.55A17.79,17.79,0,0,1,959.34,59v3.53a17.79,17.79,0,0,1,2.17,2.53Z"/><path class="cls-2" d="M989.33,61.55v3.53a17.79,17.79,0,0,1,2.17-2.53V59A17.79,17.79,0,0,1,989.33,61.55Z"/><path class="cls-2" d="M1050,.09a17.36,17.36,0,0,1,1.51,1.84V1.28c-.39-.31-.88-.72-1.39-1.19Z"/><path class="cls-2" d="M1019.28,1.28v.66a17.36,17.36,0,0,1,1.51-1.84h-.12C1020.16.56,1019.67,1,1019.28,1.28Z"/><path class="cls-2" d="M1019.28.09V1.28c.39-.31.88-.72,1.39-1.19Z"/><path class="cls-2" d="M1019.28,15.28c.58-.47,1.38-1.14,2.17-1.91V9.82c-.58.47-1.38,1.14-2.17,1.91Z"/><path class="cls-2" d="M1019.28,29.28c.58-.47,1.38-1.14,2.17-1.91V23.82c-.58.47-1.38,1.14-2.17,1.91Z"/><path class="cls-2" d="M1019.28,43.28c.58-.47,1.38-1.14,2.17-1.91V37.82c-.58.47-1.38,1.14-2.17,1.91Z"/><path class="cls-2" d="M1050.08.09c.52.47,1,.87,1.39,1.19V.09Z"/><path class="cls-2" d="M1051.47,15.28V11.73c-.78-.77-1.58-1.44-2.17-1.91v3.55C1050.09,14.14,1050.89,14.81,1051.47,15.28Z"/><path class="cls-2" d="M1051.47,29.28V25.73c-.78-.77-1.58-1.44-2.17-1.91v3.55C1050.09,28.14,1050.89,28.81,1051.47,29.28Z"/><path class="cls-2" d="M1051.47,43.28V39.73c-.78-.77-1.58-1.44-2.17-1.91v3.55C1050.09,42.14,1050.89,42.81,1051.47,43.28Z"/><path class="cls-2" d="M1081.42,5.55A17.8,17.8,0,0,1,1079.25,3V6.56a17.78,17.78,0,0,1,2.17,2.53Z"/><path class="cls-2" d="M1109.25,5.55V9.08a17.8,17.8,0,0,1,2.17-2.53V3A17.79,17.79,0,0,1,1109.25,5.55Z"/><path class="cls-2" d="M1079.25,20.56a17.78,17.78,0,0,1,2.17,2.53V19.55a17.8,17.8,0,0,1-2.17-2.53Z"/><path class="cls-2" d="M1111.41,20.56V17a17.79,17.79,0,0,1-2.17,2.53v3.53A17.8,17.8,0,0,1,1111.41,20.56Z"/><path class="cls-2" d="M1079.25,34.56a17.78,17.78,0,0,1,2.17,2.53V33.55a17.8,17.8,0,0,1-2.17-2.53Z"/><path class="cls-2" d="M1111.41,34.56V31a17.79,17.79,0,0,1-2.17,2.53v3.53A17.8,17.8,0,0,1,1111.41,34.56Z"/><path class="cls-2" d="M1079.25,48.56a17.78,17.78,0,0,1,2.17,2.53V47.55a17.8,17.8,0,0,1-2.17-2.53Z"/><path class="cls-2" d="M1111.41,48.56V45a17.79,17.79,0,0,1-2.17,2.53v3.53A17.8,17.8,0,0,1,1111.41,48.56Z"/><path class="cls-2" d="M1081.42,61.55a17.8,17.8,0,0,1-2.17-2.53v3.53a17.78,17.78,0,0,1,2.17,2.53Z"/><path class="cls-2" d="M1109.25,61.55v3.53a17.8,17.8,0,0,1,2.17-2.53V59A17.79,17.79,0,0,1,1109.25,61.55Z"/><path class="cls-2" d="M1169.88.09a17.36,17.36,0,0,1,1.51,1.84V1.28C1171,1,1170.51.56,1170,.09Z"/><path class="cls-2" d="M1139.2,1.28v.66a17.37,17.37,0,0,1,1.51-1.84h-.12C1140.08.56,1139.59,1,1139.2,1.28Z"/><path class="cls-2" d="M1139.2.09V1.28c.39-.31.88-.72,1.39-1.19Z"/><path class="cls-2" d="M1139.2,15.28c.58-.47,1.38-1.14,2.17-1.91V9.82c-.58.47-1.38,1.14-2.17,1.91Z"/><path class="cls-2" d="M1139.2,29.28c.58-.47,1.38-1.14,2.17-1.91V23.82c-.58.47-1.38,1.14-2.17,1.91Z"/><path class="cls-2" d="M1139.2,43.28c.58-.47,1.38-1.14,2.17-1.91V37.82c-.58.47-1.38,1.14-2.17,1.91Z"/><path class="cls-2" d="M1170,.09c.52.47,1,.87,1.39,1.19V.09Z"/><path class="cls-2" d="M1171.39,15.28V11.73c-.78-.77-1.58-1.44-2.17-1.91v3.55C1170,14.14,1170.8,14.81,1171.39,15.28Z"/><path class="cls-2" d="M1171.39,29.28V25.73c-.78-.77-1.58-1.44-2.17-1.91v3.55C1170,28.14,1170.8,28.81,1171.39,29.28Z"/><path class="cls-2" d="M1171.39,43.28V39.73c-.78-.77-1.58-1.44-2.17-1.91v3.55C1170,42.14,1170.8,42.81,1171.39,43.28Z"/><path class="cls-2" d="M1201.34,5.55A17.8,17.8,0,0,1,1199.17,3V6.56a17.78,17.78,0,0,1,2.17,2.53Z"/><path class="cls-2" d="M1229.17,5.55V9.08a17.8,17.8,0,0,1,2.17-2.53V3A17.79,17.79,0,0,1,1229.17,5.55Z"/><path class="cls-2" d="M1199.17,20.56a17.78,17.78,0,0,1,2.17,2.53V19.55a17.8,17.8,0,0,1-2.17-2.53Z"/><path class="cls-2" d="M1231.33,20.56V17a17.79,17.79,0,0,1-2.17,2.53v3.53A17.8,17.8,0,0,1,1231.33,20.56Z"/><path class="cls-2" d="M1199.17,34.56a17.78,17.78,0,0,1,2.17,2.53V33.55a17.8,17.8,0,0,1-2.17-2.53Z"/><path class="cls-2" d="M1231.33,34.56V31a17.79,17.79,0,0,1-2.17,2.53v3.53A17.8,17.8,0,0,1,1231.33,34.56Z"/><path class="cls-2" d="M1199.17,48.56a17.78,17.78,0,0,1,2.17,2.53V47.55a17.8,17.8,0,0,1-2.17-2.53Z"/><path class="cls-2" d="M1231.33,48.56V45a17.79,17.79,0,0,1-2.17,2.53v3.53A17.8,17.8,0,0,1,1231.33,48.56Z"/><path class="cls-2" d="M1201.34,61.55a17.8,17.8,0,0,1-2.17-2.53v3.53a17.78,17.78,0,0,1,2.17,2.53Z"/><path class="cls-2" d="M1229.17,61.55v3.53a17.8,17.8,0,0,1,2.17-2.53V59A17.79,17.79,0,0,1,1229.17,61.55Z"/><path class="cls-2" d="M1289.79.09a17.36,17.36,0,0,1,1.51,1.84V1.28c-.39-.31-.88-.72-1.39-1.19Z"/><path class="cls-2" d="M1259.12,1.28v.66a17.37,17.37,0,0,1,1.51-1.84h-.12C1260,.56,1259.51,1,1259.12,1.28Z"/><path class="cls-2" d="M1259.12.09V1.28c.39-.31.88-.72,1.39-1.19Z"/><path class="cls-2" d="M1259.12,15.28c.58-.47,1.38-1.14,2.17-1.91V9.82c-.58.47-1.38,1.14-2.17,1.91Z"/><path class="cls-2" d="M1259.12,29.28c.58-.47,1.38-1.14,2.17-1.91V23.82c-.58.47-1.38,1.14-2.17,1.91Z"/><path class="cls-2" d="M1259.12,43.28c.58-.47,1.38-1.14,2.17-1.91V37.82c-.58.47-1.38,1.14-2.17,1.91Z"/><path class="cls-2" d="M1289.91.09c.52.47,1,.87,1.39,1.19V.09Z"/><path class="cls-2" d="M1291.3,15.28V11.73c-.78-.77-1.58-1.44-2.17-1.91v3.55C1289.92,14.14,1290.72,14.81,1291.3,15.28Z"/><path class="cls-2" d="M1291.3,29.28V25.73c-.78-.77-1.58-1.44-2.17-1.91v3.55C1289.92,28.14,1290.72,28.81,1291.3,29.28Z"/><path class="cls-2" d="M1291.3,43.28V39.73c-.78-.77-1.58-1.44-2.17-1.91v3.55C1289.92,42.14,1290.72,42.81,1291.3,43.28Z"/><path class="cls-2" d="M1321.26,5.55A17.8,17.8,0,0,1,1319.09,3V6.56a17.78,17.78,0,0,1,2.17,2.53Z"/><path class="cls-2" d="M1349.08,5.55V9.08a17.8,17.8,0,0,1,2.17-2.53V3A17.79,17.79,0,0,1,1349.08,5.55Z"/><path class="cls-2" d="M1319.09,20.56a17.78,17.78,0,0,1,2.17,2.53V19.55a17.8,17.8,0,0,1-2.17-2.53Z"/><path class="cls-2" d="M1351.25,20.56V17a17.79,17.79,0,0,1-2.17,2.53v3.53A17.8,17.8,0,0,1,1351.25,20.56Z"/><path class="cls-2" d="M1319.09,34.56a17.78,17.78,0,0,1,2.17,2.53V33.55a17.8,17.8,0,0,1-2.17-2.53Z"/><path class="cls-2" d="M1351.25,34.56V31a17.79,17.79,0,0,1-2.17,2.53v3.53A17.8,17.8,0,0,1,1351.25,34.56Z"/><path class="cls-2" d="M1319.09,48.56a17.78,17.78,0,0,1,2.17,2.53V47.55a17.8,17.8,0,0,1-2.17-2.53Z"/><path class="cls-2" d="M1351.25,48.56V45a17.79,17.79,0,0,1-2.17,2.53v3.53A17.8,17.8,0,0,1,1351.25,48.56Z"/><path class="cls-2" d="M1321.26,61.55a17.8,17.8,0,0,1-2.17-2.53v3.53a17.78,17.78,0,0,1,2.17,2.53Z"/><path class="cls-2" d="M1349.08,61.55v3.53a17.8,17.8,0,0,1,2.17-2.53V59A17.79,17.79,0,0,1,1349.08,61.55Z"/><path class="cls-2" d="M1409.71.09a17.36,17.36,0,0,1,1.51,1.84V1.28c-.39-.31-.88-.72-1.39-1.19Z"/><path class="cls-2" d="M1379,1.28v.66a17.37,17.37,0,0,1,1.51-1.84h-.12C1379.91.56,1379.43,1,1379,1.28Z"/><path class="cls-2" d="M1379,.09V1.28c.39-.31.88-.72,1.39-1.19Z"/><path class="cls-2" d="M1379,15.28c.58-.47,1.38-1.14,2.17-1.91V9.82c-.58.47-1.38,1.14-2.17,1.91Z"/><path class="cls-2" d="M1379,29.28c.58-.47,1.38-1.14,2.17-1.91V23.82c-.58.47-1.38,1.14-2.17,1.91Z"/><path class="cls-2" d="M1379,43.28c.58-.47,1.38-1.14,2.17-1.91V37.82c-.58.47-1.38,1.14-2.17,1.91Z"/><path class="cls-2" d="M1409.83.09c.52.47,1,.87,1.39,1.19V.09Z"/><path class="cls-2" d="M1411.22,15.28V11.73c-.78-.77-1.58-1.44-2.17-1.91v3.55C1409.84,14.14,1410.64,14.81,1411.22,15.28Z"/><path class="cls-2" d="M1411.22,29.28V25.73c-.78-.77-1.58-1.44-2.17-1.91v3.55C1409.84,28.14,1410.64,28.81,1411.22,29.28Z"/><path class="cls-2" d="M1411.22,43.28V39.73c-.78-.77-1.58-1.44-2.17-1.91v3.55C1409.84,42.14,1410.64,42.81,1411.22,43.28Z"/><path class="cls-2" d="M1441.17,5.55A17.8,17.8,0,0,1,1439,3V6.56a17.78,17.78,0,0,1,2.17,2.53Z"/><path class="cls-2" d="M1469,5.55V9.08a17.8,17.8,0,0,1,2.17-2.53V3A17.79,17.79,0,0,1,1469,5.55Z"/><path class="cls-2" d="M1439,20.56a17.78,17.78,0,0,1,2.17,2.53V19.55A17.8,17.8,0,0,1,1439,17Z"/><path class="cls-2" d="M1471.17,20.56V17a17.79,17.79,0,0,1-2.17,2.53v3.53A17.8,17.8,0,0,1,1471.17,20.56Z"/><path class="cls-2" d="M1439,34.56a17.78,17.78,0,0,1,2.17,2.53V33.55A17.8,17.8,0,0,1,1439,31Z"/><path class="cls-2" d="M1471.17,34.56V31a17.79,17.79,0,0,1-2.17,2.53v3.53A17.8,17.8,0,0,1,1471.17,34.56Z"/><path class="cls-2" d="M1439,48.56a17.78,17.78,0,0,1,2.17,2.53V47.55A17.8,17.8,0,0,1,1439,45Z"/><path class="cls-2" d="M1471.17,48.56V45a17.79,17.79,0,0,1-2.17,2.53v3.53A17.8,17.8,0,0,1,1471.17,48.56Z"/><path class="cls-2" d="M1441.17,61.55A17.8,17.8,0,0,1,1439,59v3.53a17.78,17.78,0,0,1,2.17,2.53Z"/><path class="cls-2" d="M1469,61.55v3.53a17.8,17.8,0,0,1,2.17-2.53V59A17.79,17.79,0,0,1,1469,61.55Z"/><path class="cls-2" d="M1499,1.28v.66a17.37,17.37,0,0,1,1.51-1.84h-.12C1499.83.56,1499.34,1,1499,1.28Z"/><path class="cls-2" d="M1529.63.09a17.36,17.36,0,0,1,1.51,1.84V1.28c-.39-.31-.88-.72-1.39-1.19Z"/><path class="cls-2" d="M1499,.09V1.28c.39-.31.88-.72,1.39-1.19Z"/><path class="cls-2" d="M1499,15.28c.58-.47,1.38-1.14,2.17-1.91V9.82c-.58.47-1.38,1.14-2.17,1.91Z"/><path class="cls-2" d="M1499,29.28c.58-.47,1.38-1.14,2.17-1.91V23.82c-.58.47-1.38,1.14-2.17,1.91Z"/><path class="cls-2" d="M1499,43.28c.58-.47,1.38-1.14,2.17-1.91V37.82c-.58.47-1.38,1.14-2.17,1.91Z"/><path class="cls-2" d="M1529.74.09c.52.47,1,.87,1.39,1.19V.09Z"/><path class="cls-2" d="M1531.14,15.28V11.73c-.78-.77-1.58-1.44-2.17-1.91v3.55C1529.76,14.14,1530.55,14.81,1531.14,15.28Z"/><path class="cls-2" d="M1531.14,29.28V25.73c-.78-.77-1.58-1.44-2.17-1.91v3.55C1529.76,28.14,1530.55,28.81,1531.14,29.28Z"/><path class="cls-2" d="M1531.14,43.28V39.73c-.78-.77-1.58-1.44-2.17-1.91v3.55C1529.76,42.14,1530.55,42.81,1531.14,43.28Z"/><path class="cls-2" d="M1561.09,5.55A17.8,17.8,0,0,1,1558.92,3V6.56a17.78,17.78,0,0,1,2.17,2.53Z"/><path class="cls-2" d="M1588.92,5.55V9.08a17.8,17.8,0,0,1,2.17-2.53V3A17.79,17.79,0,0,1,1588.92,5.55Z"/><path class="cls-2" d="M1558.92,20.56a17.78,17.78,0,0,1,2.17,2.53V19.55a17.8,17.8,0,0,1-2.17-2.53Z"/><path class="cls-2" d="M1591.08,20.56V17a17.79,17.79,0,0,1-2.17,2.53v3.53A17.8,17.8,0,0,1,1591.08,20.56Z"/><path class="cls-2" d="M1558.92,34.56a17.78,17.78,0,0,1,2.17,2.53V33.55a17.8,17.8,0,0,1-2.17-2.53Z"/><path class="cls-2" d="M1591.08,34.56V31a17.79,17.79,0,0,1-2.17,2.53v3.53A17.8,17.8,0,0,1,1591.08,34.56Z"/><path class="cls-2" d="M1558.92,48.56a17.78,17.78,0,0,1,2.17,2.53V47.55a17.8,17.8,0,0,1-2.17-2.53Z"/><path class="cls-2" d="M1591.08,48.56V45a17.79,17.79,0,0,1-2.17,2.53v3.53A17.8,17.8,0,0,1,1591.08,48.56Z"/><path class="cls-2" d="M1561.09,61.55a17.8,17.8,0,0,1-2.17-2.53v3.53a17.78,17.78,0,0,1,2.17,2.53Z"/><path class="cls-2" d="M1588.92,61.55v3.53a17.8,17.8,0,0,1,2.17-2.53V59A17.79,17.79,0,0,1,1588.92,61.55Z"/><path class="cls-2" d="M1618.87,1.28v.66a17.37,17.37,0,0,1,1.51-1.84h-.12C1619.75.56,1619.26,1,1618.87,1.28Z"/><path class="cls-2" d="M1649.54.09a17.36,17.36,0,0,1,1.51,1.84V1.28c-.39-.31-.88-.72-1.39-1.19Z"/><path class="cls-2" d="M1618.87.09V1.28c.39-.31.88-.72,1.39-1.19Z"/><path class="cls-2" d="M1618.87,15.28c.58-.47,1.38-1.14,2.17-1.91V9.82c-.58.47-1.38,1.14-2.17,1.91Z"/><path class="cls-2" d="M1618.87,29.28c.58-.47,1.38-1.14,2.17-1.91V23.82c-.58.47-1.38,1.14-2.17,1.91Z"/><path class="cls-2" d="M1618.87,43.28c.58-.47,1.38-1.14,2.17-1.91V37.82c-.58.47-1.38,1.14-2.17,1.91Z"/><path class="cls-2" d="M1649.66.09c.52.47,1,.87,1.39,1.19V.09Z"/><path class="cls-2" d="M1651.06,15.28V11.73c-.78-.77-1.58-1.44-2.17-1.91v3.55C1649.67,14.14,1650.47,14.81,1651.06,15.28Z"/><path class="cls-2" d="M1651.06,29.28V25.73c-.78-.77-1.58-1.44-2.17-1.91v3.55C1649.67,28.14,1650.47,28.81,1651.06,29.28Z"/><path class="cls-2" d="M1651.06,43.28V39.73c-.78-.77-1.58-1.44-2.17-1.91v3.55C1649.67,42.14,1650.47,42.81,1651.06,43.28Z"/><path class="cls-2" d="M1681,5.55A17.8,17.8,0,0,1,1678.84,3V6.56A17.78,17.78,0,0,1,1681,9.08Z"/><path class="cls-2" d="M1708.83,5.55V9.08A17.8,17.8,0,0,1,1711,6.56V3A17.79,17.79,0,0,1,1708.83,5.55Z"/><path class="cls-2" d="M1678.84,20.56a17.78,17.78,0,0,1,2.17,2.53V19.55a17.8,17.8,0,0,1-2.17-2.53Z"/><path class="cls-2" d="M1711,20.56V17a17.79,17.79,0,0,1-2.17,2.53v3.53A17.8,17.8,0,0,1,1711,20.56Z"/><path class="cls-2" d="M1678.84,34.56a17.78,17.78,0,0,1,2.17,2.53V33.55a17.8,17.8,0,0,1-2.17-2.53Z"/><path class="cls-2" d="M1711,34.56V31a17.79,17.79,0,0,1-2.17,2.53v3.53A17.8,17.8,0,0,1,1711,34.56Z"/><path class="cls-2" d="M1678.84,48.56a17.78,17.78,0,0,1,2.17,2.53V47.55a17.8,17.8,0,0,1-2.17-2.53Z"/><path class="cls-2" d="M1711,48.56V45a17.79,17.79,0,0,1-2.17,2.53v3.53A17.8,17.8,0,0,1,1711,48.56Z"/><path class="cls-2" d="M1681,61.55a17.8,17.8,0,0,1-2.17-2.53v3.53a17.78,17.78,0,0,1,2.17,2.53Z"/><path class="cls-2" d="M1708.83,61.55v3.53a17.8,17.8,0,0,1,2.17-2.53V59A17.79,17.79,0,0,1,1708.83,61.55Z"/><path class="cls-2" d="M1738.79,1.28v.66A17.37,17.37,0,0,1,1740.3.09h-.12C1739.66.56,1739.18,1,1738.79,1.28Z"/><path class="cls-2" d="M1769.46.09A17.36,17.36,0,0,1,1771,1.94V1.28c-.39-.31-.88-.72-1.39-1.19Z"/><path class="cls-2" d="M1738.79.09V1.28c.39-.31.88-.72,1.39-1.19Z"/><path class="cls-2" d="M1738.79,15.28c.58-.47,1.38-1.14,2.17-1.91V9.82c-.58.47-1.38,1.14-2.17,1.91Z"/><path class="cls-2" d="M1738.79,29.28c.58-.47,1.38-1.14,2.17-1.91V23.82c-.58.47-1.38,1.14-2.17,1.91Z"/><path class="cls-2" d="M1738.79,43.28c.58-.47,1.38-1.14,2.17-1.91V37.82c-.58.47-1.38,1.14-2.17,1.91Z"/><path class="cls-2" d="M1769.58.09c.52.47,1,.87,1.39,1.19V.09Z"/><path class="cls-2" d="M1771,15.28V11.73c-.78-.77-1.58-1.44-2.17-1.91v3.55C1769.59,14.14,1770.39,14.81,1771,15.28Z"/><path class="cls-2" d="M1771,29.28V25.73c-.78-.77-1.58-1.44-2.17-1.91v3.55C1769.59,28.14,1770.39,28.81,1771,29.28Z"/><path class="cls-2" d="M1771,43.28V39.73c-.78-.77-1.58-1.44-2.17-1.91v3.55C1769.59,42.14,1770.39,42.81,1771,43.28Z"/><path class="cls-2" d="M1800.92,5.55A17.8,17.8,0,0,1,1798.76,3V6.56a17.78,17.78,0,0,1,2.17,2.53Z"/><path class="cls-2" d="M1828.75,5.55V9.08a17.8,17.8,0,0,1,2.17-2.53V3A17.79,17.79,0,0,1,1828.75,5.55Z"/><path class="cls-2" d="M1798.76,20.56a17.78,17.78,0,0,1,2.17,2.53V19.55a17.8,17.8,0,0,1-2.17-2.53Z"/><path class="cls-2" d="M1830.92,20.56V17a17.79,17.79,0,0,1-2.17,2.53v3.53A17.8,17.8,0,0,1,1830.92,20.56Z"/><path class="cls-2" d="M1798.76,34.56a17.78,17.78,0,0,1,2.17,2.53V33.55a17.8,17.8,0,0,1-2.17-2.53Z"/><path class="cls-2" d="M1830.92,34.56V31a17.79,17.79,0,0,1-2.17,2.53v3.53A17.8,17.8,0,0,1,1830.92,34.56Z"/><path class="cls-2" d="M1798.76,48.56a17.78,17.78,0,0,1,2.17,2.53V47.55a17.8,17.8,0,0,1-2.17-2.53Z"/><path class="cls-2" d="M1830.92,48.56V45a17.79,17.79,0,0,1-2.17,2.53v3.53A17.8,17.8,0,0,1,1830.92,48.56Z"/><path class="cls-2" d="M1800.92,61.55a17.8,17.8,0,0,1-2.17-2.53v3.53a17.78,17.78,0,0,1,2.17,2.53Z"/><path class="cls-2" d="M1828.75,61.55v3.53a17.8,17.8,0,0,1,2.17-2.53V59A17.79,17.79,0,0,1,1828.75,61.55Z"/><path class="cls-2" d="M1858.7,1.28v.66a17.37,17.37,0,0,1,1.51-1.84h-.12C1859.58.56,1859.09,1,1858.7,1.28Z"/><path class="cls-2" d="M1889.38.09a17.36,17.36,0,0,1,1.51,1.84V1.28c-.39-.31-.88-.72-1.39-1.19Z"/><path class="cls-2" d="M1858.7.09V1.28c.39-.31.88-.72,1.39-1.19Z"/><path class="cls-2" d="M1858.7,15.28c.58-.47,1.38-1.14,2.17-1.91V9.82c-.58.47-1.38,1.14-2.17,1.91Z"/><path class="cls-2" d="M1858.7,29.28c.58-.47,1.38-1.14,2.17-1.91V23.82c-.58.47-1.38,1.14-2.17,1.91Z"/><path class="cls-2" d="M1858.7,43.28c.58-.47,1.38-1.14,2.17-1.91V37.82c-.58.47-1.38,1.14-2.17,1.91Z"/><path class="cls-2" d="M1889.5.09c.52.47,1,.87,1.39,1.19V.09Z"/><path class="cls-2" d="M1890.89,15.28V11.73c-.78-.77-1.58-1.44-2.17-1.91v3.55C1889.51,14.14,1890.31,14.81,1890.89,15.28Z"/><path class="cls-2" d="M1890.89,29.28V25.73c-.78-.77-1.58-1.44-2.17-1.91v3.55C1889.51,28.14,1890.31,28.81,1890.89,29.28Z"/><path class="cls-2" d="M1890.89,43.28V39.73c-.78-.77-1.58-1.44-2.17-1.91v3.55C1889.51,42.14,1890.31,42.81,1890.89,43.28Z"/><path class="cls-2" d="M764,.09h3.07a12.84,12.84,0,0,0-3.07,0Z"/><path class="cls-2" d="M464.26.09h3.07a12.84,12.84,0,0,0-3.07,0Z"/><path class="cls-2" d="M1904.8,0a13.81,13.81,0,0,0-1.54.09h3.07A13.74,13.74,0,0,0,1904.8,0Z"/><path class="cls-2" d="M44.5.09h3.07a12.84,12.84,0,0,0-3.07,0Z"/><path class="cls-2" d="M1663.43.09h3.07a12.84,12.84,0,0,0-3.07,0Z"/><path class="cls-2" d="M1783.35.09h3.07a12.84,12.84,0,0,0-3.07,0Z"/><polygon class="cls-2" points="59.94 59.66 59.94 70.38 62.11 70.38 62.11 70.38 62.11 70.38 62.11 59.32 62.11 45.32 62.11 0.09 59.94 0.09 59.94 59.66"/><polygon class="cls-2" points="29.99 0.93 29.99 14.93 29.99 80.81 29.99 81.52 29.99 92.09 32.16 92.09 32.16 14.93 32.16 14.93 32.16 0.93 32.16 0.93 32.16 0.09 29.99 0.09 29.99 0.93"/><polygon class="cls-2" points="0 92.09 2.17 92.09 2.17 81.15 2.17 0.09 0 0.09 0 92.09"/><polygon class="cls-2" points="119.92 0.93 119.92 0.93 119.92 14.93 119.92 14.93 119.92 92.09 122.08 92.09 122.08 81.52 122.08 81.15 122.08 80.81 122.08 14.93 122.08 0.93 122.08 0.09 119.92 0.09 119.92 0.93"/><polygon class="cls-2" points="89.97 45.32 89.97 59.32 89.97 70.38 89.97 70.38 89.97 70.38 92.13 70.38 92.13 59.66 92.13 0.09 89.97 0.09 89.97 45.32"/><polygon class="cls-2" points="149.91 0.93 149.91 14.93 149.91 80.81 149.91 81.15 149.91 81.52 149.91 92.09 152.07 92.09 152.08 14.93 152.08 14.93 152.08 0.93 152.08 0.93 152.08 0.09 149.91 0.09 149.91 0.93"/><polygon class="cls-2" points="179.86 59.66 179.86 70.38 182.03 70.38 182.03 70.38 182.03 70.38 182.03 59.32 182.03 45.32 182.03 0.09 179.86 0.09 179.86 59.66"/><polygon class="cls-2" points="239.83 0.93 239.83 0.93 239.83 14.93 239.83 14.93 239.84 92.09 242 92.09 242 81.52 242 81.15 242 80.81 242 14.93 242 0.93 242 0.09 239.83 0.09 239.83 0.93"/><polygon class="cls-2" points="209.88 45.32 209.88 59.32 209.88 70.38 209.88 70.38 209.88 70.38 212.05 70.38 212.05 59.66 212.05 0.09 209.88 0.09 209.88 45.32"/><polygon class="cls-2" points="269.83 0.93 269.83 14.93 269.83 80.81 269.83 81.15 269.83 81.52 269.83 92.09 271.99 92.09 271.99 14.93 271.99 14.93 271.99 0.93 271.99 0.93 271.99 0.09 269.83 0.09 269.83 0.93"/><polygon class="cls-2" points="299.78 59.66 299.78 70.38 301.94 70.38 301.94 70.38 301.94 70.38 301.94 59.32 301.94 45.32 301.94 0.09 299.78 0.09 299.78 59.66"/><polygon class="cls-2" points="359.75 0.93 359.75 0.93 359.75 14.93 359.75 14.93 359.75 92.09 361.92 92.09 361.92 81.52 361.92 81.15 361.92 80.81 361.92 14.93 361.92 0.93 361.92 0.09 359.75 0.09 359.75 0.93"/><polygon class="cls-2" points="329.8 45.32 329.8 59.32 329.8 70.38 329.8 70.38 329.8 70.38 331.97 70.38 331.97 59.66 331.97 0.09 329.8 0.09 329.8 45.32"/><polygon class="cls-2" points="389.75 0.93 389.75 14.93 389.75 80.81 389.75 81.15 389.75 81.52 389.75 92.09 391.91 92.09 391.91 14.93 391.91 14.93 391.91 0.93 391.91 0.93 391.91 0.09 389.75 0.09 389.75 0.93"/><polygon class="cls-2" points="419.7 59.66 419.7 70.38 421.86 70.38 421.86 70.38 421.86 70.38 421.86 59.32 421.86 45.32 421.86 0.09 419.7 0.09 419.7 59.66"/><polygon class="cls-2" points="479.67 0.93 479.67 0.93 479.67 14.93 479.67 14.93 479.67 92.09 481.83 92.09 481.83 81.52 481.83 81.15 481.83 80.81 481.83 14.93 481.83 0.93 481.83 0.09 479.67 0.09 479.67 0.93"/><polygon class="cls-2" points="449.72 45.32 449.72 59.32 449.72 70.38 449.72 70.38 449.72 70.38 451.88 70.38 451.88 59.66 451.88 0.09 449.72 0.09 449.72 45.32"/><polygon class="cls-2" points="509.66 0.93 509.66 14.93 509.66 80.81 509.66 81.15 509.66 81.52 509.66 92.09 511.83 92.09 511.83 14.93 511.83 14.93 511.83 0.93 511.83 0.93 511.83 0.09 509.66 0.09 509.66 0.93"/><polygon class="cls-2" points="539.61 59.66 539.61 70.38 541.78 70.38 541.78 70.38 541.78 70.38 541.78 59.32 541.78 45.32 541.78 0.09 539.61 0.09 539.61 59.66"/><polygon class="cls-2" points="599.59 0.93 599.59 0.93 599.59 14.93 599.59 14.93 599.59 92.09 601.75 92.09 601.75 81.52 601.75 81.15 601.75 80.81 601.75 14.93 601.75 0.93 601.75 0.09 599.59 0.09 599.59 0.93"/><polygon class="cls-2" points="569.63 45.32 569.63 59.32 569.63 70.38 569.64 70.38 569.64 70.38 571.8 70.38 571.8 59.66 571.8 0.09 569.63 0.09 569.63 45.32"/><polygon class="cls-2" points="629.58 0.93 629.58 14.93 629.58 80.81 629.58 81.15 629.58 81.52 629.58 92.09 631.74 92.09 631.75 14.93 631.75 14.93 631.75 0.93 631.75 0.93 631.75 0.09 629.58 0.09 629.58 0.93"/><polygon class="cls-2" points="659.53 59.66 659.53 70.38 661.7 70.38 661.7 70.38 661.7 70.38 661.7 59.32 661.7 45.32 661.7 0.09 659.53 0.09 659.53 59.66"/><polygon class="cls-2" points="719.5 0.93 719.5 0.93 719.5 14.93 719.5 14.93 719.5 92.09 721.67 92.09 721.67 81.52 721.67 81.15 721.67 80.81 721.67 14.93 721.67 0.93 721.67 0.09 719.5 0.09 719.5 0.93"/><polygon class="cls-2" points="689.55 45.32 689.55 59.32 689.55 70.38 689.55 70.38 689.55 70.38 691.72 70.38 691.72 59.66 691.72 0.09 689.55 0.09 689.55 45.32"/><polygon class="cls-2" points="749.5 0.93 749.5 14.93 749.5 80.81 749.5 81.15 749.5 81.52 749.5 92.09 751.66 92.09 751.66 14.93 751.66 14.93 751.66 0.93 751.66 0.93 751.66 0.09 749.5 0.09 749.5 0.93"/><polygon class="cls-2" points="779.45 59.66 779.45 70.38 781.61 70.38 781.61 70.38 781.61 70.38 781.61 59.32 781.61 45.32 781.61 0.09 779.45 0.09 779.45 59.66"/><polygon class="cls-2" points="839.42 0.93 839.42 0.93 839.42 14.93 839.42 14.93 839.42 92.09 841.59 92.09 841.59 81.52 841.59 81.15 841.59 80.81 841.59 14.93 841.59 0.93 841.59 0.09 839.42 0.09 839.42 0.93"/><polygon class="cls-2" points="809.47 45.32 809.47 59.32 809.47 70.38 809.47 70.38 809.47 70.38 811.63 70.38 811.63 59.66 811.63 0.09 809.47 0.09 809.47 45.32"/><polygon class="cls-2" points="869.41 0.93 869.41 14.93 869.41 80.81 869.41 81.15 869.41 81.52 869.41 92.09 871.58 92.09 871.58 14.93 871.58 14.93 871.58 0.93 871.58 0.93 871.58 0.09 869.41 0.09 869.41 0.93"/><polygon class="cls-2" points="899.37 59.66 899.37 70.38 901.53 70.38 901.53 70.38 901.53 70.38 901.53 59.32 901.53 45.32 901.53 0.09 899.37 0.09 899.37 59.66"/><polygon class="cls-2" points="959.34 0.93 959.34 0.93 959.34 14.93 959.34 14.93 959.34 92.09 961.5 92.09 961.5 81.52 961.5 81.15 961.5 80.81 961.5 14.93 961.5 0.93 961.5 0.09 959.34 0.09 959.34 0.93"/><polygon class="cls-2" points="929.39 45.32 929.39 59.32 929.39 70.38 929.39 70.38 929.39 70.38 931.55 70.38 931.55 59.66 931.55 0.09 929.39 0.09 929.39 45.32"/><polygon class="cls-2" points="989.33 0.93 989.33 14.93 989.33 80.81 989.33 81.15 989.33 81.52 989.33 92.09 991.5 92.09 991.5 14.93 991.5 14.93 991.5 0.93 991.5 0.93 991.5 0.09 989.33 0.09 989.33 0.93"/><polygon class="cls-2" points="1019.28 59.66 1019.28 70.38 1021.45 70.38 1021.45 70.38 1021.45 70.38 1021.45 59.32 1021.45 45.32 1021.45 0.09 1019.28 0.09 1019.28 59.66"/><polygon class="cls-2" points="1079.26 0.93 1079.26 0.93 1079.26 14.93 1079.26 14.93 1079.26 92.09 1081.42 92.09 1081.42 81.52 1081.42 81.15 1081.42 80.81 1081.42 14.93 1081.42 0.93 1081.42 0.09 1079.26 0.09 1079.26 0.93"/><polygon class="cls-2" points="1049.3 45.32 1049.3 59.32 1049.3 70.38 1049.31 70.38 1049.31 70.38 1051.47 70.38 1051.47 59.66 1051.47 0.09 1049.3 0.09 1049.3 45.32"/><polygon class="cls-2" points="1109.25 0.93 1109.25 14.93 1109.25 80.81 1109.25 81.15 1109.25 81.52 1109.25 92.09 1111.41 92.09 1111.41 14.93 1111.41 14.93 1111.41 0.93 1111.41 0.93 1111.41 0.09 1109.25 0.09 1109.25 0.93"/><polygon class="cls-2" points="1139.2 59.66 1139.2 70.38 1141.36 70.38 1141.36 70.38 1141.37 70.38 1141.37 59.32 1141.37 45.32 1141.37 0.09 1139.2 0.09 1139.2 59.66"/><polygon class="cls-2" points="1199.17 0.93 1199.17 0.93 1199.17 14.93 1199.17 14.93 1199.17 92.09 1201.34 92.09 1201.34 81.52 1201.34 81.15 1201.34 80.81 1201.34 14.93 1201.34 0.93 1201.34 0.09 1199.17 0.09 1199.17 0.93"/><polygon class="cls-2" points="1169.22 45.32 1169.22 59.32 1169.22 70.38 1169.22 70.38 1169.22 70.38 1171.39 70.38 1171.39 59.66 1171.39 0.09 1169.22 0.09 1169.22 45.32"/><polygon class="cls-2" points="1229.16 0.93 1229.16 14.93 1229.16 80.81 1229.16 81.15 1229.16 81.52 1229.16 92.09 1231.33 92.09 1231.33 14.93 1231.33 14.93 1231.33 0.93 1231.33 0.93 1231.33 0.09 1229.16 0.09 1229.16 0.93"/><polygon class="cls-2" points="1259.12 59.66 1259.12 70.38 1261.28 70.38 1261.28 70.38 1261.28 70.38 1261.28 59.32 1261.28 45.32 1261.28 0.09 1259.12 0.09 1259.12 59.66"/><polygon class="cls-2" points="1319.09 0.93 1319.09 0.93 1319.09 14.93 1319.09 14.93 1319.09 92.09 1321.26 92.09 1321.26 81.52 1321.26 81.15 1321.26 80.81 1321.26 14.93 1321.26 0.93 1321.26 0.09 1319.09 0.09 1319.09 0.93"/><polygon class="cls-2" points="1289.14 45.32 1289.14 59.32 1289.14 70.38 1289.14 70.38 1289.14 70.38 1291.3 70.38 1291.3 59.66 1291.3 0.09 1289.14 0.09 1289.14 45.32"/><polygon class="cls-2" points="1349.08 0.93 1349.08 14.93 1349.08 80.81 1349.08 81.15 1349.08 81.52 1349.08 92.09 1351.25 92.09 1351.25 14.93 1351.25 14.93 1351.25 0.93 1351.25 0.93 1351.25 0.09 1349.08 0.09 1349.08 0.93"/><polygon class="cls-2" points="1379.03 59.66 1379.03 70.38 1381.2 70.38 1381.2 70.38 1381.2 70.38 1381.2 59.32 1381.2 45.32 1381.2 0.09 1379.03 0.09 1379.03 59.66"/><polygon class="cls-2" points="1439.01 0.93 1439.01 0.93 1439.01 14.93 1439.01 14.93 1439.01 92.09 1441.17 92.09 1441.17 81.52 1441.17 81.15 1441.17 80.81 1441.17 14.93 1441.17 0.93 1441.17 0.09 1439.01 0.09 1439.01 0.93"/><polygon class="cls-2" points="1409.06 45.32 1409.06 59.32 1409.06 70.38 1409.06 70.38 1409.06 70.38 1411.22 70.38 1411.22 59.66 1411.22 0.09 1409.06 0.09 1409.06 45.32"/><polygon class="cls-2" points="1469 0.93 1469 14.93 1469 80.81 1469 81.15 1469 81.52 1469 92.09 1471.16 92.09 1471.17 14.93 1471.17 14.93 1471.17 0.93 1471.17 0.93 1471.17 0.09 1469 0.09 1469 0.93"/><polygon class="cls-2" points="1498.95 59.66 1498.95 70.38 1501.12 70.38 1501.12 70.38 1501.12 70.38 1501.12 59.32 1501.12 45.32 1501.12 0.09 1498.95 0.09 1498.95 59.66"/><polygon class="cls-2" points="1558.92 0.93 1558.92 0.93 1558.92 14.93 1558.92 14.93 1558.92 92.09 1561.09 92.09 1561.09 81.52 1561.09 81.15 1561.09 80.81 1561.09 14.93 1561.09 0.93 1561.09 0.09 1558.92 0.09 1558.92 0.93"/><polygon class="cls-2" points="1528.97 45.32 1528.97 59.32 1528.97 70.38 1528.97 70.38 1528.97 70.38 1531.14 70.38 1531.14 59.66 1531.14 0.09 1528.97 0.09 1528.97 45.32"/><polygon class="cls-2" points="1588.92 0.93 1588.92 14.93 1588.92 80.81 1588.92 81.15 1588.92 81.52 1588.92 92.09 1591.08 92.09 1591.08 14.93 1591.08 14.93 1591.08 0.93 1591.08 0.93 1591.08 0.09 1588.92 0.09 1588.92 0.93"/><polygon class="cls-2" points="1618.87 59.66 1618.87 70.38 1621.03 70.38 1621.03 70.38 1621.03 70.38 1621.03 59.32 1621.03 45.32 1621.03 0.09 1618.87 0.09 1618.87 59.66"/><polygon class="cls-2" points="1678.84 0.93 1678.84 0.93 1678.84 14.93 1678.84 14.93 1678.84 92.09 1681.01 92.09 1681.01 81.52 1681.01 81.15 1681.01 80.81 1681.01 14.93 1681.01 0.93 1681.01 0.09 1678.84 0.09 1678.84 0.93"/><polygon class="cls-2" points="1648.89 45.32 1648.89 59.32 1648.89 70.38 1648.89 70.38 1648.89 70.38 1651.06 70.38 1651.06 59.66 1651.06 0.09 1648.89 0.09 1648.89 45.32"/><polygon class="cls-2" points="1708.83 0.93 1708.83 14.93 1708.83 80.81 1708.83 81.15 1708.83 81.52 1708.83 92.09 1711 92.09 1711 14.93 1711 14.93 1711 0.93 1711 0.93 1711 0.09 1708.83 0.09 1708.83 0.93"/><polygon class="cls-2" points="1738.79 59.66 1738.79 70.38 1740.95 70.38 1740.95 70.38 1740.95 70.38 1740.95 59.32 1740.95 45.32 1740.95 0.09 1738.79 0.09 1738.79 59.66"/><polygon class="cls-2" points="1798.76 0.93 1798.76 0.93 1798.76 14.93 1798.76 14.93 1798.76 92.09 1800.92 92.09 1800.92 81.52 1800.92 81.15 1800.92 80.81 1800.92 14.93 1800.92 0.93 1800.92 0.09 1798.76 0.09 1798.76 0.93"/><polygon class="cls-2" points="1768.81 45.32 1768.81 59.32 1768.81 70.38 1768.81 70.38 1768.81 70.38 1770.97 70.38 1770.97 59.66 1770.97 0.09 1768.81 0.09 1768.81 45.32"/><polygon class="cls-2" points="1828.75 0.93 1828.75 14.93 1828.75 80.81 1828.75 81.15 1828.75 81.52 1828.75 92.09 1830.92 92.09 1830.92 14.93 1830.92 14.93 1830.92 0.93 1830.92 0.93 1830.92 0.09 1828.75 0.09 1828.75 0.93"/><polygon class="cls-2" points="1858.7 59.66 1858.7 70.38 1860.87 70.38 1860.87 70.38 1860.87 70.38 1860.87 59.32 1860.87 45.32 1860.87 0.09 1858.7 0.09 1858.7 59.66"/><polygon class="cls-2" points="1918.68 0.93 1918.68 0.93 1918.68 14.93 1918.68 14.93 1918.68 92.09 1920.84 92.09 1920.84 81.52 1920.84 80.81 1920.84 14.93 1920.84 0.93 1920.84 0.09 1918.68 0.09 1918.68 0.93"/><polygon class="cls-2" points="1888.72 45.32 1888.72 59.32 1888.72 70.38 1888.72 70.38 1888.73 70.38 1890.89 70.38 1890.89 59.66 1890.89 0.09 1888.72 0.09 1888.72 45.32"/></g></g></svg>
