<svg xmlns="http://www.w3.org/2000/svg" viewBox="0 0 1420.53 499.68"><defs><style>.cls-1,.cls-2{fill:#2a4b60;}.cls-2{fill-rule:evenodd;}</style></defs><title>Asset 4</title><g id="Layer_2" data-name="Layer 2"><g id="Layer_1-2" data-name="Layer 1"><path class="cls-1" d="M435.18,136v-13.3c0-4.5-2.09-7.72-7.68-7.72a23.32,23.32,0,0,0-5.42.72v-8a.73.73,0,0,0-.69-.77H421a.72.72,0,0,0-.68.77V136a.72.72,0,0,0,.68.77h.4a.72.72,0,0,0,.69-.77V117.29a21.32,21.32,0,0,1,5.42-.73c4.3,0,5.94,2.21,5.94,6.15V136a.69.69,0,0,0,.64.77h.4a.7.7,0,0,0,.69-.77m-20.5,0V116a.79.79,0,0,0-.76-.77h-.24a.79.79,0,0,0-.76.77v17.8a16,16,0,0,1-6.35,1.65h-.08c-3,0-5.34-1.57-5.34-6.11V116a.76.76,0,0,0-.72-.77h-.28a.77.77,0,0,0-.76.77V129.3c0,5.55,3.21,7.68,7.08,7.68a15.44,15.44,0,0,0,6.47-1.65V136a.74.74,0,0,0,.72.8H414a.74.74,0,0,0,.73-.8m-18.42.12v-.32c0-.4-.32-.65-.76-.65H385.23c-1.93,0-3.09-.36-3.09-2.85v-24.6a.73.73,0,0,0-.68-.77H381a.73.73,0,0,0-.69.77v24.6c0,3.37,1.82,4.5,4.87,4.5h10.28a.69.69,0,0,0,.76-.68m-31.74,2.41c0,3-1.4,4.74-6.75,4.74-5.14,0-6.79-1.85-6.79-4.74v-.36a5.84,5.84,0,0,1,2.93-5.35l5.55,1.45c4.21,1.09,5.06,1.65,5.06,3.9Zm-.2-16.27c0,2.77-1.29,5-6.59,5-5.51,0-6.51-3-6.51-5v-.33c0-2.57,1-5.18,6.51-5.18,5.22,0,6.59,2.29,6.59,5.18Zm2.37-6v-.44a.69.69,0,0,0-.76-.65h-8.2c-6.87,0-8.28,3.62-8.28,6.71v.33a5.85,5.85,0,0,0,2.09,4.78,2.8,2.8,0,0,0-1.69,2.57,2.7,2.7,0,0,0,2.13,2.69l.28.08a7,7,0,0,0-3,5.79v.36c0,3.66,2.34,6.23,8.52,6.23,6.35,0,8.52-2.61,8.52-6.23v-.36c0-3.26-2.13-4.3-6.43-5.43l-7.23-1.89c-.92-.24-1.17-.72-1.17-1.25a1.9,1.9,0,0,1,1.37-1.72,12,12,0,0,0,4.91.92c6.31,0,8.32-2.74,8.32-6.55v-.33a6,6,0,0,0-2.21-5h2.09c.4,0,.76-.2.76-.64M344.24,136V122.67c0-5.59-3.22-7.68-7.08-7.68a15.36,15.36,0,0,0-6.47,1.65V116a.74.74,0,0,0-.72-.81h-.32a.74.74,0,0,0-.72.81v20a.79.79,0,0,0,.76.77h.24a.79.79,0,0,0,.76-.77v-17.8a15.39,15.39,0,0,1,6.35-1.65c3,0,5.42,1.53,5.42,6.11V136a.75.75,0,0,0,.72.77h.28a.77.77,0,0,0,.77-.77m-21.34,0V116a.79.79,0,0,0-.76-.77h-.25a.8.8,0,0,0-.76.77v20a.79.79,0,0,0,.76.77h.25a.79.79,0,0,0,.76-.77m0-25.56v-3a.79.79,0,0,0-.76-.76h-.25a.79.79,0,0,0-.76.76v3a.77.77,0,0,0,.76.77h.25a.76.76,0,0,0,.76-.77M315.31,136v-13.3c0-4.5-2.09-7.72-7.67-7.72a23.39,23.39,0,0,0-5.43.72v-8a.72.72,0,0,0-.68-.77h-.4a.72.72,0,0,0-.68.77V136a.72.72,0,0,0,.68.77h.4a.72.72,0,0,0,.68-.77V117.29a21.4,21.4,0,0,1,5.43-.73c4.29,0,5.94,2.21,5.94,6.15V136a.69.69,0,0,0,.64.77h.4a.7.7,0,0,0,.68-.77M296,135.94v-.49c0-.4-.2-.48-.52-.48h-.24c-1.45.16-4.46.36-7,.36-4.49,0-8.07-2.89-8.07-10.81v-5.3c0-7.92,3.58-10.81,8.07-10.81,2.49,0,5.5.2,7,.35h.24c.33,0,.52-.08.52-.47v-.48a.77.77,0,0,0-.76-.68,53.64,53.64,0,0,0-7-.4c-5,0-9.85,2.89-9.85,12.5v5.3c0,9.61,4.82,12.5,9.85,12.5a55.15,55.15,0,0,0,7-.4c.36,0,.76-.28.76-.68"/><path class="cls-1" d="M397.48,74h-1.6a.64.64,0,0,0-.75.64q-.74,5.24-1.48,10.49c-.47,3.34,4.72,3.69,4.68.31q0-5.35-.09-10.7C398.24,74.2,398,74,397.48,74Z"/><path class="cls-1" d="M436.34,86.14c-.36-1-1.51-1.14-2.56-1.39a17.32,17.32,0,0,1-3.56-1.23,25.21,25.21,0,0,1-2.66-1.41c-1.15-.69-2.15-1.41-3.49-2.31s-2.94-2-2.93-3.11a3.65,3.65,0,0,1,1.33-2.14,26.6,26.6,0,0,1,2.27-1.94,12.59,12.59,0,0,0,2.34-2.11,2.49,2.49,0,0,0,.42-2.44,1.74,1.74,0,0,0-1.28-1.19c-.78,0-1.63.95-2.41,2A8.88,8.88,0,0,1,421,71.68a7.28,7.28,0,0,1-3,.56c-1.6,0-3.13-.21-4-1.33s-.92-3.29-1-5a11.72,11.72,0,0,1,.27-3.94,10.85,10.85,0,0,1,2.63-4.06,13.46,13.46,0,0,1,3.46-2.59,21.43,21.43,0,0,0,2.38-1.2c.7-.46,1.41-1.11,1.32-1.56s-1-.73-1.86-.88a13.71,13.71,0,0,0-4.1,0,24.62,24.62,0,0,1-3.75.3,3.3,3.3,0,0,1-3-1.27,2.41,2.41,0,0,1-.24-2.24c.43-.67,1.68-.63,2.7-.71a11.19,11.19,0,0,0,2.82-.61,26.39,26.39,0,0,0,3-1.17A11.59,11.59,0,0,0,422,43.64a3.9,3.9,0,0,0,1.33-2.09c0-.58-.47-1.06-1.08-1.52-1-.75-2.28-1.45-3.2-1.07s-1.29,1.45-1.76,2.38a9.18,9.18,0,0,1-2.33,3.18A6.18,6.18,0,0,1,412.4,46c-1.39.33-2.86-.24-4.36-.92-1.29-.59-2.62-1.28-2.69-2.39a4.93,4.93,0,0,1,1.52-2.9,6.29,6.29,0,0,1,2.91-1.85c1-.34,2.25-.6,2.47-1.3a1.15,1.15,0,0,0-.23-1,2.34,2.34,0,0,0-1.62-.61c-1.94-.17-3.92.48-6.31,1.1-2.78.73-6.12,1.45-6.41,2.81-.17.83.81,1.92,2,2.84a27.79,27.79,0,0,1,4.1,3.31,6.83,6.83,0,0,1,1.5,2.94,4.17,4.17,0,0,1-.86,3.55c-1,1.18-2.79,1.87-4.46,2.63A28.23,28.23,0,0,0,396.63,56c-1.55,1-3.15,2.19-2.85,3.1a1.73,1.73,0,0,0,1.3.9c1.1.22,2.38-.36,3.65-.77a28.46,28.46,0,0,1,4.46-1c1.53-.24,3.26-.47,4.36,0a2.68,2.68,0,0,1,1.12,1,9.55,9.55,0,0,1,1.06,2.88,11.93,11.93,0,0,1,.42,3.75,9,9,0,0,1-.77,2.7,8.16,8.16,0,0,1-1.89,2.71c-.7.67-1.6,1.33-1.71,2s.4,1.13.87,1.71a12.47,12.47,0,0,1,2.56,4.3,11.71,11.71,0,0,1,.4,3.78,9.77,9.77,0,0,1-1.06,4.27c-.55,1-1.33,2-1.86,3a3.47,3.47,0,0,0-.33,2.86,7,7,0,0,0,1.64,2A8,8,0,0,0,410.1,97a2,2,0,0,0,1.49.25c1-.42.75-2.86.72-4.94a31.45,31.45,0,0,1,.46-6.05c.2-1.15.47-2.35.66-3.53a5.37,5.37,0,0,1,1-2.91,3.62,3.62,0,0,1,3.16-.94,5.52,5.52,0,0,1,1.89,1c1.07.76,2.24,1.49,3.36,2.25,1.51,1,2.95,2.08,4.54,3a34.11,34.11,0,0,0,3.68,1.71,12.42,12.42,0,0,0,3.48,1c.72.07,1.5.07,1.77-.48A1.65,1.65,0,0,0,436.34,86.14Z"/><path class="cls-1" d="M379.19,43.77a9.7,9.7,0,0,0,3,1.1,5.41,5.41,0,0,0,1.57.08c.51-.05,1.75-.32,1-.71-1.9-1-3.89-1.7-5.43-3.4-.73-.82-1.07-1.84-1.72-2.71s-2.28,0-2.47,1C374.85,40.94,378.09,43.15,379.19,43.77Z"/><path class="cls-1" d="M389.36,53.14c-.65-.5-1.94-.35-3.12-.22a61.55,61.55,0,0,0-6.13,1,57.28,57.28,0,0,0-9,2.87c-2.63,1-5.75,2.38-5.85,3.83,0,.31.11.64.43.63a2.7,2.7,0,0,0,.91-.39c.62-.35,1.15-.65,1.75-1,1-.54,2.22-1.1,3.32-1.57a10.79,10.79,0,0,1,2.3-.74,4.12,4.12,0,0,1,2.8.33,4,4,0,0,1,1.44,2.45,8.67,8.67,0,0,1,.23,3.25,19.75,19.75,0,0,1-2.61,6.93c-1.27,2.28-2.46,4-4.11,6.69-.77,1.26-1.65,2.73-1.14,3.52s2.09.86,3.3,1a7.15,7.15,0,0,1,1.82.38,3.12,3.12,0,0,1,1.5,1.3c.64,1.12.54,2.76.5,4.27a38,38,0,0,0,.06,4.44,2.36,2.36,0,0,0,.52,1.64,3.22,3.22,0,0,0,1.88.43A5.34,5.34,0,0,0,382,94a2,2,0,0,0,1-.78,6.07,6.07,0,0,0,.43-3.1c0-2-.16-3.77-.24-5.58-.1-2.12-.17-4.3-.27-6.47-.1-2.36-.25-4.69-.25-7a13.47,13.47,0,0,1,.56-4.4,5.31,5.31,0,0,1,1.41-2.27,5.75,5.75,0,0,0,1.23-1.12,1.44,1.44,0,0,0,.22-.71c0-.86-1.19-1.42-1.94-2.09a3.6,3.6,0,0,1-1.11-2,3,3,0,0,1,.21-2.18,2.74,2.74,0,0,1,1.28-.9,14.21,14.21,0,0,1,2.33-.66,15.76,15.76,0,0,0,2-.49,1.86,1.86,0,0,0,.72-.37C389.75,53.59,389.6,53.32,389.36,53.14Z"/><path class="cls-1" d="M283.83,45.24l-.12-.12-.06,0Z"/><path class="cls-1" d="M290.14,51.5a1.07,1.07,0,0,0,1.68.31l.33-.21a.65.65,0,0,0,.23-1A34.57,34.57,0,0,0,285.77,43a1.49,1.49,0,0,0-2.06,2.15A31.31,31.31,0,0,1,290.14,51.5Z"/><path class="cls-1" d="M300,69.57q-6.41,8.82-13.32,17.22a1.25,1.25,0,0,1-2.22-.75c-.24-7.13-.21-14.23.09-21.36a1.76,1.76,0,0,0-1.75-1.85H282a1.77,1.77,0,0,0-1.76,1.7c-.37,8.83-.34,17.62.11,26.45a3.78,3.78,0,0,0,6.83,2c.1-.12.19-.25.28-.37q6.27-8.63,12.38-17.38a6.39,6.39,0,0,0,1.25-3.73c0-.51,0-1,0-1.54A.66.66,0,0,0,300,69.57Z"/><path class="cls-1" d="M336.61,50.28a5.12,5.12,0,0,0-2.67,0c-.92.15-1.87.29-2.79.42-1.22.16-2.39.3-3.74.42s-2.75.24-3.58-.58a2.55,2.55,0,0,1-.65-2.15,2.33,2.33,0,0,1,.9-1.5,4.6,4.6,0,0,1,2.12-.56c1.17-.14,2.29-.33,3.39-.36.89,0,1.77.07,2.73,0a1.37,1.37,0,0,0,.77-.19,1.12,1.12,0,0,0,.33-1.07c-.15-.58-.9-.8-1.56-1a10,10,0,0,0-1.88-.28,32.12,32.12,0,0,1-3.71-.15,4.61,4.61,0,0,1-2.76-1.39,6.55,6.55,0,0,1-1-3,4.8,4.8,0,0,1-.1-2.61,3.15,3.15,0,0,1,1.49-1.51,3.54,3.54,0,0,1,2.16-.36c1.18.11,2.66.62,3.31-.08a1.43,1.43,0,0,0,.32-1.23,2.74,2.74,0,0,0-1.08-1.37,16.37,16.37,0,0,0-2-1.5,7,7,0,0,0-2.39-1,11.27,11.27,0,0,0-2-.1,4.17,4.17,0,0,0-2.28.35,1.65,1.65,0,0,0-.64.85,3.61,3.61,0,0,0,.08,1.73,1.26,1.26,0,0,1,0,.57c-.12.24-.46.38-.79.5-1,.39-1.85.74-2.68,1.1-.62.26-1.24.53-1.94.91-.51.27-1.08.6-1.14,1.13a1.11,1.11,0,0,0,.32.94,1.65,1.65,0,0,0,1.26.22c.93-.07,1.66-.15,2.58-.19a2.53,2.53,0,0,1,1.37.17,2,2,0,0,1,.63.64,9.33,9.33,0,0,1,1.47,2.94,2.7,2.7,0,0,1,.12,1.61,2.42,2.42,0,0,1-1.39,1.23,12.47,12.47,0,0,1-3,.81c-1.43.29-2.86.67-4.16,1-1,.29-2,.53-3.23.85a2.46,2.46,0,0,0-1.45.75,1.28,1.28,0,0,0-.16,1.3c.25.32.9.2,1.47.05a18.37,18.37,0,0,0,2.17-.72c.67-.23,1.34-.46,2.06-.65.95-.24,1.94-.4,3-.59a4.45,4.45,0,0,1,2.45,0,2.45,2.45,0,0,1,1.12,1,4,4,0,0,1,.33,2.38,5.17,5.17,0,0,1-.71,2.61,2.7,2.7,0,0,1-1.62.75,28.13,28.13,0,0,0-4.64,1.2,8.85,8.85,0,0,0-3.56,2.66c-.73.86-1.45,2-1.1,2.57s1.35.6,2.26.57a10.28,10.28,0,0,0,3.5-.9,12.85,12.85,0,0,1,2.78-.81,2.29,2.29,0,0,1,1.71.23,2.34,2.34,0,0,1,.22,2.5,11.66,11.66,0,0,1-1.24,1.9c-1.15,1.82-1.21,4.38-1.35,6.79-.21,3.71-.61,7.06-.7,10.51a32.75,32.75,0,0,1-.23,3.85,9.38,9.38,0,0,1-.91,2.91,9.1,9.1,0,0,0-1.51,3.25,3.3,3.3,0,0,0,1.2,3.09,2.09,2.09,0,0,0,1.6.09c1.77-.53,2.82-2.58,3.86-4.53a4.23,4.23,0,0,0,.76-2.36,8.39,8.39,0,0,0-.71-1.6c-.42-1-.55-2.31,0-2.92s1.83-.45,2.95-.41,2.38,0,3.19.53a3.17,3.17,0,0,1,1.11,3.34,2.73,2.73,0,0,1-1.39,1.57c-.68.34-1.55.42-1.87.87-.48.7.34,2.28,1.14,3.4a5.39,5.39,0,0,0,2.65,2.17,2.63,2.63,0,0,0,2.24,0,2,2,0,0,0,.59-1.05,16.47,16.47,0,0,0,.47-3.9c.07-2.12,0-4.08,0-6.07,0-4.11,0-8.41,0-12.62,0-1.57,0-3.11,0-4.67a10.31,10.31,0,0,0-.11-1.81,7.64,7.64,0,0,0-.76-2.07,16.62,16.62,0,0,0-2-2.86c-.8-1-1.74-2-1.64-3.09a2.54,2.54,0,0,1,.75-1.5,4.74,4.74,0,0,1,2.3-.92c1.15-.25,2.21-.55,3.29-.79A13.84,13.84,0,0,1,336,52.2a1.86,1.86,0,0,0,1.13-.17,1.07,1.07,0,0,0,.46-.92C337.52,50.72,337,50.45,336.61,50.28ZM320.26,65.56a4.68,4.68,0,0,1,2-.43,9.61,9.61,0,0,1,1.38,0,1.12,1.12,0,0,1,.75.32,2.9,2.9,0,0,1,.42,1.31,6.86,6.86,0,0,1,.06,1.68,1.07,1.07,0,0,1-.19.6,2.27,2.27,0,0,1-1.29.5,8.66,8.66,0,0,1-1.73.14,1.83,1.83,0,0,1-1.23-.31,1.93,1.93,0,0,1-.45-1,6.63,6.63,0,0,1-.17-1.85A1.16,1.16,0,0,1,320.26,65.56Zm4.06,11.6a3.42,3.42,0,0,1-2.43.93,4.78,4.78,0,0,1-2.67-.48A2.71,2.71,0,0,1,318,75.91a4.23,4.23,0,0,1,.21-3,2.43,2.43,0,0,1,1.91-1,7.79,7.79,0,0,1,2,0,3.37,3.37,0,0,1,2.34,1,3.08,3.08,0,0,1,.43,1.85A3.76,3.76,0,0,1,324.32,77.16Z"/><path class="cls-1" d="M622.51,361.2c1.59-5.68,1.7-6.65-1.27-7.19l-1.38-.25a1,1,0,0,1,.33-1.45c2.26.13,4.08.18,6.45.18s4-.06,6.17-.18a1,1,0,0,1,0,1.45l-1.49.25c-2.7.42-3,1.21-4.68,7.19l-7.83,27.63a42.79,42.79,0,0,1-3.47,9c-2.32,4.29-5.73,6.71-10.08,6.71-1.66,0-3.47-.42-3.47-1.75,0-1,1-2.6,2.15-2.6a3.8,3.8,0,0,1,2,.85,4.48,4.48,0,0,0,2.64.9c1.49,0,2.59-2.35,3.59-5.26.44-1.21,1.87-5.62,3.63-11.85Z"/><path class="cls-1" d="M635.56,389.37c0,2.42-1.54,3.87-3.14,3.87S630,392.15,630,390.4a3.51,3.51,0,0,1,3.14-3.75A2.49,2.49,0,0,1,635.56,389.37Z"/><path class="cls-1" d="M658.09,389.12a18.17,18.17,0,0,1,1-7,.75.75,0,0,1,1.16.11c.39,5.26,2.64,9.25,8.15,9.25,3.53,0,8-2.48,8-8.53,0-4.47-2.59-6.95-5.51-9.49S665.2,367.3,665.2,363c0-6.59,4.74-11.43,12.07-11.43a14.78,14.78,0,0,1,8,2.42c-.77,1.51-1.48,4.9-2,7a1.14,1.14,0,0,1-1.48-.06c.77-4.11-.28-7.49-5.18-7.49s-7.44,3.57-7.44,7.73,3.36,7,5.35,8.71c3.36,2.84,5.95,6,5.95,11,0,7.19-5,12.52-12.67,12.52C663.77,393.36,660,392,658.09,389.12Z"/><path class="cls-1" d="M701.13,349.53c-1.11,3.39-2.87,8.88-4,12.33l-5.68,18.07.11.12c3.85-6,6.72-8.4,8.7-10s3.75-2.36,5.24-2.36c2.42,0,3.31,1.94,3.31,4.05,0,4.17-2.31,10.27-4.29,14.15a21,21,0,0,1-3.58,5c-1.82,2-3.31,2.36-4,2.36-1.82,0-2-1.27-2-1.75,0-1,.77-1.94,1.48-1.94a1.29,1.29,0,0,1,.77.36,3,3,0,0,0,1.44.79c.82,0,1.37-.91,2.2-3,1.48-3.93,4-12.27,4-15.59,0-1.15-.38-1.81-1.16-1.81a5.82,5.82,0,0,0-3,1.63,36.72,36.72,0,0,0-7,8A101.07,101.07,0,0,0,687,392.51a1,1,0,0,1-1,.73c-.6,0-2-.18-1.59-1.57l10.47-34c1.21-4,1.49-4.83.6-5.49l-1.15-.85a.61.61,0,0,1,.16-.79,27.64,27.64,0,0,1,6.44-1.39Z"/><path class="cls-1" d="M730.76,375.35a24,24,0,0,1-5.84,13.72c-3.42,3.87-6.39,4.17-7.88,4.17-3.53,0-5.84-2.84-5.51-8a23.67,23.67,0,0,1,6-13.54c2.86-3,5.34-3.93,7.6-3.93C729.05,367.73,731,370.93,730.76,375.35Zm-10-2.91c-3.19,4.72-5.34,11.91-5.51,15.11-.11,2.12.66,3.87,2.26,3.87,1.21,0,2.59-.54,4.35-3.14,2.42-3.57,5-11.55,5.12-14.75.05-1.87-.28-4-2.21-4C723.65,369.54,722.33,370.08,720.73,372.44Z"/><path class="cls-1" d="M743.27,373.47l-2.37,7.62h.27A93,93,0,0,1,747,370.87c1.27-1.81,2.65-3.14,4-3.14,1.93,0,2.21,2.06,2.21,3a8,8,0,0,1-1.16,3.63c-.66.91-1.54,1-1.77-.3-.27-1.57-.6-2.36-1.16-2.36s-1.1.6-1.93,1.82c-3.36,4.71-6.45,12.09-9.36,19-.23.48-.5.73-.94.73-.6,0-2.2-.24-1.82-1.57.72-2.42,4.19-13.12,5.67-19,.17-.67.06-1.27-.44-1.27-1.43,0-2.92,1.7-3.91,3.14-.55.12-.93-.24-.88-1,1.76-3.26,3.85-5.8,6.5-5.8S743.76,371.84,743.27,373.47Z"/><path class="cls-1" d="M762.77,373.47l-2.37,7.62h.27a93.1,93.1,0,0,1,5.78-10.22c1.27-1.81,2.65-3.14,4-3.14,1.93,0,2.2,2.06,2.2,3a7.91,7.91,0,0,1-1.16,3.63c-.65.91-1.53,1-1.75-.3-.28-1.57-.61-2.36-1.16-2.36s-1.11.6-1.93,1.82c-3.36,4.71-6.44,12.09-9.37,19-.22.48-.49.73-.93.73-.6,0-2.2-.24-1.82-1.57.72-2.42,4.19-13.12,5.67-19,.17-.67.06-1.27-.44-1.27-1.43,0-2.92,1.7-3.91,3.14-.55.12-.94-.24-.88-1,1.76-3.26,3.85-5.8,6.5-5.8S763.26,371.84,762.77,373.47Z"/><path class="cls-1" d="M791.91,375.35a24.07,24.07,0,0,1-5.84,13.72c-3.41,3.87-6.39,4.17-7.88,4.17-3.53,0-5.84-2.84-5.51-8a23.66,23.66,0,0,1,6-13.54c2.86-3,5.34-3.93,7.6-3.93C790.2,367.73,792.13,370.93,791.91,375.35Zm-10-2.91c-3.19,4.72-5.34,11.91-5.51,15.11-.11,2.12.66,3.87,2.26,3.87,1.21,0,2.59-.54,4.35-3.14,2.43-3.57,5-11.55,5.12-14.75.06-1.87-.27-4-2.2-4C784.8,369.54,783.48,370.08,781.88,372.44Z"/><path class="cls-1" d="M813,371.29a2.75,2.75,0,0,1-2.7,2.85,1.12,1.12,0,0,1-1.1-1.08c-.16-1.52-.11-3.33-1.93-3.33-1.21,0-2.92,1.27-4.63,4.05A27.85,27.85,0,0,0,799,386.28c-.11,3,1,3.93,2.37,3.93,1.82,0,3.86-1.57,6-3.69.55-.06.88.42.72,1-2.15,3.09-5.62,5.68-9.09,5.68-2.15,0-4.13-1.75-4.13-6.4,0-3.93,2.14-10.82,7-15.6,2.31-2.29,4.68-3.51,7.16-3.51C811.69,367.73,813,369.42,813,371.29Z"/><path class="cls-1" d="M823.2,358.3c1.27-4.23,1.33-5,.39-5.5l-1-.55a.57.57,0,0,1-.1-.9,29.32,29.32,0,0,1,6.72-2.18l.34.3c-.45,1.69-1,3.75-2.71,8.89l-5.67,17.89h.12a29.3,29.3,0,0,1,5.62-6.23,9.78,9.78,0,0,1,6-2.3c3.19,0,4,2.06,4,3.33,0,.72-.22,2.36-2.26,4.41-2.59,2.6-5.28,4.66-8.81,5.31-.39.24-.28.79-.17,1.16a39.27,39.27,0,0,0,2,5.68c.66,1.33,1.21,2,1.77,2,.71,0,1.76-.78,3.3-2.84.5,0,.72.24.72.73-1.93,4.53-4.68,5.74-5.56,5.74s-1.65-.73-2.53-2.42a62.32,62.32,0,0,1-2.54-6.47c-.43-1.57-1-2.23-2-2s-1.38.6-2,2.41l-2.86,7.68c-.23.55-.44.79-.94.79s-2.21-.18-1.76-1.57Zm7.61,12c-1.43,0-3.47,1.33-5.35,3.08a23.74,23.74,0,0,0-5.07,6.59c-.22.6-.17,1,.55.91,1.16-.13,4.24-1.15,8.1-3.93,2.31-1.69,3.52-3.81,3.52-5.08A1.58,1.58,0,0,0,830.8,370.33Z"/><rect class="cls-1" x="592.8" y="409.54" width="253" height="1.05"/><path class="cls-1" d="M1338.34,371.46c0-.17-.26-.19-.27-.35a1.57,1.57,0,0,0-.14-.75c-.12-.18-.13-.44-.27-.61s-.24-.45-.57-.33c0,0-.11-.07-.15-.12a3.61,3.61,0,0,0-1.42-.63c-.54-.18-1.05-.53-1.6-.65a11.83,11.83,0,0,1-1.84-.86,11.07,11.07,0,0,0-1.95-.88,5.93,5.93,0,0,1-1.11-.49,2.3,2.3,0,0,0-.48-.17,1.81,1.81,0,0,1-.42-.17,2.33,2.33,0,0,0-.55-.26,3.91,3.91,0,0,1-1.88-.55,6.81,6.81,0,0,0-1.45-.79,4.19,4.19,0,0,1-1.64-.86c-.12-.16-.34-.33-.34-.48a.43.43,0,0,1,.51-.43,1.06,1.06,0,0,0,.42-.09l.65-.3c.07,0,.16,0,.22-.07a.87.87,0,0,1,.81-.2.39.39,0,0,0,.28,0c.37-.23.74-.47,1.1-.7a1,1,0,0,1,.2-.08,1.57,1.57,0,0,1,.51-.13c.27,0,.43-.22.64-.23a3.65,3.65,0,0,0,.65-.17,4.61,4.61,0,0,0,.66-.11,3.57,3.57,0,0,1,.47-.25c.43-.11.9.09,1.19-.35.06-.09.19-.14.26-.23s.4-.44.58-.67.36-.51.53-.77a.37.37,0,0,0,.06-.14,9.07,9.07,0,0,0,.27-1,6.77,6.77,0,0,0,.15-1.25c0-.51-.06-1-.09-1.56l-.71-.67c-.13-.13-.31-.25-.35-.4-.1-.39-.61-.58-.88-.84a4.61,4.61,0,0,0-1.16-.72,7.85,7.85,0,0,1-1.29-.59,4.41,4.41,0,0,0-1.68-.66c-.38-.12-.74-.3-1.11-.41s-.61-.1-.91-.18a2,2,0,0,1-.38-.2l.21-.33c.08-.13.05-.42.17-.59a2.25,2.25,0,0,1,.59-.55c.4-.29.78-.64,1.15-1s.47-.34.7-.52a1.57,1.57,0,0,1,.27-.17.68.68,0,0,0,.25-.16c.08-.11,0-.27,0-.39s.15-.08.25-.09a1.92,1.92,0,0,0,.77-.32,11.93,11.93,0,0,1,1.33-.82,6.55,6.55,0,0,1,2.15-.75,2.16,2.16,0,0,1,.76.15,1.87,1.87,0,0,0,1.1-.13c.07,0,.12-.07.18-.07a4.86,4.86,0,0,1,.92-.08c.29,0,.54.15.82.17.08,0,.18,0,.22-.08a.41.41,0,0,0,0-.15,1.14,1.14,0,0,1,.06-.23c.07-.36,0-.9.3-1.19a.72.72,0,0,0,.09-1l-.24-.42c.23-.38.2-.47-.18-.75a1.25,1.25,0,0,1-.34-.24c-.1-.13-.07-.28-.15-.4a2.67,2.67,0,0,0-.7-.51,16.19,16.19,0,0,0-2.35-1c-.24-.09-.77-.15-1-.34s-.27-.73,0-.9c0,0,0-.14.07-.22a4.64,4.64,0,0,0,.29-1c0-.16,0-.32,0-.47s0-.4,0-.59a2.54,2.54,0,0,1,.23-.88c.08-.21.21-.37.31-.56s.36-.3.33-.59.18-.62.19-.94a2.67,2.67,0,0,0-.15-.9c0-.13-.19-.3-.3-.32a.86.86,0,0,1-.6-.44,1.43,1.43,0,0,0-.37-.3l-.58-.35c-.08,0-.2.06-.33.1-.32.11-.65.21-1,.3a.86.86,0,0,1-.49,0,.61.61,0,0,0-.85.4l-.67.59.13.06c0,.15,0,.28.08.42s.14.24.14.44a6.36,6.36,0,0,1-.14.77,3.94,3.94,0,0,1-.47,1.42c-.21.33-.55.48-.51.93,0,.14-.38.37-.47.48l-.41.54a.87.87,0,0,1-.53.35,4.52,4.52,0,0,1-1.46.41,7.4,7.4,0,0,1-1.55-.53l-.93-.21c-.37-.09-.71-.26-1.08-.35a8.26,8.26,0,0,1-1.4-.36c-.52-.22-.9-.7-1.39-.9-.25-.1-.54-.13-.8-.22a6.15,6.15,0,0,1-1.52-.89c-.2.09-.45.22-.65-.11,0,0-.07-.07-.11-.06-.29.07-.4-.18-.59-.3a8.94,8.94,0,0,0-1.1-.6c-.39-.18-.8-.3-1.19-.47-.15-.06-.29-.28-.4-.27-.31,0-.47-.15-.7-.28a4.57,4.57,0,0,0-.64-.23,6.74,6.74,0,0,0-2.44-.68,5.61,5.61,0,0,0-1.4,0,7,7,0,0,0-.93.3c-1.29.54-2.3,1.16-2.63,2.62a8.71,8.71,0,0,0-.18,1.83c0,.61-.15,1.18-.12,1.79s0,1.44.06,2.16c0,.19,0,.39,0,.59s0,.3,0,.37c.32.35.22.75.21,1.14s.17.95-.22,1.23-.63.11-1,.1c-.6,0-1.22,0-1.83,0-.41,0-.89-.19-1.26.09a1.94,1.94,0,0,1-.71.31,9.32,9.32,0,0,1-1.08.14,1.31,1.31,0,0,1-.2.32,1.07,1.07,0,0,0-.3.73.59.59,0,0,1-.19.32,2.28,2.28,0,0,1-.33.2.82.82,0,0,0-.09,1.16c.17.16.31.35.51.58.23-.06.1.24.14.3.26.13.46.22.64.34a.81.81,0,0,0,.74.1,4.06,4.06,0,0,1,.58-.1c.4-.08.84.23,1.23-.12a.56.56,0,0,1,.34-.1,20.21,20.21,0,0,0,2.15-.44c.32,0,.64,0,1-.05a2.19,2.19,0,0,1,1,0c.16.06.34.19.49.26a2,2,0,0,1,.74.66,3.55,3.55,0,0,0,.85.69,5.29,5.29,0,0,1,1.66,1.42,1.4,1.4,0,0,1,0,1.62c-.49.75-1.16.76-2,.95a5.77,5.77,0,0,1-1,.24c-.44,0-.91.17-1.37.21a3.68,3.68,0,0,1-.84.09c-.23,0-.27-.19-.55-.07a1.42,1.42,0,0,1-.91,0,2.59,2.59,0,0,0-1,0c-.46.12-.58.43-.9.7s-.54.2-.77.37a3.1,3.1,0,0,0-1.41,1.89,5.49,5.49,0,0,0,.33,2.11c.15.51.43,1,.61,1.45a11.9,11.9,0,0,0,.26,1.16,4.55,4.55,0,0,0,.6.84,3.57,3.57,0,0,1,.37.81,6.73,6.73,0,0,0,.45,1,4.1,4.1,0,0,1,.71,1.32,2,2,0,0,0,.76,1.16,2.13,2.13,0,0,1,.59.83,2.56,2.56,0,0,0,.27.65,2.81,2.81,0,0,0,.45.56c.16.16.45.24.55.43a6.14,6.14,0,0,0,1.45,1.47c.3.29.46.71.79,1s.78.25,1.13.42c.17.09.36.13.54.21a.31.31,0,0,1,.06.51c-.14.09-.32.12-.48.2a8.05,8.05,0,0,1-.81.41c-.43.15-.88.2-1.3.35a21.4,21.4,0,0,1-2.45.79.3.3,0,0,0-.12.06c-.32.38-.83.28-1.24.49s-.62.09-.88.23c-.57.33-1.28.34-1.78.83a.23.23,0,0,1-.16,0c-.52-.07-.93.4-1.45.29,0,0-.08,0-.12.07-.26.13-.52.27-.79.37s-.65.21-1,.33a14.75,14.75,0,0,1-1.42.52,4.75,4.75,0,0,0-1.07.44c-.6.29-1.26.42-1.87.69-.93.41-1.81.87-2.77,1.23a12.47,12.47,0,0,1-2.85.35.55.55,0,0,1-.2,0c-.56-.11-1,.43-1.36.8a6.88,6.88,0,0,1-.82.74c-.51.43-1.25,1.77-1,2.45a.45.45,0,0,1,0,.3,1.13,1.13,0,0,1-.24.39c-.38.34-.09.75-.11,1.12a1.7,1.7,0,0,0,.15.52l.52.38a1.81,1.81,0,0,0,.28.2c.4.17.81.3,1.19.48a2.61,2.61,0,0,0,1.27,0,27.49,27.49,0,0,0,3-.48.48.48,0,0,1,.22,0,3.52,3.52,0,0,0,1.71-.1,3.78,3.78,0,0,1,1.82-.2.66.66,0,0,0,.22,0,12.52,12.52,0,0,0,2-.27,3.66,3.66,0,0,1,1.34-.27c.11,0,.23-.1.34-.11s.43,0,.64,0a5.35,5.35,0,0,1,.63-.15,3.27,3.27,0,0,0,1.68-.52,3.43,3.43,0,0,1,1.32-.45c.39,0,.78,0,1.17,0a6.79,6.79,0,0,0,1.38-.26c1.19-.35,2.36-.76,3.58-1,.61-.12,1.22-.09,1.82-.2s.79-.5,1.24-.61.62,0,.91,0,.34-.24.55-.32a2.55,2.55,0,0,1,.72-.2c.08,0,.16.19.27.32.15,0,.42,0,.5-.14a.56.56,0,0,1,.57-.2c.25,0,.6-.23.86-.27.53-.09,1.36,0,.95.77a.54.54,0,0,0-.06.28c0,.44.09.88.14,1.32,0,0,0,.07,0,.09.24.18.1.36,0,.55a.62.62,0,0,0-.06.64.39.39,0,0,1,0,.25,4,4,0,0,1-.13,1.13c-.09.22.06.42,0,.56s-.06.36,0,.54,0,.43,0,.6c0,.35.07.7.09,1.05,0,1.15,0,2.31,0,3.47a24.83,24.83,0,0,0,.15,3.37c.06.39.2.77.24,1.17s0,.61,0,.92.17.52.1.75c-.15.58.15,1.14,0,1.7,0,0,.06.08.07.13a2.74,2.74,0,0,1,.13.64c0,.43,0,.86,0,1.29s0,.94,0,1.43c.29.09.3.15.22.51a4.64,4.64,0,0,0-.09,1,10.28,10.28,0,0,0,.12,1.12,1.16,1.16,0,0,0,.09.25c0,.14-.06.24-.08.33s0,.17,0,.25c0,.46,0,.92.05,1.38,0,.18.08.36.08.55s0,.38,0,.57.13.59-.06.92c-.08.14.05.41.09.69-.21.35,0,.79.06,1.23,0,.25.12.5.12.74,0,.78-.13,1.52-.13,2.3,0,.57.11,1.11.13,1.67a12.14,12.14,0,0,1,0,1.53,2.66,2.66,0,0,0,0,.91c0,.06.13.95,0,.86.29.2.16.35.12.62a3.33,3.33,0,0,0,0,.78,15.39,15.39,0,0,0,0,2.11,1.51,1.51,0,0,1-.09,1.06.13.13,0,0,0,0,.09c.26.59,0,1.2.08,1.8s.06.57.6.66c-.06.15-.07.36-.16.4a.8.8,0,0,0-.31,1.05c.12.23,0,.52.25.69,0,0,0,.16,0,.18-.21.12,0,.28-.07.42a.9.9,0,0,0,0,.29,6.43,6.43,0,0,1,.23,1.57c0,.51,0,1,0,1.52a4.72,4.72,0,0,0,0,1.33,3,3,0,0,1,.17.45,4.25,4.25,0,0,1,.12.65c0,.45-.06.93-.08,1.39.15,0,.31,0,.41,0s.19.77,0,.94c-.42.36-.17,1.5-.13,2,0,.29,0,.57,0,.87a.41.41,0,0,1,0,.08l.11-.8c.81-.29.87,1,.89,1.53s.12.87.15,1.31,0,.82,0,1.22a7.28,7.28,0,0,1-.06.9,8.28,8.28,0,0,1-.18,1.45c-.05.17-.12.54-.27.66s-.16.05-.2,0c0,.12,0,.23,0,.35a1.83,1.83,0,0,0,.08.48,1.23,1.23,0,0,1,0,.21c0,.32-.09.64-.12,1,0,.51-.11,1-.11,1.53,0,.14,0,.29,0,.42a2.12,2.12,0,0,0,.2-1h.09c-.06,1,.25,2.25-.12,3.25a1.27,1.27,0,0,1,.3.48c.06.19,0,.73.19.8.42.21.74.16.65.8a1.24,1.24,0,0,1-.3.63,1.18,1.18,0,0,0-.1.13,5,5,0,0,0-.8,2c0,.15,0,.55-.1.91.13-.32.42-.94.64-.63s-.17,1.61-.23,2c0,.08-.06.21,0,.24.23.24,0,.41-.08.6s-.13.25-.09.28c.23.21,0,.43-.05.52s-.09.34,0,.5a.94.94,0,0,0,.59-.88,7.7,7.7,0,0,1,.17-.81,3.09,3.09,0,0,0,.16-.39c.07-.41.12-.83.19-1.25.11-.65.3-1.29.35-2,0-.21,0-.37.2-.5,0,0,0-.12,0-.18.08-.32,0-.66.14-1a2.08,2.08,0,0,0,.18-.77,3.25,3.25,0,0,1,.06-.85,1.82,1.82,0,0,0,0-.93c0-.25,0-.4.16-.48a3,3,0,0,1,0-1.19,6.41,6.41,0,0,0,.2-.81,4,4,0,0,0,.1-.91,2.47,2.47,0,0,1,.08-.75,1.39,1.39,0,0,0,0-.77,3.06,3.06,0,0,1,0-.7,5.54,5.54,0,0,0,.12-1.58c-.14-.9.21-1.77.08-2.69a9.05,9.05,0,0,1,.06-1.8,4,4,0,0,0-.17-1.85,1,1,0,0,1,0-.27c0-.51.23-1,0-1.52a.27.27,0,0,1,0-.13c0-.92,0-1.83,0-2.75v-2.58a8.09,8.09,0,0,1,0-1.23c0-.13.11-.21.08-.35s-.13-.13-.13-.23c0-.52.06-1.05.07-1.58a4.42,4.42,0,0,0-.06-.7c0-.16,0-.31,0-.47s0-.55,0-.82.15-.69-.07-1,0-.35,0-.53.09-.22.1-.34c0-.74.1-1.47.09-2.21,0-1.09,0-2.16,0-3.24v-.51h.11a6.84,6.84,0,0,0,0-1c-.07-.5,0-1,0-1.51,0-.25,0-.46-.31-.55a1.37,1.37,0,0,1,.16-.44.74.74,0,0,0,.22-.7,7.36,7.36,0,0,1-.15-1.78,9.33,9.33,0,0,0,0-1.57c0-.53,0-1.06,0-1.6s.08-.8.07-1.21-.1-.83-.14-1.24,0-.69-.06-1.15c-.18-.71.13-1.52,0-2.34,0-.1-.13-.3-.08-.35a.8.8,0,0,0,.05-.92c-.11-.31.13-.26.15-.47s-.13-.25-.21-.41a5.17,5.17,0,0,1-.27-1.91,8.55,8.55,0,0,1,.06-2.2,5.24,5.24,0,0,0-.13-2,13.9,13.9,0,0,1,0-1.85c0-.16-.07-.31-.07-.46,0-.44,0-.89,0-1.34,0-.12,0-.23,0-.35a5.61,5.61,0,0,1,0-1.15.84.84,0,0,0-.16-.72,1.72,1.72,0,0,1,.1-.65.87.87,0,0,0,0-.81c-.16-.3-.14-.53.19-.69a3.3,3.3,0,0,1-.21-.49.72.72,0,0,1,0-.29,1.21,1.21,0,0,0,.06-.26c0-.35-.05-.69,0-1a26.47,26.47,0,0,1,.13-3,3.5,3.5,0,0,0,.05-.81,6.52,6.52,0,0,1-.05-2.3,1.53,1.53,0,0,1,1.59-.44l.06,0a5.83,5.83,0,0,0,1.62-.43,3.12,3.12,0,0,1,1.64-.36c.36.08.6.4.94.5s.42-.24.71-.49,1.12-.16,1.61-.27a2.47,2.47,0,0,1,1.16-.15,1.45,1.45,0,0,0,.45-.07c1-.11,2.06-.32,3.08-.5a18.26,18.26,0,0,0,2.22-.18c.8-.23,1.44-.79,2.23-1a3.75,3.75,0,0,0,1.58-.68,3,3,0,0,0,.8-1.67,7.22,7.22,0,0,1,.51-1.35C1338.24,371.73,1338.39,371.67,1338.34,371.46Zm-30.65-36.23a2,2,0,0,0,.17-.56.75.75,0,0,1,.61-.74,2.76,2.76,0,0,1,1.8.29,13,13,0,0,1,1.86.82,6.09,6.09,0,0,0,2.3,1.06c.23,0,.56.24.76.24.49,0,.69.34.82.72l.85-.13s0-.07,0-.09l.78.44a.88.88,0,0,0,.37.16c.43,0,.74.27,1.11.4a2.77,2.77,0,0,0,.64.09,3.8,3.8,0,0,1,.79.15c.42.15,2.15.43,1.89,1.18,0,.12-.08.24-.1.29a4.08,4.08,0,0,1-.37.3,2.84,2.84,0,0,1-.84.43,6.2,6.2,0,0,1-1.22-.09s-.1,0-.13,0c-.66.4-1.42.19-2.13.33a1.53,1.53,0,0,1-.59-.09.73.73,0,0,0-.63.1.74.74,0,0,1-.81.08,1,1,0,0,0-.38,0c-.21,0-.41,0-.61,0-1.57.12-3.19,0-4.74.1-.13,0-.78.24-.81.24-.63-.24-.84-.82-1.27-1.16.18-.19,0-.4,0-.64-.14-.52-.13-1-.29-1.53a2.5,2.5,0,0,1-.13-.54A3.22,3.22,0,0,1,1307.68,335.22Zm11.88,10.32c-.15.18-.24.44-.41.5-.35.13-.44.6-.87.59a.23.23,0,0,0-.18.12c-.13.34-.37.36-.65.25-.32.82-1.2.6-1.81,1.16-.14.12-1-.19-1.18-.16s-.56.26-.93.23a2.16,2.16,0,0,0-.54,0c-.07,0-.57.17-.6.13-.6-.68-2-1.69-1.45-2.76a.84.84,0,0,1,.57-.28c.37,0,.77,0,1.15,0s.64-.23.94.06a.12.12,0,0,0,.12,0c.41-.3.87-.1,1.3-.16.78-.09,1.55-.16,2.32-.2a8.35,8.35,0,0,1,1.15.07c.36,0,.71.07,1,.1Zm-7.26,28.94h0c-.45.33-1.33.23-1.81.32-.16,0-.32.13-.48.15s-.58.09-.87.13c-.1,0-.25,0-.3,0-.2.23-.44.16-.7.16s-.78,0-1.17,0c0,0-.11.06-.16.1a.93.93,0,0,1-.6.14,3.24,3.24,0,0,0-1.16.26,4.21,4.21,0,0,1-1.51.31,1.78,1.78,0,0,1-.45-.07,1.88,1.88,0,0,0-.6-.1c-.32,0-.64.14-1,.16a2,2,0,0,0-1.1.37.65.65,0,0,1-.57.11c-.17,0-.39.09-.59.15a1.23,1.23,0,0,1-.34.12c-.39,0-.76-.12-1.15.13a1.67,1.67,0,0,1-1,.24c-.45-.08-.77.15-1.2.21s-.68.06-1,.13-.49.28-.83.32a5.87,5.87,0,0,1-.62.05h-.18c-.08,0-.15.05-.22,0s-.05-.13-.1-.17-.3,0-.41,0a.42.42,0,0,0-.29.07.46.46,0,0,1-.27.07s-.17,0-.21,0,0-.11,0-.14c-.17.08-.27,0-.11-.15a1,1,0,0,1,.19-.07c.12,0,.25-.06.38-.1a.7.7,0,0,0,.25-.13c.08-.06.1-.17.16-.24a1.52,1.52,0,0,1,.33-.16l.39-.18a11.57,11.57,0,0,1,1.44-.8,8.83,8.83,0,0,0,1.71-.7,6.57,6.57,0,0,1,.88-.49c.23-.1.48-.13.71-.22.41-.14.79-.39,1.18-.56.22-.1.45-.19.67-.3a21.69,21.69,0,0,1,2-.94c.46-.16.95-.23,1.42-.4s.94-.33,1.4-.54c.3-.14.62-.23.93-.39s.9-.08,1.32-.24a2.73,2.73,0,0,1,1.13-.16c.82,0,1.62.25,2.43.34.55.07,1.43-.14,1.81.26a3.33,3.33,0,0,1,.45,1.41.52.52,0,0,1,0,.13c0,.26.08.52.13.79S1312.65,374.42,1312.31,374.48Zm4.94-15.15c-.2.07-.41.11-.61.16,0,0-.05,0-.07,0-.46.44-.93,0-1.41,0a1.1,1.1,0,0,0-.88.42c-.14.26-.09.51-.42.64a2.78,2.78,0,0,1-.85,0,4.44,4.44,0,0,0-1.25.26c-.55.2-.83.44-1.3,0-.21-.22-.42-.39-.74-.25,0,0,0,0-.06,0-.2-.24-.69-.25-1-.39a6.3,6.3,0,0,1-1.14-.48,1.53,1.53,0,0,1-.5-.73c-.08-.23-.21-.48-.26-.71a1.16,1.16,0,0,1,.22-.83c.19-.31.2-.42.45-.37l.16,0a5.16,5.16,0,0,0,1,.2,12.55,12.55,0,0,0,2-.06c.77-.07,1.43-.27,2.17-.38a25.77,25.77,0,0,0,2.89-.27,3.25,3.25,0,0,0,.78-.34c.27-.14.55-.18.83-.31a4.21,4.21,0,0,0,.94-.43c.25-.24,0-.64.2-.88s.28-.11.39-.12a3.05,3.05,0,0,1,.44,0,9.19,9.19,0,0,0,2.16-.48c.77-.12,1.63.44,2.39.58.15,0,1.5.11,1.35.39-.06.12-.31.17-.53.19a2,2,0,0,0-.34,0c-.29.08-.15.11-.24.35s-.42.41-.72.58-.69.54-1.07.74a17.53,17.53,0,0,0-1.6.89,9.57,9.57,0,0,1-1.6.63,7.49,7.49,0,0,0-.75.41c-.13.07-.24.15-.36.21S1317.47,359.25,1317.24,359.33Zm12.87,12.38a.72.72,0,0,0-.22.05,2,2,0,0,1-1.3.14,4.94,4.94,0,0,0-1.11.21s0,0,0,0c-.1.59-.62.35-.93.41a1.11,1.11,0,0,1-.39,0l-.57-.11h-.11a3.51,3.51,0,0,0-.88,0,11.31,11.31,0,0,0-1.38.31,5.56,5.56,0,0,1-.8.33,8.19,8.19,0,0,1-1.28,0l-.26,0-.23,0c-.26,0-.27.16-.31.33a.13.13,0,0,1-.08.06,3.32,3.32,0,0,1-1.38.35,1,1,0,0,1-.22,0,1.42,1.42,0,0,0-.49.07h0a3.36,3.36,0,0,1-.32-.72,2,2,0,0,1,.13-.66,1.35,1.35,0,0,1,.13-.39.82.82,0,0,1,.3-.31,4.26,4.26,0,0,1,.79-.17,6.61,6.61,0,0,0,1.35-.44,3.7,3.7,0,0,1,1-.2,2.13,2.13,0,0,0,.7-.16,1.28,1.28,0,0,1,.69-.11,1.57,1.57,0,0,0,.49-.14l.25-.06c.2-.06.46,0,.49-.32,0,0,.09-.08.14-.11s.16,0,.18-.06c.17-.36.55-.46.84-.66a.37.37,0,0,0,.15-.17.5.5,0,0,1,.59-.28h.1a3,3,0,0,1,1.28.41c.39.31.88.44,1.24.79.12.11.34.11.52.18a1.16,1.16,0,0,1,.3.18c.08.06.11.22.2.24.36.09.51.43.77.63a2.86,2.86,0,0,0,.38.21v.11Z"/><path class="cls-2" d="M1311.5,495.53l-.35,0c-1.2,0-2.39,0-3.58.09a1,1,0,0,0-.52.2.19.19,0,0,0,0,.35,1.34,1.34,0,0,0,.83.24c.77-.07,1.54-.12,2.31-.17.41,0,.83,0,1.25,0a.57.57,0,0,0,.59-.46.86.86,0,0,0-.84-1.14,2,2,0,0,1-.93-.19.46.46,0,0,0-.32,0,3.81,3.81,0,0,1-1.26.12h-1.32c-.07,0-.15-.07-.24-.11s.11-.16.2-.18.37-.06.55-.12.2-.08.2-.13a.37.37,0,0,0-.1-.25,1,1,0,0,0-1-.26,2.23,2.23,0,0,1-.42.12,1.29,1.29,0,0,1-.39,0c-.12,0-.25-.09-.21-.24a.27.27,0,0,1,.28-.23,1.73,1.73,0,0,1,.93.17s.14.05.18,0c.26-.15.54-.28.62-.61,0-.12.06-.29.22-.25a.41.41,0,0,1,.28.23c.11.41.41.49.76.48s.57,0,.85,0a.47.47,0,0,0,.47-.4c0-.15.09-.28.29-.27s.25.13.26.3.25.4.64.4h.64a.71.71,0,0,1,.21,0c.14,0,.34,0,.33.22s-.19.21-.33.22l-1.19,0a1.44,1.44,0,0,0-.39,0c-.07,0-.12.11-.19.17s.1.14.16.16a4.15,4.15,0,0,0,.54.15.89.89,0,0,1,.77.82,9.22,9.22,0,0,1,0,1.23c0,.3-.13.4-.44.43s-.54,0-.8,0l-1,.08a.37.37,0,0,0-.14,0c-.07.06-.17.13-.18.2a.26.26,0,0,0,.16.21,2.54,2.54,0,0,0,.7.16c.64,0,1.28,0,1.92.06a1.73,1.73,0,0,1,.35,0c.07,0,.15.1.15.15a.28.28,0,0,1-.13.18.56.56,0,0,1-.24,0l-2.32,0a.63.63,0,0,0-.73.68c0,.24,0,.48,0,.71a.62.62,0,0,1,0,.24c0,.14-.17.16-.28.06a.72.72,0,0,1-.15-.59c0-.16,0-.32,0-.47a.5.5,0,0,0-.41-.57,3.12,3.12,0,0,0-1.64-.05,3.62,3.62,0,0,1-1,.07c-.12,0-.24,0-.24-.2s.06-.31.23-.3c.49,0,1-.13,1.47.16a.51.51,0,0,0,.35,0,7,7,0,0,0,.76-.23c.23-.09.4-.3.37-.43s-.23-.24-.5-.22a1.07,1.07,0,0,1-.68-.12c-.07,0-.2,0-.29,0a.62.62,0,0,1-1-.39,2.38,2.38,0,0,1,0-1.32.39.39,0,0,1,.24-.22c.06,0,.18.1.22.17a.47.47,0,0,0,.48.26l3.65.07C1311.37,495.27,1311.49,495.3,1311.5,495.53Zm-2.21-2a2.78,2.78,0,0,0-.49.07c-.1,0-.17.15-.26.23.07.09.14.21.24.26a2,2,0,0,0,.48.12,4.63,4.63,0,0,0,.72.09.37.37,0,0,0,.4-.39c0-.18-.12-.28-.38-.3Z"/><path class="cls-2" d="M1298.59,493.2c-.38,0-.76,0-1.14.08a1,1,0,0,0-.65.33.54.54,0,0,0,.17.89,2.22,2.22,0,0,0,.71.15c.42,0,.86,0,1.29,0a1.24,1.24,0,0,1,.56.18c.17.1.13.28-.06.34a1.17,1.17,0,0,1-.31,0h-1.57c-.54,0-.75.31-.59.83a3.39,3.39,0,0,0,1.15,1.58,7.63,7.63,0,0,0,1.5,1.06.61.61,0,0,1,.26.22.43.43,0,0,1,0,.35.32.32,0,0,1-.28.14,1.83,1.83,0,0,1-.65-.28,10.23,10.23,0,0,1-2-2.15l-.29-.36a.26.26,0,0,0-.43,0,2.08,2.08,0,0,0-.18.23c-.38.52-.75,1-1.16,1.55a3,3,0,0,1-1.5,1,.56.56,0,0,1-.22,0c-.1,0-.26,0-.28-.11a.44.44,0,0,1,0-.36,1.11,1.11,0,0,1,.42-.27,4.85,4.85,0,0,0,2.31-2.14,3,3,0,0,0,.23-.9.3.3,0,0,0-.27-.31,2,2,0,0,0-1.36,0,1.87,1.87,0,0,1-.65.13.43.43,0,0,1-.29-.08.43.43,0,0,1-.16-.29c0-.07.11-.17.19-.21a1.13,1.13,0,0,1,.87,0,2.26,2.26,0,0,0,1.68-.34.5.5,0,0,0,.05-.8,1.41,1.41,0,0,0-.95-.37c-.14,0-.29,0-.43-.05a1.64,1.64,0,0,0-1,.08,1.09,1.09,0,0,1-.53,0,.35.35,0,0,1-.22-.25.34.34,0,0,1,.17-.26.63.63,0,0,1,.47,0,1.58,1.58,0,0,0,.89.07c.64-.08,1.28-.14,1.92-.16.92,0,1.83,0,2.74,0a1.71,1.71,0,0,1,.52.08.24.24,0,0,1,.2.3.35.35,0,0,1-.25.15c-.33,0-.67,0-1,0Z"/><path class="cls-2" d="M1334.73,498.5a3.39,3.39,0,0,1,.41-.21c.52-.21,1.05-.39,1.57-.61a4.27,4.27,0,0,0,.74-.43.39.39,0,0,0,.14-.57l-.24.1c-.67.34-1.33.69-2,1a.59.59,0,0,1-.52.06c.06-.27.19-.47.48-.49a2.66,2.66,0,0,0,1.53-.86.36.36,0,0,0,0-.31.26.26,0,0,0-.25-.1,1.76,1.76,0,0,0-.49.32,3.16,3.16,0,0,1-1,.65.7.7,0,0,1-.36.07.43.43,0,0,1-.27-.2s.08-.2.16-.24c.24-.13.51-.22.76-.33s.33-.16.49-.22a.26.26,0,0,0,.18-.34c0-.16-.19-.18-.32-.16s-.36.12-.55.15a5.14,5.14,0,0,1-.74,0c-.07,0-.2-.11-.2-.14s.08-.21.16-.24a1.26,1.26,0,0,1,.54-.07,8,8,0,0,0,1.72,0c.66,0,1.32,0,2,0a.26.26,0,0,1,.3.26c0,.18-.13.24-.27.24-.35,0-.72,0-1.08,0a.54.54,0,0,0-.2,0,1,1,0,0,0,.13.17c.29.19.61.35.87.57a.84.84,0,0,1,.15,1.36,3.89,3.89,0,0,1-2.37,1.58,2.9,2.9,0,0,1-.75,0,.39.39,0,0,1-.29-.22c0-.15.12-.2.25-.23.44-.1.89-.17,1.32-.3a2.17,2.17,0,0,0,1.51-1.14c0-.06.07-.11.07-.17a.28.28,0,0,0-.06-.2.23.23,0,0,0-.2,0c-.35.2-.68.42-1,.64a4.47,4.47,0,0,1-2.12.67c-.06,0-.13,0-.18,0Z"/><path class="cls-2" d="M1333.5,493c0,.23-.08.5-.1.77s0,.26,0,.39a.59.59,0,0,0,.34.57,1.38,1.38,0,0,1,.28.18.23.23,0,0,1,0,.4.85.85,0,0,1-.21.13.69.69,0,0,0-.47.75c0,.44,0,.88.07,1.32a.65.65,0,0,0,.64.66.47.47,0,0,1,.16,0c.19.07.21.23.05.34a.68.68,0,0,1-.26.12l-1.59.43-.22,0c-.17,0-.31,0-.34-.23a.32.32,0,0,1,.22-.38.9.9,0,0,1,.26-.07.68.68,0,0,0,.65-.62,5.61,5.61,0,0,0,0-1.89c-.06-.4-.19-.49-.6-.5a.6.6,0,0,1-.31-.1.27.27,0,0,1,0-.49,1.76,1.76,0,0,1,.46-.15.44.44,0,0,0,.35-.34,1.91,1.91,0,0,0,0-.94c0-.16-.06-.33-.07-.49s.11-.37.36-.36S1333.5,492.69,1333.5,493Z"/><path class="cls-2" d="M1338.42,493.74a5.4,5.4,0,0,1-.16.68.55.55,0,0,1-.53.38c-.77,0-1.53,0-2.29,0a.65.65,0,0,1-.73-.74c0-.15,0-.31,0-.47a.88.88,0,0,1,.37-.78,1.32,1.32,0,0,1,.84-.31c.48,0,1,0,1.44,0A1,1,0,0,1,1338.42,493.74Zm-1.94.58v.06h1.07c.27,0,.46-.12.48-.38a1.8,1.8,0,0,0-.08-.67.42.42,0,0,0-.41-.29l-2-.11c-.16,0-.35.14-.35.26a.33.33,0,0,0,.34.32h.25c.49,0,1,0,1.46,0,.09,0,.18.13.28.19a.82.82,0,0,1-.28.12c-.5,0-1,0-1.5,0a1.26,1.26,0,0,0-.51.18.25.25,0,0,0-.09.21s.13.09.2.09Z"/><path class="cls-2" d="M1325.22,493.44c-.11.07-.21.15-.32.2l-.65.29a2,2,0,0,0-.26.22c.31.11.51.29.81.2a.52.52,0,0,1,.62.31,2.81,2.81,0,0,1,.35,1.82.45.45,0,0,1-.49.41l-2.55.08a.65.65,0,0,1-.18,0,.82.82,0,0,0-.73.08.48.48,0,0,1-.71-.42c0-.38,0-.77,0-1.15a.82.82,0,0,1,0-.21c.07-.23.25-.28.4-.09a.71.71,0,0,0,.52.34,1.94,1.94,0,0,0,1-.2.26.26,0,0,0,.13-.32.25.25,0,0,0-.29-.19l-1,.06a1.57,1.57,0,0,1-.25,0c-.06,0-.14,0-.15-.09a.19.19,0,0,1,0-.18,1.42,1.42,0,0,1,.43-.21,3.93,3.93,0,0,1,.8-.11,1.14,1.14,0,0,0,.69-.3l.46-.36c.13-.12.13-.25,0-.35a.57.57,0,0,0-.6,0c-.27.14-.54.31-.81.42a3.2,3.2,0,0,1-.72.19.25.25,0,0,1-.32-.22.45.45,0,0,1,.24-.29,2.09,2.09,0,0,1,.54-.11,1,1,0,0,0,.84-.61c.1-.25.27-.3.5-.17a.6.6,0,0,1,.13.08,2.55,2.55,0,0,0,1.25.63,1.46,1.46,0,0,1,.33.16Zm-.55,3.14a.1.1,0,0,0,0,0h.17c.4,0,.49-.09.57-.48,0-.07,0-.13,0-.19a.92.92,0,0,0-.35-1,1.12,1.12,0,0,0-1.14-.17.36.36,0,0,0-.27.43c0,.22.2.26.39.26h.63a.27.27,0,0,1,.28.27c0,.17-.15.12-.26.13s-.18,0-.27,0a3,3,0,0,0-.51.07.32.32,0,0,0,0,.62Zm-2.33.17a4.27,4.27,0,0,0,.61-.24.34.34,0,0,0,0-.61,1.34,1.34,0,0,0-1.21.13.26.26,0,0,0,0,.48A5,5,0,0,0,1322.33,496.75Z"/><path class="cls-2" d="M1320.52,496.58c0,.12,0,.2-.07.27-.3.85-.61,1.7-.91,2.55a.36.36,0,0,1-.45.26c-.2-.05-.28-.2-.22-.44a1,1,0,0,1,.1-.25l1.1-2.24a.89.89,0,0,1,.13-.21.31.31,0,0,1,.2-.1C1320.46,496.42,1320.5,496.53,1320.52,496.58Z"/><path class="cls-2" d="M1322,499.48a1.72,1.72,0,0,1,.12-.36,4.62,4.62,0,0,0,.41-1.41c0-.16.09-.29.26-.29s.21.17.22.31a.69.69,0,0,1,0,.28c-.13.46-.27.93-.43,1.39a.5.5,0,0,1-.17.23.35.35,0,0,1-.27,0C1322.09,499.65,1322.05,499.54,1322,499.48Z"/><path class="cls-2" d="M1321.93,497.81a2.21,2.21,0,0,1-.41,1,3.45,3.45,0,0,1-.46.56.38.38,0,0,1-.35.07c-.14-.06-.1-.23,0-.35l.13-.24c.22-.37.43-.74.67-1.1a.39.39,0,0,1,.29-.18C1321.83,497.61,1321.89,497.76,1321.93,497.81Z"/><path class="cls-2" d="M1326,499.11c0,.23-.13.29-.26.26a.47.47,0,0,1-.27-.17c-.28-.42-.55-.85-.82-1.28a.39.39,0,0,1,0-.24.21.21,0,0,1,.35-.15.33.33,0,0,1,.12.16,2.82,2.82,0,0,0,.67,1A3.5,3.5,0,0,1,1326,499.11Z"/><path class="cls-2" d="M1323.55,497.79c0-.19,0-.36.21-.38s.22.13.27.28c.14.53.3,1.06.44,1.6a.75.75,0,0,1-.05.31l-.28-.11a.07.07,0,0,1,0-.05A7.54,7.54,0,0,1,1323.55,497.79Z"/><path class="cls-2" d="M1319.55,495.73h-.25a.27.27,0,0,1-.33-.25.31.31,0,0,1,.26-.36c.36,0,.75,0,1.12,0a.27.27,0,0,1,.26.27c0,.16-.12.24-.25.26l-.8.11S1319.55,495.74,1319.55,495.73Z"/><path class="cls-2" d="M1320.46,493.8c0,.24-.14.35-.31.28a2,2,0,0,1-.42-.23,4.61,4.61,0,0,1-.5-.44.38.38,0,0,1-.1-.32c0-.06.18-.11.29-.12a.43.43,0,0,1,.27.09c.23.19.46.38.69.58A.63.63,0,0,1,1320.46,493.8Z"/><path class="cls-1" d="M1285.5,475.26h-3.25l-.71,1.82h-1l3.14-7.57h.48l3.15,7.57h-1.05Zm-.3-.79-1.32-3.36-1.32,3.36Z"/><path class="cls-1" d="M1300.1,477.08h-1V471l-3.14,6.1h-.53l-3.13-6.1v6.1h-1v-7.57h1.36l3,6.06,3-6.06h1.36Z"/><path class="cls-1" d="M1309.23,475.26H1306l-.71,1.82h-1l3.14-7.57h.48l3.15,7.57h-1Zm-.3-.79-1.33-3.36-1.31,3.36Z"/><path class="cls-1" d="M1321.25,477.08h-1.13l-2.76-3.86-1.28,1.14v2.72h-1v-7.57h1v3.57l3.88-3.57h1.28l-3.25,3.07Z"/><path class="cls-1" d="M1331.17,474.06a3,3,0,1,1-6,0v-4.55h1v4.55a2.06,2.06,0,1,0,4.1,0v-4.55h1Z"/><path class="cls-1" d="M1340.67,475.11c0,1.45-1.38,2-2.72,2a3.8,3.8,0,0,1-2.67-1.15l.64-.65a2.69,2.69,0,0,0,2.06,1c1,0,1.74-.33,1.74-1.13s-.67-.95-1.92-1.47c-1-.43-2.15-.9-2.15-2.2a2.29,2.29,0,0,1,2.5-2,3.34,3.34,0,0,1,2.62,1.23l-.68.62a2.83,2.83,0,0,0-2.1-1.06c-.83,0-1.38.49-1.38,1.14,0,1.06,1.27,1.4,2,1.69C1339.5,473.47,1340.67,474,1340.67,475.11Z"/><path class="cls-1" d="M1349.66,475.26h-3.24l-.71,1.82h-1.05l3.14-7.57h.48l3.15,7.57h-1Zm-.31-.79-1.32-3.36-1.31,3.36Z"/><rect class="cls-1" x="1280.46" y="484.33" width="70.99" height="0.89"/><path class="cls-2" d="M1350.12,319.76c-.27.23-.47.64-.91.27.06-.19.13-.37.16-.5h-1.92c-.4,0-.88-.11-1.19.07-.56.32-1.11.16-1.66.25.06-.59.14-.65-.69-.86a1,1,0,0,1,.43-.12c.11,0,.24.06.34,0,.31-.07.62-.17.91-.27a.84.84,0,0,0,.31-.18.81.81,0,0,1,.82-.15,6,6,0,0,0,1.46,0c.08,0,.15-.21.29-.4l-2.46-.2a3.89,3.89,0,0,0,.93-.21,1.5,1.5,0,0,1,1.64-.14c.2-.25.52-.47.5-.67,0-.44.24-.51.52-.59a1.75,1.75,0,0,0,1.07-1.08h-1.29c-.22,0-.45,0-.68,0,0,0-.07-.1-.11-.16l.66-.07v-.46l.84-.3c-.08-.1-.1-.16-.15-.17-.68-.28-1.3-.91-2.13-.35,0,0-.18-.07-.25-.13s-.2-.28-.34-.31a7.15,7.15,0,0,0-1.64-.37,8.52,8.52,0,0,1-2.35-.27,10,10,0,0,0-2.42-.42c-.46,0-.92-.15-1.38-.22a4.83,4.83,0,0,0-1.63-.23,6.66,6.66,0,0,1-2.12-.24,14.89,14.89,0,0,0-2.17-.09,1.29,1.29,0,0,1-.44,0c-.84-.26-1.76.11-2.56-.38a13.26,13.26,0,0,1-3.08-.34,9.81,9.81,0,0,1-2.84-.66,1.25,1.25,0,0,0-.29-.07l-5.22-1c-.72-.14-1.44-.34-2.17-.49-.55-.11-1.1-.16-1.65-.25s-1.23-.2-1.84-.31c-.43-.08-.85-.25-1.28-.3a4.13,4.13,0,0,1-1.81-.27c-.11-.06-.3,0-.44,0a8.22,8.22,0,0,1-2.13-.21c-.29-.11-.65-.16-.67-.59l1.31-1.53c-.27-.37-.08-.72.25-1,.14-.14.36-.27.4-.44.2-.85,1.25-1.06,1.41-1.93.44-.17.48-.62.72-1a2.93,2.93,0,0,0,1.54-.87,1,1,0,0,1,.88-.41,1.85,1.85,0,0,0,1.66-.82,1.66,1.66,0,0,1,.69-.4c.23-.1.49-.13.7-.24.6-.3,1.07-.83,1.78-.93.08,0,.15-.12.22-.2a2.27,2.27,0,0,1,2.2-.71,1.61,1.61,0,0,0,1.17-.3c.27-.17.53-.32.9-.53a3.69,3.69,0,0,0-.1-.79c-.27-.78-.1-1,.49-1.37a1.5,1.5,0,0,1,.15-1.4,5.38,5.38,0,0,1,.25-.62,1,1,0,0,0-.24-1.34,4.14,4.14,0,0,1-.94-1.22,1,1,0,0,0-.45-.36c-1-.54-2-1.19-3-1.7a27.19,27.19,0,0,1-2.66-1.73,4.55,4.55,0,0,1-.82-.47,1.84,1.84,0,0,0-1.29-.44c-.17,0-.35,0-.52,0a2,2,0,0,1-1.73-1.32c-.37-1.07-.79-2.12-1.24-3.15-.13-.3-.29-.56,0-.79s.5-.45.87-.15c.1.08.31,0,.48,0s.29,0,.44,0a4.13,4.13,0,0,0,2.18-.26c.92-.47,1.93-.61,2.84-1.11.7-.39,1.51-.47,2.22-.95.52-.36.94-.94,1.67-1,0,0,0,0,.06,0l.72-.38c.45-.24,1-.27,1.38-.7a3,3,0,0,1,.93-.59,2.58,2.58,0,0,1,1-.3c.53,0,.43-.59.79-.71,0,0,.07-.07.12-.09a8.5,8.5,0,0,0,1.64-.91,2,2,0,0,1,.19-.11,3.52,3.52,0,0,0,1.64-1.09,1.63,1.63,0,0,0,.5-1.36c-.08-.55,0-1.19-.66-1.47-.06,0-.1-.1-.13-.16l-.82-1.12s.11-.24,0-.35a1.73,1.73,0,0,0-.59-.64c-.81-.47-1.64-.88-2.47-1.32a2.75,2.75,0,0,1-.29-.23c0-.26.22-.54-.11-.77,0,0,0-.24,0-.34a1.58,1.58,0,0,0-.18-1.26,3.4,3.4,0,0,0-1.75.16,2.46,2.46,0,0,1-1.32.1,8,8,0,0,0-2.38-.19.68.68,0,0,1-.35-.08,1.89,1.89,0,0,0-2.07.19c-.27-.26-.39-.77-.86-.57-.9.37-1.81,0-2.7.17s-1.51-.35-2.29-.13c-.4-.32-.68-.05-1,.25a.88.88,0,0,0-1.09-.29,1.37,1.37,0,0,1-1.35,0,.48.48,0,0,0-.42,0,1.56,1.56,0,0,1-1.84-.3l-1.74.5c-.09,0-.23,0-.28,0a1.11,1.11,0,0,0-1.25-.06,5.37,5.37,0,0,1-1.9.15,16.37,16.37,0,0,1-2.26-.2c-.22,0-.53.07-.64,0-.34-.36-.68-.17-1-.1s-.69.11-1,.15c-.53.05-1.06-.35-1.58,0,0,0-.18-.07-.27-.08-.27,0-.61-.12-.8,0a.84.84,0,0,1-.69,0c-.67-.11-1.33-.26-2-.4-.15.44-.47.53-.78.34a3.42,3.42,0,0,0-2.55-.21,6.17,6.17,0,0,1-3,0c-.14,0-.35-.07-.44,0a5.58,5.58,0,0,1-1.49.55,4.35,4.35,0,0,0-1.57,1.45c-.24.3-.2.7-.31,1-.16.48-.65.85-.21,1.41,0,0-.06.08-.07.13-.07.26-.28.63-.18.78.23.35,0,.59,0,.88a3.46,3.46,0,0,0,.15.87,8.16,8.16,0,0,0,.35.81l.66,1.33c.65.09.61.62.65,1.07.24.1.47.06.5.45a.86.86,0,0,0,.77.72,1.08,1.08,0,0,1,.43.12,8.66,8.66,0,0,0,2.26,1.1,1.17,1.17,0,0,1,.34.28c.1.1.19.25.32.31a7.35,7.35,0,0,0,3.07.89.79.79,0,0,1,.36.09,5.06,5.06,0,0,0,2.81.17.79.79,0,0,0,1.26,0c.07,0,.09-.12.14-.18a1,1,0,0,1,1.15-.24,2.81,2.81,0,0,0,.86.12,1.4,1.4,0,0,0,1-.21c.31-.26.71.09,1-.1.06,0,.15,0,.2-.09.51-.5,1.14-.29,1.69-.17a2.72,2.72,0,0,0,1.09,0,22.07,22.07,0,0,1,2.41-.31,5.75,5.75,0,0,1,1.32.23c.52-.74,1.23-.67,2-.53a1.32,1.32,0,0,0,.7,0,4.31,4.31,0,0,1,2.05-.22,2,2,0,0,0,1.5-.27.93.93,0,0,1,1.25.08,12.29,12.29,0,0,1-1.12,1c-.4.29-.9.44-1.27.75a9.83,9.83,0,0,1-1.82,1,.87.87,0,0,1-.77.07c-.57-.2-1.16-.36-1.72-.54.07.38.14.81.21,1.23a12.13,12.13,0,0,1-3.31,1.85,5.27,5.27,0,0,1-1.09.47c-.55.13-1,.56-1.65.43a.25.25,0,0,0-.15,0c-.87.36-1.72.77-2.61,1.08a23.76,23.76,0,0,1-2.51.6,17.89,17.89,0,0,1-3.13.28,5,5,0,0,0-1.73.36,11,11,0,0,1-1.72.41l-.06,0a18.26,18.26,0,0,1-2.48.8c-1.2.22-2.42.28-3.67.41-.2.34-.2.33-.72.57-.08,0-.19.09-.22.17a4.17,4.17,0,0,0-.68,1.62,4.91,4.91,0,0,0,.53,2.65c.07.13,0,.32,0,.48.09.35-.16.72.11,1.07a14.36,14.36,0,0,1,.84,1.26l-.12.38a2.75,2.75,0,0,1,.5.47c.32.5.59,1,.92,1.53a2.3,2.3,0,0,0,.51.49c.28.23.57.45.85.67.11.09.18.25.29.33a22.16,22.16,0,0,0,3.48,2.1.88.88,0,0,1,.13.07,6,6,0,0,0,3.18,1.13c.66.09,1.45,0,2,.59,0,0,.17,0,.26,0,.48,0,1.07-.08,1.31.31s.68.49,1.13.54a2.19,2.19,0,0,1,.91.22,3.48,3.48,0,0,0,1.3.54c.76.15,1,.45.71,1.18a5.77,5.77,0,0,1-.82,1.56,5.42,5.42,0,0,0-1.11,2.06c0,.11-.14.19-.22.28-.4.49-.81,1-1.2,1.47a11.22,11.22,0,0,0-.72,1.08c-.11.18-.13.49-.27.58-.43.23-.52.67-.67,1a2.91,2.91,0,0,1-.57,1,1.15,1.15,0,0,0-.21.54,2.64,2.64,0,0,1-.1.77.82.82,0,0,0,0,.89.8.8,0,0,1-.12,1.08.7.7,0,0,0-.17.62,1.6,1.6,0,0,1,0,1.42c-.36.8.24,1.6-.13,2.36.23.29,0,.61.06.91,0,.66-.13,1.42.62,1.86,0,0,0,.09.07.13.17.34.34.68.54,1.07-.06.11-.17.29-.33.54.47.29.9.58,1.37.82a2.35,2.35,0,0,0,2.37-.59,1.55,1.55,0,0,1,1.38-.85c.14,0,.29-.2.44-.3-.17-.21,0-.27.14-.32.36-.15.35-.49.39-.73a2.22,2.22,0,0,0,.52-.29c.53-.56,1-1.15,1.56-1.71a2.43,2.43,0,0,1,.6-.53,14.73,14.73,0,0,0,1.48-.71,7,7,0,0,1,2.65-.81,8.48,8.48,0,0,1,2.45-.29.4.4,0,0,0,.21-.06,1.19,1.19,0,0,1,1.4.13c.68.58,1.52.84,2.2,1.36a1.71,1.71,0,0,0,1.64.29c.07.24.07.54.19.6a13,13,0,0,0,1.78.67,4.25,4.25,0,0,0,1.61-.06,9.09,9.09,0,0,1,2.44,0,1.61,1.61,0,0,0,.4,0,.86.86,0,0,0-.95-.44,2.73,2.73,0,0,1-.74,0c0-.3.08-.49.14-.79.53-.12,1.1-.22,1.67-.39.2-.06.36-.27.58-.44l.78.32-1.42.42.42.66c.45.13.95-.24,1.22.31-.14.38-.43.3-.69.2s-.5,0-.64.35l2,.31,2.43.42c.31,0,.64,0,.94.09a3.05,3.05,0,0,1,.9.22c.44.22.85.53,1.27.79a.54.54,0,0,0,.29.08l2.23-.08a.51.51,0,0,1,.29,0,3.66,3.66,0,0,0,3.1.35l1.55-.31c.07.1.12.14.13.18s0,.15.05.21c.24.66.41.71,1.12.61a2.58,2.58,0,0,1,1.09.13,2.51,2.51,0,0,0,2-.06c.1,0,.23-.21.21-.24-.11-.2,0-.31.15-.32s.23.12.34.19l.71-.48c0-.18-.09-.32-.13-.46l0,0v0L1341,321c.07-.11.12-.21.18-.22.22,0,.3.1.3.29h0a1.45,1.45,0,0,1,1.34,0l-.92.37.07,0,0,0,.15.14-.17-.11-.65.77.08.17a3.29,3.29,0,0,1,1.61.18h0c0-.27,0-.26.4-.16l-.4.16v0h0l-.46.4,0,.16h1c-.43.39-.47.94-1.08,1,.15.16.23.33.32.33a8.07,8.07,0,0,0,1.23,0,1.11,1.11,0,0,1,.79.14.83.83,0,0,0,1.08-.15,4.71,4.71,0,0,1,.49-.36c-.48-.1-.93,0-1.19-.44,0-.06-.18,0-.28-.06l-1.1-.16a.57.57,0,0,1,0-.14h2c.19-.21.38-.4.54-.6a1,1,0,0,0,.19-.38c.07-.25,0-.59.35-.66a5.47,5.47,0,0,1,.81-.09,9.55,9.55,0,0,0,1.08,0,5.61,5.61,0,0,0,1-.3l1-1.08Zm-3.27-5.58c.09,0,.31.06.38.16a3.55,3.55,0,0,1,.29.71l-1.79-.19C1346,314.33,1346.49,314.33,1346.85,314.17Zm-1.67.17c0,.23,0,.35.06.53l-.56-.09Zm-39-32.37a7.62,7.62,0,0,0-.08,2,2,2,0,0,1-.34,1.27,5.43,5.43,0,0,0-.44.94,4.26,4.26,0,0,1-.87.17c-.58,0-1.14.43-1.75.09-.45.46-1,0-1.42.11a18.74,18.74,0,0,1-1.91.15,16.34,16.34,0,0,0-1.67,0c-.9.15-1.77-.16-2.64-.09-1,.07-2-.4-3-.38-.85,0-1.72-.07-2.58-.12-.63,0-1.26-.08-1.89-.15a2.29,2.29,0,0,1-.72-.23.33.33,0,0,1,0-.6l.14-.05a14.52,14.52,0,0,1,2.61-.83c.65-.09,1.05-.6,1.67-.64.11,0,.23-.19.32-.31.3-.37.6-.74.88-1.13a3.24,3.24,0,0,1,1.86-1.08.28.28,0,0,1,.15,0,7.94,7.94,0,0,0,3.16-.23c2.07-.26,4.1-.78,6.19-.92a6.8,6.8,0,0,0,1.59-.48c.73-.21.88-.11.92.67A6.15,6.15,0,0,1,1306.15,282Zm9.81,36.37.36-.29C1316.4,318.39,1316.33,318.55,1316,318.34Zm7.95-.91v0l0,0,.57-.16c-.15.4-.35.34-.57.16h0l-.1.33c-.05,0-.12-.08-.13-.13C1323.61,317.38,1323.79,317.45,1323.91,317.43Zm-1.59-1,.68-.15a1.42,1.42,0,0,0,0,.19C1322.84,316.66,1322.62,316.76,1322.32,316.41Zm.78,1c-.22,0-.45.14-.64-.09C1322.76,317,1322.93,317.2,1323.1,317.39Zm2.64,1.51c-.3.29-.56.63-1.09.47a2.2,2.2,0,0,0-1.31-.08c-.22.06-.5-.14-.86-.25l.47-.76,1.15.53c.14-.13.24-.31.34-.32.52-.07,1-.1,1.61-.15A2.8,2.8,0,0,1,1325.74,318.89Zm.53-2.1h0a2.72,2.72,0,0,1-.6.18,6.69,6.69,0,0,1-.84,0c0-.13,0-.29-.09-.47a1.66,1.66,0,0,1,1.53.29h.06c.54-.23,1.08,0,1.62,0-.56.31-1.08,0-1.62,0Zm1,2.77-.44-.54c0-.28,1.24-.33,1.46,0,0,.06.07.12.12.18a2.12,2.12,0,0,0,.16.17C1328.19,319.76,1327.71,319.47,1327.28,319.55Zm16.55-5.38c0,.58,0,.62-.84.46C1343.57,314.58,1343.57,314.58,1343.84,314.17ZM1338,314a.9.9,0,0,1,.25.1.63.63,0,0,0,0,.15l-.45-.1V314A.57.57,0,0,1,1338,314Zm-2.15,3.9-.7,0C1335.54,317.38,1335.54,317.38,1335.85,317.9Zm-.86-1.64.31.08,0,.13-.31-.09Zm.81,4a1.35,1.35,0,0,1-.84-.13l-.54.64-1.62-.33a.94.94,0,0,1,.66-1.12c.28-.11.43-.12.65.07.38.32.54.26,1,.07a4,4,0,0,1,1.39-.24C1336,319.38,1336.44,320.1,1335.8,320.21Zm1.75-2.25h-1.32c.34-1.43.63-1.68,1.46-1.31.27-.26.47-.52.88-.07.22.24.73.19,1.11.27l.25,0a.76.76,0,0,1,0,.11c-.64,0-1.29,0-1.93,0a.88.88,0,0,0-1,.55Zm.91,3.17-.49-.74.85-.22C1339,320.69,1339,320.78,1338.46,321.13Zm1.43.06c-.1-.1-.06-.34-.1-.7l1,.61C1340.37,321.24,1340.12,321.43,1339.89,321.19Zm2.76-2.13c-.57-.29-1.21-.06-1.78-.27a1.34,1.34,0,0,0-1.58.32c-.09.09-.27.1-.42.15l-.06-.12.51-.4-.32-.5.52.13c.12,0,.29.14.35.1.58-.4,1.31.07,1.89-.44l.37.6a.39.39,0,0,0,.12,0,1.52,1.52,0,0,1,.43-.09c.14,0,.36.15.37.24A.29.29,0,0,1,1342.65,319.06Zm.36-1.63c.36-.74.93-.35,1.52-.45C1344.08,317.68,1343.56,317.42,1343,317.43Zm2.47,4.4c-.65-.12-1.38.23-2.07-.28.57-.57,1.21-.39,1.82-.27C1345.46,321.33,1345.63,321.49,1345.48,321.83Z"/><path class="cls-2" d="M98,372.63a119.72,119.72,0,0,0-33.33,1.26c-4.42.81-8.85,1.69-13.27,2.51a19.22,19.22,0,0,1-3.2.32c-1.27-.06-2.84-.49-3.16-1.38a3.85,3.85,0,0,1,1.15-3.49c1.14-1.17,4.87-3,8.57-5.35,3-2.23,4.18-8.55,5-11.6,2.93-10.53,3.53-14.59,8.28-25.31a29.14,29.14,0,0,1,5.53-8.14c1.63-1.59,4.77-1.73,5.7,1.81,1.12,4.44,1,7.92,1,11.9a35.18,35.18,0,0,1-.81,8.4c-.24.73-.89,1.84-1.72,1.84a1.88,1.88,0,0,1-1.65-1.67,46.8,46.8,0,0,1-.24-5.88c0-1.58,0-3.33,0-4.6,0-1-.31-2.65-1.24-2.81s-1.52,1.3-2.05,2.66a152,152,0,0,0-5.57,17.79c-.52,2.34-1.46,6-2,9.87-.25,2.32.77,3.75,2.74,4.13a51.7,51.7,0,0,0,5.92.54c9.31.5,16,.94,25.34,1.42.31,0,.62,0,1.06,0,1.91-6,3.37-12.1,3-18.46-.17-2.95-1-3.32-3.38-1.67-3.23,2.25-6.4,4.59-9.57,6.91-2.16,1.58-3.76,1.7-5.3.3a4.17,4.17,0,0,1-.62-5.83,18.18,18.18,0,0,1,3.84-3.92c7.9-5.71,16.43-10.09,26.24-11.38,4.56-.6,9.12-.61,13.52,1a14.46,14.46,0,0,1,2.56,1.22c3.8,2.35,4.82,6.18,2.58,9.95a24.76,24.76,0,0,1-6.84,7.53,141,141,0,0,1-14.71,9c-3.05,1.67-4,2.36-5.24,6.09,2.76.4,5.49.75,8.21,1.21,3.81.63,7.64,1.21,11.4,2.07A9.29,9.29,0,0,1,130,373c1.09,1,.93,1.69.74,2.23a2.48,2.48,0,0,1-2.56,1.35c-6.73-.91-13.41-2.05-20.12-3.08-3.94-.62-3.92-.58-5.33,3.14q-2.3,6-4.71,12c-1,2.37-3.31,3-5.42,1.44-1.23-.88-.83-1.9-.36-3,1.86-4.5,3.59-8.84,5.41-13.36A9.9,9.9,0,0,0,98,372.63Zm11.21-24.34h0c0,.69-.14,3.48-.15,4.17,0,2.08.93,2.94,2.85,2.18,5-2,9.49-4.89,12.39-9.61,2.08-3.39.64-5.92-3.34-6.28a20.62,20.62,0,0,0-10.16,1.94,2.32,2.32,0,0,0-1.13,1.54C109.4,344.23,109.38,346.27,109.22,348.29Z"/><path class="cls-1" d="M0,437.28v-.68A5.81,5.81,0,0,0,4.41,435a4.8,4.8,0,0,0,1.21-2.28A20.5,20.5,0,0,0,6,428.49l.2-20.74a20.19,20.19,0,0,0-.31-4.42A4.66,4.66,0,0,0,4.6,401a5.11,5.11,0,0,0-1.75-1.09,8.76,8.76,0,0,0-2.49-.42v-.65l18,.17v.65a9.53,9.53,0,0,0-2.54.4,4.62,4.62,0,0,0-3.07,3.38,20.41,20.41,0,0,0-.38,4.36l-.15,16.24q0,3.74.14,5.58a9,9,0,0,0,.73,3,6.21,6.21,0,0,0,2.9,3,12,12,0,0,0,5.14,1,15.78,15.78,0,0,0,5.65-.83,8.69,8.69,0,0,0,3.78-2.71,11.36,11.36,0,0,0,1.65-2.85A25.52,25.52,0,0,0,33.41,426l.68.06-.48,11.54Z"/><path class="cls-1" d="M58.95,435.11l.48.28c-.7,2-2.25,2.93-4.67,2.91a5.41,5.41,0,0,1-3.32-1A7.45,7.45,0,0,1,49.66,435a18,18,0,0,1-2.87,2.19,8.62,8.62,0,0,1-4.27,1,7.55,7.55,0,0,1-4.91-1.53,4.94,4.94,0,0,1-1.78-4,5.5,5.5,0,0,1,1.53-3.91,6.68,6.68,0,0,1,2-1.37,17.91,17.91,0,0,1,3.19-1c1.64-.4,2.84-.74,3.62-1a7.17,7.17,0,0,0,2-1,3.33,3.33,0,0,0,1.25-1.5,6.92,6.92,0,0,0,.36-2.42,7.57,7.57,0,0,0-1.19-4.82,4,4,0,0,0-1.44-1.14,4.2,4.2,0,0,0-1.84-.44,3.61,3.61,0,0,0-3.42,2.19l-.72,1.62a2,2,0,0,1-2,1.31,2.23,2.23,0,0,1-1.6-.65,2.12,2.12,0,0,1-.63-1.6c0-1,.69-1.76,2-2.4a12.19,12.19,0,0,1,2.73-.81,16.36,16.36,0,0,1,3.17-.29,15.77,15.77,0,0,1,3.64.48A12.4,12.4,0,0,1,51.57,415a4.46,4.46,0,0,1,2.25,2.72,12.31,12.31,0,0,1,.2,2.85L53.92,431a18.54,18.54,0,0,0,.19,3.6,2.25,2.25,0,0,0,2.29,2,2.53,2.53,0,0,0,1.37-.3A4.74,4.74,0,0,0,58.95,435.11Zm-9.21-11.18a19,19,0,0,1-3.36,2.19,28.16,28.16,0,0,0-2.85,1.63,7.46,7.46,0,0,0-1.45,1.34,5.86,5.86,0,0,0-1.35,3.79,4.6,4.6,0,0,0,1,3.08,3.25,3.25,0,0,0,2.58,1.23,4.39,4.39,0,0,0,2.6-.83,5.29,5.29,0,0,0,1.86-2.28,13.51,13.51,0,0,0,.92-5.45Z"/><path class="cls-1" d="M80,438.55a16.74,16.74,0,0,1-.33-3.52,11.39,11.39,0,0,1-8.37,3.44,8.79,8.79,0,0,1-5.64-1.77,5.83,5.83,0,0,1-2-4.8l.09-9.78V420a12.38,12.38,0,0,0-.2-2.78,3.11,3.11,0,0,0-.83-1.5,5.85,5.85,0,0,0-2.92-1.15v-.62L68,414l-.14,14.27a34.88,34.88,0,0,0,.17,4.47,6.52,6.52,0,0,0,.74,2.39,4.28,4.28,0,0,0,1.76,1.52,5.91,5.91,0,0,0,2.57.58,7.09,7.09,0,0,0,3-.59A5.31,5.31,0,0,0,78.28,435a6,6,0,0,0,1.1-2.52,28.37,28.37,0,0,0,.31-4.72l.05-5.51v-2.08a13,13,0,0,0-.18-2.78,2.94,2.94,0,0,0-.85-1.5,5.7,5.7,0,0,0-2.91-1.15v-.62l8.27.08-.15,15.27a36.8,36.8,0,0,0,.11,4.07,4.81,4.81,0,0,0,.59,1.9,3.14,3.14,0,0,0,1.18,1.15,5.08,5.08,0,0,0,1.94.45v.59Z"/><path class="cls-1" d="M97.76,418.19a8.13,8.13,0,0,1,2.3-2.65,8.94,8.94,0,0,1,5.34-1.61,4.2,4.2,0,0,1,2.78.84,2.27,2.27,0,0,1,.86,1.8,1.72,1.72,0,0,1-.54,1.29,1.84,1.84,0,0,1-1.34.49,2.18,2.18,0,0,1-1.66-.8l-.86-1a3.25,3.25,0,0,0-2.44-1.12c-1.28,0-2.28.8-3,2.45a17.76,17.76,0,0,0-1.14,6.88L98,430.06v2.14a12.16,12.16,0,0,0,.2,2.79,2.9,2.9,0,0,0,.86,1.49,5.81,5.81,0,0,0,2.88,1.18v.59l-12.44-.12v-.59a7.37,7.37,0,0,0,2.43-.61,2.88,2.88,0,0,0,1.19-1.38,6.08,6.08,0,0,0,.45-1.94q.14-1.3.16-3.76l.07-6.92a38.69,38.69,0,0,0-.1-4,4.48,4.48,0,0,0-.6-1.9A3,3,0,0,0,92,415.85a5,5,0,0,0-1.94-.45v-.6l7.27-.94A24.1,24.1,0,0,1,97.76,418.19Z"/><path class="cls-1" d="M110.37,415l8.12-.93-.15,16.21v2.13a12.15,12.15,0,0,0,.2,2.8,2.9,2.9,0,0,0,.85,1.48,5.91,5.91,0,0,0,2.9,1.18v.59l-12.45-.12v-.59a7.28,7.28,0,0,0,2.42-.61,2.86,2.86,0,0,0,1.2-1.38,6,6,0,0,0,.45-1.94q.14-1.3.16-3.76l.07-6.92a37.79,37.79,0,0,0-.1-4,4.42,4.42,0,0,0-.6-1.9,3,3,0,0,0-1.14-1.14,5,5,0,0,0-1.94-.45Zm6-11.06a2.49,2.49,0,0,1-1.82-.72,2.5,2.5,0,0,1,0-3.54,2.63,2.63,0,0,1,3.62,0,2.52,2.52,0,0,1,0,3.54A2.5,2.5,0,0,1,116.35,403.93Z"/><path class="cls-1" d="M132.34,414.19a13.14,13.14,0,0,1,.37,3.06v.46a11.31,11.31,0,0,1,8.34-3.43,9.24,9.24,0,0,1,5.78,1.74,5.6,5.6,0,0,1,2.12,4.75l-.11,11.92a12.26,12.26,0,0,0,.2,2.8,2.87,2.87,0,0,0,.86,1.49,5.8,5.8,0,0,0,2.88,1.18v.59l-12.44-.12V438a7.37,7.37,0,0,0,2.42-.61A2.88,2.88,0,0,0,144,436a6.18,6.18,0,0,0,.45-1.95c.1-.88.15-2.13.17-3.76l.06-6a33.88,33.88,0,0,0-.17-4.5,5.41,5.41,0,0,0-.78-2.31,4.2,4.2,0,0,0-1.83-1.55,6.49,6.49,0,0,0-2.67-.57,7,7,0,0,0-2.94.59,5.29,5.29,0,0,0-2.16,1.66,6.06,6.06,0,0,0-1.13,2.53,28.44,28.44,0,0,0-.31,4.71l-.05,5.5v2.08a12.14,12.14,0,0,0,.2,2.8,2.88,2.88,0,0,0,.86,1.49,5.83,5.83,0,0,0,2.88,1.18v.59l-12.43-.12v-.59a7.34,7.34,0,0,0,2.42-.61,2.89,2.89,0,0,0,1.19-1.38,6.27,6.27,0,0,0,.46-1.94q.13-1.3.16-3.76l.07-6.92a38.89,38.89,0,0,0-.1-4,4.53,4.53,0,0,0-.6-1.9,3,3,0,0,0-1.14-1.14,5,5,0,0,0-1.93-.45v-.6Z"/><path class="cls-1" d="M160.51,423.5c-.09.91-.13,1.58-.14,2a16.29,16.29,0,0,0,.67,4.79,11.32,11.32,0,0,0,1.92,3.9,8.77,8.77,0,0,0,3.1,2.52,9,9,0,0,0,3.9.93,8.22,8.22,0,0,0,2.88-.47,6.27,6.27,0,0,0,2.27-1.39,7.92,7.92,0,0,0,1.77-3.14l.59.2a7.8,7.8,0,0,1-3.18,4.94,11,11,0,0,1-6.42,1.61,14.75,14.75,0,0,1-5.93-1.15,10.61,10.61,0,0,1-4.16-3.42,12.63,12.63,0,0,1-2.32-7.85,12,12,0,0,1,4.63-9.89,11.7,11.7,0,0,1,7.54-2.55,10.65,10.65,0,0,1,4.15.84,8.6,8.6,0,0,1,3.22,2.35,8.69,8.69,0,0,1,2,5.94Zm12.28-1a10.6,10.6,0,0,0-1-4.34,6,6,0,0,0-2-2.2,4.9,4.9,0,0,0-2.68-.83,5.44,5.44,0,0,0-4.23,2,9.28,9.28,0,0,0-2.2,5.22Z"/><path class="cls-2" d="M360.67,363.52c-.23-8.83-6.8-14.92-15.69-15-8.39-.06-16.78,0-25.17,0s-16.78,0-25.17,0c-9.11.07-15.56,6.38-15.68,15.48s-.1,18.36,0,27.55,6.44,15.71,15.46,15.8q25.41.25,50.82,0c8.81-.08,15.25-6.52,15.45-15.34C360.89,382.52,360.92,373,360.67,363.52Zm-2.9,27.38c-.07,8.25-5.13,13.46-13.29,13.5q-24.71.14-49.42,0c-7.92,0-13-5.21-13.13-13.15q-.16-13.3,0-26.61c.08-8,5-13.07,13-13.17,8.39-.11,16.79,0,25.18,0,8.08,0,16.16-.07,24.23,0,8.28.09,13.32,5.08,13.39,13.3Q357.88,377.83,357.76,390.9Z"/><path class="cls-2" d="M351.07,364.91a33.34,33.34,0,0,1-1.6,3.95c-4.29,7.92-8.6,15.83-13,23.69-2.41,4.3-5.53,5.49-8.86,3.62s-4-5.14-1.74-9.43c4.42-8.21,9-16.35,13.48-24.51,1.56-2.82,3.93-4,7.14-3.3C349.38,359.6,350.49,361.76,351.07,364.91Z"/><path class="cls-2" d="M316.11,364a8.55,8.55,0,0,1-1.19,4.62c-4.44,8-8.86,16.06-13.31,24.09-1.89,3.41-4.47,5.45-8.51,3.52-3.55-1.7-4.38-5.09-2.13-9.27,4.5-8.36,9.13-16.64,13.73-24.93a5.85,5.85,0,0,1,7.22-3.07A5.3,5.3,0,0,1,316.11,364Z"/><path class="cls-2" d="M327.81,358.73c4.36.08,7.32,4.34,5.24,8.37-4.7,9.13-9.71,18.1-14.85,27-1.67,2.88-4.55,3.89-7.79,2.08s-4.14-4.75-2.62-7.69c4.72-9.12,9.8-18.06,14.82-27A5.39,5.39,0,0,1,327.81,358.73Z"/><path class="cls-1" d="M376,384.74q-.59,4.71-.76,6.8a28.82,28.82,0,0,0-.09,3.68,15.54,15.54,0,0,0-4,0,19.5,19.5,0,0,0,.45-2q.25-1.31.76-4.56l1.72-11.75q1.51-10.89,2.29-18.2h.94q3.79,7.44,9.82,18.38l5.77,10.35h0l15.45-28.73h.94q.57,7.31,1.85,18.22.75,6.47,1.46,11.72.47,3.33.69,4.64a16.91,16.91,0,0,0,.4,1.91A17.29,17.29,0,0,0,411,395q-1.48,0-2.62.05-.57-7.3-1.84-18.22l-.91-7.62h0q-2,3.46-4.13,7.49-5.89,10.94-9.35,18.51h-.94q-3.62-7.43-9.4-18.38l-4-7.49h0l-.93,7.51Z"/><path class="cls-1" d="M421.7,392.12a13.13,13.13,0,0,1-3.42-9.41,13.32,13.32,0,0,1,3.65-9.74,12.71,12.71,0,0,1,9.5-3.73,11.7,11.7,0,0,1,8.9,3.61,13.17,13.17,0,0,1,3.42,9.44,13.31,13.31,0,0,1-3.64,9.72,12.72,12.72,0,0,1-9.51,3.72A11.7,11.7,0,0,1,421.7,392.12Zm15.07-1.47a15,15,0,0,0,2.16-8.51q0-5.28-2.05-8.14a6.77,6.77,0,0,0-5.85-2.86,6.63,6.63,0,0,0-5.75,3.2,15,15,0,0,0-2.16,8.53q0,5.28,2.05,8.12a6.78,6.78,0,0,0,5.85,2.85A6.63,6.63,0,0,0,436.77,390.65Z"/><path class="cls-1" d="M449.82,390.64q.1-3.61.1-8.21t-.1-8.08q-.1-2.29-.17-3.21a9.5,9.5,0,0,0-.17-1.36,15.81,15.81,0,0,0,4.78,0,2.27,2.27,0,0,0-.19.78q-.07.55-.17,1.95l-.1,1.53a19.74,19.74,0,0,1,1.48-1.85,9.39,9.39,0,0,1,7-2.94,8.24,8.24,0,0,1,6.27,2.43,9.17,9.17,0,0,1,2.31,6.59v12.37q0,1.22.08,2.13t.29,2.44a23.51,23.51,0,0,0-4.94,0,14.36,14.36,0,0,0,.21-1.57q.08-.92.13-3,.1-3.67.1-8.16v-3a8.26,8.26,0,0,0-1.64-5.45,5.6,5.6,0,0,0-4.55-2,5.85,5.85,0,0,0-4.93,2.13q-1.65,2.13-1.65,6.4v1.79q0,4.6.1,8.21.05,2.08.13,3a15.49,15.49,0,0,0,.21,1.59,21.17,21.17,0,0,0-2.5-.13,20.92,20.92,0,0,0-2.47.13,14.37,14.37,0,0,0,.21-1.59Q449.76,392.72,449.82,390.64Z"/><path class="cls-1" d="M489.28,394.75a7.86,7.86,0,0,1-3.9,1,5.87,5.87,0,0,1-4.54-1.6,7.09,7.09,0,0,1-1.47-4.93v-17a16.72,16.72,0,0,0-2.11.08,1.86,1.86,0,0,0-.6.12,2.5,2.5,0,0,0-.57.27,13.36,13.36,0,0,0,0-3.33,3.3,3.3,0,0,0,.58.27,1.7,1.7,0,0,0,.56.12l2.13.13v-1.4a22.33,22.33,0,0,0-.12-2.3,7.39,7.39,0,0,0-.3-1.62,22,22,0,0,0,5-2.24,9.55,9.55,0,0,0-.3,2q-.12,1.51-.12,3.17v2.39q2.55,0,4.47-.16a1.86,1.86,0,0,0,.6-.12,2.51,2.51,0,0,0,.57-.27,13.36,13.36,0,0,0,0,3.33,2.51,2.51,0,0,0-.57-.27,1.81,1.81,0,0,0-.57-.12q-1.95-.13-4.5-.16v17.08a5.46,5.46,0,0,0,.94,3.44,3.27,3.27,0,0,0,2.73,1.18,4.06,4.06,0,0,0,2.11-.62,6.6,6.6,0,0,0-.05.75A6.75,6.75,0,0,0,489.28,394.75Z"/><path class="cls-1" d="M513.43,374.34q-2.73,5.72-6.08,13.36t-5.75,13.75q-.7,1.77-1,2.69a17.19,17.19,0,0,0-.52,1.88,20.71,20.71,0,0,0-4.63,0q1-1.35,1.61-2.28t1.35-2.3l3.46-6.3h0q-2-5.2-5.25-12.63-2-4.57-3.66-8.19-1-2.18-1.51-3.09a14.3,14.3,0,0,0-.86-1.48q1.32.13,3,.13t3-.13a14.25,14.25,0,0,0,.51,2.79,37.62,37.62,0,0,0,1.34,3.6q1.2,3,2.71,6.53l3,7h0l.7-1.61q2-4.91,3.65-9.15,1.46-3.69,2-5.52a17,17,0,0,0,.68-3.63,20.7,20.7,0,0,0,4.63,0,14.56,14.56,0,0,0-.81,1.35Q514.55,372,513.43,374.34Z"/><path class="cls-1" d="M103.7,111l-.63,0-.56-.06-.12,0,.68.07.63,0c.53,0,1.05,0,1.58.05l.12-.06C104.83,111,104.26,111,103.7,111Z"/><path class="cls-1" d="M141,75.75a35.36,35.36,0,0,0-4.13-16.46v.07A35.37,35.37,0,0,1,141,75.75Z"/><path class="cls-1" d="M125.38,90.23l-.32.43c-.44.58-.9,1.14-1.38,1.66l-.08.08c-.47.5-1,1-1.45,1.43l-.39.35c-.53.46-1.07.91-1.63,1.31l-.17.12c-.52.38-1.06.72-1.61,1.05l-.43.26c-.6.34-1.2.66-1.82,1l-.24.11q-.84.38-1.71.7l-.46.17c-.65.22-1.3.42-2,.59l-.31.07c-.59.14-1.18.26-1.78.36l-.47.07c-.68.1-1.36.17-2,.21h-.36c-.34,0-.68,0-1,0l-.76,0-.52,0c-.69,0-1.38-.1-2.07-.19l-.34-.06q-.89-.14-1.78-.35l-.53-.13c-.68-.17-1.36-.37-2-.61l-.21-.08c-.61-.22-1.22-.47-1.82-.75l-.52-.24c-.5-.24-1-.5-1.48-.78a40.45,40.45,0,0,1-7.11,8.35l0,0A40.46,40.46,0,0,0,93.68,97c.49.28,1,.54,1.48.78l.52.24c.6.27,1.21.53,1.82.75l.21.08c.67.24,1.35.43,2,.61l.53.13q.89.21,1.78.34l.34.06q1,.14,2.07.19l.52,0,.76,0c.34,0,.68,0,1,0h.36q1-.06,2-.21l.47-.07c.6-.1,1.19-.21,1.78-.35l.31-.07c.66-.17,1.31-.37,2-.59l.46-.17c.58-.21,1.15-.44,1.71-.7l.24-.11c.62-.29,1.23-.61,1.82-1l.43-.26c.55-.33,1.08-.68,1.61-1.05l.17-.12c.56-.41,1.1-.85,1.63-1.31l.39-.35c.5-.45,1-.93,1.45-1.43l.08-.08c.48-.52.94-1.09,1.38-1.66l.32-.43c.43-.59.85-1.2,1.24-1.84A24.19,24.19,0,0,0,130.1,76a24.19,24.19,0,0,1-3.49,12.43C126.23,89,125.81,89.64,125.38,90.23Z"/><path class="cls-1" d="M123.9,45.68c-.36-.22-.72-.4-1.09-.6a40.37,40.37,0,0,1-4,10.2l0,0a40.39,40.39,0,0,0,4-10.15c.36.2.73.39,1.09.6a35,35,0,0,1,11.45,11.11v-.07A35,35,0,0,0,123.9,45.68Z"/><path class="cls-1" d="M114.06,18.17A35.17,35.17,0,0,0,83.9,0H82.64l-.85,0-.94.05L80,.15l-.92.1-.83.1L77.35.5l-.81.14-.9.19-.8.18L74,1.25l-.78.22-.86.28L71.54,2l-.84.31-.75.29L69.12,3l-.73.33-.8.39L66.87,4l-.78.43-.7.39-.76.47L64,5.76l-.74.5-.65.46-.71.53-.63.49-.68.57-.6.52-.65.6-.58.54-.62.63-.55.57-.59.66-.53.6-.56.69-.5.62-.53.72c-.15.21-.31.42-.46.64s-.33.5-.5.75l-.44.66-.46.77-.36.61a53.59,53.59,0,0,1,61.44.3Z"/><path class="cls-1" d="M50.7,21.84c-.1.24-.2.48-.3.72s-.21.6-.32.9-.18.47-.25.71-.19.62-.28.93-.15.48-.22.73-.16.63-.24,1-.13.49-.18.73-.14.67-.2,1-.1.47-.14.71-.1.71-.15,1.06-.07.46-.1.69c0,.39-.07.78-.11,1.17,0,.2,0,.4-.06.6,0,.59-.07,1.2-.08,1.8,0,.42,0,.84,0,1.26a40.58,40.58,0,0,1,10.85-1.58c0-.66.06-1.31.13-2,0-.27.09-.52.13-.78.08-.54.16-1.08.28-1.61.07-.32.18-.63.26-.95s.23-.92.38-1.36.25-.65.37-1,.3-.83.48-1.23.32-.65.49-1,.36-.76.56-1.13.39-.63.59-.94.42-.7.65-1,.46-.6.69-.9.47-.64.73-.94.52-.56.78-.84.53-.58.81-.85.57-.51.86-.77.57-.52.88-.77.62-.46.94-.69.62-.47.94-.68.66-.4,1-.6.67-.41,1-.59.7-.34,1-.5.71-.34,1.08-.49.73-.27,1.1-.4.75-.28,1.13-.39.76-.19,1.14-.29.79-.2,1.19-.28.78-.12,1.17-.18S80.59,11,81,11s.79,0,1.19-.06.7-.05,1.06-.05h.45a24.34,24.34,0,0,1,23.88,24.28c0,.17,0,.33,0,.5a24.06,24.06,0,0,1-.63,5h0A24.21,24.21,0,0,1,100.82,52h0a24.53,24.53,0,0,1-7.06,5.12l1.5,3.15,3.18,6.65A35.59,35.59,0,0,0,113.7,52.82h0a34.84,34.84,0,0,0,3.92-10.1h0a35.28,35.28,0,0,0,.75-5.63c0-.42.06-.84.07-1.26a35,35,0,0,0-3.11-15.11,52.32,52.32,0,0,0-64-.33c-.09.2-.19.39-.28.59S50.82,21.55,50.7,21.84Z"/><path class="cls-1" d="M64.05,109.86c.46-.06.92-.13,1.38-.22l.64-.12c.54-.11,1.08-.23,1.61-.36l.35-.08q1-.25,1.94-.56l.52-.18c.48-.16.95-.33,1.41-.51l.65-.26c.45-.18.9-.38,1.34-.58l.59-.27c.62-.3,1.25-.61,1.86-1,.37-.2.71-.43,1.07-.64a34.86,34.86,0,0,0,11.73-11.5,35.52,35.52,0,0,0,5.32-20.12l-7.36.31L83.61,74A24.33,24.33,0,0,1,71.1,96.3l-.48.25q-.75.39-1.51.73l-.45.2c-.66.27-1.33.52-2,.74l-.3.09q-.92.28-1.84.48l-.42.09q-1,.2-2,.32l-.43,0c-.63.06-1.26.1-1.88.11h-.39c-.65,0-1.3,0-2-.09l-.52-.05c-.58-.06-1.15-.14-1.72-.24l-.4-.07c-.67-.13-1.34-.29-2-.47l-.46-.14c-.55-.16-1.09-.35-1.63-.55l-.43-.16q-1-.38-1.88-.85l-.37-.2c-.51-.27-1-.56-1.51-.86L46,95.41c-.58-.38-1.15-.78-1.7-1.21L44.08,94q-.71-.57-1.38-1.19l-.39-.37c-.51-.49-1-1-1.47-1.55l-.13-.16c-.42-.5-.82-1-1.21-1.57l-.33-.47c-.41-.61-.81-1.23-1.17-1.89a24.33,24.33,0,0,1,9-32.81c.16-.09.3-.2.46-.29.49-.28,1-.53,1.5-.76l.51-.22c.34-.15.68-.3,1-.43l.61-.22.95-.32.09,0,.55-.16.93-.24.67-.15.93-.17.66-.1,1-.11.64-.06,1,0,.57,0h.13l.53,0,1.11,0,.71.07,1,.12.73.12,1,.19.73.17h0l1,.26.71.21,1,.34.68.26c.33.13.65.28,1,.43l.62.29c.35.17.7.36,1,.55l.51.28c.5.3,1,.61,1.49.94l2-2.88L79.22,46c-.7-.48-1.42-.93-2.15-1.36l-.73-.4c-.5-.27-1-.55-1.5-.8l-.9-.41c-.47-.21-.94-.43-1.42-.62l-1-.37c-.47-.17-.94-.34-1.41-.49l-1-.31q-.7-.21-1.42-.38l-1-.24c-.48-.1-1-.19-1.44-.27h0l-1-.17c-.5-.07-1-.12-1.5-.17l-1-.1c-.52,0-1,0-1.58-.06H59l-.83,0c-.49,0-1,0-1.46.07l-.92.09c-.46,0-.92.09-1.38.16l-1,.15-1.34.25-1,.21-1.34.35-.94.27-.26.09-1.1.38-.89.32c-.49.19-1,.4-1.47.62l-.74.32c-.36.16-.71.36-1.06.54s-.74.36-1.11.56a35.05,35.05,0,0,0-10.93,9.43A52.42,52.42,0,0,0,61.9,110.09c.5,0,1-.08,1.51-.14Z"/><path class="cls-1" d="M29.36,62.11a54,54,0,0,1,.37-6.19A35.18,35.18,0,0,0,28.52,92c.36.65.74,1.28,1.14,1.9l.35.53q.47.7,1,1.37l.34.47q.65.86,1.34,1.67l.23.25c.4.46.81.9,1.23,1.33l.45.45c.4.39.8.78,1.22,1.15l.35.32c.52.46,1.06.9,1.61,1.33l.39.29c.44.33.88.65,1.34,1l.51.34q.76.5,1.53,1l.25.15c.6.34,1.21.67,1.82,1l.5.24c.48.23,1,.45,1.45.65l.54.23c.64.26,1.29.51,1.94.73h0c.64.22,1.28.41,1.93.59l.57.15c.52.13,1,.25,1.55.36l.52.11c.68.13,1.35.24,2,.34l.34,0c.58.07,1.16.13,1.74.17l.61,0c.56,0,1.11,0,1.67.06h.09A53.81,53.81,0,0,1,29.36,62.11Z"/><path class="cls-1" d="M130.1,76a24.34,24.34,0,0,0-11.32-20.67l0,0A24.34,24.34,0,0,1,130.1,76Z"/><path class="cls-1" d="M101,110.7q-1-.14-2.06-.35l-.46-.1c-.54-.12-1.09-.25-1.63-.39l-.6-.16q-.88-.25-1.75-.55l-.3-.1q-1-.35-2-.78l-.52-.23c-.51-.22-1-.46-1.51-.71l-.57-.28c-.65-.34-1.3-.69-1.93-1.07-.35-.21-.67-.44-1-.66l0,0c.35.22.69.46,1,.68.64.38,1.28.73,1.93,1.07l.57.28c.5.25,1,.49,1.51.71l.52.23q1,.42,2,.78l.3.1q.87.3,1.75.54l.6.16c.54.14,1.08.27,1.63.39l.46.1q1,.21,2.06.35l.48.06,1,.09.12,0-1.07-.11Z"/><path class="cls-1" d="M135.91,94c-.37.62-.77,1.22-1.17,1.8l-.37.52c-.3.42-.61.84-.92,1.24l-.41.51q-.59.72-1.2,1.41l-.17.19c-.46.51-.95,1-1.44,1.47l-.45.42c-.36.34-.73.67-1.1,1l-.51.43c-.43.35-.86.69-1.3,1l-.31.24q-.82.59-1.66,1.14l-.5.31c-.42.26-.83.51-1.26.75l-.59.33c-.45.25-.91.48-1.38.71l-.43.21q-.9.42-1.82.79l-.5.19q-.7.27-1.41.51l-.63.21q-.72.23-1.45.42l-.5.14q-1,.25-1.94.44l-.44.08q-.78.14-1.56.25l-.64.08c-.49.06-1,.11-1.49.14l-.55,0c-.67,0-1.34.06-2,.06h-.39l-.12.06h.51c.67,0,1.34,0,2-.06l.55,0c.5,0,1-.08,1.49-.14l.64-.08q.78-.11,1.56-.25l.44-.08c.65-.12,1.3-.27,1.94-.43l.5-.14q.73-.2,1.45-.42l.63-.21c.47-.16.94-.33,1.41-.51l.5-.19c.61-.24,1.22-.51,1.82-.79l.43-.21c.46-.22.92-.46,1.38-.71l.59-.33c.43-.24.84-.49,1.26-.75l.5-.31q.84-.54,1.66-1.14l.31-.24q.66-.49,1.3-1l.51-.43c.37-.32.74-.65,1.1-1l.45-.42c.49-.48,1-1,1.44-1.47l.17-.19c.41-.45.81-.92,1.2-1.41l.41-.52c.32-.4.62-.82.92-1.24l.37-.52c.4-.59.8-1.19,1.17-1.81a35,35,0,0,0,5-18.29A35,35,0,0,1,135.91,94Z"/><path class="cls-1" d="M135.61,62.11q0-2.66-.26-5.26A35,35,0,0,0,123.9,45.74c-.36-.22-.72-.4-1.09-.6a40.39,40.39,0,0,1-4,10.15,24.39,24.39,0,0,1,7.83,33.15c-.38.64-.8,1.25-1.24,1.84l-.32.43c-.44.58-.9,1.14-1.38,1.66l-.08.08c-.47.5-1,1-1.45,1.43l-.39.35c-.53.46-1.07.9-1.63,1.31l-.17.12c-.52.37-1.06.72-1.61,1.05l-.43.26c-.6.34-1.2.67-1.82,1l-.24.11c-.56.26-1.14.49-1.71.7l-.46.17c-.65.22-1.3.42-2,.59l-.31.07c-.59.14-1.18.26-1.78.35l-.47.07q-1,.15-2,.21h-.36c-.34,0-.68,0-1,0l-.76,0-.52,0q-1,0-2.07-.19l-.34-.06q-.89-.14-1.78-.34l-.53-.13c-.68-.17-1.36-.37-2-.61l-.21-.08c-.61-.22-1.22-.47-1.82-.75l-.52-.24c-.5-.24-1-.5-1.48-.78a40.46,40.46,0,0,1-7.07,8.31c.33.22.66.45,1,.66.64.38,1.28.74,1.93,1.07l.57.28c.5.25,1,.49,1.51.71l.52.23q1,.42,2,.78l.3.1q.87.3,1.75.55l.6.16c.54.14,1.08.27,1.63.39l.46.1q1,.21,2.06.35l.48.06,1.07.11A52.56,52.56,0,0,0,135.61,62.11Z"/><path class="cls-1" d="M136.89,62.11A53.82,53.82,0,0,1,105.4,111h.39c.67,0,1.34,0,2-.06l.55,0c.5,0,1-.09,1.49-.14l.64-.08q.78-.11,1.56-.25l.44-.08q1-.19,1.94-.44l.5-.14q.73-.2,1.45-.42l.63-.21q.71-.24,1.41-.51l.5-.19q.92-.37,1.82-.79l.43-.21c.46-.22.92-.46,1.38-.71l.59-.33c.43-.24.84-.49,1.26-.75l.5-.31q.84-.54,1.66-1.14l.31-.24c.44-.33.88-.67,1.3-1l.51-.43c.37-.32.74-.65,1.1-1l.45-.42c.49-.48,1-1,1.44-1.47l.17-.19q.61-.68,1.2-1.41l.41-.51c.32-.41.62-.82.92-1.24l.37-.52c.4-.59.8-1.19,1.17-1.8a35.06,35.06,0,0,0,.91-34.62Q136.89,60.73,136.89,62.11Z"/><path class="cls-1" d="M18.85,140.77l-1.24,1.57a7.58,7.58,0,0,0-5.33-2.27,7.11,7.11,0,1,0,0,14.22,7.87,7.87,0,0,0,5.33-2.16l1.26,1.42a10,10,0,0,1-6.7,2.78,9.1,9.1,0,1,1,.08-18.18A9.75,9.75,0,0,1,18.85,140.77Z"/><path class="cls-1" d="M27.94,151.66l-2,4.56H23.74l8.09-18H34l8.06,18H39.79l-2-4.56Zm4.89-11.13-4,9.14H36.9Z"/><path class="cls-1" d="M65.05,156.22l0-14.86-6.57,13H57.23l-6.54-13v14.86h-2v-18h2.55l6.59,13,6.57-13H67v18Z"/><path class="cls-1" d="M83.09,138.19c4.46,0,7,2.22,7,6.05,0,4-2.58,6.28-7,6.28H78.37v5.69H76.31v-18Zm-4.71,10.35H83c3.25,0,5.12-1.44,5.12-4.25s-1.88-4.12-5.12-4.12H78.37Z"/><path class="cls-1" d="M99.47,140.18v6.34h8.42v2H99.47v7.73H97.41v-18h11.46v2Z"/><path class="cls-1" d="M115.77,156.22v-18h2.06v18Z"/><path class="cls-1" d="M135.21,150.48c-.39,0-.8.05-1.21.05h-4.79v5.69h-2.06v-18H134c4.51,0,7.11,2.22,7.11,6.05a5.65,5.65,0,0,1-4,5.85l4.22,6.13h-2.34ZM134,148.55c3.27,0,5.13-1.44,5.13-4.25s-1.85-4.12-5.13-4.12h-4.79v8.37Z"/><path class="cls-1" d="M151.7,140.18v5.92h9.09v2H151.7v6.18h10.51v2H149.64v-18h12.23v2Z"/><path class="cls-1" d="M23.13,172.08h0a1.81,1.81,0,0,1,1.8-1.86,1.9,1.9,0,0,1,1.4.57l-.19.2a1.64,1.64,0,0,0-1.21-.53,1.54,1.54,0,0,0-1.52,1.61h0a1.55,1.55,0,0,0,1.52,1.62,1.65,1.65,0,0,0,1.24-.56l.18.17a1.89,1.89,0,0,1-1.43.63A1.79,1.79,0,0,1,23.13,172.08Z"/><path class="cls-1" d="M27.93,172.08h0a1.81,1.81,0,1,1,3.62,0h0a1.81,1.81,0,1,1-3.62,0Zm3.34,0h0a1.56,1.56,0,0,0-1.54-1.62,1.54,1.54,0,0,0-1.52,1.61h0a1.55,1.55,0,0,0,1.54,1.62A1.54,1.54,0,0,0,31.27,172.08Z"/><path class="cls-1" d="M33.57,170.28h.25l2.48,3.13v-3.13h.26v3.59h-.2l-2.53-3.19v3.19h-.26Z"/><path class="cls-1" d="M38.74,170.28H39l2.48,3.13v-3.13h.26v3.59h-.2L39,170.68v3.19h-.26Z"/><path class="cls-1" d="M43.91,170.28h2.56v.25H44.17v1.41h2.06v.24H44.17v1.44h2.32v.24H43.91Z"/><path class="cls-1" d="M48.3,172.08h0a1.81,1.81,0,0,1,1.8-1.86,1.9,1.9,0,0,1,1.4.57l-.19.2a1.64,1.64,0,0,0-1.21-.53,1.54,1.54,0,0,0-1.51,1.61h0a1.55,1.55,0,0,0,1.52,1.62,1.65,1.65,0,0,0,1.24-.56l.18.17a1.89,1.89,0,0,1-1.43.63A1.79,1.79,0,0,1,48.3,172.08Z"/><path class="cls-1" d="M54.35,170.52H53.1v-.25h2.77v.25H54.62v3.35h-.27Z"/><path class="cls-1" d="M60.28,172.08h0a1.81,1.81,0,0,1,1.8-1.86,1.9,1.9,0,0,1,1.4.57l-.19.2a1.64,1.64,0,0,0-1.21-.53,1.54,1.54,0,0,0-1.51,1.61h0a1.55,1.55,0,0,0,1.52,1.62,1.65,1.65,0,0,0,1.24-.56l.18.17a1.89,1.89,0,0,1-1.43.63A1.79,1.79,0,0,1,60.28,172.08Z"/><path class="cls-1" d="M65.08,172.08h0a1.81,1.81,0,1,1,3.62,0h0a1.81,1.81,0,1,1-3.62,0Zm3.34,0h0a1.56,1.56,0,0,0-1.54-1.62,1.54,1.54,0,0,0-1.52,1.61h0a1.55,1.55,0,0,0,1.54,1.62A1.54,1.54,0,0,0,68.42,172.08Z"/><path class="cls-1" d="M70.72,170.28H71v3.35H73.1v.24H70.72Z"/><path class="cls-1" d="M75,170.28h.27v3.35h2.11v.24H75Z"/><path class="cls-1" d="M80.66,170.25h.26l1.67,3.62H82.3l-.46-1H79.72l-.46,1H79Zm1.07,2.37-.95-2.08-.95,2.08Z"/><path class="cls-1" d="M84.46,170.28h1.48a1.31,1.31,0,0,1,.94.32.78.78,0,0,1,.23.57h0a.89.89,0,0,1-.61.85c.43.11.81.36.81.86h0c0,.6-.51,1-1.29,1H84.46Zm2.38.91c0-.4-.32-.66-.9-.66H84.73v1.41h1.19c.54,0,.92-.26.92-.74Zm-.89,1H84.73v1.44H86c.62,0,1-.28,1-.73h0C87,172.44,86.66,172.18,85.95,172.18Z"/><path class="cls-1" d="M89.12,172.08h0a1.81,1.81,0,1,1,3.62,0h0a1.81,1.81,0,1,1-3.62,0Zm3.34,0h0a1.56,1.56,0,0,0-1.54-1.62,1.54,1.54,0,0,0-1.52,1.61h0a1.55,1.55,0,0,0,1.54,1.62A1.54,1.54,0,0,0,92.46,172.08Z"/><path class="cls-1" d="M94.76,170.28h1.51a1.41,1.41,0,0,1,1,.36.94.94,0,0,1,.27.67h0c0,.6-.45.95-1.05,1l1.19,1.54h-.34l-1.15-1.49H95v1.49h-.27Zm1.48,1.86c.6,0,1-.3,1-.82h0c0-.48-.38-.78-1-.78H95v1.62Z"/><path class="cls-1" d="M100.95,170.25h.26l1.68,3.62h-.29l-.46-1H100l-.46,1h-.28Zm1.07,2.37-.94-2.08-1,2.08Z"/><path class="cls-1" d="M105.28,170.52H104v-.25h2.77v.25h-1.25v3.35h-.27Z"/><path class="cls-1" d="M108.72,170.28h2.56v.25H109v1.41h2.06v.24H109v1.44h2.32v.24h-2.58Z"/><path class="cls-1" d="M115.76,172.08h0a1.81,1.81,0,0,1,1.8-1.86,1.9,1.9,0,0,1,1.4.57l-.19.2a1.64,1.64,0,0,0-1.21-.53,1.54,1.54,0,0,0-1.52,1.61h0a1.55,1.55,0,0,0,1.52,1.62,1.65,1.65,0,0,0,1.24-.56l.18.17a1.89,1.89,0,0,1-1.43.63A1.79,1.79,0,0,1,115.76,172.08Z"/><path class="cls-1" d="M120.82,170.28h1.51a1.41,1.41,0,0,1,1,.36.94.94,0,0,1,.27.67h0c0,.6-.45.95-1.05,1l1.19,1.54h-.34l-1.14-1.49h-1.18v1.49h-.27Zm1.48,1.86c.6,0,1-.3,1-.82h0c0-.48-.38-.78-1-.78h-1.23v1.62Z"/><path class="cls-1" d="M125.65,170.28h2.56v.25h-2.29v1.41H128v.24h-2.06v1.44h2.32v.24h-2.58Z"/><path class="cls-1" d="M131.57,170.25h.26l1.67,3.62h-.29l-.46-1h-2.12l-.46,1h-.28Zm1.07,2.37-.95-2.08-1,2.08Z"/><path class="cls-1" d="M135.9,170.52h-1.25v-.25h2.77v.25h-1.25v3.35h-.27Z"/><path class="cls-1" d="M139.34,170.28h2.56v.25h-2.29v1.41h2.06v.24h-2.06v1.44h2.32v.24h-2.58Z"/><path class="cls-1" d="M967.29,8.15h4.87v14l0,.48,0,.53-.15.48-.19.48-.25.43-.24.43-.34.39-.39.39-.38.29-.43.29-.43.24-.48.19-.48.1-.48.1-.53,0h-14.6V40.92h-4.87V27l0-.53,0-.48.15-.48.19-.48.24-.48.29-.43.29-.39.38-.34.39-.34.43-.29.43-.19.48-.19.48-.14.53-.1h15.09Zm-14.6,13h-.58l-.58.1-.53.14-.53.19-.53.24-.48.29-.48.34-.43.43-.39.39-.34.48V8.15h4.87Zm19.47,19.76h-4.87V28l.58,0,.58-.1.53-.14.58-.19.53-.24.49-.29.43-.34.43-.39.38-.43.34-.48V40.92Z"/><path class="cls-1" d="M981.65,29.4l.09.67.15.63.19.58.24.63.29.58L983,33l.39.53.43.44.48.43.53.39.58.38.58.29-.92.24-.87.34-.87.38-.82.43-.82.53L981,38l-.63-.58-.63-.62-.53-.72-.53-.67-.43-.77-.38-.77-.34-.82-.24-.82-.25-.82-.14-.87-.1-.87,0-.87V20.34l0-.82.1-.87.14-.82.2-.82.24-.77.29-.77.39-.77.43-.72.43-.72.53-.63.53-.63.63-.63.63-.53.67-.53.68-.43.72-.39.77-.38.77-.29.82-.24.82-.19.82-.14.82,0,.87,0,.82,0,.82.1.82.14.82.24.82.24.77.34.72.34.77.44.68.48-.68.53-.77.43-.72.43-.82.34-.82.29-.82.19-.82.19-.87.1h-.87l-.67,0-.67.1-.68.14-.63.24-.63.24-.58.34-.58.38-.48.43-.48.48-.43.53-.39.53-.34.58-.24.63-.24.63-.15.67-.09.67-.05.68v8.44Zm15.86-17.69.58.63.58.67.48.72.43.77.43.77.29.82.29.82.24.82.15.87.09.87V29.6l-.09.82-.15.87-.2.77-.24.82-.34.77-.34.77-.43.72-.43.68-.53.68-.53.62-.63.58-.63.58-.67.48-.72.48-.72.39-.77.33-.78.34-.77.24-.82.19-.82.09-.87.1H988l-.87-.1-.82-.19-.82-.19-.77-.24-.77-.34-.77-.39-.72-.43-.67-.44.67-.53.72-.44.77-.43.77-.34.82-.29.87-.24.82-.14.87-.1.87,0h.68l.68-.1.62-.19.68-.19.58-.29.63-.29.53-.39.53-.43.48-.48.43-.53.38-.58.29-.57.29-.63.24-.63.15-.63.1-.68V19.67l-.1-.63-.15-.63-.19-.63-.24-.58-.34-.58-.34-.53-.38-.53-.43-.48-.53-.44-.48-.38-.58-.34-.58-.29.92-.24.87-.34.87-.39.82-.43.77-.53.77-.58Z"/><path class="cls-1" d="M1030,40.92h-5.16l-14.22-24.24-.34-.48-.38-.43-.43-.44L1009,15l-.53-.34-.53-.29-.53-.19-.58-.15-.58-.1-.63,0V8.2h5.2L1025,32.44l.34.48.38.48.43.38.48.38.48.29.53.29.53.2.63.14.58.09.58,0Zm-19.47,0h-4.87v-26h.58l.53.1.53.19.48.19.48.24.43.34.43.34.34.43.34.43.24.48.24.48.14.53.1.58V40.92Zm19.47-6.7h-.53l-.53-.1-.53-.14-.53-.24-.48-.24-.43-.34-.39-.33-.38-.43-.29-.44-.29-.48-.2-.48-.14-.53-.1-.53,0-.53V8.2H1030Z"/><path class="cls-1" d="M1042.56,34.75l.68.43-1.55.2-1.49.29-1.5.34-1.49.39-.48-.63-.43-.67-.39-.72-.33-.72-.34-.77-.24-.77-.2-.82-.1-.77-.1-.82,0-.82V20.15l0-.82.1-.82.15-.82.19-.82.24-.77.29-.77.38-.77.38-.72.48-.67.48-.68.53-.58.63-.63.67-.58.72-.48.72-.48.82-.43-.48,1.3-.39,1.35-.34,1.35-.24,1.35-.25,1.35-.15,1.35-.09,1.4-.05,1.4v8.73l.05.62,0,.63.15.58.19.58.24.58.24.53.34.53.34.48.43.48.43.39Zm16.29-4.39-.09.77-.2.72-.19.77-.29.72-.29.72-.34.67-.43.63-.43.67-.48.58-.48.58-.63.58-.62.53-.68.53-.72.43-.72.38-.77.34-.77.29-.82.24-.82.19-.82.09-.82.1h-.53l-.77,0-.77-.05-.77-.09-.72-.14-.77-.19-.72-.24-.72-.29-.68-.34-.68-.38-.62-.43-.63-.48-.58-.48-.29-.29-.24-.24,1.4-.34,1.4-.34,1.45-.24,1.45-.15,1.44-.09,1.44,0h.48l.62,0,.58,0,.63-.14.58-.19.53-.19.53-.29.53-.34.48-.34.43-.39.43-.43.38-.48.34-.54.29-.53.24-.53.2-.58.15-.58ZM1047.19,8.15l.77,0,.77,0,.77.19.77.14.72.24.72.29.68.34.72.39.63.43.63.43.58.53.58.53.53.58.48.58.43.63.39.68.38.68.29.72.29.72.24.72.14.77.14.77.05.77H1054l-.09-.63-.15-.58-.2-.58-.24-.53-.29-.58-.34-.48-.33-.48-.43-.43-.43-.44-.48-.34-.53-.34-.53-.29-.58-.24-.58-.19-.58-.14-.63-.1h-1.68l-.63.1-.58.14-.63.19-.58.24L1043,14l-.53.34-.53.39-.43.43-.43.43-.39.53.24-1.25.24-1.25.29-1.2.34-1.21.38-1.2.43-1.21.82-.24.82-.19.87-.1.82-.1h1.25ZM1059,29.4h-11.57V24.54H1059Z"/><path class="cls-1" d="M970.81,49.77,954.14,70.45l-.34.53-.34.53-.24.58-.24.58-.14.63-.1.63v8.63h-4.92v-8l0-.87.1-.82.15-.87.24-.82.29-.82.34-.77.39-.77.48-.72.53-.68,14.17-17.64ZM952.74,62.93l-3.13,3.85-.53.72-.43.72-.43.72-.39.77v-20h4.92V62.93Zm19.38,19.62h-5.93l-9.45-13.74,3.18-4Z"/><path class="cls-1" d="M980.4,71l.1.68.15.62.19.58.24.63.29.58.38.53.38.53.43.43.48.43.53.39.58.39.58.29-.92.24-.87.34-.87.39-.82.44-.82.53-.72.58L979.1,79l-.63-.63-.53-.72-.53-.68-.43-.77-.39-.77-.34-.82-.24-.82-.24-.82-.15-.86-.09-.87-.05-.87V62l.05-.82.09-.87.15-.82.2-.82.24-.77.29-.77.39-.77.43-.72.43-.72.53-.63.53-.62.63-.63.63-.53.67-.53.68-.44.72-.38.77-.39.77-.29.82-.24.82-.2.82-.15.82,0,.87,0,.82,0,.82.1.82.14.82.24.82.24.77.34.72.34.77.43.67.48-.67.53-.77.43-.72.44-.82.34-.82.29-.82.19-.82.19-.87.1h-.87l-.67,0-.67.1-.68.14-.63.24-.63.24-.58.34-.58.38-.48.43-.48.48-.43.53-.38.53-.34.58-.24.63-.24.63-.15.67-.1.68,0,.68V70.4Zm15.86-17.69.58.62.58.68.48.72.43.77.43.77.29.82.29.82.24.82.15.87.09.87V71.22l-.09.82-.15.86-.2.77-.24.82-.34.77-.33.77-.43.72-.43.67-.53.68-.54.63-.62.58-.63.58-.67.48-.72.48-.72.38-.77.34-.77.34-.77.24-.82.19-.82.1-.87.09h-1.64l-.87-.09-.82-.2-.82-.19-.77-.24-.77-.34-.77-.39-.72-.43-.67-.43.67-.53.72-.43.77-.44.77-.33.82-.29.87-.24.82-.14.87-.1.87,0h.67l.68-.1.63-.19.67-.19.58-.29.63-.29.53-.38.53-.44.48-.48.43-.53.38-.58.29-.58.29-.63.24-.63.14-.63.1-.68V61.29l-.1-.63-.14-.63-.19-.62-.25-.58-.33-.58-.34-.53-.38-.53-.43-.48-.53-.43-.48-.38-.58-.34-.58-.29.92-.24.87-.34.87-.38.82-.43.77-.53.78-.58Z"/><path class="cls-1" d="M1028.74,82.54h-5.16L1009.36,58.3l-.34-.48-.38-.43-.43-.43-.43-.34-.53-.34-.53-.29-.53-.19-.58-.15-.58-.09-.63,0V49.82h5.2l14.17,24.24.34.48.39.48.43.39.48.39.48.29.53.29.53.19.63.14.58.1.58,0Zm-19.47,0h-4.87v-26h.58l.53.1.53.19.48.2.48.24.43.34.43.33.34.43.34.43.24.48.24.48.14.53.1.58V82.54Zm19.47-6.7h-.53l-.53-.1-.53-.15-.53-.24-.48-.24-.43-.34-.38-.34-.38-.43-.29-.43-.29-.48-.2-.48-.14-.53-.09-.53,0-.53V49.82h4.87Z"/><path class="cls-1" d="M1041.31,76.38l.67.44-1.54.19-1.49.29-1.5.34L1036,78l-.48-.63-.43-.67-.39-.72-.34-.72-.34-.77-.24-.77-.2-.82-.1-.77-.1-.82,0-.82V61.77l0-.82.1-.82.14-.82.19-.82.24-.77.29-.77.39-.77.38-.72.48-.68.48-.68.53-.58.63-.63.67-.58.72-.48.72-.48.82-.43-.48,1.3-.39,1.35-.34,1.35-.24,1.35-.24,1.35-.15,1.35-.09,1.4-.05,1.4v8.72l.05.63,0,.63.14.58.19.58.24.58.24.53.34.53.34.48.43.48.43.38ZM1057.6,72l-.1.77-.19.72-.2.77-.29.72-.29.72-.34.68-.43.62-.43.68-.48.58-.48.57-.63.58-.63.53-.68.53-.72.43-.72.38-.77.34-.77.29-.82.24-.82.19-.82.1-.82.09h-.53l-.77,0-.77,0-.77-.1-.72-.14-.77-.19-.72-.24-.72-.29-.68-.34-.67-.38-.63-.43-.63-.48-.58-.48-.29-.29-.24-.25,1.4-.33,1.4-.34,1.45-.24,1.44-.14,1.44-.1,1.45,0h.48l.63-.05.58,0,.63-.15.58-.19.53-.2.53-.29.53-.34.48-.34.43-.38.43-.43.38-.48.34-.53.29-.53.24-.53.2-.58.14-.58Zm-11.66-22.22.77,0,.77,0,.77.19.77.15.72.24.72.29.68.34.72.38.63.43.63.43.58.53.58.53.53.58.48.58.43.63.39.67.39.67.29.72.29.72.24.72.14.77.14.77,0,.77h-4.87l-.1-.63-.14-.58-.2-.58-.24-.53-.29-.58-.34-.48-.34-.48-.43-.43-.43-.43-.48-.34-.53-.33-.53-.29-.58-.24-.58-.19-.58-.14-.63-.1h-1.69l-.62.1-.58.14-.63.19-.58.24-.53.29-.53.33-.53.39-.43.43-.43.43-.39.53.24-1.26.24-1.25.29-1.21.34-1.2.39-1.21.43-1.21.82-.24L1043,50l.87-.1.82-.09h1.26ZM1057.75,71h-11.57V66.16h11.57Z"/><path class="cls-1" d="M961.56,91.39l.82,0,.82.1.82.14.77.24.77.29.72.34.72.39.67.43.68.48.58.58.58.58.48.63.48.62.39.68.38.72.29.77.24.72.2.77.14.82,0,.77v.82l0,.77-.1.82-.19.77-.2.72-.29.77-.33.72-.39.67-.43.67-.53.63,0,0-.05.1-.2.19-.24.24-.58.58.24-.82.19-.77.15-.87.05-.82v-.82l-.05-.82-.1-.82-.2-.82-.24-.77-.29-.77-.34-.77-.38-.72-.43-.72-.53-.63-.53-.63-.58-.58-.48-.43-.53-.34-.53-.29-.58-.24-.58-.14-.63-.1-.63,0h-8l-.14-.58-.15-.53-.24-.53-.29-.53-.34-.48-.39-.43-.43-.43-.48-.34-.48-.29-.53-.29-.58-.19-.53-.14-.58-.1-.63,0Zm-8.87,32.77h-4.87V92.4h.58l.53.1.53.19.48.19.48.24.43.34.43.34.34.43.34.44.24.48.24.48.14.53.1.58v27.42Zm14.89-21.4.24.77.2.72.09.82.1.77v.77l0,.77-.15.77-.15.82-.24.72-.29.72-.34.72-.72.38-.72.34-.77.29-.77.19-.82.2-.82.1H953.7v-4.87H962l.53-.05.58-.15.53-.19.53-.19.53-.29.43-.34.43-.38.39-.44.39-.48.29-.48.24-.53.2-.53.14-.53.09-.58V102Z"/><path class="cls-1" d="M991.58,94l-.43.14-.48.2-.43.19-.43.29-.38.24-.39.33-.34.34-.34.38-.29.39-.24.39-.24.44-.2.43-.19.48-6.89,25.93h-5L984,91.39h6.94Zm8.05,30.17h-5.06l-1.3-4.87H982.62l1.3-4.86H997Zm-2.89-10.7h-5l-3.27-12.39-.1-.44,0-.43,0-.38,0-.43,0-.43.1-.38.1-.43.19-.39.19-.38.24-.34.24-.34.29-.34.29-.29.39-.24.34-.24.39-.2.38-.14.38-.14Z"/><path class="cls-1" d="M1012.45,118l.67.43-1.54.2-1.49.29-1.5.33-1.49.39-.48-.63-.43-.72-.38-.67-.38-.72-.29-.77-.24-.77-.19-.82-.14-.77-.05-.82,0-.82v-8.73l0-.82.05-.82.19-.82.19-.82.24-.77.29-.77.39-.77.38-.72.48-.67.48-.68.53-.63.63-.58L1009,94l.72-.53.72-.43.77-.43-.43,1.3-.39,1.35-.33,1.35-.24,1.35-.24,1.35-.15,1.35-.09,1.4-.05,1.4v8.73l.05.62,0,.58.14.63.19.58.2.58.29.53.33.53.34.48.43.43.43.43Zm16.34-4.91-.1.82-.15.82-.19.77-.29.82-.29.72-.39.77-.38.68-.48.72-.48.63-.58.63-.58.57-.63.53-.68.48-.72.48-.72.38-.77.34-.77.29-.82.24-.82.2-.82.09-.82.05H1016l-.77-.05-.77-.09-.77-.14-.72-.2-.72-.24-.72-.34-.68-.28-.67-.39-.67-.43-.58-.48-.58-.48-.29-.29-.24-.24,1.4-.39,1.4-.29,1.45-.24,1.45-.14,1.44-.09,1.45,0h.48l.62,0,.58-.1.58-.09.58-.2.58-.19.53-.29.48-.29.48-.39.48-.39.38-.43.39-.48.34-.48.29-.53.24-.53.2-.58.14-.58.14-.58Zm-15.47-21.31.82-.19.82-.14.87-.05h2l.77.1.77.14.77.19.72.24.72.29.68.34.68.38.67.44.63.43.58.48.58.58.53.53.48.63.43.63.38.67.39.68.29.72.29.72.19.72.2.77.15.77,0,.77h-4.87l-.1-.63-.14-.58-.19-.58-.24-.58-.29-.53-.34-.48-.38-.48-.39-.48-.43-.39-.48-.38-.53-.34-.53-.24-.58-.24-.58-.2-.58-.14-.63-.09h-1.69l-.63.09-.63.14-.58.2-.58.24-.58.29-.48.34-.53.38-.43.43-.43.44-.39.53.2-1.25.29-1.25.29-1.21.34-1.2.39-1.21.43-1.2Z"/><path class="cls-1" d="M1038.47,98.72l-.48,0-.53,0-.48-.15-.48-.19-.43-.24-.43-.24-.38-.33-.38-.39-.34-.39-.24-.43-.24-.44-.19-.48-.15-.48-.05-.53,0-.48V91.39h4.87Zm0,25.45h-4.87V97.08l.34.43.39.44.43.39.48.39.48.29.53.24.53.2.53.15.58,0,.58.05Z"/><path class="cls-1" d="M1062.76,91.43v4.87H1049l-.09-.53-.15-.53-.24-.53-.25-.48-.33-.43-.34-.43-.38-.39-.39-.34-.48-.34-.43-.24-.53-.24-.48-.19-.58-.1-.53-.1h18.94Zm-14.6,32.73h-4.87V92.4l.53,0,.48.05.48.14.48.19.43.19.43.29.38.34.38.34.34.43.24.43.24.43.19.48.14.48.05.48,0,.53Zm9.64-11.52h-8.67v-4.82h8.67Z"/><path class="cls-1" d="M1072.44,98.72l-.48,0-.53,0-.48-.15-.48-.19L1070,98l-.43-.24-.38-.33-.38-.39-.34-.39-.24-.43-.24-.44-.19-.48-.15-.48-.05-.53,0-.48V91.39h4.87Zm0,25.45h-4.87V97.08l.34.43.38.44.43.39.48.39.48.29.54.24.53.2.53.15.58,0,.58.05Z"/><path class="cls-1" d="M1085.26,118l.67.43-1.54.2-1.49.29-1.5.33-1.49.39-.49-.63-.43-.72-.38-.67-.38-.72-.29-.77-.24-.77-.19-.82-.15-.77,0-.82,0-.82v-8.73l0-.82,0-.82.19-.82.19-.82.24-.77.29-.77.39-.77.38-.72.48-.67.48-.68.53-.63.63-.58.67-.58.72-.53.72-.43.78-.43-.43,1.3-.39,1.35-.34,1.35-.25,1.35-.24,1.35-.15,1.35-.09,1.4-.05,1.4v8.73l.05.62,0,.58.14.63.19.58.2.58.29.53.33.53.34.48.43.43.43.43Zm16.34-4.91-.1.82-.14.82-.19.77-.29.82-.29.72-.39.77-.39.68-.48.72-.48.63-.58.63-.58.57-.63.53-.68.48-.72.48-.72.38-.77.34-.77.29-.82.24-.82.2-.82.09-.82.05h-1.3l-.77-.05-.77-.09-.77-.14-.72-.2-.72-.24-.72-.34-.68-.28-.67-.39-.67-.43-.58-.48-.58-.48-.29-.29-.24-.24,1.4-.39,1.4-.29,1.45-.24,1.45-.14,1.44-.09,1.44,0h.48l.62,0,.58-.1.58-.09.58-.2.58-.19.53-.29.48-.29.48-.39.48-.39.38-.43.39-.48.34-.48.29-.53.24-.53.2-.58.14-.58.15-.58Zm-15.47-21.31.82-.19.82-.14.87-.05h2l.77.1.77.14.77.19.72.24.72.29.67.34.68.38.67.44.63.43.58.48.58.58.53.53.48.63.43.63.38.67.39.68.29.72.29.72.19.72.2.77.14.77,0,.77h-4.87l-.1-.63-.14-.58-.2-.58-.24-.58-.29-.53-.34-.48-.38-.48-.39-.48-.43-.39-.49-.38-.53-.34-.53-.24-.58-.24-.58-.2-.58-.14-.63-.09h-1.69l-.63.09-.63.14-.58.2-.58.24-.58.29-.48.34-.53.38-.43.43-.43.44-.39.53.2-1.25.29-1.25.29-1.21.34-1.2.39-1.21.43-1.2Z"/><path class="cls-1" d="M971,137.88H946.62V133H971Zm-9.74,17.21,0,.53-.1.53-.14.53-.19.48-.29.53-.29.43-.39.38-.39.38-.48.29-.48.29-.48.2-.53.14-.53.09-.53.05V138.84h4.87v16.24Zm0,3.23v7.47h-4.87v-4.87l.63-.05.63-.09.63-.19.58-.24.58-.29.53-.34.48-.43.43-.48Z"/><path class="cls-1" d="M979.24,154.26l.1.67.14.63.2.58.24.62.29.58.38.53.39.53.43.43.48.43.53.39.58.38.58.29-.91.24-.87.34-.87.38-.82.43-.82.53-.72.58-.63-.58-.63-.63-.53-.72-.53-.67-.43-.77-.38-.77-.34-.82-.24-.82-.24-.82-.15-.87-.1-.87,0-.86V145.2l0-.82.1-.87.15-.82.19-.82.24-.77.29-.77.39-.77.43-.72.44-.72.53-.62.53-.63.63-.63.62-.53.68-.53.68-.43.72-.38.77-.39.78-.29.82-.24.82-.19.82-.15.82,0,.87,0,.82,0,.82.09.82.14.82.24.82.24.77.34.72.34.77.43.68.48-.68.53-.77.43-.72.44-.82.34-.82.29-.82.2-.82.19-.87.1h-.87l-.67,0-.67.1-.67.14-.63.24-.63.24-.58.34-.58.38-.48.43-.48.48-.43.53-.39.53-.33.58-.24.63-.24.62-.14.68-.1.68,0,.67v8.44Zm15.86-17.69.57.63.58.67.48.72.43.77.43.77.29.82.29.82.24.82.14.87.1.87v10.13l-.1.82-.14.87-.19.77-.24.82-.34.77-.34.77-.43.72-.43.68-.53.67-.53.63-.63.58-.63.58-.68.48-.72.48-.72.39-.77.33-.77.34-.77.24-.82.2-.82.09-.87.1h-1.64l-.87-.1-.82-.19-.82-.19-.77-.24-.77-.34-.78-.38-.72-.43-.67-.43.67-.53.72-.43.78-.44.77-.34.82-.29.87-.24.82-.15.87-.1.87,0h.68l.68-.1.62-.19.68-.19.58-.29.63-.29.53-.39.53-.43.48-.48.43-.53.38-.58.29-.58.29-.63.24-.63.14-.63.1-.68v-9.78l-.1-.63-.14-.62-.19-.63-.24-.58-.34-.58-.34-.53-.39-.53-.43-.48-.53-.43-.48-.38-.58-.34-.58-.29.92-.24.87-.34.87-.39.82-.43.77-.53.77-.58Z"/><path class="cls-1" d="M1014.18,159.52l.29.58.34.53.39.48.43.48.48.43.48.34.58.33.58.24.62.19-.72,2.65h-6.89L1002,133h5l6.89,25.93Zm14.75-23.91-.58.19-.58.29-.58.29-.53.39-.48.43-.38.43-.43.53-.29.53-.29.58-.24.58L1018.66,162l-.53-.14-.48-.24-.48-.29-.43-.34-.39-.33-.34-.43-.34-.43-.24-.53-.2-.48-.14-.53,0-.53v-.58l0-.53.1-.53,6.12-23.09h6.94Zm6.41,23.91.29.58.34.53.38.48.43.48.48.43.53.34.53.33.58.24.63.19-.72,2.65h-6.89l-6.12-23.09-.14-.53-.05-.58.05-.53,0-.53.14-.53.2-.53.24-.48.29-.43.34-.43.38-.38.48-.34.43-.29.53-.19.48-.2,5.93,22.22Zm7.18-26.51h5l-7.71,29-.53-.14-.48-.24-.48-.29-.43-.34-.38-.33-.34-.43-.34-.43-.24-.53-.19-.48-.1-.53-.09-.53v-.58l.05-.53.09-.53Z"/><path class="cls-1" d="M1070.62,137.92H1056l-.53,0-.48-.1-.48-.1-.48-.19-.48-.24-.38-.29-.43-.29-.34-.39-.33-.38-.29-.43-.2-.44-.19-.48-.14-.48-.1-.53v-.48h19.47ZM1056,162.41l.1.48.14.48.15.48.24.44.29.43.29.38.34.39.38.29h-6.8v-29.5l.34.43.38.43.43.38.43.34.48.34.53.24.58.19.53.14.58,0,.58,0v23.52Zm9.74-10.55H1057V147h8.77Zm4.87,13.93H1060.4l-.43-.1-.48-.14-.43-.19-.38-.24-.38-.29-.34-.33-.29-.39-.24-.39-.2-.43-.15-.43,0-.48,0-.43v-1h13.64v4.87Z"/><path class="cls-1" d="M1089.94,133.06l.77.09.77.14.77.2.72.24.72.34.72.34.63.43.67.43.58.53.58.53.48.58.48.62.43.68.38.68.29.72.29.72.24.72.15.77.09.82,0,.77v.77l-.1.77-.09.77-.2.77-.24.72-.29.72-.34.72-.39.68-.48.62-.48.63-.53.58-.72-.58-.72-.48-.82-.43-.82-.38-.87-.34-.87-.24.53-.29.48-.34.43-.39.38-.43.34-.48.29-.53.24-.53.19-.53.1-.58.09-.58v-.58l-.05-.62-.09-.58-.2-.53-.24-.54-.24-.53-.34-.48-.38-.48-.43-.38-.48-.34-.48-.34-.53-.24-.53-.24-.58-.14-.58-.1h-9.45l-.53,0-.53-.1-.53-.14-.53-.19-.48-.29-.43-.29-.39-.38-.39-.39-.29-.43-.29-.48-.19-.53-.14-.53-.1-.53,0-.53v0h13.73Zm-9.64,32.73h-4.86v-29.5l.34.43.38.43.43.38.48.39.48.29.53.24.53.14.53.14.58.09h.58v26.94Zm9.64-16.34.82.1.77.14.77.2.77.24.67.34.72.38.67.39.63.48.62.53.54.58.53.58.48.63.43.67.34.72.34.72.24.72.24.82.15.77.1.77v6.55h-4.87V160l-.05-.58,0-.63-.2-.58-.2-.53-.29-.53-.33-.53-.34-.43-.43-.43-.48-.39-.48-.34-.58-.29-.53-.19-.58-.14-.63-.1-.58,0h-7.91V149.4h7.91Z"/><path class="cls-1" d="M638,73.5h-2.48l-.44.44v.41h0V93.7c-.36-.68-.49-.92-.52-1L626.32,77.1l-1.91-3.6h-3.19l-.44.44v26l.44.45h2.49l.45-.45v-.18h0V80.23l10.23,19.29c.39.73.5.89.5.89H638l.45-.45v-26Z"/><polygon class="cls-1" points="668.56 73.5 668.22 73.5 668.19 73.5 656.67 73.5 656.45 73.5 656.41 73.5 655.97 73.5 655.52 73.97 655.52 73.98 655.52 74.37 655.52 99.95 655.97 100.39 668.15 100.39 668.16 100.39 668.16 100.39 668.56 100.39 669 100.02 669 99.96 669 99.95 669 99.34 669 97.92 669 97.68 669 97.52 668.56 97.09 667.97 97.09 667.95 97.09 658.89 97.09 658.89 88.65 666.64 88.65 667.1 88.19 667.1 85.74 666.64 85.28 658.89 85.28 658.89 76.89 668.56 76.89 669 76.45 669 74.37 669 74.14 669 73.97 668.56 73.5"/><polygon class="cls-1" points="810.25 76.7 810.25 76.69 810.25 73.91 810.02 73.5 809.8 73.5 807.34 73.5 807.17 73.5 806.88 73.91 806.88 85.25 806.88 85.26 806.88 85.3 795.9 85.3 795.9 75.89 795.9 73.92 795.67 73.5 795.45 73.5 792.99 73.5 792.82 73.5 792.53 73.92 792.53 75.89 792.53 85.26 792.53 100 792.77 100.42 792.99 100.42 795.44 100.42 795.62 100.42 795.9 100 795.9 99.97 795.9 88.67 806.88 88.67 806.88 100 807.12 100.41 807.34 100.42 809.79 100.42 809.97 100.42 810.25 100 810.25 97.52 810.25 97.51 810.25 76.7"/><path class="cls-1" d="M772,82.94h2.45l.43-.43a12.08,12.08,0,0,0-.84-4.69,7.29,7.29,0,0,0-2.61-3.32,6.35,6.35,0,0,0-3.46-1h-2.35a6.69,6.69,0,0,0-3.12.85,9.2,9.2,0,0,0-1.11.8,6.62,6.62,0,0,0-.76.85,7.66,7.66,0,0,0-.77,1.21,11.67,11.67,0,0,0-1.12,5.17v9.34a12.45,12.45,0,0,0,.64,4,7.46,7.46,0,0,0,2.86,3.81,6.5,6.5,0,0,0,3.41,1H768a6.4,6.4,0,0,0,2.4-.49,8.77,8.77,0,0,0,1.21-.65c2.18-1.58,3.28-4.28,3.28-8V87.79l-.46-.45h-6.17l-.45.45v2.4l.45.45h3.32V91a12.71,12.71,0,0,1-.22,2.73,6.44,6.44,0,0,1-.28,1,4.72,4.72,0,0,1-.53,1.05,3.08,3.08,0,0,1-2.68,1.45h-2.14a3,3,0,0,1-2.24-.93,4.15,4.15,0,0,1-.58-.76,8.12,8.12,0,0,1-.87-4v-9a8.32,8.32,0,0,1,.81-3.89,3.17,3.17,0,0,1,2.9-1.82h2.11a3.19,3.19,0,0,1,3,1.9,8.47,8.47,0,0,1,.75,3.68v.15Z"/><polygon class="cls-1" points="841.22 73.5 831.97 73.5 827.26 73.5 826.09 73.5 825.64 73.94 825.64 76.42 826.09 76.86 827.26 76.86 831.96 76.86 831.96 100.02 832.19 100.42 832.41 100.42 834.89 100.42 835.1 100.42 835.35 100.02 835.35 76.86 841.2 76.86 841.22 76.86 841.66 76.42 841.66 73.94 841.22 73.5"/><polygon class="cls-1" points="718.86 73.5 718.51 73.5 718.49 73.5 706.96 73.5 706.75 73.5 706.71 73.5 706.26 73.5 705.82 73.97 705.82 73.98 705.82 74.37 705.82 99.95 706.26 100.39 718.45 100.39 718.45 100.39 718.47 100.39 718.86 100.39 719.3 100.02 719.3 99.96 719.3 99.95 719.3 99.34 719.3 97.92 719.3 97.68 719.3 97.52 718.86 97.09 718.27 97.09 718.25 97.09 709.19 97.09 709.19 88.65 716.94 88.65 717.39 88.19 717.39 85.74 716.94 85.28 709.19 85.28 709.19 76.89 718.86 76.89 719.3 76.45 719.3 74.37 719.3 74.14 719.3 73.97 718.86 73.5"/><polygon class="cls-1" points="741.09 73.93 740.66 73.5 740.48 73.5 740.25 73.5 738.57 73.5 738.57 73.5 738.16 73.5 737.74 73.93 737.72 73.93 737.72 73.94 737.72 74.4 737.72 74.55 737.72 94.52 737.72 99.34 737.72 99.65 737.72 99.95 738.16 100.39 738.34 100.39 738.57 100.39 740.25 100.39 740.26 100.39 740.66 100.39 741.1 99.95 741.1 99.49 741.1 99.34 741.1 94.52 741.1 74.55 741.1 74.23 741.1 73.94 741.1 73.93 741.09 73.93"/><path class="cls-1" d="M596.26,73.94l-.44-.44H593.3l-.44.44L589,87.28,585.28,100l.44.45h2.61l.45-.45.69-2.37,0,0,1.4-4.84h7.32l2.12,7.23.45.45h2.61l.44-.45ZM591.9,89.37l2.68-9.22,2.68,9.22Z"/><polygon class="cls-1" points="568.38 97.05 567.78 97.05 567.78 97.05 558.01 97.05 558.01 74.05 558.01 74.05 558.01 73.94 557.57 73.5 557.5 73.5 557.17 73.5 555.5 73.5 555.22 73.5 555.1 73.5 554.66 73.94 554.66 73.98 554.66 74.55 554.66 99.96 555.11 100.42 567.78 100.42 568.37 100.42 568.38 100.42 568.83 99.97 568.83 99.96 568.83 99.57 568.83 97.89 568.83 97.5 568.83 97.49 568.38 97.05"/><path class="cls-2" d="M1363.2,89.42c0,2.19,0,4.38,0,6.57,0,1.16.11,2.4-1.65,2.44s-1.66-1.22-1.67-2.38c0-4,0-8-.06-12,0-2.61-.62-5-3.72-5.48s-4.94,1.07-6.18,3.61c-1.61,3.29-.81,6.84-1,10.28-.06,1.16,0,2.32,0,3.48s.26,2.45-1.56,2.49-1.88-1.32-1.89-2.64c0-3.87,0-7.73-.08-11.59,0-2.74-.53-5.34-3.92-5.65s-5.35,1.69-6.26,4.65c-1.2,3.88-.57,7.93-.76,11.91-.06,1.21.83,3.14-1.5,3.27s-1.69-1.82-1.7-3.05c-.06-5.8,0-11.59,0-17.39,0-.83-.36-1.93.83-2.29.71-.22,1.88-.45,2.06.36.51,2.31,1.25,1.58,2.63.64,3.72-2.52,7.23-2.13,10.32,1.22,1.09,1.18,1.55,1.31,2.59.13,2.47-2.82,5.71-3.73,9.1-2.33s4.42,4.77,4.41,8.33c0,1.8,0,3.61,0,5.41Z"/><path class="cls-2" d="M1266.57,78.14c3-2.91,6.52-4,10.3-2.31,3.93,1.77,4.7,5.49,4.71,9.42q0,5.41,0,10.81c0,1.18.1,2.42-1.68,2.37s-1.58-1.33-1.6-2.47c-.06-3.73,0-7.47-.17-11.19-.14-3.06-.64-6.06-4.67-6.34-3.51-.25-6.57,2.26-7.18,6.17a48.45,48.45,0,0,0-.28,6.16,35,35,0,0,1,0,3.85c-.2,1.42,1,3.82-1.79,3.77-2.5,0-1.57-2.25-1.6-3.58-.1-5.27-.09-10.55,0-15.83,0-1.25-.75-3,1.4-3.44S1265.74,77.14,1266.57,78.14Z"/><path class="cls-2" d="M1219.14,98.85c-6.34-.06-10.64-3.2-12.1-8.25a12.35,12.35,0,0,1,4.53-13.39c4.16-2.89,10.68-2.85,14.45.29,1,.84,3.16,1.75,1.72,3.6s-2.57-.05-3.7-.91a8.93,8.93,0,0,0-11.93,1,9,9,0,0,0,0,11.69,8.87,8.87,0,0,0,11.91.93c1.14-.87,2.21-2.81,3.67-.76,1.35,1.9-.85,2.66-1.84,3.52A9.83,9.83,0,0,1,1219.14,98.85Z"/><path class="cls-2" d="M1290.9,88.18c0-2.19,0-4.39,0-6.58,0-1.68,0-3.16-2.32-3a1.23,1.23,0,0,1-1.44-1.4c0-.84.2-1.7,1.18-1.64,3.25.21,2.5-2.09,2.56-3.9,0-.9,0-1.81,0-2.71,0-1.19.73-1.51,1.78-1.47a1.29,1.29,0,0,1,1.4,1.44c0,1.16.08,2.33,0,3.49-.12,1.88.06,3.39,2.58,3.09,1.21-.14,2,.37,1.92,1.75s-1,1.47-1.88,1.37c-2.48-.28-2.66,1.16-2.62,3.08.08,4.65.05,9.29,0,13.94,0,1.18.47,2.83-1.65,2.76s-1.51-1.71-1.55-2.88C1290.85,93.08,1290.9,90.63,1290.9,88.18Z"/><path class="cls-2" d="M1389,78.07c-3.73-3.55-8.76-3.92-13.49-1-.66.4-1.57,2.09-2-.19-.26-1.43-1.29-1.48-2.35-1.28-1.5.28-1.09,1.56-1.1,2.5,0,8.65,0,17.3,0,25.94,0,1.17-.14,2.37,1.64,2.42,2,0,1.84-1.34,1.85-2.63,0-2.44,0-4.87,0-7.71a36.36,36.36,0,0,0,5.18,2.39,10.62,10.62,0,0,0,12.46-5.44A12.72,12.72,0,0,0,1389,78.07ZM1381.3,95.6c-4.57,0-8-3.7-8-8.56s3.54-8.57,8-8.56,8,3.78,8,8.56A8.26,8.26,0,0,1,1381.3,95.6Z"/><path class="cls-2" d="M1309.19,87.61c2.18.15,4.38,0,6.58,0s4.4-.13,6.58,0c2.71.21,3-1.1,2.51-3.29-1.47-6.6-6.92-10.28-13.52-9.05-5.48,1-9.7,7.77-8.46,13.78.91,4.4,3,8.18,7.67,9.32,4.45,1.1,8.81.62,11.9-3.41.74-1,2.58-2,1.1-3.53-1.73-1.74-2.52.12-3.54,1.26-4,4.53-10.69,3.59-13.09-1.74C1305.81,88.55,1306.28,87.41,1309.19,87.61Zm4.34-9.15a7.15,7.15,0,0,1,6.83,3.56c1,1.67.83,2.56-1.42,2.5-3.35-.09-6.71,0-10.06,0-.62,0-1.24-.09-2.23-.16C1307.85,80.51,1310,78.61,1313.53,78.46Z"/><path class="cls-2" d="M1245.39,75.14c-6.45-.07-11.52,5.12-11.58,11.87a11.46,11.46,0,0,0,11.56,11.82c6.47-.07,11-5,11-11.81S1251.75,75.21,1245.39,75.14Zm-.22,20.4c-4.48,0-7.76-3.46-7.84-8.29s3.46-8.75,7.87-8.75,7.76,3.69,7.83,8.38C1253.11,91.9,1249.81,95.53,1245.17,95.54Z"/><path class="cls-2" d="M1409.29,75.14c-6.53,0-11.39,5.11-11.35,12s4.78,11.7,11.18,11.71,11.49-5.19,11.41-11.93C1420.45,80.32,1415.52,75.16,1409.29,75.14Zm-.27,20.4c-4.52-.1-7.6-3.54-7.58-8.49s3.49-8.66,8-8.54c4.18.1,7.75,4.06,7.75,8.57A8.19,8.19,0,0,1,1409,95.54Z"/><path class="cls-1" d="M1051.27,446.17a32.89,32.89,0,0,1-3.48-.37,11.38,11.38,0,0,0-8.33,1.3c-4.41,2.56-8.79,2.78-13.26.09a11.67,11.67,0,0,0-8.84-1.36,11.73,11.73,0,0,1-12.14-4,11.83,11.83,0,0,0-8-4.07c-4.75-.48-8.28-2.76-10.19-7.27a12.78,12.78,0,0,0-6.91-6.84,11.23,11.23,0,0,1-7-9.75,13,13,0,0,0-4.44-8.66,11.25,11.25,0,0,1-3.69-11.7,12.88,12.88,0,0,0-1.64-9.6,10.86,10.86,0,0,1,0-11.74,13.57,13.57,0,0,0,1.57-10.13,10.79,10.79,0,0,1,3.57-11,14.15,14.15,0,0,0,4.72-9.39,10.69,10.69,0,0,1,6.69-9.08,13.72,13.72,0,0,0,7.28-7.21,10.89,10.89,0,0,1,9.53-6.9,13.6,13.6,0,0,0,9.09-4.74,10.86,10.86,0,0,1,11-3.5,13,13,0,0,0,9.63-1.4,11.49,11.49,0,0,1,12.51,0,12.47,12.47,0,0,0,9.36,1.45,11.16,11.16,0,0,1,11.46,3.62,13.31,13.31,0,0,0,8.9,4.56,11.21,11.21,0,0,1,9.69,7.12,12.52,12.52,0,0,0,6.66,6.72,11.6,11.6,0,0,1,7.36,10.15,12.1,12.1,0,0,0,4.18,8.19,11.76,11.76,0,0,1,3.85,12.18,11.5,11.5,0,0,0,1.32,8.59,12.1,12.1,0,0,1,0,13.26,11.25,11.25,0,0,0-1.33,8.58,12,12,0,0,1-4,12.39,11.89,11.89,0,0,0-4,8,11.56,11.56,0,0,1-7.34,10.15,12.51,12.51,0,0,0-6.68,6.7c-1.81,4.07-4.85,6.65-9.41,7.1a14.59,14.59,0,0,0-9.38,4.77C1057.35,444.74,1054.77,446.53,1051.27,446.17ZM1033,436.52c32.41-.27,58.33-26.38,58.06-58.5s-26.57-58.14-58.43-57.94c-32.31.21-58.52,26.49-58.26,58.43A58.35,58.35,0,0,0,1033,436.52Z"/><path class="cls-1" d="M1006.88,300.33a6.41,6.41,0,0,1-6.57-6.64,7,7,0,0,1,7.29-6.71,6.7,6.7,0,0,1,6.46,6.6C1014.13,297.33,1011,300.32,1006.88,300.33Zm4.26-6.55a4,4,0,0,0-3.78-4.12,4,4,0,0,0-4.17,4,4,4,0,1,0,8,.14Z"/><path class="cls-1" d="M980.81,453.52a6.6,6.6,0,0,1,6.54-6.5,7.07,7.07,0,0,1,7.11,7,6.59,6.59,0,0,1-6.53,6.53A7.17,7.17,0,0,1,980.81,453.52Zm7.16-3.78a4,4,0,1,0-.66,8.07,4.15,4.15,0,0,0,4.35-3.87A4,4,0,0,0,988,449.73Z"/><path class="cls-1" d="M957.62,320.52l1.89-2,3.64,3,3.35-3.81L963,314.4l1.77-2.05,9.51,8.15-1.75,2.09-4.13-3.36L965,323.09l3.92,3.56-1.74,2.1Z"/><path class="cls-1" d="M1085.76,456.45c-3.36,3.55-6-.23-9.35-.19l2.42,4.35-2.27,1.53-6.34-10.85,2.27-1.42,2.62,4c1.51-2.69-.18-6.59,4.14-7.72a53.14,53.14,0,0,0-.88,5.81,2.7,2.7,0,0,0,1.21,2.1C1081.51,455,1083.57,455.63,1085.76,456.45Z"/><path class="cls-1" d="M1106.54,418.3c-.24.77-.47,1.54-.7,2.31s-.45,1.56-.68,2.33a13.65,13.65,0,0,0,2.53-.41c1.3-.46,2.53-1.53,3.81-1.56,1.92,0,3.53,2.23,3.41,4.16-.13,2.1-2.31,5-4,4.89-.58,0-1.12-.9-1.88-1.56.82-.45,1.37-.57,1.54-.89.53-1,.91-2,1.35-3.08-1,.15-2.19,0-3,.51-2.83,1.85-4.32,2-5.86.07s-1-4.42,1.37-6.32a12.13,12.13,0,0,1,1.12-.73Z"/><path class="cls-1" d="M963.11,424.4c-.59-.59-1.14-1.23-1.77-1.77s-1.28-1-1.92-1.43a10.37,10.37,0,0,0-.65,2.08c-.14,1.46.26,3.1-.28,4.36-.76,1.77-3.48,2.18-5.2,1.19-1.9-1.1-3.41-4.21-2.55-5.71.3-.52,1.35-.6,2.07-.88a4.67,4.67,0,0,1,.26.91c-.07,1.63.16,3.51,2.12,3.28s1.09-2.09.83-3.33c-.43-2.09-.07-3.8,2.17-4.54s3.85.29,4.88,2.23a16.37,16.37,0,0,1,.91,2.75Z"/><path class="cls-1" d="M1036.43,463c-2.25-1-4.54-1.41-5.8.87a5.47,5.47,0,0,0-.12,4.46c1.18,2.27,3.45,2.22,5.64,1.1.95,2.43-.12,3.25-2.24,3.34a6.62,6.62,0,0,1-7-6.84,6.54,6.54,0,0,1,7.19-6.33C1036,459.78,1037.22,460.44,1036.43,463Z"/><path class="cls-1" d="M1058.44,287.15l2.64.69-2.86,9.71,3.37,1.35c-.58,2.43-.58,2.43-6.77.11Z"/><path class="cls-1" d="M1098.49,328.73l-1.69-2.22,9.76-7.7,1.8,2.14Z"/><path class="cls-1" d="M1124.74,378.29c-1.66,1-2.66,2.05-3.58,2-.75-.05-1.41-1.45-2.11-2.25.85-.73,1.65-1.92,2.58-2C1122.37,375.9,1123.27,377.13,1124.74,378.29Z"/><path class="cls-1" d="M947.36,378c-1.52,1.15-2.47,2.38-3.15,2.25a3.59,3.59,0,0,1-2.32-2.22c-.14-.53,1.26-2.06,2-2.1S945.76,377,947.36,378Z"/><path class="cls-1" d="M1018.65,366.23l3.94,5.94c-4,3.26-8.26,4.33-13.09,3a10.47,10.47,0,0,1-8-9.45c-.46-5.23,1.26-9.6,5.9-12.43a16.23,16.23,0,0,1,11.21-1.91c4.53.7,9,1.68,13.53,2.44,2.44.41,4.86.45,6.73-1.64a1.08,1.08,0,0,1,.22-.15c5.15-3.4,6.73-2.83,8.55,3.36-4.22,2.42-5.49,6.91-7.18,11.15-2.39,6-4.81,12-7.31,18.21l7.79,4.32c.41-.85.77-1.53,1.06-2.24,4-9.74,8-19.47,11.84-29.24.63-1.6,1.44-2.23,3.16-2.14,2.5.13,5,0,8.07,0l-14.93,36.84a7.8,7.8,0,0,0,7.53-1.45,31.5,31.5,0,0,0,4.2-4.52c.87-1.1,1.5-1.94,3-.91s1.91,2,.78,3.52c-1.38,1.88-2.55,3.92-4,5.74a12.4,12.4,0,0,1-12.13,4.91c-1.75-.26-2.58.31-3.19,1.94-1.57,4.2-3.32,8.33-5.17,12.92l-7.85-5.85,4.93-12.6-7.92-4.12a81.58,81.58,0,0,1-5.28,6.72c-5,5.13-11.08,6.43-17.84,4.63a11.58,11.58,0,0,1-8.66-10.54,13,13,0,0,1,7.85-13c4.79-2,9.67-1.64,14.55-.36,1.12.29,2.22.66,3.63,1.08l7.34-18.38c-5-.92-9.51-1.9-14.11-2.53a12.13,12.13,0,0,0-5.26.67,4,4,0,0,0-2.55,5.23c.88,2.33,2.86,2.57,4.92,2.17A24.4,24.4,0,0,0,1018.65,366.23Zm3.24,21.72a37.51,37.51,0,0,0-5.57-1.31,17.5,17.5,0,0,0-5.79.37,4.24,4.24,0,0,0-3.24,4.92,3.93,3.93,0,0,0,4.4,3.48,9.64,9.64,0,0,0,5.18-1.61C1018.68,392.4,1020,390.27,1021.88,388Z"/></g></g></svg>