<svg xmlns="http://www.w3.org/2000/svg" viewBox="0 0 638.41 609.15"><defs><style>.cls-1,.cls-2{fill:#2a4b60;}.cls-2{fill-rule:evenodd;}</style></defs><title>Asset 5</title><g id="Layer_2" data-name="Layer 2"><g id="Layer_1-2" data-name="Layer 1"><path class="cls-1" d="M373.13,346c1.15-4.09,1.23-4.79-.92-5.18l-1-.18a.68.68,0,0,1,.24-1c1.63.09,2.94.13,4.65.13s2.86,0,4.45-.13a.69.69,0,0,1,0,1l-1.08.18c-1.94.3-2.15.87-3.37,5.18l-5.64,19.91a30.84,30.84,0,0,1-2.5,6.49c-1.67,3.09-4.13,4.84-7.26,4.84-1.19,0-2.5-.3-2.5-1.26,0-.7.71-1.88,1.55-1.88a2.74,2.74,0,0,1,1.47.61,3.23,3.23,0,0,0,1.9.65c1.07,0,1.87-1.7,2.58-3.79.31-.87,1.35-4.05,2.62-8.54Z"/><path class="cls-1" d="M382.53,366.27c0,1.74-1.11,2.79-2.27,2.79s-1.75-.78-1.75-2a2.53,2.53,0,0,1,2.26-2.7A1.79,1.79,0,0,1,382.53,366.27Z"/><path class="cls-1" d="M398.77,366.09a13.09,13.09,0,0,1,.72-5,.54.54,0,0,1,.83.08c.28,3.79,1.9,6.67,5.87,6.67a5.77,5.77,0,0,0,5.8-6.14c0-3.22-1.87-5-4-6.84s-4.13-4.44-4.13-7.58c0-4.75,3.41-8.23,8.69-8.23a10.65,10.65,0,0,1,5.75,1.74,34.49,34.49,0,0,0-1.47,5.05.82.82,0,0,1-1.07,0c.56-3-.2-5.4-3.73-5.4s-5.36,2.57-5.36,5.57,2.42,5.05,3.85,6.27c2.42,2,4.29,4.35,4.29,7.93,0,5.18-3.61,9-9.13,9C402.86,369.15,400.12,368.19,398.77,366.09Z"/><path class="cls-1" d="M429.78,337.56c-.8,2.44-2.07,6.4-2.86,8.89l-4.09,13,.08.09a26.66,26.66,0,0,1,6.27-7.19,6.5,6.5,0,0,1,3.77-1.7c1.75,0,2.38,1.4,2.38,2.92,0,3-1.67,7.4-3.1,10.2a15.15,15.15,0,0,1-2.58,3.57,4.24,4.24,0,0,1-2.9,1.7c-1.31,0-1.47-.92-1.47-1.26,0-.74.55-1.39,1.07-1.39a.93.93,0,0,1,.56.26,2.19,2.19,0,0,0,1,.57c.59,0,1-.66,1.59-2.18,1.07-2.83,2.86-8.84,2.86-11.24,0-.83-.28-1.31-.83-1.31a4.19,4.19,0,0,0-2.14,1.17,26.47,26.47,0,0,0-5,5.79,72.84,72.84,0,0,0-4.81,9.06.73.73,0,0,1-.71.52c-.44,0-1.47-.13-1.15-1.13l7.54-24.49c.87-2.87,1.07-3.48.43-4l-.83-.61a.44.44,0,0,1,.12-.57,19.92,19.92,0,0,1,4.64-1Z"/><path class="cls-1" d="M451.14,356.17a17.31,17.31,0,0,1-4.21,9.88c-2.46,2.79-4.61,3-5.68,3-2.54,0-4.21-2-4-5.79a17.06,17.06,0,0,1,4.33-9.76c2.06-2.18,3.85-2.83,5.48-2.83C449.91,350.68,451.3,353,451.14,356.17Zm-7.22-2.09a26.66,26.66,0,0,0-4,10.89c-.08,1.53.48,2.79,1.63,2.79.87,0,1.86-.39,3.14-2.26a28.62,28.62,0,0,0,3.69-10.63c0-1.35-.2-2.87-1.59-2.87C446,352,445.06,352.37,443.91,354.07Z"/><path class="cls-1" d="M460.15,354.82l-1.71,5.49h.2a67,67,0,0,1,4.17-7.37c.92-1.3,1.91-2.26,2.9-2.26,1.39,0,1.59,1.48,1.59,2.13a5.8,5.8,0,0,1-.83,2.62c-.48.65-1.11.7-1.27-.22-.2-1.13-.44-1.7-.83-1.7s-.79.44-1.39,1.31c-2.42,3.39-4.65,8.71-6.75,13.72-.16.35-.36.52-.68.52s-1.59-.17-1.31-1.13c.52-1.75,3-9.46,4.09-13.72.12-.48,0-.91-.32-.91-1,0-2.11,1.22-2.82,2.26-.4.09-.67-.17-.63-.7,1.27-2.35,2.78-4.18,4.68-4.18S460.51,353.64,460.15,354.82Z"/><path class="cls-1" d="M474.21,354.82l-1.71,5.49h.2a67.09,67.09,0,0,1,4.17-7.37c.91-1.3,1.91-2.26,2.9-2.26,1.39,0,1.59,1.48,1.59,2.13a5.7,5.7,0,0,1-.84,2.62c-.47.65-1.11.7-1.26-.22-.2-1.13-.44-1.7-.84-1.7s-.8.44-1.39,1.31c-2.42,3.39-4.64,8.71-6.75,13.72-.16.35-.36.52-.67.52s-1.59-.17-1.31-1.13c.52-1.75,3-9.46,4.09-13.72.12-.48,0-.91-.32-.91-1,0-2.1,1.22-2.82,2.26-.4.09-.68-.17-.63-.7,1.27-2.35,2.78-4.18,4.68-4.18S474.56,353.64,474.21,354.82Z"/><path class="cls-1" d="M495.21,356.17a17.35,17.35,0,0,1-4.21,9.88c-2.46,2.79-4.61,3-5.68,3-2.54,0-4.21-2-4-5.79a17.05,17.05,0,0,1,4.33-9.76c2.06-2.18,3.85-2.83,5.48-2.83C494,350.68,495.36,353,495.21,356.17ZM488,354.07A26.7,26.7,0,0,0,484,365c-.08,1.53.48,2.79,1.63,2.79.87,0,1.87-.39,3.14-2.26a28.43,28.43,0,0,0,3.69-10.63c0-1.35-.19-2.87-1.59-2.87C490.08,352,489.13,352.37,488,354.07Z"/><path class="cls-1" d="M510.41,353.24a2,2,0,0,1-1.95,2.05.81.81,0,0,1-.8-.78c-.12-1.1-.08-2.4-1.39-2.4-.87,0-2.1.92-3.34,2.92a20.07,20.07,0,0,0-2.66,9c-.08,2.18.75,2.83,1.71,2.83,1.31,0,2.78-1.13,4.29-2.66.4,0,.63.31.52.74-1.55,2.22-4.05,4.09-6.55,4.09-1.55,0-3-1.26-3-4.62a17.53,17.53,0,0,1,5-11.24,7.4,7.4,0,0,1,5.16-2.53C509.46,350.68,510.41,351.89,510.41,353.24Z"/><path class="cls-1" d="M517.75,343.88c.91-3,1-3.61.28-4l-.72-.39a.41.41,0,0,1-.08-.65,21.13,21.13,0,0,1,4.84-1.57l.24.22c-.32,1.22-.76,2.7-1.95,6.4l-4.09,12.89h.08a21.12,21.12,0,0,1,4-4.49,7.05,7.05,0,0,1,4.29-1.65c2.3,0,2.86,1.48,2.86,2.4a4.58,4.58,0,0,1-1.63,3.18,12.13,12.13,0,0,1-6.35,3.83c-.28.17-.2.57-.12.83a28.3,28.3,0,0,0,1.47,4.09c.48,1,.87,1.44,1.27,1.44s1.27-.56,2.38-2c.36,0,.52.17.52.52-1.39,3.27-3.37,4.14-4,4.14s-1.19-.52-1.83-1.74a44.91,44.91,0,0,1-1.83-4.66c-.31-1.13-.75-1.61-1.47-1.44s-1,.43-1.47,1.74l-2.06,5.53c-.16.39-.32.57-.68.57s-1.59-.13-1.27-1.13Zm5.48,8.67c-1,0-2.5,1-3.85,2.22a17.11,17.11,0,0,0-3.65,4.75c-.16.43-.12.74.4.65a14.92,14.92,0,0,0,5.84-2.83c1.67-1.22,2.54-2.74,2.54-3.66A1.14,1.14,0,0,0,523.23,352.55Z"/><rect class="cls-1" x="351.72" y="380.81" width="182.32" height="0.76"/><path class="cls-2" d="M141.37,349.73c-.17-6.37-4.9-10.75-11.31-10.8-6,0-12.09,0-18.14,0s-12.09,0-18.14,0c-6.57,0-11.22,4.6-11.3,11.15s-.07,13.23,0,19.85,4.64,11.32,11.14,11.38q18.31.18,36.62,0a10.94,10.94,0,0,0,11.14-11.06C141.53,363.43,141.55,356.57,141.37,349.73Zm-2.09,19.73c-.05,5.94-3.69,9.7-9.58,9.73q-17.8.1-35.61,0c-5.71,0-9.39-3.75-9.46-9.48q-.12-9.59,0-19.17c.06-5.8,3.63-9.42,9.39-9.49,6-.08,12.1,0,18.15,0,5.82,0,11.64-.05,17.46,0,6,.06,9.6,3.66,9.65,9.59Q139.36,360.05,139.28,369.47Z"/><path class="cls-2" d="M134.45,350.74a24,24,0,0,1-1.15,2.84c-3.09,5.71-6.2,11.41-9.37,17.07-1.74,3.1-4,4-6.38,2.61s-2.92-3.71-1.25-6.79c3.19-5.92,6.46-11.79,9.71-17.67a4.32,4.32,0,0,1,5.14-2.38C133.24,346.91,134,348.47,134.45,350.74Z"/><path class="cls-2" d="M109.26,350.12a6.16,6.16,0,0,1-.86,3.33c-3.2,5.78-6.38,11.58-9.59,17.36-1.36,2.46-3.22,3.93-6.13,2.54-2.56-1.22-3.16-3.67-1.54-6.68,3.24-6,6.58-12,9.9-18a4.22,4.22,0,0,1,5.2-2.21A3.82,3.82,0,0,1,109.26,350.12Z"/><path class="cls-2" d="M117.69,346.29a4.12,4.12,0,0,1,3.78,6c-3.39,6.58-7,13-10.7,19.45a3.83,3.83,0,0,1-5.61,1.5c-2.27-1.27-3-3.42-1.89-5.54,3.4-6.57,7.07-13,10.68-19.47A3.89,3.89,0,0,1,117.69,346.29Z"/><path class="cls-1" d="M152.41,365q-.43,3.39-.55,4.9a20.77,20.77,0,0,0-.06,2.65,11.2,11.2,0,0,0-2.89,0,14,14,0,0,0,.33-1.43q.18-.95.55-3.29l1.24-8.47q1.09-7.85,1.65-13.11h.68q2.73,5.36,7.08,13.25l4.16,7.46h0l11.14-20.7h.68q.41,5.27,1.33,13.13.54,4.66,1,8.45.34,2.4.49,3.34a12.18,12.18,0,0,0,.29,1.38,12.46,12.46,0,0,0-1.91-.13q-1.07,0-1.89,0-.41-5.26-1.32-13.13l-.65-5.49h0q-1.44,2.49-3,5.4-4.25,7.89-6.74,13.34h-.68q-2.61-5.36-6.77-13.25l-2.89-5.4h0l-.67,5.41Z"/><path class="cls-1" d="M185.35,370.35a9.46,9.46,0,0,1-2.46-6.78,9.6,9.6,0,0,1,2.63-7,9.16,9.16,0,0,1,6.85-2.69,8.43,8.43,0,0,1,6.42,2.6,9.49,9.49,0,0,1,2.46,6.8,9.59,9.59,0,0,1-2.62,7,9.17,9.17,0,0,1-6.86,2.68A8.43,8.43,0,0,1,185.35,370.35Zm10.86-1.06a10.77,10.77,0,0,0,1.55-6.14,10,10,0,0,0-1.48-5.86,4.88,4.88,0,0,0-4.22-2.06,4.78,4.78,0,0,0-4.14,2.3,10.82,10.82,0,0,0-1.56,6.14,9.9,9.9,0,0,0,1.48,5.85,4.89,4.89,0,0,0,4.22,2.05A4.78,4.78,0,0,0,196.21,369.29Z"/><path class="cls-1" d="M205.61,369.28q.07-2.6.07-5.92t-.07-5.83q-.08-1.65-.12-2.31a6.84,6.84,0,0,0-.12-1,11.39,11.39,0,0,0,3.45,0,1.63,1.63,0,0,0-.14.56q0,.39-.12,1.41l-.07,1.11a14.23,14.23,0,0,1,1.07-1.33,6.77,6.77,0,0,1,5.08-2.12,5.94,5.94,0,0,1,4.52,1.75,6.61,6.61,0,0,1,1.67,4.75v8.92q0,.88.06,1.54t.21,1.76a16.94,16.94,0,0,0-3.56,0,10.35,10.35,0,0,0,.15-1.13q.06-.66.09-2.16.07-2.64.07-5.88v-2.14a6,6,0,0,0-1.18-3.92,4,4,0,0,0-3.28-1.41,4.21,4.21,0,0,0-3.55,1.54,7.46,7.46,0,0,0-1.19,4.61v1.29q0,3.32.07,5.92,0,1.5.09,2.15a11.16,11.16,0,0,0,.15,1.14,15.26,15.26,0,0,0-1.8-.09,15.07,15.07,0,0,0-1.78.09,10.36,10.36,0,0,0,.15-1.14Q205.58,370.78,205.61,369.28Z"/><path class="cls-1" d="M234.05,372.24a5.67,5.67,0,0,1-2.81.71A4.23,4.23,0,0,1,228,371.8a5.11,5.11,0,0,1-1.06-3.55V356a12,12,0,0,0-1.52.06,1.34,1.34,0,0,0-.43.08,1.8,1.8,0,0,0-.41.2,9.63,9.63,0,0,0,0-2.4,2.38,2.38,0,0,0,.42.2,1.22,1.22,0,0,0,.4.08l1.54.09v-1a16.09,16.09,0,0,0-.08-1.66,5.32,5.32,0,0,0-.22-1.17,15.87,15.87,0,0,0,3.58-1.61,6.88,6.88,0,0,0-.22,1.46q-.08,1.09-.08,2.29v1.72q1.84,0,3.22-.11a1.34,1.34,0,0,0,.43-.08,1.81,1.81,0,0,0,.41-.2,9.63,9.63,0,0,0,0,2.4,1.81,1.81,0,0,0-.41-.2,1.3,1.3,0,0,0-.41-.08q-1.41-.09-3.24-.11v12.31a3.93,3.93,0,0,0,.67,2.48,2.36,2.36,0,0,0,2,.85,2.92,2.92,0,0,0,1.52-.45,4.76,4.76,0,0,0,0,.54A4.86,4.86,0,0,0,234.05,372.24Z"/><path class="cls-1" d="M251.46,357.53q-2,4.12-4.38,9.63t-4.14,9.91q-.51,1.27-.73,1.94a12.38,12.38,0,0,0-.37,1.36,14.92,14.92,0,0,0-3.34,0q.73-1,1.16-1.64t1-1.66l2.49-4.54h0q-1.44-3.75-3.78-9.1-1.42-3.3-2.64-5.9-.75-1.57-1.09-2.23a10.31,10.31,0,0,0-.62-1.07q1,.09,2.17.09t2.15-.09a10.27,10.27,0,0,0,.37,2,27.11,27.11,0,0,0,1,2.59q.86,2.17,2,4.7l2.18,5h0l.5-1.16q1.46-3.54,2.63-6.59,1-2.66,1.44-4a12.24,12.24,0,0,0,.49-2.61,14.92,14.92,0,0,0,3.34,0,10.49,10.49,0,0,0-.58,1Q252.26,355.87,251.46,357.53Z"/><path class="cls-1" d="M329.22,102.39V92.81c0-3.24-1.51-5.56-5.53-5.56a16.81,16.81,0,0,0-3.91.52V82a.52.52,0,0,0-.49-.55H319a.52.52,0,0,0-.49.55v20.41a.52.52,0,0,0,.49.55h.29a.52.52,0,0,0,.49-.55V88.9a15.36,15.36,0,0,1,3.91-.52c3.1,0,4.28,1.59,4.28,4.43v9.58a.5.5,0,0,0,.46.55h.29a.5.5,0,0,0,.5-.55m-14.77,0V87.94a.57.57,0,0,0-.55-.55h-.17a.57.57,0,0,0-.55.55v12.83A11.56,11.56,0,0,1,308.6,102h-.06c-2.14,0-3.85-1.13-3.85-4.4V87.94a.55.55,0,0,0-.52-.55H304a.55.55,0,0,0-.55.55v9.61c0,4,2.32,5.53,5.1,5.53a11.13,11.13,0,0,0,4.66-1.19v.46a.53.53,0,0,0,.52.58h.23a.53.53,0,0,0,.52-.58m-13.27.09v-.23c0-.29-.23-.47-.55-.47h-7.41c-1.39,0-2.23-.26-2.23-2.05V82a.52.52,0,0,0-.49-.55h-.29a.52.52,0,0,0-.49.55V99.7c0,2.43,1.31,3.24,3.51,3.24h7.41a.5.5,0,0,0,.55-.49m-22.87,1.74c0,2.14-1,3.42-4.86,3.42s-4.9-1.33-4.9-3.42v-.26a4.21,4.21,0,0,1,2.11-3.85l4,1c3,.78,3.64,1.19,3.64,2.81Zm-.14-11.73c0,2-.93,3.62-4.75,3.62-4,0-4.69-2.17-4.69-3.62v-.23c0-1.85.69-3.73,4.69-3.73,3.76,0,4.75,1.65,4.75,3.73Zm1.71-4.29v-.32a.5.5,0,0,0-.55-.47h-5.91c-5,0-6,2.61-6,4.84v.23a4.22,4.22,0,0,0,1.5,3.45,2,2,0,0,0-1.22,1.85,2,2,0,0,0,1.54,1.94l.2.06a5.07,5.07,0,0,0-2.17,4.17v.26c0,2.64,1.68,4.49,6.14,4.49s6.14-1.88,6.14-4.49v-.26c0-2.35-1.54-3.1-4.63-3.91l-5.21-1.36c-.66-.17-.84-.52-.84-.9a1.37,1.37,0,0,1,1-1.24,8.67,8.67,0,0,0,3.54.66c4.55,0,6-2,6-4.72v-.23a4.29,4.29,0,0,0-1.59-3.59h1.51c.29,0,.55-.14.55-.46m-16.19,14.22V92.78c0-4-2.32-5.53-5.1-5.53a11.07,11.07,0,0,0-4.66,1.19V88a.53.53,0,0,0-.52-.58h-.23a.53.53,0,0,0-.52.58v14.42a.57.57,0,0,0,.55.55h.17a.57.57,0,0,0,.55-.55V89.57a11.09,11.09,0,0,1,4.58-1.19c2.17,0,3.91,1.1,3.91,4.4v9.61a.54.54,0,0,0,.52.55h.2a.55.55,0,0,0,.56-.55m-15.38,0V87.94a.57.57,0,0,0-.55-.55h-.18a.57.57,0,0,0-.55.55v14.45a.57.57,0,0,0,.55.55h.18a.57.57,0,0,0,.55-.55m0-18.42V81.83a.57.57,0,0,0-.55-.55h-.18a.57.57,0,0,0-.55.55V84a.55.55,0,0,0,.55.55h.18a.55.55,0,0,0,.55-.55m-5.47,18.42V92.81c0-3.24-1.51-5.56-5.53-5.56a16.86,16.86,0,0,0-3.91.52V82a.52.52,0,0,0-.49-.55h-.29a.52.52,0,0,0-.49.55v20.41a.52.52,0,0,0,.49.55h.29a.52.52,0,0,0,.49-.55V88.9a15.43,15.43,0,0,1,3.91-.52c3.09,0,4.28,1.59,4.28,4.43v9.58a.5.5,0,0,0,.46.55h.29a.5.5,0,0,0,.49-.55m-13.9-.05V102c0-.29-.14-.35-.38-.35h-.17c-1,.11-3.22.26-5,.26-3.24,0-5.82-2.09-5.82-7.79V90.29c0-5.71,2.58-7.79,5.82-7.79,1.79,0,4,.14,5,.26h.17c.23,0,.38-.05.38-.34v-.35a.56.56,0,0,0-.55-.49,38.65,38.65,0,0,0-5-.29c-3.62,0-7.1,2.08-7.1,9v3.82c0,6.92,3.47,9,7.1,9a39.74,39.74,0,0,0,5-.29c.26,0,.55-.2.55-.49"/><path class="cls-1" d="M302.05,57.69H300.9a.46.46,0,0,0-.54.46l-1.07,7.56a1.69,1.69,0,1,0,3.37.22q0-3.86-.06-7.71C302.6,57.85,302.44,57.69,302.05,57.69Z"/><path class="cls-1" d="M330.06,66.46c-.26-.69-1.09-.82-1.85-1a12.48,12.48,0,0,1-2.57-.89,18.17,18.17,0,0,1-1.91-1c-.83-.5-1.55-1-2.52-1.67s-2.12-1.42-2.11-2.24a2.63,2.63,0,0,1,1-1.54,19.17,19.17,0,0,1,1.63-1.4,9.07,9.07,0,0,0,1.68-1.52,1.8,1.8,0,0,0,.3-1.76,1.25,1.25,0,0,0-.92-.86c-.56,0-1.18.68-1.74,1.41A6.4,6.4,0,0,1,319,56a5.24,5.24,0,0,1-2.19.41,3.33,3.33,0,0,1-2.85-1c-.61-.84-.66-2.37-.71-3.61a8.44,8.44,0,0,1,.19-2.84,7.82,7.82,0,0,1,1.89-2.93,9.7,9.7,0,0,1,2.49-1.86,15.45,15.45,0,0,0,1.72-.87c.5-.33,1-.8,1-1.13s-.73-.53-1.34-.64a9.88,9.88,0,0,0-3,0,17.74,17.74,0,0,1-2.71.22,2.38,2.38,0,0,1-2.15-.91,1.73,1.73,0,0,1-.17-1.62c.31-.48,1.21-.45,1.94-.51a8.06,8.06,0,0,0,2-.44,19,19,0,0,0,2.17-.84,8.35,8.35,0,0,0,2.41-1.68,2.81,2.81,0,0,0,1-1.51c0-.42-.34-.76-.78-1.1-.71-.54-1.64-1-2.31-.77s-.93,1-1.27,1.72a6.61,6.61,0,0,1-1.68,2.29,4.46,4.46,0,0,1-1.82,1,5.09,5.09,0,0,1-3.14-.66c-.93-.43-1.89-.92-1.94-1.72a3.55,3.55,0,0,1,1.1-2.09,4.54,4.54,0,0,1,2.1-1.33c.73-.25,1.62-.43,1.78-.94a.83.83,0,0,0-.17-.71,1.69,1.69,0,0,0-1.16-.44,14,14,0,0,0-4.55.79c-2,.52-4.41,1-4.62,2-.13.6.59,1.39,1.42,2a20,20,0,0,1,3,2.39A4.92,4.92,0,0,1,307.66,39a3,3,0,0,1-.62,2.56,9.39,9.39,0,0,1-3.21,1.9,20.34,20.34,0,0,0-2.39,1.28c-1.12.69-2.27,1.57-2.05,2.23a1.25,1.25,0,0,0,.94.65A5.75,5.75,0,0,0,303,47a20.51,20.51,0,0,1,3.21-.72,6,6,0,0,1,3.14,0,1.93,1.93,0,0,1,.81.75,6.88,6.88,0,0,1,.76,2.07,8.6,8.6,0,0,1,.3,2.7,6.51,6.51,0,0,1-.55,1.95,5.88,5.88,0,0,1-1.36,2c-.51.48-1.15,1-1.23,1.44s.29.81.63,1.23a9,9,0,0,1,1.85,3.1,8.44,8.44,0,0,1,.29,2.72,7,7,0,0,1-.76,3.08c-.4.75-1,1.44-1.34,2.19a2.5,2.5,0,0,0-.24,2.06,5.07,5.07,0,0,0,1.18,1.46,5.77,5.77,0,0,0,1.51,1.18,1.41,1.41,0,0,0,1.07.18c.69-.3.54-2.06.52-3.56a22.67,22.67,0,0,1,.33-4.36c.14-.83.34-1.7.47-2.54a3.87,3.87,0,0,1,.75-2.1,2.61,2.61,0,0,1,2.28-.68,4,4,0,0,1,1.36.74c.77.55,1.61,1.07,2.42,1.62,1.08.73,2.12,1.5,3.27,2.14a24.58,24.58,0,0,0,2.65,1.23,9,9,0,0,0,2.51.71c.52,0,1.08,0,1.27-.34A1.19,1.19,0,0,0,330.06,66.46Z"/><path class="cls-1" d="M288.87,35.92a7,7,0,0,0,2.17.79,3.9,3.9,0,0,0,1.13.06c.37,0,1.26-.23.74-.51A12.69,12.69,0,0,1,289,33.81c-.52-.59-.77-1.33-1.24-2s-1.64,0-1.78.73C285.74,33.88,288.08,35.47,288.87,35.92Z"/><path class="cls-1" d="M296.21,42.67a3.59,3.59,0,0,0-2.25-.16,44.36,44.36,0,0,0-4.42.69,41.28,41.28,0,0,0-6.46,2.07c-1.9.75-4.14,1.71-4.22,2.76,0,.23.08.46.31.45a2,2,0,0,0,.65-.28c.45-.25.83-.47,1.26-.7.72-.39,1.6-.79,2.39-1.13a7.77,7.77,0,0,1,1.66-.54,3,3,0,0,1,2,.24,2.88,2.88,0,0,1,1,1.76,6.25,6.25,0,0,1,.17,2.34,14.24,14.24,0,0,1-1.88,5c-.92,1.64-1.77,2.87-3,4.82-.56.91-1.19,2-.82,2.53s1.5.62,2.38.72a5.16,5.16,0,0,1,1.31.27,2.25,2.25,0,0,1,1.08.94,6.26,6.26,0,0,1,.36,3.07,27.4,27.4,0,0,0,0,3.2,1.7,1.7,0,0,0,.37,1.18,2.32,2.32,0,0,0,1.36.31,3.85,3.85,0,0,0,1.29-.11,1.42,1.42,0,0,0,.75-.56,4.37,4.37,0,0,0,.31-2.23c0-1.45-.12-2.72-.17-4-.07-1.53-.12-3.1-.19-4.66s-.18-3.38-.18-5.07a9.71,9.71,0,0,1,.4-3.17,3.83,3.83,0,0,1,1-1.63,4.15,4.15,0,0,0,.88-.8,1,1,0,0,0,.16-.51c0-.62-.86-1-1.4-1.51a2.6,2.6,0,0,1-.8-1.47,2.19,2.19,0,0,1,.15-1.57,2,2,0,0,1,.92-.65,10.24,10.24,0,0,1,1.68-.47,11.36,11.36,0,0,0,1.41-.35,1.34,1.34,0,0,0,.52-.27C296.48,43,296.38,42.81,296.21,42.67Z"/><path class="cls-1" d="M220.16,37l-.09-.09,0,0Z"/><path class="cls-1" d="M224.7,41.49a.77.77,0,0,0,1.21.22l.24-.15a.47.47,0,0,0,.17-.76,24.91,24.91,0,0,0-4.77-5.47,1.08,1.08,0,0,0-1.48,1.55A22.56,22.56,0,0,1,224.7,41.49Z"/><path class="cls-1" d="M231.79,54.52q-4.62,6.36-9.6,12.41a.9.9,0,0,1-1.6-.54c-.17-5.14-.15-10.26.06-15.39a1.27,1.27,0,0,0-1.26-1.33h-.54a1.27,1.27,0,0,0-1.27,1.22c-.27,6.36-.24,12.7.08,19.06a2.72,2.72,0,0,0,4.92,1.46l.2-.27q4.52-6.22,8.92-12.52a4.61,4.61,0,0,0,.9-2.69c0-.37,0-.73,0-1.11A.47.47,0,0,0,231.79,54.52Z"/><path class="cls-1" d="M258.19,40.61a3.69,3.69,0,0,0-1.92,0l-2,.3c-.88.12-1.72.21-2.69.3s-2,.17-2.58-.42a1.84,1.84,0,0,1-.47-1.55,1.68,1.68,0,0,1,.65-1.08,3.31,3.31,0,0,1,1.53-.4c.84-.1,1.65-.24,2.44-.26.64,0,1.28,0,2,0a1,1,0,0,0,.55-.14.81.81,0,0,0,.24-.77c-.11-.42-.65-.58-1.12-.68a7.21,7.21,0,0,0-1.36-.21,23.15,23.15,0,0,1-2.67-.11,3.33,3.33,0,0,1-2-1,4.72,4.72,0,0,1-.71-2.14,3.46,3.46,0,0,1-.07-1.88A2.27,2.27,0,0,1,249,29.49a2.55,2.55,0,0,1,1.56-.26c.85.08,1.92.45,2.39-.06a1,1,0,0,0,.23-.89,2,2,0,0,0-.78-1A11.8,11.8,0,0,0,251,26.22a5,5,0,0,0-1.72-.72,8.12,8.12,0,0,0-1.41-.07,3,3,0,0,0-1.64.25,1.19,1.19,0,0,0-.46.61,2.6,2.6,0,0,0,.06,1.25.91.91,0,0,1,0,.41c-.08.18-.33.27-.57.36-.73.28-1.34.54-1.93.79s-.89.38-1.4.65-.78.43-.82.82a.8.8,0,0,0,.23.68,1.19,1.19,0,0,0,.91.16c.67-.05,1.2-.1,1.86-.14a1.83,1.83,0,0,1,1,.12,1.46,1.46,0,0,1,.45.46A6.72,6.72,0,0,1,246.61,34a2,2,0,0,1,.09,1.16,1.75,1.75,0,0,1-1,.88,9,9,0,0,1-2.14.59c-1,.21-2.06.48-3,.73l-2.33.61a1.77,1.77,0,0,0-1,.54.92.92,0,0,0-.12.94c.18.23.65.14,1.06,0a13.24,13.24,0,0,0,1.56-.52c.48-.16,1-.33,1.48-.47.68-.17,1.4-.29,2.14-.43a3.21,3.21,0,0,1,1.76,0,1.77,1.77,0,0,1,.81.71,2.88,2.88,0,0,1,.24,1.72,3.73,3.73,0,0,1-.51,1.88,2,2,0,0,1-1.17.54,20.27,20.27,0,0,0-3.34.87,6.38,6.38,0,0,0-2.56,1.92c-.53.62-1,1.43-.8,1.85s1,.44,1.63.41a7.41,7.41,0,0,0,2.52-.65,9.26,9.26,0,0,1,2-.59,1.65,1.65,0,0,1,1.23.17,1.69,1.69,0,0,1,.16,1.8,8.4,8.4,0,0,1-.89,1.37c-.83,1.31-.87,3.16-1,4.89-.15,2.67-.44,5.09-.5,7.57a23.6,23.6,0,0,1-.17,2.77,6.76,6.76,0,0,1-.65,2.1A6.56,6.56,0,0,0,241,69.7a2.38,2.38,0,0,0,.86,2.23A1.5,1.5,0,0,0,243,72c1.27-.38,2-1.86,2.78-3.27a3.05,3.05,0,0,0,.54-1.7,6,6,0,0,0-.51-1.15,2.23,2.23,0,0,1,0-2.11c.4-.44,1.32-.33,2.13-.3a4.32,4.32,0,0,1,2.3.38,2.28,2.28,0,0,1,.8,2.41,2,2,0,0,1-1,1.13c-.49.25-1.12.3-1.35.63-.35.51.25,1.64.82,2.45A3.89,3.89,0,0,0,251.46,72a1.89,1.89,0,0,0,1.61,0,1.44,1.44,0,0,0,.42-.76,11.87,11.87,0,0,0,.34-2.81c.05-1.52,0-2.94,0-4.38,0-3,0-6.06,0-9.1,0-1.13,0-2.24,0-3.36a7.43,7.43,0,0,0-.08-1.3,5.51,5.51,0,0,0-.55-1.49,12,12,0,0,0-1.46-2.06c-.57-.69-1.25-1.41-1.18-2.23a1.83,1.83,0,0,1,.54-1.08,3.42,3.42,0,0,1,1.66-.66c.83-.18,1.6-.4,2.37-.57a10,10,0,0,1,2.53-.27,1.34,1.34,0,0,0,.81-.12.77.77,0,0,0,.33-.66C258.84,40.93,258.5,40.73,258.19,40.61Zm-11.78,11a3.37,3.37,0,0,1,1.45-.31,6.93,6.93,0,0,1,1,0,.81.81,0,0,1,.54.23,2.09,2.09,0,0,1,.3.94,4.94,4.94,0,0,1,0,1.21.77.77,0,0,1-.14.43,1.64,1.64,0,0,1-.93.36,6.24,6.24,0,0,1-1.25.1,1.32,1.32,0,0,1-.88-.22,1.39,1.39,0,0,1-.33-.74,4.78,4.78,0,0,1-.12-1.33A.84.84,0,0,1,246.4,51.63ZM249.33,60a2.47,2.47,0,0,1-1.75.67,3.44,3.44,0,0,1-1.92-.35,2,2,0,0,1-.91-1.22,3,3,0,0,1,.15-2.18,1.75,1.75,0,0,1,1.38-.73,5.62,5.62,0,0,1,1.47,0,2.43,2.43,0,0,1,1.69.7,2.22,2.22,0,0,1,.31,1.33A2.71,2.71,0,0,1,249.33,60Z"/><path class="cls-1" d="M72.67,80l-.45,0-.41,0-.09,0,.49,0,.45,0,1.14,0,.09,0C73.49,80,73.08,80,72.67,80Z"/><path class="cls-1" d="M99.52,54.59a25.49,25.49,0,0,0-3-11.86v0A25.49,25.49,0,0,1,99.52,54.59Z"/><path class="cls-1" d="M88.3,65l-.23.31c-.32.42-.65.82-1,1.2l-.06.06c-.34.36-.69.7-1,1l-.28.25c-.38.33-.77.65-1.18.95l-.12.08c-.38.27-.76.52-1.16.76l-.31.19c-.43.25-.87.48-1.31.69l-.18.08q-.61.28-1.24.5l-.33.12c-.47.16-.94.3-1.41.42l-.22,0c-.42.1-.85.19-1.28.26L76.6,72c-.49.07-1,.12-1.47.15h-.26l-.74,0-.54,0h-.37c-.5,0-1-.07-1.49-.14l-.25,0q-.64-.1-1.28-.25l-.39-.09c-.49-.12-1-.27-1.47-.44l-.15-.06c-.44-.16-.88-.34-1.31-.54l-.37-.18c-.36-.17-.72-.36-1.07-.56a29.15,29.15,0,0,1-5.12,6l0,0a29.15,29.15,0,0,0,5.1-6c.35.2.71.39,1.07.56l.37.18c.43.2.87.38,1.31.54l.15.06c.48.17,1,.31,1.47.44l.39.09q.64.15,1.28.25l.25,0q.74.1,1.49.14h.37l.54,0,.74,0h.26q.74,0,1.47-.15l.34-.05c.43-.07.86-.15,1.28-.25l.22,0c.48-.12.95-.27,1.41-.42l.33-.12c.42-.15.83-.32,1.24-.5l.18-.08c.45-.21.88-.44,1.31-.69l.31-.19c.4-.24.78-.49,1.16-.76l.12-.08c.41-.3.8-.61,1.18-.95l.28-.25c.36-.33.71-.67,1-1l.06-.06c.35-.38.68-.78,1-1.2l.23-.31c.31-.43.61-.86.89-1.33a17.44,17.44,0,0,0,2.51-9,17.43,17.43,0,0,1-2.51,9C88.91,64.16,88.61,64.6,88.3,65Z"/><path class="cls-1" d="M87.23,32.92c-.26-.16-.52-.29-.78-.44a29.09,29.09,0,0,1-2.92,7.35h0a29.1,29.1,0,0,0,2.9-7.32c.26.14.53.28.78.43a25.25,25.25,0,0,1,8.25,8v0A25.25,25.25,0,0,0,87.23,32.92Z"/><path class="cls-1" d="M80.14,13.09A25.35,25.35,0,0,0,58.4,0H57.5l-.61,0-.68,0-.61,0-.66.07-.6.07-.66.11-.59.1L52.45.6l-.58.13L51.24.9l-.56.16-.62.2-.56.18-.61.23-.54.21-.59.26-.53.24-.58.28-.52.26-.56.31-.5.28-.55.34L44,4.15l-.53.36L43,4.84l-.51.39-.45.35L41.59,6l-.44.37-.47.43-.42.39-.45.45-.4.41L39,8.52l-.38.43-.4.5-.36.44-.38.52-.33.46-.36.54-.31.47-.33.55-.26.44a38.62,38.62,0,0,1,44.27.22Z"/><path class="cls-1" d="M34.48,15.74c-.07.17-.15.34-.21.52s-.15.43-.23.65-.13.34-.18.51-.14.44-.2.67-.11.35-.16.53-.12.46-.17.69-.09.35-.13.53-.1.48-.14.73-.07.34-.1.51-.08.51-.11.76-.05.33-.07.5-.05.56-.08.85,0,.29,0,.43c0,.43,0,.86-.06,1.3s0,.6,0,.91a29.24,29.24,0,0,1,7.82-1.14c0-.47,0-.95.1-1.41,0-.19.07-.38.1-.56.06-.39.11-.78.2-1.16.05-.23.13-.45.19-.68s.17-.66.27-1,.18-.47.27-.71.21-.6.34-.89.23-.47.35-.7.26-.55.41-.81.28-.45.43-.68.3-.5.47-.74.33-.43.5-.65.34-.46.53-.68.37-.41.56-.61.38-.42.58-.62.41-.37.62-.55.41-.38.63-.55.45-.33.68-.5.45-.34.68-.49.48-.29.72-.43.48-.29.73-.42.5-.24.76-.36.51-.25.78-.36.53-.19.79-.28.54-.2.82-.28.55-.14.82-.21.57-.15.86-.2.56-.09.84-.13.59-.09.89-.12.57,0,.86,0,.5,0,.76,0h.32a17.54,17.54,0,0,1,17.21,17.5c0,.12,0,.24,0,.36A17.34,17.34,0,0,1,75,29.31h0a17.45,17.45,0,0,1-4.44,8.17h0a17.68,17.68,0,0,1-5.09,3.69l1.08,2.27,2.29,4.79a25.64,25.64,0,0,0,11-10.18h0a25.11,25.11,0,0,0,2.83-7.28h0a25.43,25.43,0,0,0,.54-4.05c0-.3,0-.6,0-.91a25.26,25.26,0,0,0-2.24-10.89,37.71,37.71,0,0,0-46.13-.24l-.2.43C34.65,15.32,34.56,15.53,34.48,15.74Z"/><path class="cls-1" d="M44.1,79.17l1-.16.46-.08,1.16-.26.25-.06q.7-.18,1.4-.4l.38-.13,1-.37.47-.19,1-.42.42-.19c.45-.22.9-.44,1.34-.69.26-.15.51-.31.77-.46a25.12,25.12,0,0,0,8.45-8.29A25.6,25.6,0,0,0,66,53l-5.3.22-2.52.11a17.53,17.53,0,0,1-9,16.09l-.35.18q-.54.28-1.09.52l-.33.14c-.48.2-1,.38-1.44.53l-.22.06q-.66.2-1.33.34l-.3.07q-.73.15-1.47.23l-.31,0c-.45,0-.91.07-1.36.08H40.7c-.47,0-.94,0-1.41-.06l-.37,0c-.42,0-.83-.1-1.24-.17l-.29,0c-.49-.09-1-.21-1.44-.34l-.33-.1c-.39-.12-.79-.25-1.17-.4l-.31-.12q-.69-.28-1.35-.61l-.27-.14c-.37-.19-.73-.4-1.09-.62l-.31-.19c-.42-.27-.83-.56-1.23-.87l-.19-.15q-.51-.41-1-.86l-.28-.27c-.37-.36-.72-.73-1.06-1.12l-.1-.12c-.31-.36-.59-.74-.87-1.13l-.23-.34c-.3-.44-.58-.89-.84-1.36A17.54,17.54,0,0,1,31.85,38.9l.33-.21c.36-.2.72-.38,1.08-.55l.37-.16.74-.31.44-.16.68-.23.07,0,.4-.11.67-.18.48-.11.67-.12.48-.07.68-.08.46,0,.73,0H41l.8,0,.51,0,.75.08.53.08.72.14.52.12h0l.7.19.51.15.7.25.49.19.7.31.45.21c.26.13.5.26.75.4l.37.2c.36.21.72.44,1.07.68L52,37.51l3-4.38c-.51-.35-1-.67-1.55-1L53,31.87c-.36-.2-.72-.4-1.08-.57l-.65-.3c-.34-.15-.68-.31-1-.45l-.7-.27-1-.36-.74-.22-1-.28L46,29.26l-1-.2h0l-.76-.12-1.08-.12-.74-.07c-.38,0-.76,0-1.14,0H40.5l-.6,0-1.06,0-.67.06-1,.12-.69.11-1,.18-.69.15-1,.25-.68.2-.19.06-.8.27-.64.23c-.36.14-.71.29-1.06.45l-.53.23c-.26.12-.51.26-.77.39s-.53.26-.8.41a25.26,25.26,0,0,0-7.88,6.8,37.77,37.77,0,0,0,22,40.68l1.09-.1Z"/><path class="cls-1" d="M19.1,44.76a38.93,38.93,0,0,1,.26-4.46,25.36,25.36,0,0,0-.88,26c.26.47.54.92.82,1.37l.25.38q.34.5.69,1l.25.34q.47.62,1,1.2l.17.18c.29.33.58.65.88,1l.32.33c.29.28.58.56.88.83l.25.23c.38.33.77.65,1.16,1l.28.21c.32.24.64.47,1,.69l.37.25q.55.36,1.1.69L28,76c.43.25.87.48,1.31.7l.36.17c.34.17.69.32,1,.47l.39.16c.46.19.93.37,1.4.52h0c.46.16.93.29,1.39.42l.41.11,1.12.26.37.08c.49.09,1,.18,1.47.24l.25,0c.42.05.83.09,1.25.12l.44,0,1.2,0h.07A38.78,38.78,0,0,1,19.1,44.76Z"/><path class="cls-1" d="M91.7,54.74a17.54,17.54,0,0,0-8.15-14.89l0,0A17.54,17.54,0,0,1,91.7,54.74Z"/><path class="cls-1" d="M70.7,79.78q-.74-.1-1.48-.25l-.33-.07c-.39-.08-.78-.18-1.17-.28l-.44-.12q-.63-.18-1.26-.39l-.22-.07q-.73-.25-1.44-.56L64,77.87c-.37-.16-.73-.33-1.09-.51l-.41-.21c-.47-.24-.93-.5-1.39-.77-.25-.15-.48-.32-.73-.47l0,0c.25.16.49.34.75.49.46.27.92.53,1.39.77l.41.2c.36.18.72.35,1.09.51l.38.17q.72.3,1.44.56l.22.07q.63.21,1.26.39l.44.12c.39.1.78.2,1.17.28l.33.07q.74.15,1.48.25l.34,0,.69.07.09,0L71,79.82Z"/><path class="cls-1" d="M95.89,67.73c-.27.44-.55.88-.84,1.3l-.27.38c-.22.3-.44.6-.67.89l-.29.37q-.42.52-.87,1l-.12.14c-.34.37-.68.72-1,1.06l-.33.3c-.26.25-.53.48-.79.71l-.37.31c-.31.26-.62.5-.94.74l-.22.17q-.59.43-1.19.82l-.36.22-.91.54-.43.24-1,.51-.31.15q-.65.3-1.31.57l-.36.14-1,.37-.45.15-1,.3-.36.1q-.7.18-1.4.31l-.32.06-1.13.18-.46.06-1.07.1-.4,0c-.48,0-1,0-1.45,0H73.9l-.09,0h.37c.48,0,1,0,1.45,0l.4,0,1.07-.1.46-.06,1.13-.18.32-.06c.47-.09.93-.2,1.4-.31l.36-.1,1-.3.45-.15,1-.37.36-.14c.44-.18.88-.37,1.31-.57l.31-.15,1-.51.43-.23.91-.54.36-.22q.6-.39,1.19-.82l.22-.17q.48-.36.94-.74l.37-.31c.27-.23.54-.47.79-.72l.33-.3c.36-.34.7-.69,1-1.06l.12-.14c.3-.33.58-.67.87-1l.29-.37c.23-.29.45-.59.67-.89l.27-.38c.29-.42.58-.86.84-1.3a25.24,25.24,0,0,0,3.63-13.18A25.24,25.24,0,0,1,95.89,67.73Z"/><path class="cls-1" d="M95.67,44.76q0-1.92-.19-3.79a25.25,25.25,0,0,0-8.25-8c-.26-.16-.52-.29-.78-.43a29.1,29.1,0,0,1-2.9,7.32,17.58,17.58,0,0,1,5.64,23.89c-.28.46-.58.9-.89,1.33l-.23.31c-.32.42-.65.82-1,1.2l-.06.06c-.34.36-.69.7-1,1l-.28.25c-.38.33-.77.65-1.18.95l-.12.08c-.38.27-.76.52-1.16.76l-.31.19c-.43.25-.87.48-1.31.69l-.18.08c-.41.18-.82.35-1.24.5l-.33.12c-.47.16-.94.3-1.41.42l-.22,0c-.42.1-.85.18-1.28.25l-.34.05q-.73.11-1.47.15h-.26l-.74,0-.54,0h-.37q-.75,0-1.49-.14l-.25,0q-.64-.1-1.28-.25l-.39-.09c-.49-.13-1-.27-1.47-.44l-.15-.06c-.44-.16-.88-.34-1.31-.54l-.37-.18c-.36-.17-.72-.36-1.07-.56a29.15,29.15,0,0,1-5.1,6c.24.16.48.32.73.47.46.27.92.53,1.39.77l.41.21c.36.18.72.35,1.09.51l.38.17q.72.3,1.44.56l.22.07q.63.21,1.26.39l.44.12c.39.1.78.2,1.17.28l.33.07q.74.15,1.48.25l.34,0,.77.08A37.87,37.87,0,0,0,95.67,44.76Z"/><path class="cls-1" d="M96.59,44.76A38.79,38.79,0,0,1,73.9,80h.28c.48,0,1,0,1.45,0l.4,0,1.07-.1.46-.06,1.13-.18.32-.06q.7-.13,1.4-.31l.36-.1,1-.3.45-.15,1-.37.36-.14q.66-.26,1.31-.57l.31-.15,1-.51.43-.24.91-.54.36-.22q.6-.39,1.19-.82l.22-.17c.32-.24.63-.48.94-.74l.37-.31c.27-.23.54-.47.79-.71l.33-.3c.36-.34.7-.7,1-1.06l.12-.14q.44-.49.87-1l.29-.37c.23-.29.45-.59.67-.89L95,69c.29-.42.58-.85.84-1.3a25.26,25.26,0,0,0,.66-24.95Q96.59,43.76,96.59,44.76Z"/><path class="cls-1" d="M11.53,101.45l-.89,1.13a5.46,5.46,0,0,0-3.84-1.63,5.12,5.12,0,1,0,0,10.24,5.67,5.67,0,0,0,3.84-1.56l.91,1a7.18,7.18,0,0,1-4.83,2,6.55,6.55,0,1,1,.06-13.1A7,7,0,0,1,11.53,101.45Z"/><path class="cls-1" d="M18.08,109.3l-1.45,3.29H15.05l5.83-13h1.54l5.81,13H26.62l-1.45-3.29Zm3.53-8-2.9,6.59h5.83Z"/><path class="cls-1" d="M44.82,112.58l0-10.71-4.73,9.34h-.89l-4.71-9.34v10.71H33.06v-13H34.9l4.75,9.36,4.73-9.36H46.2v13Z"/><path class="cls-1" d="M57.82,99.59c3.21,0,5.07,1.6,5.07,4.36s-1.86,4.53-5.07,4.53h-3.4v4.1H52.94v-13Zm-3.4,7.46h3.34c2.34,0,3.69-1,3.69-3.06s-1.35-3-3.69-3H54.42Z"/><path class="cls-1" d="M69.62,101v4.57h6.07V107H69.62v5.57H68.14v-13H76.4V101Z"/><path class="cls-1" d="M81.37,112.58v-13h1.48v13Z"/><path class="cls-1" d="M95.38,108.44c-.28,0-.58,0-.87,0H91.06v4.1H89.58v-13h4.94c3.25,0,5.12,1.6,5.12,4.36a4.07,4.07,0,0,1-2.91,4.21l3,4.42H98.08Zm-.87-1.39c2.36,0,3.69-1,3.69-3.06s-1.34-3-3.69-3H91.06v6Z"/><path class="cls-1" d="M107.26,101v4.27h6.55v1.43h-6.55v4.46h7.57v1.41h-9.06v-13h8.82V101Z"/><path class="cls-1" d="M14.62,124h0a1.3,1.3,0,0,1,1.29-1.34,1.37,1.37,0,0,1,1,.41l-.14.14a1.18,1.18,0,0,0-.87-.38A1.11,1.11,0,0,0,14.82,124h0a1.12,1.12,0,0,0,1.1,1.17,1.19,1.19,0,0,0,.89-.4l.13.13a1.36,1.36,0,0,1-1,.45A1.29,1.29,0,0,1,14.62,124Z"/><path class="cls-1" d="M18.07,124h0a1.3,1.3,0,1,1,2.61,0h0a1.3,1.3,0,1,1-2.61,0Zm2.41,0h0a1.12,1.12,0,0,0-1.11-1.16,1.11,1.11,0,0,0-1.1,1.16h0a1.12,1.12,0,0,0,1.11,1.17A1.11,1.11,0,0,0,20.48,124Z"/><path class="cls-1" d="M22.13,122.71h.18L24.1,125v-2.25h.18v2.59h-.14L22.32,123v2.3h-.19Z"/><path class="cls-1" d="M25.86,122.71H26L27.83,125v-2.25H28v2.59h-.14L26,123v2.3h-.19Z"/><path class="cls-1" d="M29.58,122.71h1.84v.18H29.78v1h1.48v.18H29.78v1h1.67v.18H29.58Z"/><path class="cls-1" d="M32.75,124h0a1.3,1.3,0,0,1,1.3-1.34,1.37,1.37,0,0,1,1,.41l-.14.14a1.18,1.18,0,0,0-.87-.38A1.11,1.11,0,0,0,32.95,124h0a1.12,1.12,0,0,0,1.1,1.17,1.19,1.19,0,0,0,.89-.4l.13.13a1.36,1.36,0,0,1-1,.45A1.29,1.29,0,0,1,32.75,124Z"/><path class="cls-1" d="M37.11,122.89h-.9v-.18h2v.18h-.9v2.41h-.19Z"/><path class="cls-1" d="M41.39,124h0a1.3,1.3,0,0,1,1.29-1.34,1.37,1.37,0,0,1,1,.41l-.14.14a1.18,1.18,0,0,0-.87-.38A1.11,1.11,0,0,0,41.59,124h0a1.12,1.12,0,0,0,1.09,1.17,1.19,1.19,0,0,0,.89-.4l.13.13a1.36,1.36,0,0,1-1,.45A1.29,1.29,0,0,1,41.39,124Z"/><path class="cls-1" d="M44.84,124h0a1.3,1.3,0,1,1,2.61,0h0a1.3,1.3,0,1,1-2.61,0Zm2.41,0h0a1.12,1.12,0,0,0-1.11-1.16A1.11,1.11,0,0,0,45,124h0a1.12,1.12,0,0,0,1.11,1.17A1.11,1.11,0,0,0,47.25,124Z"/><path class="cls-1" d="M48.91,122.71h.19v2.41h1.52v.18H48.91Z"/><path class="cls-1" d="M52,122.71h.19v2.41h1.52v.18H52Z"/><path class="cls-1" d="M56.07,122.69h.19l1.21,2.61h-.21l-.33-.72H55.39l-.33.72h-.2Zm.77,1.71-.68-1.5-.68,1.5Z"/><path class="cls-1" d="M58.81,122.71h1.07a.94.94,0,0,1,.67.23.56.56,0,0,1,.17.41h0a.64.64,0,0,1-.44.62c.31.08.58.26.58.62h0c0,.43-.37.71-.93.71H58.81Zm1.71.66c0-.29-.23-.48-.65-.48H59v1h.85c.39,0,.67-.19.67-.53Zm-.64.72H59v1h.94c.44,0,.72-.2.72-.53h0C60.67,124.27,60.39,124.08,59.88,124.08Z"/><path class="cls-1" d="M62.17,124h0a1.3,1.3,0,1,1,2.61,0h0a1.3,1.3,0,1,1-2.61,0Zm2.41,0h0a1.12,1.12,0,0,0-1.11-1.16,1.11,1.11,0,0,0-1.1,1.16h0a1.12,1.12,0,0,0,1.11,1.17A1.11,1.11,0,0,0,64.58,124Z"/><path class="cls-1" d="M66.23,122.71h1.09A1,1,0,0,1,68,123a.68.68,0,0,1,.2.48h0c0,.43-.32.68-.76.74l.86,1.11H68.1l-.83-1.07h-.85v1.07h-.19Zm1.07,1.34c.43,0,.75-.22.75-.59h0c0-.35-.27-.57-.74-.57h-.88v1.16Z"/><path class="cls-1" d="M70.69,122.69h.19l1.21,2.61h-.21l-.33-.72H70l-.33.72h-.2Zm.77,1.71-.68-1.5-.68,1.5Z"/><path class="cls-1" d="M73.82,122.89h-.9v-.18h2v.18H74v2.41h-.19Z"/><path class="cls-1" d="M76.3,122.71h1.84v.18H76.49v1H78v.18H76.49v1h1.67v.18H76.3Z"/><path class="cls-1" d="M81.37,124h0a1.3,1.3,0,0,1,1.3-1.34,1.37,1.37,0,0,1,1,.41l-.14.14a1.18,1.18,0,0,0-.87-.38A1.11,1.11,0,0,0,81.57,124h0a1.12,1.12,0,0,0,1.1,1.17,1.19,1.19,0,0,0,.89-.4l.13.13a1.36,1.36,0,0,1-1,.45A1.29,1.29,0,0,1,81.37,124Z"/><path class="cls-1" d="M85,122.71H86.1a1,1,0,0,1,.73.26.68.68,0,0,1,.2.48h0c0,.43-.32.68-.76.74l.86,1.11h-.25l-.82-1.07h-.85v1.07H85Zm1.07,1.34c.43,0,.75-.22.75-.59h0c0-.35-.27-.57-.74-.57h-.88v1.16Z"/><path class="cls-1" d="M88.49,122.71h1.84v.18H88.68v1h1.48v.18H88.68v1h1.67v.18H88.49Z"/><path class="cls-1" d="M92.76,122.69h.19l1.21,2.61h-.21l-.33-.72H92.08l-.33.72h-.2Zm.77,1.71-.68-1.5-.68,1.5Z"/><path class="cls-1" d="M95.88,122.89H95v-.18h2v.18h-.9v2.41h-.19Z"/><path class="cls-1" d="M98.36,122.71h1.84v.18H98.55v1H100v.18H98.55v1h1.67v.18H98.36Z"/><path class="cls-1" d="M491.67,57.35h-1.79l-.32.32V58h0V71.9c-.26-.49-.35-.66-.38-.69l-6-11.27-1.38-2.59h-2.3l-.32.32V76.42l.32.32h1.79l.32-.32v-.13h0V62.2L489,76.1c.28.52.36.64.36.64h2.28l.32-.32V57.66Z"/><polygon class="cls-1" points="513.66 57.35 513.42 57.35 513.4 57.35 505.09 57.35 504.94 57.35 504.91 57.35 504.59 57.35 504.26 57.68 504.26 57.69 504.26 57.97 504.26 76.41 504.59 76.72 513.37 76.72 513.38 76.72 513.38 76.72 513.66 76.72 513.98 76.45 513.98 76.42 513.98 76.41 513.98 75.97 513.98 74.94 513.98 74.77 513.98 74.65 513.66 74.34 513.24 74.34 513.22 74.34 506.69 74.34 506.69 68.27 512.28 68.27 512.61 67.94 512.61 66.17 512.28 65.83 506.69 65.83 506.69 59.79 513.66 59.79 513.98 59.47 513.98 57.97 513.98 57.81 513.98 57.68 513.66 57.35"/><polygon class="cls-1" points="615.77 59.65 615.77 59.64 615.77 57.64 615.6 57.35 615.44 57.35 613.67 57.35 613.55 57.35 613.35 57.64 613.35 65.81 613.35 65.82 613.35 65.85 605.43 65.85 605.43 59.07 605.43 57.65 605.26 57.35 605.11 57.35 603.33 57.35 603.21 57.35 603 57.65 603 59.07 603 65.82 603 76.44 603.17 76.74 603.33 76.74 605.1 76.74 605.23 76.74 605.43 76.44 605.43 76.42 605.43 68.28 613.35 68.28 613.35 76.44 613.51 76.74 613.67 76.74 615.44 76.74 615.57 76.74 615.77 76.44 615.77 74.65 615.77 74.65 615.77 59.65"/><path class="cls-1" d="M588.18,64.15h1.77l.31-.31a8.71,8.71,0,0,0-.61-3.38,5.25,5.25,0,0,0-1.88-2.39,4.58,4.58,0,0,0-2.49-.75h-1.69a4.82,4.82,0,0,0-2.25.61,6.63,6.63,0,0,0-.8.58,4.77,4.77,0,0,0-.55.61,5.52,5.52,0,0,0-.55.87,8.41,8.41,0,0,0-.81,3.73v6.73a9,9,0,0,0,.46,2.89,5.38,5.38,0,0,0,2.06,2.75,4.69,4.69,0,0,0,2.46.72h1.69a4.61,4.61,0,0,0,1.73-.35,6.32,6.32,0,0,0,.87-.47c1.57-1.14,2.36-3.08,2.36-5.77V67.64l-.33-.33h-4.45l-.32.33v1.73l.32.32h2.39v.24a9.16,9.16,0,0,1-.16,2,4.64,4.64,0,0,1-.2.7,3.4,3.4,0,0,1-.38.76,2.22,2.22,0,0,1-1.93,1h-1.54a2.15,2.15,0,0,1-1.61-.67,3,3,0,0,1-.42-.55,5.85,5.85,0,0,1-.63-2.88V63.8a6,6,0,0,1,.58-2.8,2.28,2.28,0,0,1,2.09-1.31h1.52a2.3,2.3,0,0,1,2.13,1.37,6.1,6.1,0,0,1,.54,2.65v.11Z"/><polygon class="cls-1" points="638.09 57.35 631.42 57.35 628.03 57.35 627.19 57.35 626.87 57.66 626.87 59.45 627.19 59.77 628.03 59.77 631.41 59.77 631.41 76.45 631.58 76.74 631.74 76.74 633.52 76.74 633.68 76.74 633.86 76.45 633.86 59.77 638.07 59.77 638.09 59.77 638.41 59.45 638.41 57.66 638.09 57.35"/><polygon class="cls-1" points="549.91 57.35 549.66 57.35 549.65 57.35 541.34 57.35 541.18 57.35 541.15 57.35 540.83 57.35 540.51 57.68 540.51 57.69 540.51 57.97 540.51 76.41 540.84 76.72 549.62 76.72 549.62 76.72 549.63 76.72 549.91 76.72 550.23 76.45 550.23 76.42 550.23 76.41 550.23 75.97 550.23 74.94 550.23 74.77 550.23 74.65 549.91 74.34 549.48 74.34 549.47 74.34 542.94 74.34 542.94 68.27 548.52 68.27 548.86 67.94 548.86 66.17 548.52 65.83 542.94 65.83 542.94 59.79 549.91 59.79 550.23 59.47 550.23 57.97 550.23 57.81 550.23 57.68 549.91 57.35"/><polygon class="cls-1" points="565.93 57.65 565.62 57.35 565.49 57.35 565.33 57.35 564.11 57.35 564.11 57.35 563.82 57.35 563.51 57.65 563.5 57.65 563.5 57.66 563.5 58 563.5 58.1 563.5 72.49 563.5 75.97 563.5 76.19 563.5 76.41 563.82 76.72 563.95 76.72 564.11 76.72 565.33 76.72 565.33 76.72 565.62 76.72 565.93 76.41 565.93 76.07 565.93 75.97 565.93 72.49 565.93 58.1 565.93 57.88 565.93 57.66 565.93 57.65 565.93 57.65"/><path class="cls-1" d="M461.56,57.66l-.32-.32h-1.82l-.32.32-2.8,9.61-2.66,9.14.32.32h1.88l.33-.32.5-1.71,0,0,1-3.49H463l1.53,5.21.33.32h1.88l.32-.32Zm-3.14,11.12,1.93-6.64,1.93,6.64Z"/><polygon class="cls-1" points="441.47 74.31 441.04 74.31 441.04 74.31 434 74.31 434 57.74 434 57.74 434 57.66 433.68 57.35 433.63 57.35 433.39 57.35 432.19 57.35 431.98 57.35 431.9 57.35 431.58 57.66 431.58 57.69 431.58 58.1 431.58 76.42 431.91 76.74 441.04 76.74 441.46 76.74 441.47 76.74 441.79 76.42 441.79 76.42 441.79 76.13 441.79 74.92 441.79 74.64 441.79 74.63 441.47 74.31"/><path class="cls-2" d="M552.05,194.7a86.28,86.28,0,0,0-24,.91c-3.19.58-6.38,1.22-9.56,1.81a13.85,13.85,0,0,1-2.3.23c-.92,0-2-.35-2.28-1a2.78,2.78,0,0,1,.83-2.52c.82-.84,3.51-2.2,6.17-3.86,2.19-1.61,3-6.16,3.62-8.36,2.11-7.59,2.54-10.51,6-18.24a21,21,0,0,1,4-5.87c1.17-1.14,3.44-1.24,4.11,1.31a32.28,32.28,0,0,1,.7,8.57,25.35,25.35,0,0,1-.59,6.05c-.17.53-.64,1.33-1.24,1.33a1.35,1.35,0,0,1-1.19-1.21,33.73,33.73,0,0,1-.17-4.24c0-1.14,0-2.4,0-3.32,0-.73-.23-1.91-.89-2s-1.09.94-1.48,1.92a109.55,109.55,0,0,0-4,12.82c-.37,1.69-1.05,4.33-1.45,7.11-.18,1.67.56,2.71,2,3a37.25,37.25,0,0,0,4.27.39c6.71.36,11.56.67,18.26,1h.77c1.38-4.34,2.43-8.72,2.15-13.3-.13-2.13-.72-2.4-2.43-1.21-2.33,1.62-4.61,3.3-6.89,5-1.56,1.14-2.71,1.22-3.82.21A3,3,0,0,1,542,177a13.1,13.1,0,0,1,2.77-2.83c5.7-4.12,11.84-7.27,18.91-8.2a19.9,19.9,0,0,1,9.74.74,10.42,10.42,0,0,1,1.85.88c2.74,1.7,3.47,4.46,1.86,7.17a17.84,17.84,0,0,1-4.93,5.43,101.62,101.62,0,0,1-10.6,6.49c-2.2,1.21-2.9,1.7-3.78,4.39,2,.29,4,.54,5.92.87,2.75.45,5.5.87,8.22,1.49a6.69,6.69,0,0,1,3.14,1.54c.78.73.67,1.22.53,1.6a1.79,1.79,0,0,1-1.85,1c-4.85-.65-9.67-1.48-14.5-2.22-2.84-.44-2.82-.42-3.84,2.26q-1.65,4.35-3.4,8.68a2.41,2.41,0,0,1-3.9,1c-.89-.64-.6-1.37-.26-2.19,1.34-3.24,2.59-6.37,3.9-9.63A7.13,7.13,0,0,0,552.05,194.7Zm8.08-17.54h0c0,.5-.1,2.51-.11,3,0,1.5.67,2.12,2.05,1.57a17.43,17.43,0,0,0,8.93-6.93c1.5-2.44.46-4.27-2.41-4.52a14.86,14.86,0,0,0-7.32,1.4,1.67,1.67,0,0,0-.81,1.11C560.26,174.24,560.24,175.71,560.13,177.16Z"/><path class="cls-1" d="M481.42,241.29v-.49a4.19,4.19,0,0,0,3.18-1.12,3.46,3.46,0,0,0,.88-1.64,14.77,14.77,0,0,0,.26-3.07l.14-14.95a14.55,14.55,0,0,0-.22-3.18,3.36,3.36,0,0,0-.93-1.68,3.68,3.68,0,0,0-1.26-.79,6.31,6.31,0,0,0-1.79-.3v-.47l13,.12v.47a6.87,6.87,0,0,0-1.83.29,3.33,3.33,0,0,0-2.21,2.43,14.71,14.71,0,0,0-.28,3.14l-.11,11.71q0,2.7.1,4a6.5,6.5,0,0,0,.53,2.16,4.47,4.47,0,0,0,2.09,2.16,8.61,8.61,0,0,0,3.71.71,11.37,11.37,0,0,0,4.07-.6,6.26,6.26,0,0,0,2.72-2,8.18,8.18,0,0,0,1.19-2.06,18.39,18.39,0,0,0,.87-3l.49,0-.34,8.32Z"/><path class="cls-1" d="M523.9,239.73l.35.2a3.15,3.15,0,0,1-3.37,2.1,3.9,3.9,0,0,1-2.39-.73,5.37,5.37,0,0,1-1.28-1.63,13,13,0,0,1-2.07,1.58,6.21,6.21,0,0,1-3.08.7,5.44,5.44,0,0,1-3.54-1.11,3.56,3.56,0,0,1-1.28-2.91,4,4,0,0,1,1.1-2.81,4.81,4.81,0,0,1,1.41-1,12.91,12.91,0,0,1,2.3-.74c1.18-.29,2.05-.53,2.61-.73a5.17,5.17,0,0,0,1.42-.72,2.4,2.4,0,0,0,.9-1.08,5,5,0,0,0,.26-1.74,5.45,5.45,0,0,0-.86-3.48,2.89,2.89,0,0,0-1-.82,3,3,0,0,0-1.33-.32,2.6,2.6,0,0,0-2.47,1.58l-.52,1.17a1.47,1.47,0,0,1-1.47.94,1.6,1.6,0,0,1-1.15-.47,1.53,1.53,0,0,1-.45-1.15c0-.69.5-1.27,1.48-1.73a8.78,8.78,0,0,1,2-.58,11.79,11.79,0,0,1,2.29-.21,11.36,11.36,0,0,1,2.62.35,8.94,8.94,0,0,1,2.27.86,3.22,3.22,0,0,1,1.63,2,8.87,8.87,0,0,1,.14,2.05l-.07,7.51a13.36,13.36,0,0,0,.14,2.6,1.62,1.62,0,0,0,1.65,1.46,1.82,1.82,0,0,0,1-.22A3.42,3.42,0,0,0,523.9,239.73Zm-6.64-8.06a13.7,13.7,0,0,1-2.42,1.58,20.29,20.29,0,0,0-2.05,1.17,5.37,5.37,0,0,0-1,1,4.22,4.22,0,0,0-1,2.73,3.31,3.31,0,0,0,.72,2.22,2.35,2.35,0,0,0,1.86.89,3.17,3.17,0,0,0,1.88-.6,3.82,3.82,0,0,0,1.34-1.64,9.74,9.74,0,0,0,.66-3.93Z"/><path class="cls-1" d="M539.06,242.21a12.06,12.06,0,0,1-.24-2.54,8.21,8.21,0,0,1-6,2.48,6.33,6.33,0,0,1-4.07-1.27,4.2,4.2,0,0,1-1.47-3.46l.07-7.05v-1.54a8.92,8.92,0,0,0-.14-2,2.24,2.24,0,0,0-.6-1.08,4.22,4.22,0,0,0-2.1-.83v-.45l6,.06-.1,10.28a25.13,25.13,0,0,0,.12,3.22,4.7,4.7,0,0,0,.54,1.72,3.08,3.08,0,0,0,1.27,1.1,4.26,4.26,0,0,0,1.86.41,5.11,5.11,0,0,0,2.13-.43,3.82,3.82,0,0,0,1.57-1.2,4.34,4.34,0,0,0,.79-1.81,20.44,20.44,0,0,0,.23-3.4l0-4v-1.5a9.38,9.38,0,0,0-.13-2,2.12,2.12,0,0,0-.61-1.08A4.11,4.11,0,0,0,536,225v-.45l6,.06-.11,11a26.52,26.52,0,0,0,.08,2.93,3.47,3.47,0,0,0,.42,1.37,2.27,2.27,0,0,0,.85.83,3.66,3.66,0,0,0,1.4.33v.43Z"/><path class="cls-1" d="M551.87,227.54a5.86,5.86,0,0,1,1.66-1.91,6.44,6.44,0,0,1,3.85-1.16,3,3,0,0,1,2,.61,1.63,1.63,0,0,1,.62,1.3,1.24,1.24,0,0,1-.39.93,1.32,1.32,0,0,1-1,.35,1.57,1.57,0,0,1-1.19-.58l-.62-.7a2.35,2.35,0,0,0-1.76-.81c-.92,0-1.65.58-2.17,1.76a12.8,12.8,0,0,0-.82,5l0,3.79v1.54a8.76,8.76,0,0,0,.15,2,2.09,2.09,0,0,0,.62,1.07,4.18,4.18,0,0,0,2.08.85V242l-9-.09v-.42a5.31,5.31,0,0,0,1.75-.44,2.08,2.08,0,0,0,.86-1,4.38,4.38,0,0,0,.33-1.4q.1-.94.12-2.71l0-5A27.88,27.88,0,0,0,549,228a3.23,3.23,0,0,0-.43-1.37,2.17,2.17,0,0,0-.82-.82,3.6,3.6,0,0,0-1.4-.33v-.43l5.24-.68A17.37,17.37,0,0,1,551.87,227.54Z"/><path class="cls-1" d="M561,225.23l5.85-.67-.11,11.68v1.54a8.76,8.76,0,0,0,.15,2,2.09,2.09,0,0,0,.61,1.07,4.26,4.26,0,0,0,2.09.85v.42l-9-.09v-.42a5.25,5.25,0,0,0,1.75-.44,2.06,2.06,0,0,0,.86-1,4.34,4.34,0,0,0,.33-1.4q.1-.94.12-2.71l0-5a27.23,27.23,0,0,0-.07-2.92,3.19,3.19,0,0,0-.43-1.37,2.13,2.13,0,0,0-.82-.82,3.6,3.6,0,0,0-1.4-.33Zm4.31-8a1.8,1.8,0,0,1-1.31-.52,1.8,1.8,0,0,1,0-2.55,1.9,1.9,0,0,1,2.61,0,1.81,1.81,0,0,1,0,2.55A1.8,1.8,0,0,1,565.27,217.26Z"/><path class="cls-1" d="M576.8,224.65a9.47,9.47,0,0,1,.27,2.2v.33a8.15,8.15,0,0,1,6-2.47,6.66,6.66,0,0,1,4.17,1.26,4,4,0,0,1,1.53,3.42l-.08,8.59a8.84,8.84,0,0,0,.15,2,2.07,2.07,0,0,0,.62,1.07,4.18,4.18,0,0,0,2.08.85v.42l-9-.09v-.42a5.31,5.31,0,0,0,1.75-.44,2.08,2.08,0,0,0,.86-1,4.45,4.45,0,0,0,.33-1.4c.07-.63.11-1.53.12-2.71l0-4.29a24.42,24.42,0,0,0-.12-3.24,3.9,3.9,0,0,0-.56-1.67,3,3,0,0,0-1.32-1.12,4.68,4.68,0,0,0-1.92-.41,5,5,0,0,0-2.12.43,3.81,3.81,0,0,0-1.56,1.2,4.36,4.36,0,0,0-.82,1.82,20.49,20.49,0,0,0-.23,3.39l0,4v1.5a8.75,8.75,0,0,0,.14,2,2.08,2.08,0,0,0,.62,1.07,4.2,4.2,0,0,0,2.08.85v.42l-9-.09v-.42a5.29,5.29,0,0,0,1.75-.44,2.08,2.08,0,0,0,.86-1,4.52,4.52,0,0,0,.33-1.4q.1-.94.11-2.71l0-5a28,28,0,0,0-.07-2.92,3.26,3.26,0,0,0-.43-1.37,2.16,2.16,0,0,0-.82-.82,3.57,3.57,0,0,0-1.39-.33v-.43Z"/><path class="cls-1" d="M597.09,231.36c-.06.66-.09,1.14-.1,1.44a11.74,11.74,0,0,0,.49,3.45,8.16,8.16,0,0,0,1.38,2.81,6.32,6.32,0,0,0,2.23,1.81,6.48,6.48,0,0,0,2.81.67,5.93,5.93,0,0,0,2.08-.34,4.52,4.52,0,0,0,1.64-1,5.71,5.71,0,0,0,1.27-2.26l.42.15a5.62,5.62,0,0,1-2.29,3.56,7.94,7.94,0,0,1-4.62,1.16,10.63,10.63,0,0,1-4.28-.83,7.65,7.65,0,0,1-3-2.46,9.1,9.1,0,0,1-1.67-5.65,8.64,8.64,0,0,1,3.34-7.13,8.44,8.44,0,0,1,5.44-1.84,7.67,7.67,0,0,1,3,.61,6.2,6.2,0,0,1,2.32,1.69,6.26,6.26,0,0,1,1.44,4.28Zm8.85-.71a7.64,7.64,0,0,0-.71-3.13,4.3,4.3,0,0,0-1.44-1.59,3.53,3.53,0,0,0-1.93-.6,3.92,3.92,0,0,0-3.05,1.47,6.69,6.69,0,0,0-1.58,3.76Z"/><path class="cls-1" d="M27.4,169.8h3.51v10.07l0,.35,0,.38-.1.35-.14.35-.18.31-.17.31-.24.28-.28.28-.28.21-.31.21-.31.17-.35.14-.35.07-.35.07-.38,0H16.87v10H13.37v-10l0-.38,0-.35.1-.35.14-.35.17-.35.21-.31.21-.28.28-.24.28-.24.31-.21.31-.14.35-.14.35-.1.38-.07H27.4Zm-10.52,9.38h-.42l-.42.07-.38.1-.38.14-.38.17-.35.21-.35.24-.31.31-.28.28-.24.35V169.8h3.51Zm14,14.24H27.4v-9.34l.42,0,.42-.07.38-.1.42-.14.38-.17.35-.21.31-.24.31-.28.28-.31.24-.35v11.25Z"/><path class="cls-1" d="M37.75,185.12l.07.49.1.45.14.42.17.45.21.42.28.38.28.38.31.31.35.31L40,189l.42.28.42.21-.66.17-.63.24-.62.28-.59.31-.59.38-.52.42-.45-.42-.45-.45-.38-.52-.38-.49-.31-.56-.28-.55-.24-.59-.17-.59-.18-.59-.1-.63-.07-.63,0-.62v-6.08l0-.59.07-.62.1-.59.14-.59.17-.55.21-.56.28-.55.31-.52.31-.52.39-.45.38-.45.45-.45.45-.38.48-.38.49-.31.52-.28.55-.28.56-.21.59-.17.59-.14.59-.1.59,0,.63,0,.59,0,.59.07.59.1.59.17.59.17.56.24.52.24.56.31.49.35-.49.38-.56.31-.52.31-.59.24-.59.21-.59.14-.59.14-.63.07H43l-.49,0-.48.07-.49.1-.45.17-.45.17-.42.24-.42.28-.35.31-.35.35-.31.38-.28.38-.24.42-.17.45-.17.45-.1.49-.07.49,0,.49v6.08Zm11.43-12.75.42.45.42.49.35.52.31.55.31.56.21.59.21.59.17.59.1.62.07.62v7.29l-.07.59-.1.62-.14.55-.17.59-.24.56-.24.56-.31.52-.31.49-.38.49-.38.45-.45.42-.45.42-.48.35-.52.35-.52.28-.55.24-.56.24-.55.17-.59.14-.59.07-.62.07H42.3l-.63-.07-.59-.14-.59-.14-.56-.17-.55-.24-.56-.28-.52-.31-.49-.31.49-.38.52-.31.56-.31.55-.25.59-.21.63-.17.59-.1.62-.07.63,0h.49l.49-.07.45-.14.49-.14.41-.21.45-.21.38-.28.38-.31.35-.35.31-.38.28-.42.21-.41.21-.45.17-.45.11-.45.07-.49V178.1l-.07-.45-.11-.45-.14-.45-.17-.42-.24-.42-.25-.38-.28-.38-.31-.35-.38-.31-.35-.28-.42-.24-.41-.21.66-.17.63-.24.63-.28.59-.31.56-.38.56-.42Z"/><path class="cls-1" d="M72.58,193.42H68.86L58.62,176l-.24-.35-.28-.31-.31-.31-.31-.24-.38-.24-.38-.21-.38-.14-.42-.1-.41-.07-.45,0v-4.1h3.75L69,187.31l.24.35.28.35.31.28.35.28.35.21.38.21.38.14.45.1.42.07.42,0Zm-14,0H55V174.67h.42l.38.07.38.14.35.14.35.17.31.24.31.24.24.31.25.31.17.35.17.35.1.38.07.42v15.63Zm14-4.83H72.2l-.38-.07-.38-.1-.38-.18-.35-.17-.31-.24-.28-.24-.28-.31-.21-.31-.21-.35-.14-.35-.1-.38-.07-.38,0-.38V169.84h3.51Z"/><path class="cls-1" d="M81.64,189l.49.31-1.11.14-1.07.21-1.08.24-1.08.28-.35-.45-.31-.49-.28-.52-.24-.52-.24-.56-.17-.55-.14-.59-.07-.56-.07-.59,0-.59v-6.29l0-.59.07-.59.1-.59.14-.59.18-.56.21-.56.28-.56.28-.52.35-.49.34-.49.38-.42.45-.45.49-.42.52-.35.52-.35.59-.31-.34.94-.28,1-.24,1-.17,1-.18,1-.1,1-.07,1,0,1v6.29l0,.45,0,.45.1.42.14.42.17.42.17.38.24.38.24.35.31.34.31.28Zm11.74-3.16-.07.56-.14.52-.14.56-.21.52-.21.52-.24.48-.31.45-.31.49-.35.42-.35.42-.45.41-.45.38-.49.38-.52.31-.52.28-.56.24-.55.21-.59.17-.59.14-.59.07-.59.07h-.38l-.56,0-.55,0-.56-.07-.52-.1L82,193l-.52-.17-.52-.21-.49-.25-.49-.28-.45-.31-.45-.35-.42-.35-.21-.21-.17-.17,1-.25,1-.24,1-.17,1-.1,1-.07,1,0h.35l.45,0,.42,0,.45-.1.42-.14.38-.14.38-.21.38-.25.35-.24.31-.28.31-.31.28-.34.24-.39.21-.38.17-.38.14-.42.1-.42ZM85,169.8l.56,0,.56,0,.56.14.56.1.52.17.52.21.49.24.52.28.45.31.45.31.41.38.42.38.38.42.35.42.31.45.28.49.28.49.21.52.21.52.18.52.1.56.1.56,0,.56H89.91l-.07-.45-.1-.42-.14-.42-.17-.38-.21-.42-.24-.35-.24-.35-.31-.31-.31-.31-.35-.24-.38-.24L87,173.8l-.42-.17-.42-.14-.42-.1-.45-.07H84.07l-.45.07-.42.1-.45.14-.42.17L82,174l-.38.24-.38.28-.31.31-.31.31-.28.38.17-.9.17-.9.21-.87.25-.87.28-.87.31-.87.59-.17.59-.14.63-.07.59-.07H85Zm8.51,15.32H85.15v-3.51h8.33Z"/><path class="cls-1" d="M29.93,199.8l-12,14.9-.24.38-.24.38-.17.42-.17.42-.1.45-.07.45v6.22H13.37v-5.76l0-.63.07-.59.1-.63.17-.59.21-.59.24-.55.28-.56.35-.52.38-.49L25.42,199.8Zm-13,9.48-2.26,2.78-.38.52-.31.52-.31.52-.28.56V199.8h3.54v9.48Zm14,14.14H26.6l-6.81-9.9,2.29-2.85Z"/><path class="cls-1" d="M36.84,215.11l.07.49.1.45.14.42.17.45.21.42.28.38.28.38.31.31.35.31.38.28.42.28.42.21-.66.17-.62.24-.62.28-.59.31-.59.38-.52.42-.45-.42-.45-.45-.38-.52-.38-.49-.31-.55-.28-.56-.24-.59-.18-.59-.17-.59-.1-.62-.07-.63,0-.63v-6.08l0-.59.07-.63.1-.59.14-.59.17-.55.21-.56.28-.56.31-.52.31-.52.38-.45.38-.45.45-.45.45-.38.48-.38.49-.32.52-.28.56-.28.56-.21.59-.17.59-.14.59-.1.59,0,.63,0,.59,0,.59.07.59.1.59.17.59.17.56.24.52.25.56.31.48.34-.48.38-.56.31-.52.31-.59.24-.59.21-.59.14-.59.14-.63.07h-.63l-.49,0-.49.07-.49.1-.45.18-.45.17-.42.24-.42.28-.35.31-.35.35-.31.38-.28.38-.24.42-.17.45-.17.45-.1.48-.07.49,0,.49v6.08Zm11.43-12.75.41.45.42.49.35.52.31.56.31.56.21.59.21.59.17.59.1.63.07.63v7.29l-.07.59-.1.62-.14.56-.17.59-.24.56-.24.56-.31.52-.31.49-.38.49-.39.45-.45.42-.45.42-.49.35-.52.35-.52.28-.55.25-.56.24-.55.17-.59.14-.59.07-.63.07H41.39l-.63-.07-.59-.14-.59-.14-.56-.17-.55-.24-.56-.28-.52-.31-.49-.31.49-.38.52-.31.56-.31.55-.24.59-.21.63-.17.59-.1.63-.07.63,0h.49l.49-.07.45-.14.49-.14.42-.21.45-.21.38-.28.38-.31.35-.35.31-.38.28-.42.21-.42.21-.45.17-.45.1-.45.07-.49v-7l-.07-.45-.1-.45-.14-.45-.18-.42-.24-.42-.25-.38-.28-.38-.31-.35-.38-.31-.35-.28-.42-.24-.42-.21.66-.17.63-.24.62-.28.59-.31.55-.38.56-.42Z"/><path class="cls-1" d="M71.68,223.41H68L57.71,205.94l-.24-.35-.28-.31-.31-.31-.31-.24-.38-.24-.38-.21-.38-.14L55,204l-.42-.07-.45,0v-4.1h3.75L68.1,217.3l.24.35.28.34.31.28.34.28.35.21L70,219l.38.14.45.1.42.07.42,0Zm-14,0H54.14V204.66h.42l.38.07.38.14.35.14.35.17.31.24.31.24.24.31.25.31.17.35.17.35.1.38.07.42v15.63Zm14-4.83h-.38l-.38-.07-.38-.1-.38-.17-.35-.17-.31-.25-.28-.24-.28-.31-.21-.31-.21-.35-.14-.35-.1-.38-.07-.38,0-.38V199.83h3.51Z"/><path class="cls-1" d="M80.74,219l.48.31-1.11.14-1.07.21-1.08.24-1.07.28-.35-.45-.31-.49-.28-.52-.24-.52-.24-.56-.17-.56-.14-.59-.07-.55-.07-.59,0-.59v-6.29l0-.59.07-.59.1-.59.14-.59.17-.55.21-.56.28-.55.28-.52.35-.49.34-.49.38-.41.45-.45.48-.42.52-.35.52-.34.59-.31-.34.94-.28,1-.24,1-.18,1-.17,1-.1,1-.07,1,0,1v6.29l0,.45,0,.45.1.41.14.42.18.42.18.38.24.38.24.34.31.35.31.28Zm11.74-3.16-.07.55-.14.52-.14.56-.21.52-.21.52-.24.49-.31.45-.31.49-.35.42-.34.41-.45.42-.45.38-.49.38-.52.31-.52.28-.56.24-.55.21-.59.17-.59.14-.59.07-.59.07h-.38l-.56,0-.55,0-.56-.07-.52-.1-.56-.14-.52-.17-.52-.21-.49-.24-.49-.28-.45-.31-.45-.35-.42-.34-.21-.21-.17-.18,1-.24,1-.25,1-.17,1-.1,1-.07,1,0h.35l.45,0,.41,0,.45-.1.41-.14.38-.14.38-.21.38-.24.35-.24.31-.28.31-.31.28-.35.25-.38.21-.38.17-.38.14-.41.1-.42Zm-8.41-16,.56,0,.56,0,.56.14.56.11.52.17.52.21.49.25.52.28.45.31.45.31.42.38.42.38.38.42.35.42.31.45.28.49.28.49.21.52.21.52.17.52.1.56.1.56,0,.56H89l-.07-.45-.1-.42-.14-.42-.17-.38-.21-.42-.25-.35-.24-.34-.31-.31-.31-.31-.35-.24-.38-.24-.38-.21-.42-.17-.41-.14-.42-.1-.45-.07H83.17l-.45.07-.42.1-.45.14-.42.17-.38.21-.38.24-.38.28-.31.31-.31.31-.28.38.18-.91.17-.9.21-.87.24-.87.28-.87.31-.87.59-.17.59-.14.63-.07.59-.07h.91Zm8.51,15.32H84.25v-3.51h8.33Z"/><path class="cls-1" d="M23.26,229.79l.59,0,.59.07.59.1.55.17.56.21.52.24.52.28.49.31.49.34.42.42.41.42.35.45.35.45.28.49.28.52.21.56.17.52.14.55.1.59,0,.56v.59l0,.56-.07.59-.14.56-.14.52-.21.56-.24.52-.28.48-.31.49-.38.45,0,0,0,.07-.14.14-.17.17-.42.42.18-.59.14-.56.1-.63,0-.59v-.59l0-.59-.07-.59-.14-.59-.17-.56-.21-.56-.24-.55-.28-.52-.31-.52-.38-.45-.38-.45-.42-.42-.35-.31-.38-.24-.38-.21-.42-.17-.42-.1-.45-.07-.45,0H17.53l-.1-.42-.1-.38-.17-.38-.21-.38-.24-.35-.28-.31-.31-.31-.35-.25-.35-.21-.38-.21-.42-.14-.38-.1-.42-.07-.45,0Zm-6.39,23.62H13.37V230.52h.42l.38.07.38.14.35.14.35.17.31.24.31.24.24.31.24.31.17.35.17.35.1.38.07.42v19.76ZM27.61,238l.17.56.14.52.07.59.07.56v.56l0,.56-.1.56-.1.59-.17.52-.21.52-.24.52-.52.28-.52.25-.56.21-.55.14-.59.14-.59.07H17.6V241.6h6l.38,0,.42-.1.38-.14.38-.14.38-.21.31-.25.31-.28.28-.31.28-.35.21-.35.17-.38.14-.38.1-.38.07-.42v-.42Z"/><path class="cls-1" d="M44.9,231.66l-.31.1-.35.14-.31.14-.31.21-.28.17-.28.24-.24.24-.24.28-.21.28-.17.28-.17.31-.14.31-.14.35-5,18.69H33.16l6.25-23.62h5Zm5.8,21.75H47.05l-.94-3.51H38.44l.94-3.51h9.45Zm-2.08-7.71H45l-2.36-8.93-.07-.31,0-.31,0-.28,0-.31,0-.31.07-.28.07-.31.14-.28.14-.28.17-.24.17-.24.21-.24.21-.21L44,233l.24-.17.28-.14.28-.1.28-.1Z"/><path class="cls-1" d="M59.94,249l.49.31-1.11.14-1.07.21-1.08.24-1.07.28-.35-.45-.31-.52-.28-.49-.28-.52-.21-.56-.18-.55-.14-.59-.1-.56,0-.59,0-.59v-6.29l0-.59,0-.59.14-.59.14-.59.17-.56.21-.56.28-.56.28-.52.35-.49.35-.49.38-.45.45-.42.49-.42.52-.38.52-.31.55-.31-.31.94-.28,1-.24,1-.17,1-.18,1-.1,1-.07,1,0,1v6.29l0,.45,0,.42.1.45.14.42.14.41.21.38.24.38.24.35.31.31.31.31Zm11.78-3.54-.07.59-.1.59-.14.56-.21.59-.21.52-.28.56-.28.49-.35.52-.35.45-.42.45-.42.41-.45.38-.49.35-.52.35-.52.28-.55.24-.56.21-.59.17-.59.14-.59.07-.59,0h-.94l-.56,0-.55-.07-.56-.1-.52-.14-.52-.17-.52-.25-.49-.21-.49-.28-.48-.31-.42-.35-.42-.35-.21-.21-.17-.17,1-.28,1-.21,1-.17,1-.1,1-.07,1,0h.35l.45,0,.42-.07.42-.07.42-.14.42-.14.38-.21L66,249l.34-.28.35-.28.28-.31.28-.34.24-.35.21-.38.17-.38.14-.41.1-.42.1-.42ZM60.56,230.1l.59-.14.59-.1.63,0h1.46l.56.07.55.1.56.14.52.17.52.21.49.24.49.28.49.31.45.31.42.35.42.42.38.38.35.45.31.45.28.48.28.49.21.52.21.52.14.52.14.56.1.55,0,.56H68.2l-.07-.45L68,237l-.14-.42-.17-.42-.21-.38-.24-.34-.28-.35-.28-.35-.31-.28-.35-.28-.38-.24-.38-.17-.42-.17-.42-.14-.42-.1-.45-.07H62.37l-.45.07-.45.1-.42.14-.42.17-.42.21-.34.24-.38.28-.31.31-.31.31-.28.38.14-.9.21-.9.21-.87.24-.87.28-.87.31-.87Z"/><path class="cls-1" d="M78.69,235.07l-.34,0L78,235l-.34-.1-.35-.14-.31-.17-.31-.17-.28-.24-.28-.28-.24-.28-.17-.31-.18-.31-.14-.34-.1-.35,0-.38,0-.35v-1.77h3.51Zm0,18.34H75.18V233.89l.24.31.28.31.31.28.35.28.35.21.38.17.38.14.38.11.42,0,.42,0Z"/><path class="cls-1" d="M96.19,229.82v3.51h-9.9l-.07-.38-.1-.38-.17-.38-.18-.35-.24-.31-.24-.31-.28-.28-.28-.24-.35-.24-.31-.17-.38-.18-.35-.14-.42-.07-.38-.07H96.19ZM85.67,253.41H82.16V230.52l.38,0,.35,0,.34.1.35.14.31.14.31.21.28.24.28.24L85,232l.17.31.17.31.14.35.1.35,0,.35,0,.38Zm6.95-8.3H86.36v-3.47h6.25Z"/><path class="cls-1" d="M103.17,235.07l-.35,0-.38,0-.35-.1-.35-.14-.31-.17-.31-.17-.28-.24-.28-.28-.25-.28-.17-.31L100,233l-.14-.34-.1-.35,0-.38,0-.35v-1.77h3.51Zm0,18.34H99.67V233.89l.24.31.28.31.31.28.35.28.34.21.39.17.38.14.38.11.42,0,.42,0Z"/><path class="cls-1" d="M112.41,249l.48.31-1.11.14-1.07.21-1.08.24-1.07.28-.35-.45-.31-.52-.28-.49-.28-.52-.21-.56-.17-.55-.14-.59-.1-.56,0-.59,0-.59v-6.29l0-.59,0-.59.14-.59.14-.59.17-.56.21-.56.28-.56.28-.52.35-.49.34-.49.38-.45.45-.42.48-.42.52-.38L111,231l.56-.31-.31.94-.28,1-.24,1-.18,1-.17,1-.1,1-.07,1,0,1v6.29l0,.45,0,.42.1.45.14.42.14.41.21.38.24.38.24.35.31.31.31.31Zm11.77-3.54-.07.59-.1.59-.14.56-.21.59-.21.52-.28.56-.28.49-.35.52-.35.45-.42.45-.42.41-.45.38-.49.35-.52.35-.52.28-.56.24-.55.21-.59.17-.59.14-.59.07-.59,0H115l-.56,0-.56-.07-.55-.1-.52-.14-.52-.17-.52-.25-.49-.21-.49-.28-.49-.31-.42-.35-.42-.35-.21-.21-.17-.17,1-.28,1-.21,1-.17,1-.1,1-.07,1,0h.35l.45,0,.42-.07.42-.07.42-.14.42-.14.38-.21.35-.21.34-.28.35-.28.28-.31.28-.34.24-.35.21-.38.17-.38.14-.41.1-.42.1-.42ZM113,230.1l.59-.14.59-.1.62,0h1.46l.55.07.56.1.56.14.52.17.52.21.49.24.49.28.49.31.45.31.42.35.41.42.39.38.34.45.31.45.28.48.28.49.21.52.21.52.14.52.14.56.1.55,0,.56h-3.51l-.07-.45-.1-.41-.14-.42-.17-.42-.21-.38-.25-.34-.28-.35-.28-.35-.31-.28-.35-.28-.38-.24-.38-.17-.41-.17-.42-.14-.42-.1-.45-.07h-1.22l-.45.07-.45.1-.42.14-.42.17-.42.21-.34.24-.38.28-.31.31-.31.31-.28.38.14-.9.21-.9.21-.87.24-.87.28-.87.31-.87Z"/><path class="cls-1" d="M30,263.29H12.5v-3.51H30Zm-7,12.4,0,.38-.07.38-.1.38-.14.35-.21.38-.21.31-.28.28-.28.28-.35.21-.35.21-.35.14-.38.1-.38.07-.38,0V264H23v11.71ZM23,278v5.38H19.51v-3.51l.45,0,.45-.07.45-.14.42-.17.42-.21.38-.24.35-.31.31-.35Z"/><path class="cls-1" d="M36,275.1l.07.49.1.45.14.42.17.45.21.42.28.38.28.38.31.31.35.31.38.28.42.28.42.21-.66.17-.62.24-.63.28-.59.31-.59.38-.52.42-.45-.42-.45-.45-.38-.52-.38-.49-.31-.56-.28-.55-.25-.59-.17-.59-.17-.59-.1-.63-.07-.63,0-.62v-6.08l0-.59.07-.63.1-.59.14-.59.17-.56.21-.56.28-.55.31-.52.31-.52.38-.45.38-.45.45-.45.45-.38.49-.38.49-.31.52-.28.55-.28.56-.21.59-.17.59-.14.59-.11.59,0,.62,0,.59,0,.59.07.59.1.59.17.59.17.56.24.52.24.55.31.49.35-.49.38-.55.31-.52.31-.59.24-.59.21-.59.14-.59.14-.63.07h-.63l-.49,0-.48.07-.49.1-.45.17-.45.17-.42.24-.42.28-.35.31-.35.35-.31.38-.28.38-.24.41-.17.45-.18.45-.1.49-.07.49,0,.48v6.08Zm11.43-12.75.41.45.42.49.35.52.31.55.31.56.21.59.21.59.17.59.1.62.07.63v7.3l-.07.59-.1.63-.14.55-.17.59-.24.56-.24.56-.31.52-.31.49-.38.49-.38.45-.45.42-.45.41-.49.35-.52.35-.52.28-.55.24-.56.24-.56.17-.59.14-.59.07-.63.07H40.56l-.63-.07-.59-.14-.59-.14-.56-.18-.55-.24-.56-.28-.52-.31-.48-.31.48-.38.52-.31.56-.31.55-.24.59-.21.63-.17L40,280l.62-.07.62,0h.49l.49-.07.45-.14.49-.14.42-.21.45-.21.38-.28.38-.31.35-.35.31-.38.28-.42.21-.42.21-.45.18-.45.1-.45.07-.49v-7l-.07-.45-.1-.45-.14-.45-.17-.42-.24-.42-.24-.38-.28-.38-.31-.35-.38-.31-.35-.28-.41-.24-.42-.21.66-.17.63-.24.63-.28.59-.31.55-.38.56-.42Z"/><path class="cls-1" d="M61.19,278.89l.21.42.24.38.28.35.31.35.35.31.35.24.42.24.42.18.45.14-.52,1.91h-5l-6.29-23.62H56l5,18.69Zm10.63-17.23-.42.14L71,262l-.42.21-.38.28-.35.31-.28.31-.31.38-.21.38-.21.42-.18.42-4.24,16-.38-.1-.35-.17-.34-.21L63,280l-.28-.24-.24-.31-.25-.31-.17-.38-.14-.35-.1-.38,0-.38v-.42l0-.38.07-.38,4.41-16.64h5Zm4.62,17.23.21.42.25.38.28.35.31.35.35.31.38.24.38.24.42.18.45.14-.52,1.91H74l-4.41-16.64-.1-.38,0-.42,0-.38,0-.38.1-.38.14-.38.17-.35.21-.31.24-.31.28-.28.35-.24.31-.21.38-.14.35-.14,4.27,16Zm5.17-19.11h3.61l-5.56,20.91-.38-.1-.34-.17-.35-.21-.31-.25-.28-.24-.24-.31-.24-.31-.17-.38-.14-.35-.07-.38-.07-.38v-.42l0-.38.07-.38Z"/><path class="cls-1" d="M101.86,263.32H91.33l-.38,0-.35-.07-.35-.07-.34-.14-.35-.18-.28-.21-.31-.21-.25-.28-.24-.28-.21-.31-.14-.31-.14-.35-.1-.35-.07-.38v-.35h14ZM91.33,281l.07.35.1.35.1.35.17.31.21.31.21.28.25.28.28.21h-4.9V262.14l.24.31.28.31.31.28.31.24.35.24.38.17.42.14.38.1.42,0,.42,0V281Zm7-7.61H92v-3.51h6.32Zm3.51,10H94.49l-.31-.07-.35-.1-.31-.14-.28-.18L93,282.7l-.24-.24-.21-.28-.17-.28-.14-.31-.1-.31,0-.35,0-.31v-.73h9.83v3.51Z"/><path class="cls-1" d="M115.78,259.82l.56.07.55.1.56.14.52.17.52.24.52.24.45.31.49.31.42.38.42.38.35.42.34.45.31.49.28.49.21.52.21.52.18.52.11.56.07.59,0,.56v.55l-.07.56-.07.55-.14.56-.17.52-.21.52-.24.52-.28.49-.35.45-.35.45-.38.42-.52-.42-.52-.35-.59-.31-.59-.28-.63-.24-.62-.17.38-.21.35-.24.31-.28.28-.31.24-.35.21-.38.18-.38.14-.38.07-.42.07-.42v-.42l0-.45-.07-.42-.14-.38-.17-.39-.17-.38-.25-.35-.28-.35-.31-.28-.35-.25-.35-.24-.38-.17-.38-.17-.42-.1-.41-.07h-6.81l-.38,0-.38-.07-.38-.1-.38-.14-.34-.21-.31-.21-.28-.28-.28-.28-.21-.31-.21-.35-.14-.38-.1-.38-.07-.38,0-.38v0h9.9Zm-6.95,23.58h-3.51V262.14l.24.31.28.31.31.28.35.28.35.21.38.17.38.1.38.1.41.07h.42V283.4Zm6.95-11.78.59.07.56.1.56.14.56.17.48.24.52.28.49.28.45.35.45.38.39.42.38.42.35.45.31.49.24.52.24.52.17.52.17.59.1.55.07.56v4.72h-3.51v-4.17l0-.42,0-.45-.14-.42-.14-.38-.21-.38-.24-.38-.25-.31-.31-.31-.34-.28-.35-.24-.42-.21-.38-.14-.42-.1-.45-.07-.42,0h-5.7v-3.51h5.7Z"/><path class="cls-2" d="M328.87,220.94c0,1.58,0,3.16,0,4.73,0,.84.08,1.73-1.19,1.76s-1.2-.88-1.2-1.72c0-2.88,0-5.76,0-8.63,0-1.88-.45-3.61-2.68-4s-3.56.77-4.46,2.61c-1.16,2.37-.58,4.93-.72,7.41,0,.83,0,1.67,0,2.51s.19,1.76-1.13,1.79-1.36-1-1.36-1.9c0-2.79,0-5.57-.06-8.36,0-2-.38-3.85-2.83-4.07s-3.85,1.22-4.51,3.35c-.87,2.8-.41,5.72-.55,8.58,0,.88.6,2.26-1.08,2.35s-1.22-1.31-1.23-2.2c0-4.18,0-8.36,0-12.53,0-.6-.26-1.39.6-1.65.51-.16,1.35-.32,1.48.26.37,1.67.9,1.14,1.89.46,2.68-1.82,5.21-1.54,7.43.88.78.85,1.11.95,1.87.09a5.49,5.49,0,0,1,6.56-1.68c2.55,1.05,3.18,3.43,3.18,6,0,1.3,0,2.6,0,3.9Z"/><path class="cls-2" d="M259.23,212.82c2.17-2.1,4.7-2.89,7.42-1.67s3.38,4,3.39,6.79q0,3.9,0,7.79c0,.85.07,1.74-1.21,1.71s-1.14-1-1.15-1.78c0-2.69,0-5.38-.13-8.06-.1-2.21-.46-4.37-3.37-4.57a4.94,4.94,0,0,0-5.17,4.44,34.92,34.92,0,0,0-.2,4.44,25.24,25.24,0,0,1,0,2.78c-.14,1,.75,2.76-1.29,2.72-1.8,0-1.13-1.62-1.15-2.58-.07-3.8-.06-7.6,0-11.41,0-.9-.54-2.14,1-2.48S258.64,212.1,259.23,212.82Z"/><path class="cls-2" d="M225,227.74c-4.57,0-7.67-2.31-8.72-5.94a8.9,8.9,0,0,1,3.26-9.65c3-2.08,7.7-2.05,10.42.21.73.61,2.28,1.26,1.24,2.59s-1.85,0-2.67-.65a6.44,6.44,0,0,0-8.6.71,6.51,6.51,0,0,0,0,8.42,6.39,6.39,0,0,0,8.58.67c.82-.63,1.59-2,2.65-.55s-.61,1.91-1.32,2.54A7.08,7.08,0,0,1,225,227.74Z"/><path class="cls-2" d="M276.76,220c0-1.58,0-3.16,0-4.74,0-1.21,0-2.28-1.67-2.15a.89.89,0,0,1-1-1c0-.61.14-1.23.85-1.18,2.34.15,1.8-1.51,1.85-2.81,0-.65,0-1.3,0-2,0-.86.53-1.09,1.28-1.06a.93.93,0,0,1,1,1c0,.84.06,1.68,0,2.51-.09,1.36,0,2.44,1.86,2.23.87-.1,1.42.26,1.38,1.26s-.69,1.06-1.35,1c-1.79-.2-1.92.84-1.89,2.22.06,3.35,0,6.7,0,10,0,.85.34,2-1.19,2s-1.09-1.23-1.11-2.07C276.73,223.59,276.76,221.82,276.76,220Z"/><path class="cls-2" d="M347.48,212.76c-2.69-2.56-6.31-2.82-9.72-.73-.47.29-1.13,1.51-1.43-.14-.19-1-.93-1.06-1.7-.92-1.08.2-.79,1.12-.79,1.8,0,6.23,0,12.46,0,18.7,0,.84-.1,1.71,1.18,1.74,1.46,0,1.33-1,1.33-1.89,0-1.76,0-3.51,0-5.56a26.21,26.21,0,0,0,3.73,1.73,7.65,7.65,0,0,0,9-3.92A9.16,9.16,0,0,0,347.48,212.76Zm-5.57,12.63a5.85,5.85,0,0,1-5.75-6.17,5.78,5.78,0,1,1,5.75,6.17Z"/><path class="cls-2" d="M289.95,219.64c1.57.11,3.16,0,4.74,0s3.17-.1,4.74,0c2,.15,2.16-.8,1.81-2.37a8.06,8.06,0,0,0-9.74-6.52c-3.95.73-7,5.6-6.1,9.93.66,3.17,2.17,5.89,5.53,6.72,3.2.79,6.35.44,8.58-2.45.54-.7,1.86-1.47.8-2.54-1.25-1.25-1.82.08-2.55.91a5.54,5.54,0,0,1-9.43-1.26C287.51,220.32,287.85,219.5,289.95,219.64Zm3.13-6.59a5.16,5.16,0,0,1,4.92,2.56c.74,1.21.59,1.84-1,1.8-2.41-.07-4.83,0-7.25,0-.45,0-.89-.06-1.61-.12C289,214.52,290.54,213.16,293.07,213Z"/><path class="cls-2" d="M244,210.65a8.54,8.54,0,0,0,0,17.07c4.66-.05,7.95-3.57,7.95-8.51S248.55,210.7,244,210.65Zm-.16,14.7c-3.23,0-5.59-2.49-5.65-6a6,6,0,0,1,5.67-6.3,5.86,5.86,0,0,1,5.64,6C249.53,222.73,247.15,225.35,243.81,225.35Z"/><path class="cls-2" d="M362.08,210.65c-4.7,0-8.21,3.68-8.18,8.64s3.45,8.43,8.06,8.44a8.21,8.21,0,0,0,8.22-8.6A8.3,8.3,0,0,0,362.08,210.65Zm-.2,14.7c-3.26-.07-5.47-2.55-5.47-6.12s2.51-6.24,5.77-6.16a6.11,6.11,0,0,1,5.59,6.18A5.9,5.9,0,0,1,361.88,225.35Z"/><path class="cls-1" d="M467.54,516.74c0-.12-.19-.14-.2-.25a1.13,1.13,0,0,0-.1-.54c-.08-.13-.09-.32-.19-.44s-.17-.32-.41-.23c0,0-.08-.05-.11-.09a2.6,2.6,0,0,0-1-.45c-.39-.13-.76-.38-1.15-.47a8.53,8.53,0,0,1-1.32-.62,8,8,0,0,0-1.4-.64,4.27,4.27,0,0,1-.8-.35,1.65,1.65,0,0,0-.34-.13,1.31,1.31,0,0,1-.3-.13,1.68,1.68,0,0,0-.39-.19,2.82,2.82,0,0,1-1.35-.4,4.9,4.9,0,0,0-1-.57,3,3,0,0,1-1.18-.62c-.09-.11-.25-.24-.24-.35a.31.31,0,0,1,.36-.31.76.76,0,0,0,.3-.07l.47-.22s.11,0,.16-.05a.63.63,0,0,1,.58-.15.28.28,0,0,0,.2,0l.8-.5a.7.7,0,0,1,.15-.06,1.13,1.13,0,0,1,.37-.09c.19,0,.31-.16.46-.16a2.63,2.63,0,0,0,.47-.12,3.32,3.32,0,0,0,.47-.08,2.57,2.57,0,0,1,.34-.18c.31-.08.65.07.86-.25,0-.07.14-.1.19-.17s.29-.32.42-.49.26-.37.38-.56a.27.27,0,0,0,0-.1,6.53,6.53,0,0,0,.2-.7,4.88,4.88,0,0,0,.11-.9c0-.37,0-.73-.07-1.12l-.51-.48c-.09-.09-.22-.18-.25-.29-.07-.28-.44-.42-.64-.6a3.32,3.32,0,0,0-.84-.52,5.66,5.66,0,0,1-.93-.42,3.18,3.18,0,0,0-1.21-.48c-.27-.08-.53-.21-.8-.29s-.44-.07-.66-.13a1.43,1.43,0,0,1-.27-.15l.15-.24c.06-.09,0-.3.12-.43a1.62,1.62,0,0,1,.42-.4c.29-.21.56-.46.83-.69s.34-.25.51-.38a1.13,1.13,0,0,1,.2-.12.49.49,0,0,0,.18-.11c.06-.08,0-.19,0-.28s.1-.06.18-.07a1.38,1.38,0,0,0,.56-.23,8.59,8.59,0,0,1,1-.59,4.72,4.72,0,0,1,1.55-.54,1.56,1.56,0,0,1,.55.11,1.35,1.35,0,0,0,.79-.09s.08,0,.13-.05a3.5,3.5,0,0,1,.66-.06c.21,0,.39.11.59.12s.13,0,.16-.06a.29.29,0,0,0,0-.11.82.82,0,0,1,0-.16c0-.26,0-.65.21-.85a.52.52,0,0,0,.06-.71l-.17-.3c.17-.27.14-.34-.13-.54a.9.9,0,0,1-.24-.17c-.07-.09-.05-.2-.11-.29a1.92,1.92,0,0,0-.51-.37,11.67,11.67,0,0,0-1.69-.7c-.18-.07-.56-.11-.69-.24s-.2-.52,0-.65,0-.1.05-.16a3.34,3.34,0,0,0,.21-.73c0-.11,0-.23,0-.34s0-.29,0-.43a1.83,1.83,0,0,1,.17-.63c.06-.15.15-.27.22-.41s.26-.22.24-.42.13-.45.14-.68a1.92,1.92,0,0,0-.11-.65c0-.1-.14-.22-.22-.23a.62.62,0,0,1-.43-.32,1,1,0,0,0-.27-.22l-.42-.25c-.06,0-.14,0-.24.07l-.71.21a.62.62,0,0,1-.35,0,.44.44,0,0,0-.61.29l-.48.43.1,0c0,.1,0,.2.06.31s.1.17.1.32a4.58,4.58,0,0,1-.1.56,2.84,2.84,0,0,1-.34,1c-.15.24-.4.35-.37.67,0,.1-.28.27-.34.35l-.29.39a.63.63,0,0,1-.38.25,3.26,3.26,0,0,1-1.05.3,5.33,5.33,0,0,1-1.12-.38l-.67-.15c-.27-.07-.51-.19-.78-.25a6,6,0,0,1-1-.26c-.37-.16-.65-.51-1-.65-.18-.07-.39-.09-.58-.16a4.43,4.43,0,0,1-1.1-.64c-.15.06-.32.16-.47-.08,0,0-.05,0-.08,0-.21.05-.29-.13-.43-.22a6.44,6.44,0,0,0-.79-.44c-.28-.13-.58-.22-.86-.34-.11,0-.21-.2-.29-.19s-.34-.1-.5-.2a3.29,3.29,0,0,0-.46-.16,4.86,4.86,0,0,0-1.76-.49,4,4,0,0,0-1,0,5,5,0,0,0-.67.21,2.67,2.67,0,0,0-1.9,1.89,6.28,6.28,0,0,0-.13,1.32c0,.44-.11.85-.08,1.29s0,1,0,1.56c0,.14,0,.28,0,.43s0,.22,0,.27c.23.25.16.54.15.82s.13.68-.16.89-.46.08-.69.07c-.43,0-.88,0-1.32,0s-.64-.13-.91.07a1.4,1.4,0,0,1-.51.22,6.72,6.72,0,0,1-.78.1,1,1,0,0,1-.15.23.77.77,0,0,0-.22.53.42.42,0,0,1-.14.23,1.65,1.65,0,0,1-.24.14.59.59,0,0,0-.07.83c.12.12.22.25.37.42.17,0,.07.17.1.21.19.1.33.16.46.24a.58.58,0,0,0,.54.07,2.93,2.93,0,0,1,.42-.07c.29-.06.6.17.89-.09a.41.41,0,0,1,.24-.07,14.57,14.57,0,0,0,1.55-.32c.23,0,.46,0,.69,0a1.58,1.58,0,0,1,.7,0c.12,0,.25.14.35.19a1.46,1.46,0,0,1,.54.48,2.56,2.56,0,0,0,.61.49,3.81,3.81,0,0,1,1.2,1,1,1,0,0,1,0,1.17c-.35.54-.84.55-1.42.68a4.16,4.16,0,0,1-.7.17c-.32,0-.66.12-1,.15a2.65,2.65,0,0,1-.6.06c-.16,0-.2-.14-.4-.05a1,1,0,0,1-.66,0,1.86,1.86,0,0,0-.75,0c-.33.08-.42.31-.65.5s-.39.15-.55.27a2.23,2.23,0,0,0-1,1.36,4,4,0,0,0,.24,1.52c.11.37.31.69.44,1a8.57,8.57,0,0,0,.19.84,3.28,3.28,0,0,0,.43.61,2.57,2.57,0,0,1,.27.58,4.85,4.85,0,0,0,.32.72,3,3,0,0,1,.51,1,1.47,1.47,0,0,0,.55.84,1.54,1.54,0,0,1,.43.6,1.84,1.84,0,0,0,.19.47,2,2,0,0,0,.32.4c.12.12.32.17.4.31a4.42,4.42,0,0,0,1,1.06c.21.21.33.51.57.7s.56.18.82.3.26.1.39.15a.22.22,0,0,1,0,.37c-.1.06-.23.09-.35.15a5.8,5.8,0,0,1-.58.3c-.31.11-.63.14-.93.26a15.42,15.42,0,0,1-1.76.57.22.22,0,0,0-.09,0c-.23.28-.6.2-.89.36s-.45.06-.63.17c-.41.23-.92.24-1.28.59a.17.17,0,0,1-.11,0c-.37,0-.67.29-1,.21,0,0-.06,0-.08,0-.19.09-.38.19-.57.27s-.47.15-.7.24a10.63,10.63,0,0,1-1,.38,3.42,3.42,0,0,0-.77.32c-.43.21-.91.3-1.35.5-.67.3-1.31.63-2,.89a9,9,0,0,1-2.05.26H428c-.4-.08-.73.31-1,.57a5,5,0,0,1-.59.53c-.37.31-.9,1.28-.71,1.77a.33.33,0,0,1,0,.22.81.81,0,0,1-.18.28c-.27.25-.06.54-.08.81a1.23,1.23,0,0,0,.1.38l.37.27a1.31,1.31,0,0,0,.2.15c.29.12.58.22.86.35a1.88,1.88,0,0,0,.92,0,19.81,19.81,0,0,0,2.14-.35.35.35,0,0,1,.16,0,2.54,2.54,0,0,0,1.23-.07,2.72,2.72,0,0,1,1.31-.15.47.47,0,0,0,.16,0,9,9,0,0,0,1.45-.2,2.64,2.64,0,0,1,1-.2c.08,0,.16-.07.25-.08s.31,0,.46,0a3.86,3.86,0,0,1,.45-.11,2.36,2.36,0,0,0,1.21-.38,2.48,2.48,0,0,1,1-.32c.28,0,.56,0,.84,0a4.89,4.89,0,0,0,1-.19c.85-.25,1.7-.55,2.58-.72.44-.08.88-.07,1.31-.14s.57-.36.89-.44.44,0,.66,0,.25-.17.4-.23a1.84,1.84,0,0,1,.52-.14c.06,0,.12.14.2.23s.3,0,.36-.1a.4.4,0,0,1,.41-.14c.18,0,.43-.17.62-.2.38-.07,1,0,.68.56a.39.39,0,0,0,0,.2c0,.32.06.64.1,1,0,0,0,.05,0,.06.17.13.07.26,0,.39a.44.44,0,0,0,0,.46.28.28,0,0,1,0,.18,2.86,2.86,0,0,1-.09.82c-.06.16,0,.3,0,.4s0,.26,0,.39,0,.31,0,.43.05.51.06.76c0,.83,0,1.66,0,2.5a17.89,17.89,0,0,0,.11,2.43c0,.28.14.56.17.84s0,.44,0,.66.12.38.07.54c-.11.42.11.82,0,1.23,0,0,0,.06,0,.09a2,2,0,0,1,.09.46c0,.31,0,.62,0,.93s0,.68,0,1c.21.06.21.11.16.37a3.35,3.35,0,0,0-.06.7,7.41,7.41,0,0,0,.09.81.84.84,0,0,0,.06.18c0,.1,0,.17-.06.24s0,.12,0,.18c0,.33,0,.66,0,1,0,.13.06.26.06.4s0,.28,0,.41.1.43,0,.66,0,.29.07.5c-.15.25,0,.57,0,.89s.09.36.08.54c0,.56-.09,1.1-.09,1.66s.08.8.1,1.21a8.75,8.75,0,0,1,0,1.11,1.92,1.92,0,0,0,0,.65s.09.68,0,.62c.21.14.12.25.09.45a2.4,2.4,0,0,0,0,.56,11.09,11.09,0,0,0,0,1.52,1.09,1.09,0,0,1-.06.76.09.09,0,0,0,0,.07c.19.42,0,.87.06,1.3s0,.41.43.48c0,.1-.05.26-.12.29a.58.58,0,0,0-.22.76c.09.16,0,.38.18.5,0,0,0,.12,0,.13s0,.2,0,.3a.65.65,0,0,0,0,.21,4.63,4.63,0,0,1,.17,1.13c0,.37,0,.73,0,1.09a3.4,3.4,0,0,0,0,1,2.13,2.13,0,0,1,.12.33,3.06,3.06,0,0,1,.08.47c0,.33,0,.67-.06,1,.11,0,.22,0,.29,0s.14.55,0,.68c-.3.26-.12,1.08-.09,1.41s0,.41,0,.63a.29.29,0,0,1,0,.06l.08-.58c.58-.21.62.75.64,1.1s.08.63.11.94,0,.59,0,.88a5.25,5.25,0,0,1,0,.65,6,6,0,0,1-.13,1c0,.12-.08.39-.2.47s-.12,0-.15,0,0,.17,0,.25a1.32,1.32,0,0,0,.06.34.89.89,0,0,1,0,.15c0,.23-.06.46-.09.7s-.08.73-.08,1.1c0,.1,0,.21,0,.31a1.53,1.53,0,0,0,.14-.74h.06a8.06,8.06,0,0,1-.09,2.34.91.91,0,0,1,.21.34c0,.14,0,.53.14.58.3.15.53.11.47.58a.89.89,0,0,1-.21.45l-.07.09a3.63,3.63,0,0,0-.57,1.42c0,.11,0,.4-.07.66.1-.23.31-.68.46-.45s-.12,1.16-.17,1.45c0,.06,0,.15,0,.18s0,.29-.06.43-.09.18-.07.2,0,.31,0,.37-.07.24,0,.36a.68.68,0,0,0,.42-.64,5.55,5.55,0,0,1,.12-.58,2.23,2.23,0,0,0,.12-.28c.05-.3.08-.6.14-.9.08-.47.22-.93.26-1.41,0-.15,0-.27.14-.36s0-.09,0-.13c.06-.23,0-.47.1-.71a1.5,1.5,0,0,0,.13-.56,2.34,2.34,0,0,1,0-.62,1.31,1.31,0,0,0,0-.67c0-.18,0-.29.11-.35a2.14,2.14,0,0,1,0-.86,4.62,4.62,0,0,0,.14-.59,2.85,2.85,0,0,0,.07-.65,1.78,1.78,0,0,1,.06-.54,1,1,0,0,0,0-.55,2.21,2.21,0,0,1,0-.5,4,4,0,0,0,.09-1.14c-.1-.65.15-1.28.06-1.94a6.52,6.52,0,0,1,0-1.3,2.9,2.9,0,0,0-.12-1.33.69.69,0,0,1,0-.19c0-.37.17-.73,0-1.09a.19.19,0,0,1,0-.09c0-.66,0-1.32,0-2v-1.86a5.83,5.83,0,0,1,0-.89c0-.09.08-.15.06-.25s-.09-.09-.09-.17c0-.38,0-.76.05-1.14a3.19,3.19,0,0,0,0-.5c0-.11,0-.23,0-.34s0-.4,0-.59.11-.5-.05-.7,0-.26,0-.38.07-.16.07-.24c0-.53.07-1.06.07-1.59,0-.78,0-1.56,0-2.33v-.36h.08a4.93,4.93,0,0,0,0-.69c-.05-.36,0-.72,0-1.09,0-.18,0-.33-.22-.4a1,1,0,0,1,.11-.31.53.53,0,0,0,.16-.51,5.31,5.31,0,0,1-.11-1.28,6.73,6.73,0,0,0,0-1.13c0-.38,0-.77,0-1.15s.06-.58.05-.87-.07-.6-.1-.9,0-.5,0-.83c-.13-.51.09-1.09,0-1.69,0-.07-.1-.22-.06-.25a.58.58,0,0,0,0-.66c-.08-.23.09-.18.11-.34s-.09-.18-.15-.29a3.73,3.73,0,0,1-.19-1.38,6.16,6.16,0,0,1,0-1.58,3.78,3.78,0,0,0-.1-1.47,10,10,0,0,1,0-1.33c0-.11,0-.23,0-.33,0-.32,0-.64,0-1,0-.08,0-.17,0-.25a4,4,0,0,1,0-.83.6.6,0,0,0-.12-.52,1.24,1.24,0,0,1,.07-.47.63.63,0,0,0,0-.58c-.12-.22-.1-.38.14-.5a2.38,2.38,0,0,1-.15-.35.52.52,0,0,1,0-.21.87.87,0,0,0,0-.19c0-.25,0-.49,0-.73a19.07,19.07,0,0,1,.09-2.15,2.52,2.52,0,0,0,0-.58,4.7,4.7,0,0,1,0-1.66,1.1,1.1,0,0,1,1.14-.32h0a4.2,4.2,0,0,0,1.17-.31,2.25,2.25,0,0,1,1.18-.26c.26.06.43.29.68.36s.31-.17.51-.35.81-.12,1.16-.19a1.78,1.78,0,0,1,.84-.11,1,1,0,0,0,.32,0c.75-.08,1.48-.23,2.22-.36a13.16,13.16,0,0,0,1.6-.13c.58-.16,1-.57,1.61-.74a2.7,2.7,0,0,0,1.14-.49,2.18,2.18,0,0,0,.58-1.2,5.21,5.21,0,0,1,.37-1C467.47,516.94,467.58,516.9,467.54,516.74Zm-22.09-26.11a1.44,1.44,0,0,0,.12-.4.54.54,0,0,1,.44-.53,2,2,0,0,1,1.3.21,9.4,9.4,0,0,1,1.34.59,4.39,4.39,0,0,0,1.66.77c.17,0,.4.18.55.18.35,0,.49.24.59.52l.61-.09s0-.05,0-.06l.56.32a.63.63,0,0,0,.26.12c.31,0,.53.19.8.29a2,2,0,0,0,.46.06,2.74,2.74,0,0,1,.57.11c.3.11,1.55.31,1.36.85,0,.09-.06.18-.07.21a2.94,2.94,0,0,1-.27.21,2,2,0,0,1-.61.31,4.47,4.47,0,0,1-.88-.07s-.07,0-.09,0c-.47.29-1,.14-1.53.24a1.11,1.11,0,0,1-.43-.07.53.53,0,0,0-.46.07.53.53,0,0,1-.59.06.75.75,0,0,0-.27,0c-.15,0-.3,0-.44,0-1.13.09-2.3,0-3.41.07-.09,0-.56.18-.58.17-.45-.17-.61-.59-.91-.84.13-.14,0-.29,0-.46-.1-.38-.09-.74-.21-1.1a1.8,1.8,0,0,1-.09-.39A2.32,2.32,0,0,1,445.45,490.63Zm8.56,7.44c-.1.13-.17.31-.3.36s-.32.43-.63.43a.17.17,0,0,0-.13.09c-.1.25-.27.26-.47.18-.23.59-.87.43-1.31.83-.1.09-.7-.13-.85-.11s-.41.19-.67.17a1.56,1.56,0,0,0-.39,0s-.41.12-.44.09c-.43-.49-1.45-1.22-1-2a.6.6,0,0,1,.41-.2c.27,0,.55,0,.83,0s.46-.17.68,0a.09.09,0,0,0,.09,0c.3-.21.62-.07.93-.11.56-.07,1.12-.11,1.68-.14a6,6,0,0,1,.83,0l.74.07Zm-5.23,20.85h0c-.33.24-1,.16-1.3.23-.12,0-.23.09-.34.11s-.42.06-.63.09-.18,0-.22,0-.32.12-.5.11-.56,0-.84,0c0,0-.08,0-.12.07a.67.67,0,0,1-.43.1,2.34,2.34,0,0,0-.84.19,3,3,0,0,1-1.09.22,1.28,1.28,0,0,1-.32,0,1.35,1.35,0,0,0-.43-.07c-.23,0-.46.1-.7.11a1.45,1.45,0,0,0-.79.27.47.47,0,0,1-.41.08c-.12,0-.28.06-.42.1a.89.89,0,0,1-.24.09c-.28,0-.55-.08-.83.09a1.2,1.2,0,0,1-.74.18c-.33-.06-.55.11-.87.15s-.49,0-.72.09-.35.2-.6.23a4.23,4.23,0,0,1-.45,0h-.13c-.06,0-.1,0-.16,0s0-.1-.07-.12-.21,0-.29,0a.31.31,0,0,0-.21.05.33.33,0,0,1-.2,0s-.12,0-.15,0,0-.08,0-.1-.2,0-.08-.11l.14,0,.27-.07a.51.51,0,0,0,.18-.09c.06,0,.07-.12.12-.17a1.09,1.09,0,0,1,.24-.11l.28-.13a8.34,8.34,0,0,1,1-.57,6.36,6.36,0,0,0,1.23-.5,4.74,4.74,0,0,1,.63-.36c.17-.07.34-.09.51-.16s.57-.28.85-.41l.48-.22a15.63,15.63,0,0,1,1.44-.68c.33-.12.68-.16,1-.29s.68-.24,1-.39.44-.17.67-.28.65-.06.95-.17a2,2,0,0,1,.82-.12c.59,0,1.16.18,1.75.24.4,0,1-.1,1.31.19a2.4,2.4,0,0,1,.33,1,.38.38,0,0,1,0,.09c0,.19.06.38.09.57S449,518.88,448.78,518.93ZM452.34,508c-.15,0-.29.08-.44.12h-.05c-.33.32-.67,0-1,0a.79.79,0,0,0-.63.31c-.1.19-.07.37-.3.46a2,2,0,0,1-.61,0,3.2,3.2,0,0,0-.9.19c-.4.15-.6.32-.94,0-.15-.16-.3-.28-.54-.18h0c-.15-.17-.49-.18-.69-.28a4.54,4.54,0,0,1-.82-.35,1.1,1.1,0,0,1-.36-.53c-.06-.17-.15-.34-.19-.51a.83.83,0,0,1,.16-.6c.14-.23.15-.31.32-.27l.12,0a3.72,3.72,0,0,0,.69.15,9,9,0,0,0,1.42,0c.55,0,1-.19,1.56-.27a18.57,18.57,0,0,0,2.08-.2,2.34,2.34,0,0,0,.56-.24c.2-.1.4-.13.6-.22a3,3,0,0,0,.68-.31c.18-.17,0-.46.15-.63s.2-.08.28-.08h.32a6.62,6.62,0,0,0,1.55-.35c.56-.08,1.18.31,1.72.42.11,0,1.08.08,1,.28s-.22.12-.38.14a1.45,1.45,0,0,0-.25,0c-.21.06-.11.08-.17.26s-.3.3-.52.42-.49.39-.77.53a12.63,12.63,0,0,0-1.16.64,6.89,6.89,0,0,1-1.16.45,5.4,5.4,0,0,0-.54.3l-.26.15C452.65,507.88,452.5,508,452.34,508Zm9.27,8.92a.52.52,0,0,0-.16,0,1.44,1.44,0,0,1-.94.1,3.56,3.56,0,0,0-.8.15l0,0c-.07.43-.45.25-.67.3a.8.8,0,0,1-.28,0l-.41-.08h-.08a2.53,2.53,0,0,0-.64,0,8.15,8.15,0,0,0-1,.22,4,4,0,0,1-.58.23,5.9,5.9,0,0,1-.92,0l-.19,0-.17,0c-.19,0-.19.11-.22.24a.1.1,0,0,1-.06,0,2.39,2.39,0,0,1-1,.26l-.16,0a1,1,0,0,0-.36,0h0a2.42,2.42,0,0,1-.23-.52,1.42,1.42,0,0,1,.09-.47,1,1,0,0,1,.1-.28.59.59,0,0,1,.22-.22,3.07,3.07,0,0,1,.57-.13,4.77,4.77,0,0,0,1-.32,2.67,2.67,0,0,1,.75-.15,1.54,1.54,0,0,0,.5-.12.92.92,0,0,1,.49-.08,1.13,1.13,0,0,0,.35-.1l.18,0c.14,0,.33,0,.35-.23,0,0,.06-.06.1-.08s.11,0,.13,0c.12-.26.39-.33.6-.48a.27.27,0,0,0,.1-.12.36.36,0,0,1,.43-.2h.07a2.18,2.18,0,0,1,.92.3c.28.22.63.32.89.57.09.08.25.08.37.13a.84.84,0,0,1,.21.13c.06,0,.08.16.14.17.26.07.37.31.55.46a2.06,2.06,0,0,0,.27.15v.08Z"/><path class="cls-2" d="M448.2,606.16l-.25,0c-.86,0-1.72,0-2.58.06a.74.74,0,0,0-.37.14.14.14,0,0,0,0,.25,1,1,0,0,0,.6.17l1.66-.12c.3,0,.6,0,.9,0a.41.41,0,0,0,.42-.33.62.62,0,0,0-.61-.82,1.48,1.48,0,0,1-.67-.14.33.33,0,0,0-.23,0,2.74,2.74,0,0,1-.91.09h-1c-.05,0-.11,0-.17-.08s.08-.12.14-.13.26,0,.39-.08.14-.06.14-.1a.26.26,0,0,0-.07-.18.7.7,0,0,0-.72-.18,1.61,1.61,0,0,1-.3.09.93.93,0,0,1-.28,0c-.09,0-.18-.06-.15-.17a.2.2,0,0,1,.2-.17,1.25,1.25,0,0,1,.67.13s.1,0,.13,0c.19-.11.39-.2.44-.44,0-.08,0-.21.16-.18a.3.3,0,0,1,.2.16c.08.3.29.35.55.35s.41,0,.62,0a.34.34,0,0,0,.34-.29c0-.11.06-.2.21-.19s.18.09.19.22.18.29.46.29h.46a.51.51,0,0,1,.15,0c.1,0,.24,0,.24.16s-.14.15-.24.16l-.85,0a1,1,0,0,0-.28,0c-.05,0-.09.08-.13.12s.07.1.12.12a3,3,0,0,0,.39.11.64.64,0,0,1,.56.59,6.65,6.65,0,0,1,0,.89c0,.21-.1.29-.32.31s-.39,0-.58,0l-.73.06-.1,0s-.13.09-.13.14a.19.19,0,0,0,.11.15,1.83,1.83,0,0,0,.51.12c.46,0,.92,0,1.39,0a1.24,1.24,0,0,1,.25,0s.11.07.11.11a.2.2,0,0,1-.1.13.4.4,0,0,1-.17,0h-1.67a.45.45,0,0,0-.52.49c0,.17,0,.34,0,.51a.45.45,0,0,1,0,.17c0,.1-.12.11-.2,0a.52.52,0,0,1-.11-.42c0-.12,0-.23,0-.34a.36.36,0,0,0-.29-.41,2.25,2.25,0,0,0-1.19,0,2.61,2.61,0,0,1-.71,0c-.09,0-.17,0-.17-.14s0-.22.16-.21c.35,0,.72-.09,1.06.12a.37.37,0,0,0,.26,0,5,5,0,0,0,.55-.17c.17-.06.29-.22.26-.31s-.17-.17-.36-.16a.77.77,0,0,1-.49-.08c-.05,0-.15,0-.21,0a.45.45,0,0,1-.69-.28,1.72,1.72,0,0,1,0-.95.28.28,0,0,1,.17-.16s.13.07.16.12a.34.34,0,0,0,.35.19L448,606C448.11,606,448.19,606,448.2,606.16Zm-1.59-1.41a2,2,0,0,0-.35,0c-.07,0-.12.11-.19.16s.1.15.17.19a1.4,1.4,0,0,0,.35.08,3.33,3.33,0,0,0,.52.06.27.27,0,0,0,.29-.28c0-.13-.09-.2-.27-.22Z"/><path class="cls-2" d="M438.9,604.48l-.82.06a.69.69,0,0,0-.47.24.39.39,0,0,0,.12.64,1.6,1.6,0,0,0,.51.11c.3,0,.62,0,.93,0a.89.89,0,0,1,.41.13c.12.07.09.2,0,.24a.84.84,0,0,1-.22,0h-1.13c-.39,0-.54.23-.43.59a2.44,2.44,0,0,0,.83,1.14,5.5,5.5,0,0,0,1.08.77.44.44,0,0,1,.19.16.31.31,0,0,1,0,.26.23.23,0,0,1-.2.1,1.32,1.32,0,0,1-.47-.2,7.37,7.37,0,0,1-1.46-1.55l-.21-.26a.18.18,0,0,0-.31,0,1.5,1.5,0,0,0-.13.17c-.28.37-.54.76-.84,1.12a2.13,2.13,0,0,1-1.08.75.4.4,0,0,1-.16,0c-.07,0-.19,0-.2-.08a.32.32,0,0,1,0-.26.8.8,0,0,1,.3-.19,3.49,3.49,0,0,0,1.67-1.54,2.18,2.18,0,0,0,.17-.65.21.21,0,0,0-.19-.22,1.45,1.45,0,0,0-1,0,1.35,1.35,0,0,1-.47.09.31.31,0,0,1-.21-.06.31.31,0,0,1-.11-.21c0-.05.08-.12.14-.15a.82.82,0,0,1,.63,0,1.63,1.63,0,0,0,1.21-.25.36.36,0,0,0,0-.57,1,1,0,0,0-.68-.27l-.31,0a1.18,1.18,0,0,0-.69.06.78.78,0,0,1-.38,0,.25.25,0,0,1-.16-.18.24.24,0,0,1,.12-.19.46.46,0,0,1,.34,0,1.14,1.14,0,0,0,.64,0c.46-.06.92-.1,1.39-.12.66,0,1.32,0,2,0a1.23,1.23,0,0,1,.37.06.17.17,0,0,1,.14.21.25.25,0,0,1-.18.11c-.24,0-.48,0-.72,0Z"/><path class="cls-2" d="M464.94,608.3a2.44,2.44,0,0,1,.3-.15c.37-.15.76-.28,1.13-.44a3.08,3.08,0,0,0,.53-.31.28.28,0,0,0,.1-.41l-.17.07-1.44.74a.43.43,0,0,1-.37,0c0-.2.14-.34.35-.35a1.92,1.92,0,0,0,1.11-.62.26.26,0,0,0,0-.22.19.19,0,0,0-.18-.07,1.27,1.27,0,0,0-.36.23,2.28,2.28,0,0,1-.74.47.51.51,0,0,1-.26.05.31.31,0,0,1-.2-.15s.06-.14.12-.18.37-.16.55-.24l.36-.16a.18.18,0,0,0,.13-.24c0-.12-.14-.13-.23-.12s-.26.09-.39.1a3.7,3.7,0,0,1-.53,0s-.15-.08-.14-.1.06-.15.11-.17a.91.91,0,0,1,.39-.05,5.77,5.77,0,0,0,1.24,0c.48,0,1,0,1.43,0a.19.19,0,0,1,.21.19c0,.13-.09.17-.2.17l-.78,0a.39.39,0,0,0-.15,0,.75.75,0,0,0,.09.12c.21.14.44.25.63.41a.6.6,0,0,1,.11,1,2.8,2.8,0,0,1-1.71,1.14,2.09,2.09,0,0,1-.54,0,.28.28,0,0,1-.21-.16c0-.11.09-.15.18-.17.32-.07.64-.12,1-.21a1.56,1.56,0,0,0,1.09-.82s0-.08,0-.12a.2.2,0,0,0,0-.14.17.17,0,0,0-.15,0c-.25.15-.49.3-.74.46a3.22,3.22,0,0,1-1.53.48s-.09,0-.13,0Z"/><path class="cls-2" d="M464.06,604.32c0,.17-.05.36-.07.55s0,.19,0,.28a.42.42,0,0,0,.24.41,1,1,0,0,1,.2.13.17.17,0,0,1,0,.29.61.61,0,0,1-.15.09.5.5,0,0,0-.34.54c0,.32,0,.63.05.95a.47.47,0,0,0,.46.48l.12,0c.13.05.15.16,0,.25a.49.49,0,0,1-.19.08l-1.15.31-.16,0c-.13,0-.22,0-.25-.17a.23.23,0,0,1,.16-.27.65.65,0,0,1,.19,0,.49.49,0,0,0,.47-.45,4,4,0,0,0,0-1.36c0-.29-.14-.35-.43-.36A.43.43,0,0,1,463,606a.2.2,0,0,1,0-.35,1.27,1.27,0,0,1,.33-.11.32.32,0,0,0,.25-.24,1.37,1.37,0,0,0,0-.68c0-.12,0-.23-.05-.36s.08-.27.26-.26S464.06,604.11,464.06,604.32Z"/><path class="cls-2" d="M467.6,604.87a3.89,3.89,0,0,1-.12.49.4.4,0,0,1-.38.28c-.55,0-1.1,0-1.65,0a.47.47,0,0,1-.53-.53c0-.11,0-.23,0-.34a.63.63,0,0,1,.27-.56,1,1,0,0,1,.6-.22c.35,0,.69,0,1,0A.76.76,0,0,1,467.6,604.87Zm-1.4.42v0H467c.2,0,.33-.09.34-.28a1.3,1.3,0,0,0-.06-.48.3.3,0,0,0-.3-.21l-1.41-.08c-.12,0-.25.1-.25.19a.24.24,0,0,0,.25.23h.18c.35,0,.7,0,1.05,0,.07,0,.13.09.2.14a.59.59,0,0,1-.2.09c-.36,0-.72,0-1.08,0a.91.91,0,0,0-.36.13.18.18,0,0,0-.06.15s.09.07.15.07Z"/><path class="cls-2" d="M458.09,604.65c-.08,0-.15.1-.23.15l-.47.21a1.4,1.4,0,0,0-.19.16c.22.08.37.21.58.15a.38.38,0,0,1,.44.22,2,2,0,0,1,.25,1.31.32.32,0,0,1-.36.3l-1.84.05h-.13a.59.59,0,0,0-.53.06.35.35,0,0,1-.51-.3c0-.28,0-.56,0-.83a.59.59,0,0,1,0-.15c0-.17.18-.2.29-.06a.51.51,0,0,0,.37.25,1.4,1.4,0,0,0,.7-.14.19.19,0,0,0,.1-.23.18.18,0,0,0-.21-.14l-.73,0a1.13,1.13,0,0,1-.18,0s-.1,0-.11-.06a.14.14,0,0,1,0-.13,1,1,0,0,1,.31-.15,2.83,2.83,0,0,1,.57-.08.82.82,0,0,0,.5-.22l.33-.26c.1-.09.09-.18,0-.25a.41.41,0,0,0-.43,0c-.19.1-.39.22-.59.3a2.31,2.31,0,0,1-.52.14.18.18,0,0,1-.23-.16.33.33,0,0,1,.17-.21,1.5,1.5,0,0,1,.39-.08.7.7,0,0,0,.61-.44c.07-.18.19-.21.36-.12l.09.06a1.84,1.84,0,0,0,.9.45,1,1,0,0,1,.24.12Zm-.4,2.26v0h.13c.29,0,.35-.06.41-.35,0,0,0-.09,0-.14a.66.66,0,0,0-.26-.73.8.8,0,0,0-.82-.12.26.26,0,0,0-.19.31c0,.16.15.18.28.19h.45a.2.2,0,0,1,.2.19c0,.13-.11.08-.19.09h-.2a2.19,2.19,0,0,0-.37.05.23.23,0,0,0,0,.44ZM456,607a3.08,3.08,0,0,0,.44-.18.25.25,0,0,0,0-.44,1,1,0,0,0-.87.09.19.19,0,0,0,0,.35A3.58,3.58,0,0,0,456,607Z"/><path class="cls-2" d="M454.71,606.91c0,.08,0,.14,0,.2L454,609a.26.26,0,0,1-.32.18c-.14,0-.2-.14-.16-.32a.73.73,0,0,1,.07-.18l.8-1.61a.64.64,0,0,1,.09-.15.22.22,0,0,1,.15-.07S454.69,606.88,454.71,606.91Z"/><path class="cls-2" d="M455.78,609a1.24,1.24,0,0,1,.09-.26,3.33,3.33,0,0,0,.3-1c0-.12.07-.21.19-.21s.15.12.16.22a.5.5,0,0,1,0,.2c-.09.33-.2.67-.31,1a.36.36,0,0,1-.12.16.25.25,0,0,1-.19,0S455.81,609.05,455.78,609Z"/><path class="cls-2" d="M455.72,607.8a1.59,1.59,0,0,1-.29.74,2.49,2.49,0,0,1-.33.4.27.27,0,0,1-.25.05c-.1,0-.07-.16,0-.25l.09-.18c.16-.27.31-.53.49-.79a.28.28,0,0,1,.21-.13C455.64,607.65,455.69,607.77,455.72,607.8Z"/><path class="cls-2" d="M458.64,608.74c0,.16-.09.21-.19.19a.34.34,0,0,1-.19-.12c-.2-.3-.4-.61-.59-.92a.28.28,0,0,1,0-.17.15.15,0,0,1,.25-.11.24.24,0,0,1,.09.12,2,2,0,0,0,.48.75A2.52,2.52,0,0,1,458.64,608.74Z"/><path class="cls-2" d="M456.88,607.79c0-.14,0-.26.15-.27s.16.09.19.2c.1.38.22.76.31,1.15a.54.54,0,0,1,0,.22l-.2-.08a.05.05,0,0,1,0,0A5.43,5.43,0,0,1,456.88,607.79Z"/><path class="cls-2" d="M454,606.3h-.18a.19.19,0,0,1-.24-.18.22.22,0,0,1,.19-.26c.26,0,.54,0,.81,0a.19.19,0,0,1,.19.2c0,.12-.09.17-.18.19l-.57.08S454,606.31,454,606.3Z"/><path class="cls-2" d="M454.66,604.91c0,.18-.1.25-.22.2a1.47,1.47,0,0,1-.3-.17,3.32,3.32,0,0,1-.36-.31.28.28,0,0,1-.07-.23s.13-.08.21-.09a.31.31,0,0,1,.19.06c.17.13.33.27.49.42A.46.46,0,0,1,454.66,604.91Z"/><path class="cls-1" d="M429.46,591.55h-2.34l-.51,1.31h-.76l2.26-5.45h.35l2.27,5.45H430Zm-.22-.57-1-2.42-.95,2.42Z"/><path class="cls-1" d="M440,592.86h-.69v-4.4l-2.26,4.4h-.38l-2.26-4.4v4.4h-.69v-5.45h1l2.15,4.37,2.16-4.37h1Z"/><path class="cls-1" d="M446.56,591.55h-2.34l-.51,1.31H443l2.26-5.45h.35l2.27,5.45h-.75Zm-.21-.57-1-2.42-.94,2.42Z"/><path class="cls-1" d="M455.23,592.86h-.81l-2-2.78-.92.82v2h-.69v-5.45h.69V590l2.8-2.57h.92l-2.34,2.21Z"/><path class="cls-1" d="M462.38,590.69a2.17,2.17,0,1,1-4.33,0v-3.28h.69v3.28a1.48,1.48,0,1,0,3,0v-3.28h.69Z"/><path class="cls-1" d="M469.22,591.44c0,1-1,1.44-2,1.45a2.74,2.74,0,0,1-1.93-.83l.46-.47a1.94,1.94,0,0,0,1.49.73c.69,0,1.26-.24,1.26-.81s-.48-.68-1.39-1.06c-.74-.31-1.55-.65-1.55-1.59a1.65,1.65,0,0,1,1.8-1.48,2.4,2.4,0,0,1,1.89.89l-.49.44a2,2,0,0,0-1.52-.76c-.6,0-1,.35-1,.82,0,.76.92,1,1.43,1.22S469.22,590.63,469.22,591.44Z"/><path class="cls-1" d="M475.7,591.55h-2.34l-.51,1.31h-.76l2.26-5.45h.35l2.27,5.45h-.75Zm-.22-.57-1-2.42-.94,2.42Z"/><rect class="cls-1" x="425.84" y="598.09" width="51.16" height="0.64"/><path class="cls-2" d="M476,479.49c-.19.16-.34.46-.66.2l.12-.36h-1.39c-.29,0-.64-.08-.86.05-.4.23-.8.11-1.2.18,0-.43.1-.47-.5-.62a.71.71,0,0,1,.31-.09c.08,0,.17,0,.25,0s.44-.12.66-.19a.61.61,0,0,0,.22-.13.59.59,0,0,1,.59-.1,4.31,4.31,0,0,0,1.05,0c.06,0,.11-.15.21-.29l-1.78-.15a2.8,2.8,0,0,0,.67-.15,1.08,1.08,0,0,1,1.19-.1c.15-.18.38-.34.36-.48,0-.32.17-.36.38-.43a1.26,1.26,0,0,0,.77-.78H475s0-.07-.08-.11l.47,0v-.33l.61-.22c-.06-.07-.07-.11-.1-.12-.49-.2-.94-.65-1.54-.25,0,0-.13,0-.18-.1s-.15-.2-.24-.22a5.15,5.15,0,0,0-1.19-.27,6.14,6.14,0,0,1-1.69-.19,7.24,7.24,0,0,0-1.75-.3c-.33,0-.66-.11-1-.16a3.48,3.48,0,0,0-1.18-.16,4.8,4.8,0,0,1-1.53-.17,10.73,10.73,0,0,0-1.56-.06.93.93,0,0,1-.32,0c-.6-.19-1.27.08-1.85-.28a9.56,9.56,0,0,1-2.22-.25,7.07,7.07,0,0,1-2-.48.9.9,0,0,0-.21-.05l-3.76-.75c-.52-.1-1-.25-1.56-.35s-.8-.12-1.19-.18l-1.33-.23c-.31-.06-.61-.18-.92-.21a3,3,0,0,1-1.31-.2c-.08,0-.22,0-.32,0a5.92,5.92,0,0,1-1.53-.15c-.21-.08-.47-.12-.49-.42l.94-1.11c-.2-.27-.06-.52.18-.75s.26-.19.29-.31c.14-.61.9-.76,1-1.39.31-.13.34-.45.52-.72a2.11,2.11,0,0,0,1.11-.63.74.74,0,0,1,.64-.29,1.33,1.33,0,0,0,1.2-.59,1.2,1.2,0,0,1,.5-.29c.17-.07.35-.09.51-.17.43-.22.77-.6,1.28-.67.06,0,.11-.09.16-.14a1.64,1.64,0,0,1,1.58-.51,1.16,1.16,0,0,0,.84-.21l.65-.38a2.66,2.66,0,0,0-.07-.57c-.2-.56-.07-.69.36-1a1.08,1.08,0,0,1,.11-1,3.87,3.87,0,0,1,.18-.45.73.73,0,0,0-.17-1,3,3,0,0,1-.68-.88.72.72,0,0,0-.32-.26c-.73-.39-1.42-.85-2.18-1.22a19.59,19.59,0,0,1-1.92-1.25,3.28,3.28,0,0,1-.59-.34,1.33,1.33,0,0,0-.93-.32c-.12,0-.25,0-.37,0a1.43,1.43,0,0,1-1.25-.95c-.27-.77-.57-1.53-.9-2.27-.1-.22-.21-.41,0-.57s.36-.32.63-.11c.07.06.22,0,.34,0s.21,0,.31,0a3,3,0,0,0,1.57-.19c.66-.34,1.39-.44,2-.8.5-.28,1.09-.34,1.6-.68s.68-.68,1.2-.7c0,0,0,0,0,0l.52-.27c.33-.17.72-.19,1-.51a2.13,2.13,0,0,1,.67-.42,1.86,1.86,0,0,1,.7-.22c.38,0,.31-.43.57-.51,0,0,.05-.05.09-.06a6.12,6.12,0,0,0,1.19-.65,1.42,1.42,0,0,1,.14-.08,2.54,2.54,0,0,0,1.19-.78,1.18,1.18,0,0,0,.36-1c-.06-.4,0-.85-.48-1.06,0,0-.07-.07-.1-.11l-.59-.8s.08-.18,0-.25a1.25,1.25,0,0,0-.43-.46c-.58-.34-1.18-.64-1.78-1a2,2,0,0,1-.21-.17c0-.19.16-.39-.08-.55,0,0,0-.17,0-.24a1.14,1.14,0,0,0-.13-.91,2.45,2.45,0,0,0-1.26.12,1.77,1.77,0,0,1-1,.07,5.75,5.75,0,0,0-1.72-.14.49.49,0,0,1-.25-.06,1.36,1.36,0,0,0-1.49.14c-.19-.19-.28-.56-.62-.41-.65.27-1.31,0-1.95.12s-1.09-.25-1.65-.09c-.29-.23-.49,0-.71.18a.64.64,0,0,0-.78-.21,1,1,0,0,1-1,0,.35.35,0,0,0-.3,0,1.12,1.12,0,0,1-1.32-.21l-1.26.36c-.06,0-.17,0-.2,0a.8.8,0,0,0-.9,0,3.87,3.87,0,0,1-1.37.11,11.79,11.79,0,0,1-1.63-.15c-.16,0-.38.05-.46,0-.25-.26-.49-.12-.74-.07s-.5.08-.74.11-.76-.25-1.14,0c0,0-.13-.05-.2-.06s-.44-.08-.58,0a.61.61,0,0,1-.5,0c-.48-.08-1-.19-1.46-.29-.11.32-.34.38-.57.24a2.46,2.46,0,0,0-1.84-.15,4.44,4.44,0,0,1-2.13,0c-.1,0-.25-.05-.31,0a4,4,0,0,1-1.07.4,3.14,3.14,0,0,0-1.13,1c-.18.22-.14.51-.22.73s-.47.61-.15,1c0,0,0,.06-.05.09-.05.19-.2.45-.13.56s0,.43,0,.63a2.49,2.49,0,0,0,.11.63,5.88,5.88,0,0,0,.25.58l.48,1c.47.06.44.45.47.77.17.07.34,0,.36.32a.62.62,0,0,0,.55.52.78.78,0,0,1,.31.09,6.24,6.24,0,0,0,1.63.79.85.85,0,0,1,.24.2c.07.07.14.18.23.22a5.3,5.3,0,0,0,2.21.64.57.57,0,0,1,.26.06,3.65,3.65,0,0,0,2,.13.57.57,0,0,0,.91,0s.07-.09.1-.13a.7.7,0,0,1,.83-.17,2,2,0,0,0,.62.09,1,1,0,0,0,.72-.15c.22-.19.51.07.76-.07,0,0,.11,0,.15-.06.37-.36.82-.21,1.22-.13a2,2,0,0,0,.79,0,15.91,15.91,0,0,1,1.73-.22,4.14,4.14,0,0,1,.95.17c.37-.54.89-.48,1.41-.38a1,1,0,0,0,.51,0,3.11,3.11,0,0,1,1.48-.16,1.44,1.44,0,0,0,1.08-.2.67.67,0,0,1,.9.06,8.86,8.86,0,0,1-.81.72c-.29.21-.65.32-.92.54a7.08,7.08,0,0,1-1.31.7.62.62,0,0,1-.55.05c-.41-.14-.84-.26-1.24-.39,0,.27.1.58.15.89a8.74,8.74,0,0,1-2.38,1.33,3.79,3.79,0,0,1-.79.34c-.4.09-.74.4-1.19.31a.18.18,0,0,0-.11,0c-.62.26-1.24.55-1.88.78a17.12,17.12,0,0,1-1.81.43,12.89,12.89,0,0,1-2.26.2,3.56,3.56,0,0,0-1.25.26,8,8,0,0,1-1.24.3l0,0a13.16,13.16,0,0,1-1.79.58c-.86.16-1.74.2-2.65.3-.14.25-.14.24-.52.41-.06,0-.14.06-.16.12a3,3,0,0,0-.49,1.17,3.54,3.54,0,0,0,.38,1.91c.05.09,0,.23,0,.34s-.12.52.08.77a10.35,10.35,0,0,1,.61.91l-.08.28a2,2,0,0,1,.36.34c.23.36.42.74.66,1.1a1.66,1.66,0,0,0,.37.36l.61.49c.08.07.13.18.21.24a16,16,0,0,0,2.5,1.51l.1.05a4.36,4.36,0,0,0,2.29.81c.47.07,1,0,1.44.43,0,0,.12,0,.19,0,.34,0,.77-.06.94.23s.49.35.81.39a1.58,1.58,0,0,1,.66.16,2.51,2.51,0,0,0,.94.39c.55.11.69.32.51.85a4.16,4.16,0,0,1-.59,1.12,3.9,3.9,0,0,0-.8,1.48c0,.08-.1.13-.16.2-.29.36-.58.7-.86,1.06a8.08,8.08,0,0,0-.52.78c-.08.13-.09.36-.2.42-.31.17-.38.48-.48.74a2.1,2.1,0,0,1-.41.71.83.83,0,0,0-.15.39,1.91,1.91,0,0,1-.07.56.59.59,0,0,0,0,.64.58.58,0,0,1-.09.78.5.5,0,0,0-.12.44,1.16,1.16,0,0,1,0,1c-.26.58.17,1.15-.1,1.7.16.21,0,.44,0,.66,0,.48-.1,1,.45,1.34,0,0,0,.06.05.09l.39.77-.23.39c.34.21.65.42,1,.59a1.69,1.69,0,0,0,1.71-.43,1.12,1.12,0,0,1,1-.62c.1,0,.21-.14.31-.22-.13-.15,0-.2.1-.23.26-.11.25-.36.28-.52a1.6,1.6,0,0,0,.37-.21c.38-.4.74-.83,1.13-1.23a1.75,1.75,0,0,1,.43-.38,10.61,10.61,0,0,0,1.07-.51,5.07,5.07,0,0,1,1.91-.58,6.11,6.11,0,0,1,1.76-.21.29.29,0,0,0,.15,0,.86.86,0,0,1,1,.09c.49.42,1.1.61,1.59,1a1.23,1.23,0,0,0,1.18.21c0,.18,0,.39.14.44a9.34,9.34,0,0,0,1.28.48,3.07,3.07,0,0,0,1.16,0,6.55,6.55,0,0,1,1.76,0,1.16,1.16,0,0,0,.29,0,.62.62,0,0,0-.68-.32,2,2,0,0,1-.53,0c0-.21.06-.35.1-.57.38-.08.8-.16,1.2-.28.15,0,.26-.19.42-.31l.56.23-1,.3.3.48c.32.09.68-.17.88.23-.1.27-.31.22-.5.15s-.36,0-.46.26l1.41.22,1.75.3c.22,0,.46,0,.68.06a2.2,2.2,0,0,1,.65.16c.32.16.61.38.92.57a.39.39,0,0,0,.21.05l1.61-.05a.37.37,0,0,1,.21,0,2.64,2.64,0,0,0,2.23.25l1.12-.23c.05.07.08.1.09.13s0,.1,0,.15c.17.48.29.51.81.44a1.86,1.86,0,0,1,.79.09,1.81,1.81,0,0,0,1.41,0c.07,0,.17-.15.15-.17s0-.22.11-.23.17.09.25.13l.51-.35c0-.13-.07-.23-.09-.33h0v0l-.34,0c.05-.08.09-.15.13-.16s.21.07.21.21h0a1,1,0,0,1,1,0l-.66.26.05,0,0,0,.11.1-.12-.08-.47.56.06.12a2.37,2.37,0,0,1,1.16.13h0c0-.19,0-.19.29-.12l-.29.12v0h0l-.33.29,0,.11h.74c-.31.28-.34.68-.78.7.11.12.17.23.23.24a5.82,5.82,0,0,0,.89,0,.8.8,0,0,1,.57.1.6.6,0,0,0,.78-.1,3.39,3.39,0,0,1,.36-.26c-.35-.07-.67,0-.86-.31,0,0-.13,0-.2,0l-.79-.12a.41.41,0,0,1,0-.1H473c.14-.15.28-.29.39-.44a.75.75,0,0,0,.14-.27c0-.18,0-.42.25-.48a3.94,3.94,0,0,1,.58-.06,6.88,6.88,0,0,0,.78,0,4,4,0,0,0,.71-.22l.7-.78Zm-2.36-4c.07,0,.22,0,.28.12a2.56,2.56,0,0,1,.21.51l-1.29-.14C473.08,475.57,473.41,475.58,473.67,475.47Zm-1.2.12c0,.16,0,.25,0,.38l-.4-.06Zm-28.12-23.33a5.49,5.49,0,0,0-.06,1.42,1.47,1.47,0,0,1-.25.92,3.91,3.91,0,0,0-.32.68,3.07,3.07,0,0,1-.63.12c-.42,0-.82.31-1.26.06-.32.33-.69,0-1,.08a13.51,13.51,0,0,1-1.38.11,11.78,11.78,0,0,0-1.2,0c-.65.1-1.27-.11-1.9-.07s-1.41-.29-2.15-.28-1.24-.05-1.86-.09c-.45,0-.91-.06-1.36-.11a1.65,1.65,0,0,1-.52-.17.24.24,0,0,1,0-.43l.1,0a10.46,10.46,0,0,1,1.88-.6c.47-.06.76-.43,1.2-.46.08,0,.17-.14.23-.22.21-.27.43-.53.63-.81a2.34,2.34,0,0,1,1.34-.78.21.21,0,0,1,.11,0,5.72,5.72,0,0,0,2.28-.17c1.49-.19,3-.56,4.46-.66a4.9,4.9,0,0,0,1.15-.35c.53-.15.64-.08.66.48A4.43,4.43,0,0,1,444.35,452.26Zm7.07,26.21.26-.21C451.73,478.5,451.68,478.62,451.42,478.47Zm5.73-.66v0h0l.41-.11c-.11.29-.25.25-.41.11h0l-.07.24S457,478,457,478C456.93,477.77,457.06,477.83,457.15,477.81Zm-1.14-.73.49-.11a1,1,0,0,0,0,.14C456.37,477.26,456.22,477.33,456,477.08Zm.56.7c-.16,0-.33.1-.46-.06C456.32,477.5,456.44,477.64,456.57,477.78Zm1.9,1.08c-.22.21-.4.46-.79.34a1.58,1.58,0,0,0-.94-.06c-.16,0-.36-.1-.62-.18l.34-.55.83.38c.1-.1.17-.22.25-.23.37-.05.74-.07,1.16-.1A2,2,0,0,1,458.46,478.87Zm.38-1.52h0a2,2,0,0,1-.43.13,4.82,4.82,0,0,1-.61,0c0-.1,0-.21-.06-.34a1.2,1.2,0,0,1,1.1.21h0c.39-.16.78,0,1.17,0-.4.23-.78,0-1.17,0Zm.73,2-.32-.39c0-.2.89-.24,1.06,0l.08.13.12.12C460.23,479.49,459.89,479.28,459.58,479.34Zm11.93-3.88c0,.42,0,.45-.61.33C471.31,475.76,471.31,475.76,471.5,475.46Zm-4.21-.12a.65.65,0,0,1,.18.07.45.45,0,0,0,0,.11l-.32-.07v-.08A.41.41,0,0,1,467.3,475.34Zm-1.55,2.81-.5,0C465.52,477.77,465.52,477.77,465.75,478.15Zm-.62-1.18.22.06,0,.09-.22-.07Zm.59,2.85a1,1,0,0,1-.61-.1l-.39.46-1.17-.24a.68.68,0,0,1,.47-.81c.2-.08.31-.09.47,0s.39.19.72,0a2.84,2.84,0,0,1,1-.17C465.87,479.22,466.18,479.73,465.71,479.81Zm1.26-1.62H466c.24-1,.45-1.21,1.05-.94.19-.19.34-.37.64-.05.16.17.53.14.8.2l.18,0a.55.55,0,0,1,0,.08c-.46,0-.93,0-1.39,0a.64.64,0,0,0-.76.39Zm.66,2.29-.36-.53.61-.16C468,480.16,468,480.23,467.63,480.48Zm1,0c-.07-.07,0-.24-.07-.51l.69.44C469,480.56,468.83,480.7,468.66,480.52Zm2-1.54c-.41-.21-.87,0-1.28-.19a1,1,0,0,0-1.14.23c-.06.07-.2.07-.3.11l0-.09.37-.29-.23-.36.38.09c.09,0,.21.1.25.07.42-.29.95.05,1.36-.32l.27.43a.28.28,0,0,0,.08,0,1.1,1.1,0,0,1,.31-.07c.1,0,.26.1.26.17A.21.21,0,0,1,470.65,479Zm.26-1.18c.26-.53.67-.25,1.1-.32C471.68,478,471.31,477.8,470.91,477.81Zm1.78,3.17c-.47-.09-1,.17-1.49-.2.41-.41.87-.28,1.31-.19C472.67,480.62,472.8,480.74,472.69,481Z"/><path class="cls-1" d="M188,567.61a23.7,23.7,0,0,1-2.51-.26,8.2,8.2,0,0,0-6,.94,8.75,8.75,0,0,1-9.56.07,8.41,8.41,0,0,0-6.37-1,8.46,8.46,0,0,1-8.75-2.85,8.52,8.52,0,0,0-5.74-2.93,8.29,8.29,0,0,1-7.34-5.24,9.21,9.21,0,0,0-5-4.93,8.1,8.1,0,0,1-5.06-7,9.37,9.37,0,0,0-3.2-6.24,8.11,8.11,0,0,1-2.66-8.43,9.28,9.28,0,0,0-1.18-6.92,7.83,7.83,0,0,1,0-8.46,9.78,9.78,0,0,0,1.13-7.3,7.78,7.78,0,0,1,2.58-7.9,10.2,10.2,0,0,0,3.4-6.77,7.71,7.71,0,0,1,4.82-6.55,9.89,9.89,0,0,0,5.25-5.2,7.85,7.85,0,0,1,6.87-5,9.8,9.8,0,0,0,6.55-3.41,7.82,7.82,0,0,1,7.92-2.52,9.37,9.37,0,0,0,6.94-1,8.28,8.28,0,0,1,9,0,9,9,0,0,0,6.75,1,8,8,0,0,1,8.26,2.61,9.59,9.59,0,0,0,6.41,3.28,8.08,8.08,0,0,1,7,5.13,9,9,0,0,0,4.8,4.84,8.36,8.36,0,0,1,5.3,7.31,8.72,8.72,0,0,0,3,5.9,8.48,8.48,0,0,1,2.78,8.78,8.28,8.28,0,0,0,1,6.19,8.72,8.72,0,0,1,0,9.55,8.11,8.11,0,0,0-1,6.18,8.61,8.61,0,0,1-2.9,8.93,8.57,8.57,0,0,0-2.89,5.75,8.33,8.33,0,0,1-5.29,7.31,9,9,0,0,0-4.81,4.83,8,8,0,0,1-6.78,5.11,10.52,10.52,0,0,0-6.76,3.43C192.39,566.59,190.53,567.88,188,567.61Zm-13.18-7a42,42,0,1,0-.27-83.91c-23.29.15-42.17,19.09-42,42.11A42,42,0,0,0,174.83,560.66Z"/><path class="cls-1" d="M156,462.51a4.62,4.62,0,0,1-4.73-4.78,5,5,0,0,1,5.25-4.84,4.83,4.83,0,0,1,4.66,4.76A4.94,4.94,0,0,1,156,462.51Zm3.07-4.72a2.91,2.91,0,0,0-2.73-3,2.87,2.87,0,0,0-3,2.87,2.87,2.87,0,1,0,5.73.1Z"/><path class="cls-1" d="M137.23,572.91a4.76,4.76,0,0,1,4.71-4.69,5.1,5.1,0,0,1,5.12,5,4.75,4.75,0,0,1-4.7,4.7A5.17,5.17,0,0,1,137.23,572.91Zm5.16-2.73a2.92,2.92,0,1,0-.47,5.81,3,3,0,0,0,3.13-2.79A2.89,2.89,0,0,0,142.4,570.19Z"/><path class="cls-1" d="M120.52,477.07l1.36-1.43,2.62,2.14,2.41-2.74-2.54-2.38,1.27-1.48,6.85,5.87-1.26,1.51-3-2.42-2.41,2.78,2.83,2.56L127.42,483Z"/><path class="cls-1" d="M212.87,575c-2.42,2.56-4.34-.16-6.74-.14l1.74,3.14-1.63,1.1-4.57-7.82,1.63-1,1.89,2.89c1.09-1.94-.13-4.75,3-5.56a38.3,38.3,0,0,0-.64,4.18,2,2,0,0,0,.87,1.52C209.8,574,211.29,574.44,212.87,575Z"/><path class="cls-1" d="M227.84,547.53c-.17.56-.34,1.11-.51,1.67s-.33,1.12-.49,1.68a9.84,9.84,0,0,0,1.82-.29c.94-.33,1.82-1.1,2.74-1.13,1.38,0,2.54,1.61,2.46,3S232.2,556,231,556c-.42,0-.81-.65-1.36-1.13.59-.33,1-.41,1.11-.64.38-.71.65-1.47,1-2.22a5.7,5.7,0,0,0-2.13.37c-2,1.33-3.11,1.41-4.22,0s-.7-3.19,1-4.55a8.74,8.74,0,0,1,.81-.52Z"/><path class="cls-1" d="M124.48,551.93c-.42-.43-.82-.88-1.27-1.28s-.92-.69-1.38-1a7.47,7.47,0,0,0-.47,1.5c-.1,1.05.19,2.24-.2,3.15-.55,1.27-2.51,1.57-3.75.86s-2.46-3-1.83-4.11c.21-.37,1-.43,1.49-.64a3.37,3.37,0,0,1,.18.66c0,1.17.12,2.53,1.53,2.36s.79-1.5.6-2.4c-.31-1.51,0-2.74,1.56-3.27a2.74,2.74,0,0,1,3.51,1.61,11.8,11.8,0,0,1,.65,2Z"/><path class="cls-1" d="M177.31,579.75c-1.62-.75-3.27-1-4.18.63a3.94,3.94,0,0,0-.08,3.22c.85,1.63,2.48,1.6,4.07.8.68,1.75-.09,2.34-1.62,2.41a4.77,4.77,0,0,1-5-4.93,4.71,4.71,0,0,1,5.18-4.56C177,577.43,177.88,577.9,177.31,579.75Z"/><path class="cls-1" d="M193.18,453l1.91.5-2.06,7,2.43,1c-.42,1.75-.42,1.75-4.88.08Z"/><path class="cls-1" d="M222,483l-1.22-1.6,7-5.55,1.3,1.54Z"/><path class="cls-1" d="M241,518.7c-1.2.71-1.92,1.48-2.58,1.43s-1-1-1.52-1.62c.62-.52,1.19-1.38,1.86-1.47S239.89,517.87,241,518.7Z"/><path class="cls-1" d="M113.13,518.52c-1.09.83-1.78,1.72-2.27,1.62a2.59,2.59,0,0,1-1.67-1.6c-.1-.38.91-1.48,1.46-1.51S112,517.78,113.13,518.52Z"/><path class="cls-1" d="M164.5,510l2.84,4.28a9.89,9.89,0,0,1-9.43,2.16,7.54,7.54,0,0,1-5.78-6.81c-.33-3.77.91-6.92,4.25-9a11.7,11.7,0,0,1,8.08-1.37c3.26.5,6.49,1.21,9.75,1.76,1.76.3,3.5.33,4.85-1.18a.78.78,0,0,1,.16-.11c3.71-2.45,4.85-2,6.16,2.42-3,1.74-4,5-5.17,8-1.72,4.32-3.47,8.64-5.27,13.12l5.61,3.11c.29-.62.55-1.1.76-1.61,2.86-7,5.74-14,8.53-21.07a2,2,0,0,1,2.28-1.54c1.8.1,3.61,0,5.82,0l-10.76,26.55a5.62,5.62,0,0,0,5.43-1,22.7,22.7,0,0,0,3-3.26c.63-.79,1.08-1.4,2.17-.66s1.38,1.43.56,2.54c-1,1.35-1.84,2.83-2.88,4.14a8.94,8.94,0,0,1-8.74,3.54,1.82,1.82,0,0,0-2.3,1.4c-1.13,3-2.39,6-3.72,9.31l-5.66-4.21,3.55-9.08-5.71-3a58.79,58.79,0,0,1-3.81,4.84c-3.57,3.69-8,4.63-12.86,3.34a8.35,8.35,0,0,1-6.24-7.6,9.35,9.35,0,0,1,5.66-9.34c3.45-1.47,7-1.18,10.48-.26.81.21,1.6.48,2.61.78L174,507c-3.57-.66-6.85-1.37-10.17-1.83a8.74,8.74,0,0,0-3.79.48,2.89,2.89,0,0,0-1.84,3.77c.63,1.68,2.06,1.85,3.54,1.57A17.58,17.58,0,0,0,164.5,510Zm2.33,15.65a27,27,0,0,0-4-.94,12.61,12.61,0,0,0-4.17.27,3.06,3.06,0,0,0-2.34,3.55,2.84,2.84,0,0,0,3.17,2.51,6.94,6.94,0,0,0,3.73-1.16C164.52,528.87,165.44,527.34,166.83,525.66Z"/></g></g></svg>