<svg xmlns="http://www.w3.org/2000/svg" viewBox="0 0 1920.84 126.83"><defs><style>.cls-1{fill:#294b60;}</style></defs><title>Asset 5</title><g id="Layer_2" data-name="Layer 2"><g id="Layer_1-2" data-name="Layer 1"><polygon class="cls-1" points="59.95 0 59.95 0 59.95 0 59.95 0 59.95 14.52 59.95 28.52 59.95 94.4 59.95 105.12 59.95 105.12 59.95 105.12 59.95 105.12 62.11 105.12 62.11 105.12 62.11 105.12 62.11 105.12 62.11 105.12 62.11 94.05 62.11 80.05 62.11 14.17 62.11 0 62.11 0 62.11 0 62.11 0 59.95 0 59.95 0"/><polygon class="cls-1" points="29.99 21.77 29.99 21.77 29.99 21.77 29.99 35.66 29.99 49.66 29.99 115.54 29.99 116.26 29.99 126.83 29.99 126.83 29.99 126.83 29.99 126.83 32.16 126.83 32.16 49.66 32.16 49.66 32.16 35.66 32.16 35.66 32.16 21.77 32.16 21.77 32.16 21.77 32.16 21.77 32.16 21.77 32.16 21.77 29.99 21.77 29.99 21.77"/><polygon class="cls-1" points="0 21.77 0 21.77 0 126.83 2.17 126.83 2.17 115.88 2.17 21.77 2.17 21.77 0 21.77 0 21.77"/><polygon class="cls-1" points="119.92 21.77 119.92 21.77 119.92 21.77 119.92 21.77 119.92 21.77 119.92 21.77 119.92 21.77 119.92 21.77 119.92 21.77 119.92 21.77 119.92 35.66 119.92 35.66 119.92 49.66 119.92 49.66 119.92 126.83 122.08 126.83 122.08 126.83 122.08 126.83 122.08 126.83 122.08 126.83 122.08 116.26 122.08 115.88 122.08 115.54 122.08 49.66 122.08 35.66 122.08 21.77 122.08 21.77 122.08 21.77 122.08 21.77 122.08 21.77 122.08 21.77 119.92 21.77 119.92 21.77"/><polygon class="cls-1" points="92.13 0 89.97 0 89.97 0 89.97 0 89.97 0 89.97 14.17 89.97 80.05 89.97 94.05 89.97 105.12 89.97 105.12 89.97 105.12 89.97 105.12 89.97 105.12 92.13 105.12 92.13 105.12 92.13 105.12 92.13 105.12 92.13 94.4 92.13 28.52 92.13 14.52 92.13 0 92.13 0 92.13 0 92.13 0 92.13 0"/><polygon class="cls-1" points="149.91 21.77 149.91 21.77 149.91 21.77 149.91 21.77 149.91 21.77 149.91 21.77 149.91 35.66 149.91 49.66 149.91 115.54 149.91 115.88 149.91 116.26 149.91 126.83 149.91 126.83 149.91 126.83 149.91 126.83 149.91 126.83 152.07 126.83 152.08 49.66 152.08 49.66 152.08 35.66 152.08 35.66 152.08 21.77 152.08 21.77 152.08 21.77 152.08 21.77 152.08 21.77 152.08 21.77 152.08 21.77 152.08 21.77 152.08 21.77 152.08 21.77 152.08 21.77 149.91 21.77"/><polygon class="cls-1" points="179.86 0 179.86 0 179.86 0 179.86 0 179.86 14.52 179.86 28.52 179.86 94.4 179.86 105.12 179.86 105.12 179.86 105.12 179.86 105.12 182.03 105.12 182.03 105.12 182.03 105.12 182.03 105.12 182.03 94.05 182.03 80.05 182.03 0 182.03 0 182.03 0 182.03 0 179.86 0 179.86 0"/><polygon class="cls-1" points="239.83 21.77 239.83 21.77 239.83 21.77 239.83 21.77 239.84 21.77 239.83 21.77 239.83 21.77 239.83 21.77 239.84 21.77 239.83 21.77 239.84 35.66 239.83 35.66 239.84 49.66 239.83 49.66 239.84 126.83 242 126.83 242 126.83 242 126.83 242 126.83 242 126.83 242 116.26 242 115.88 242 115.54 242 49.66 242 35.66 242 21.77 242 21.77 242 21.77 242 21.77 242 21.77 242 21.77 239.83 21.77 239.83 21.77"/><polygon class="cls-1" points="212.05 0 209.88 0 209.88 0 209.88 0 209.88 0 209.88 14.17 209.88 80.05 209.88 94.05 209.88 105.12 209.88 105.12 209.88 105.12 209.88 105.12 209.88 105.12 212.05 105.12 212.05 105.12 212.05 105.12 212.05 105.12 212.05 94.4 212.05 28.52 212.05 14.52 212.05 0 212.05 0 212.05 0 212.05 0 212.05 0"/><polygon class="cls-1" points="269.83 21.77 269.83 21.77 269.83 21.77 269.83 21.77 269.83 21.77 269.83 21.77 269.83 35.66 269.83 49.66 269.83 115.54 269.83 115.88 269.83 116.26 269.83 126.83 269.83 126.83 269.83 126.83 269.83 126.83 269.83 126.83 271.99 126.83 271.99 49.66 271.99 49.66 271.99 35.66 271.99 35.66 271.99 21.77 271.99 21.77 271.99 21.77 271.99 21.77 271.99 21.77 271.99 21.77 271.99 21.77 271.99 21.77 271.99 21.77 271.99 21.77 271.99 21.77 269.83 21.77"/><polygon class="cls-1" points="299.78 0 299.78 0 299.78 0 299.78 0 299.78 14.52 299.78 28.52 299.78 94.4 299.78 105.12 299.78 105.12 299.78 105.12 299.78 105.12 301.94 105.12 301.94 105.12 301.94 105.12 301.94 105.12 301.94 105.12 301.94 94.05 301.94 80.05 301.94 14.17 301.94 0 301.94 0 301.94 0 301.94 0 299.78 0 299.78 0"/><polygon class="cls-1" points="359.75 21.77 359.75 21.77 359.75 21.77 359.75 21.77 359.75 21.77 359.75 21.77 359.75 21.77 359.75 21.77 359.75 21.77 359.75 21.77 359.75 35.66 359.75 35.66 359.75 49.66 359.75 49.66 359.75 126.83 361.92 126.83 361.92 126.83 361.92 126.83 361.92 126.83 361.92 126.83 361.92 116.26 361.92 115.88 361.92 115.54 361.92 49.66 361.92 35.66 361.92 21.77 361.92 21.77 361.92 21.77 361.92 21.77 361.92 21.77 361.92 21.77 359.75 21.77 359.75 21.77"/><polygon class="cls-1" points="331.96 0 329.8 0 329.8 0 329.8 0 329.8 0 329.8 14.17 329.8 80.05 329.8 94.05 329.8 105.12 329.8 105.12 329.8 105.12 329.8 105.12 329.8 105.12 331.97 105.12 331.97 105.12 331.97 105.12 331.97 105.12 331.97 94.4 331.97 28.52 331.97 14.52 331.97 0 331.97 0 331.97 0 331.96 0 331.96 0"/><polygon class="cls-1" points="389.75 21.77 389.75 21.77 389.75 21.77 389.75 21.77 389.75 21.77 389.75 21.77 389.75 35.66 389.75 49.66 389.75 115.54 389.75 115.88 389.75 116.26 389.75 126.83 389.75 126.83 389.75 126.83 389.75 126.83 389.75 126.83 391.91 126.83 391.91 49.66 391.91 49.66 391.91 35.66 391.91 35.66 391.91 21.77 391.91 21.77 391.91 21.77 391.91 21.77 391.91 21.77 391.91 21.77 391.91 21.77 391.91 21.77 391.91 21.77 391.91 21.77 391.91 21.77 389.75 21.77"/><polygon class="cls-1" points="419.7 0 419.7 0 419.7 0 419.7 0 419.7 14.52 419.7 28.52 419.7 94.4 419.7 105.12 419.7 105.12 419.7 105.12 419.7 105.12 421.86 105.12 421.86 105.12 421.86 105.12 421.86 105.12 421.86 105.12 421.86 94.05 421.86 80.05 421.86 14.17 421.86 0 421.86 0 421.86 0 421.86 0 419.7 0 419.7 0"/><polygon class="cls-1" points="479.67 21.77 479.67 21.77 479.67 21.77 479.67 21.77 479.67 21.77 479.67 21.77 479.67 21.77 479.67 21.77 479.67 21.77 479.67 21.77 479.67 35.66 479.67 35.66 479.67 49.66 479.67 49.66 479.67 126.83 481.83 126.83 481.83 126.83 481.83 126.83 481.83 126.83 481.83 126.83 481.83 116.26 481.83 115.88 481.83 115.54 481.83 49.66 481.83 35.66 481.83 21.77 481.83 21.77 481.83 21.77 481.83 21.77 481.83 21.77 481.83 21.77 479.67 21.77 479.67 21.77"/><polygon class="cls-1" points="451.88 0 449.72 0 449.72 0 449.72 0 449.72 0 449.72 14.17 449.72 80.05 449.72 94.05 449.72 105.12 449.72 105.12 449.72 105.12 449.72 105.12 449.72 105.12 451.88 105.12 451.88 105.12 451.88 105.12 451.88 105.12 451.88 94.4 451.88 28.52 451.88 14.52 451.88 0 451.88 0 451.88 0 451.88 0 451.88 0"/><polygon class="cls-1" points="509.66 21.77 509.66 21.77 509.66 21.77 509.66 21.77 509.66 21.77 509.66 21.77 509.66 35.66 509.66 49.66 509.66 115.54 509.66 115.88 509.66 116.26 509.66 126.83 509.66 126.83 509.66 126.83 509.66 126.83 509.66 126.83 511.83 126.83 511.83 49.66 511.83 49.66 511.83 35.66 511.83 35.66 511.83 21.77 511.83 21.77 511.83 21.77 511.83 21.77 511.83 21.77 511.83 21.77 511.83 21.77 511.83 21.77 511.83 21.77 511.83 21.77 511.83 21.77 509.66 21.77"/><polygon class="cls-1" points="539.62 0 539.61 0 539.61 0 539.61 0 539.61 14.52 539.61 28.52 539.61 94.4 539.61 105.12 539.61 105.12 539.61 105.12 539.61 105.12 541.78 105.12 541.78 105.12 541.78 105.12 541.78 105.12 541.78 105.12 541.78 94.05 541.78 80.05 541.78 14.17 541.78 0 541.78 0 541.78 0 541.78 0 539.62 0 539.62 0"/><polygon class="cls-1" points="599.59 21.77 599.59 21.77 599.59 21.77 599.59 21.77 599.59 21.77 599.59 21.77 599.59 21.77 599.59 21.77 599.59 21.77 599.59 21.77 599.59 35.66 599.59 35.66 599.59 49.66 599.59 49.66 599.59 126.83 601.75 126.83 601.75 126.83 601.75 126.83 601.75 126.83 601.75 126.83 601.75 116.26 601.75 115.88 601.75 115.54 601.75 49.66 601.75 35.66 601.75 21.77 601.75 21.77 601.75 21.77 601.75 21.77 601.75 21.77 601.75 21.77 599.59 21.77 599.59 21.77"/><polygon class="cls-1" points="571.8 0 569.63 0 569.63 0 569.63 0 569.63 0 569.63 14.17 569.63 80.05 569.63 94.05 569.63 105.12 569.63 105.12 569.63 105.12 569.64 105.12 569.64 105.12 571.8 105.12 571.8 105.12 571.8 105.12 571.8 105.12 571.8 94.4 571.8 28.52 571.8 14.52 571.8 0 571.8 0 571.8 0 571.8 0 571.8 0"/><polygon class="cls-1" points="629.58 21.77 629.58 21.77 629.58 21.77 629.58 21.77 629.58 21.77 629.58 21.77 629.58 35.66 629.58 49.66 629.58 115.54 629.58 115.88 629.58 116.26 629.58 126.83 629.58 126.83 629.58 126.83 629.58 126.83 629.58 126.83 631.74 126.83 631.75 49.66 631.75 49.66 631.75 35.66 631.75 35.66 631.75 21.77 631.75 21.77 631.75 21.77 631.75 21.77 631.75 21.77 631.75 21.77 631.75 21.77 631.75 21.77 631.75 21.77 631.75 21.77 631.75 21.77 629.58 21.77"/><polygon class="cls-1" points="659.53 0 659.53 0 659.53 0 659.53 0 659.53 14.52 659.53 28.52 659.53 94.4 659.53 105.12 659.53 105.12 659.53 105.12 659.53 105.12 661.7 105.12 661.7 105.12 661.7 105.12 661.7 105.12 661.7 105.12 661.7 94.05 661.7 80.05 661.7 14.17 661.7 0 661.7 0 661.7 0 661.7 0 659.53 0 659.53 0"/><polygon class="cls-1" points="719.5 21.77 719.5 21.77 719.5 21.77 719.5 21.77 719.5 21.77 719.5 21.77 719.5 21.77 719.5 21.77 719.5 21.77 719.5 21.77 719.5 35.66 719.5 35.66 719.5 49.66 719.5 49.66 719.5 126.83 721.67 126.83 721.67 126.83 721.67 126.83 721.67 126.83 721.67 126.83 721.67 116.26 721.67 115.88 721.67 115.54 721.67 49.66 721.67 35.66 721.67 21.77 721.67 21.77 721.67 21.77 721.67 21.77 721.67 21.77 721.67 21.77 719.5 21.77 719.5 21.77"/><polygon class="cls-1" points="691.72 0 689.55 0 689.55 0 689.55 0 689.55 0 689.55 14.17 689.55 80.05 689.55 94.05 689.55 105.12 689.55 105.12 689.55 105.12 689.55 105.12 689.55 105.12 691.72 105.12 691.72 105.12 691.72 105.12 691.72 105.12 691.72 94.4 691.72 28.52 691.72 14.52 691.72 0 691.72 0 691.72 0 691.72 0 691.72 0"/><polygon class="cls-1" points="749.5 21.77 749.5 21.77 749.5 21.77 749.5 21.77 749.5 21.77 749.5 21.77 749.5 35.66 749.5 49.66 749.5 115.54 749.5 115.88 749.5 116.26 749.5 126.83 749.5 126.83 749.5 126.83 749.5 126.83 749.5 126.83 751.66 126.83 751.66 49.66 751.66 49.66 751.66 35.66 751.66 35.66 751.66 21.77 751.66 21.77 751.66 21.77 751.66 21.77 751.66 21.77 751.66 21.77 751.66 21.77 751.66 21.77 751.66 21.77 751.66 21.77 751.66 21.77 749.5 21.77"/><polygon class="cls-1" points="779.45 0 779.45 0 779.45 0 779.45 0 779.45 14.52 779.45 28.52 779.45 94.4 779.45 105.12 779.45 105.12 779.45 105.12 779.45 105.12 781.61 105.12 781.61 105.12 781.61 105.12 781.61 105.12 781.61 105.12 781.61 94.05 781.61 80.05 781.61 14.17 781.61 0 781.61 0 781.61 0 781.61 0 779.45 0 779.45 0"/><polygon class="cls-1" points="839.42 21.77 839.42 21.77 839.42 21.77 839.42 21.77 839.42 21.77 839.42 21.77 839.42 21.77 839.42 21.77 839.42 21.77 839.42 21.77 839.42 35.66 839.42 35.66 839.42 49.66 839.42 49.66 839.42 126.83 841.59 126.83 841.59 126.83 841.59 126.83 841.59 126.83 841.59 126.83 841.59 116.26 841.59 115.88 841.59 115.54 841.59 49.66 841.59 35.66 841.59 21.77 841.59 21.77 841.59 21.77 841.59 21.77 841.59 21.77 841.59 21.77 839.42 21.77 839.42 21.77"/><polygon class="cls-1" points="811.63 0 809.47 0 809.47 0 809.47 0 809.47 0 809.47 14.17 809.47 80.05 809.47 94.05 809.47 105.12 809.47 105.12 809.47 105.12 809.47 105.12 809.47 105.12 811.63 105.12 811.63 105.12 811.63 105.12 811.63 105.12 811.63 94.4 811.63 28.52 811.63 14.52 811.63 0 811.63 0 811.63 0 811.63 0 811.63 0"/><polygon class="cls-1" points="869.41 21.77 869.41 21.77 869.41 21.77 869.41 21.77 869.41 21.77 869.41 21.77 869.41 35.66 869.41 49.66 869.41 115.54 869.41 115.88 869.41 116.26 869.41 126.83 869.41 126.83 869.41 126.83 869.41 126.83 869.41 126.83 871.58 126.83 871.58 49.66 871.58 49.66 871.58 35.66 871.58 35.66 871.58 21.77 871.58 21.77 871.58 21.77 871.58 21.77 871.58 21.77 871.58 21.77 871.58 21.77 871.58 21.77 871.58 21.77 871.58 21.77 871.58 21.77 869.41 21.77"/><polygon class="cls-1" points="899.37 0 899.37 0 899.37 0 899.37 0 899.37 14.52 899.37 28.52 899.37 94.4 899.37 105.12 899.37 105.12 899.37 105.12 899.37 105.12 901.53 105.12 901.53 105.12 901.53 105.12 901.53 105.12 901.53 105.12 901.53 94.05 901.53 80.05 901.53 14.17 901.53 0 901.53 0 901.53 0 901.53 0 899.37 0 899.37 0"/><polygon class="cls-1" points="959.34 21.77 959.34 21.77 959.34 21.77 959.34 21.77 959.34 21.77 959.34 21.77 959.34 21.77 959.34 21.77 959.34 21.77 959.34 21.77 959.34 35.66 959.34 35.66 959.34 49.66 959.34 49.66 959.34 126.83 961.5 126.83 961.5 126.83 961.5 126.83 961.5 126.83 961.5 126.83 961.5 116.26 961.5 115.88 961.5 115.54 961.5 49.66 961.5 35.66 961.5 21.77 961.5 21.77 961.5 21.77 961.5 21.77 961.5 21.77 961.5 21.77 959.34 21.77 959.34 21.77"/><polygon class="cls-1" points="931.55 0 929.39 0 929.39 0 929.39 0 929.39 0 929.39 14.17 929.39 80.05 929.39 94.05 929.39 105.12 929.39 105.12 929.39 105.12 929.39 105.12 929.39 105.12 931.55 105.12 931.55 105.12 931.55 105.12 931.55 105.12 931.55 94.4 931.55 28.52 931.55 14.52 931.55 0 931.55 0 931.55 0 931.55 0 931.55 0"/><polygon class="cls-1" points="989.33 21.77 989.33 21.77 989.33 21.77 989.33 21.77 989.33 21.77 989.33 21.77 989.33 35.66 989.33 49.66 989.33 115.54 989.33 115.88 989.33 116.26 989.33 126.83 989.33 126.83 989.33 126.83 989.33 126.83 989.33 126.83 991.5 126.83 991.5 49.66 991.5 49.66 991.5 35.66 991.5 35.66 991.5 21.77 991.5 21.77 991.5 21.77 991.5 21.77 991.5 21.77 991.5 21.77 991.5 21.77 991.5 21.77 991.5 21.77 991.5 21.77 991.5 21.77 989.33 21.77"/><polygon class="cls-1" points="1019.28 0 1019.28 0 1019.28 0 1019.28 0 1019.28 14.52 1019.28 28.52 1019.28 94.4 1019.28 105.12 1019.28 105.12 1019.28 105.12 1019.28 105.12 1021.45 105.12 1021.45 105.12 1021.45 105.12 1021.45 105.12 1021.45 105.12 1021.45 94.05 1021.45 80.05 1021.45 14.17 1021.45 0 1021.45 0 1021.45 0 1021.45 0 1019.28 0 1019.28 0"/><polygon class="cls-1" points="1079.26 21.77 1079.26 21.77 1079.26 21.77 1079.26 21.77 1079.26 21.77 1079.26 21.77 1079.26 21.77 1079.26 21.77 1079.26 21.77 1079.26 21.77 1079.26 35.66 1079.26 35.66 1079.26 49.66 1079.26 49.66 1079.26 126.83 1081.42 126.83 1081.42 126.83 1081.42 126.83 1081.42 126.83 1081.42 126.83 1081.42 116.26 1081.42 115.88 1081.42 115.54 1081.42 49.66 1081.42 35.66 1081.42 21.77 1081.42 21.77 1081.42 21.77 1081.42 21.77 1081.42 21.77 1081.42 21.77 1079.26 21.77 1079.26 21.77"/><polygon class="cls-1" points="1051.47 0 1049.3 0 1049.3 0 1049.3 0 1049.3 0 1049.3 14.17 1049.3 80.05 1049.3 94.05 1049.3 105.12 1049.3 105.12 1049.3 105.12 1049.31 105.12 1049.31 105.12 1051.47 105.12 1051.47 105.12 1051.47 105.12 1051.47 105.12 1051.47 94.4 1051.47 28.52 1051.47 14.52 1051.47 0 1051.47 0 1051.47 0 1051.47 0 1051.47 0"/><polygon class="cls-1" points="1109.25 21.77 1109.25 21.77 1109.25 21.77 1109.25 21.77 1109.25 21.77 1109.25 21.77 1109.25 35.66 1109.25 49.66 1109.25 115.54 1109.25 115.88 1109.25 116.26 1109.25 126.83 1109.25 126.83 1109.25 126.83 1109.25 126.83 1109.25 126.83 1111.41 126.83 1111.41 49.66 1111.41 49.66 1111.41 35.66 1111.41 35.66 1111.41 21.77 1111.41 21.77 1111.41 21.77 1111.41 21.77 1111.41 21.77 1111.41 21.77 1111.41 21.77 1111.41 21.77 1111.41 21.77 1111.41 21.77 1111.41 21.77 1109.25 21.77"/><polygon class="cls-1" points="1139.2 0 1139.2 0 1139.2 0 1139.2 0 1139.2 14.52 1139.2 28.52 1139.2 94.4 1139.2 105.12 1139.2 105.12 1139.2 105.12 1139.2 105.12 1141.36 105.12 1141.37 105.12 1141.37 105.12 1141.37 105.12 1141.37 105.12 1141.37 94.05 1141.37 80.05 1141.37 14.17 1141.37 0 1141.37 0 1141.37 0 1141.37 0 1139.2 0 1139.2 0"/><polygon class="cls-1" points="1199.17 0 1199.17 0 1199.17 0 1199.17 0 1199.17 7.66 1199.17 7.66 1199.17 8.21 1199.17 8.21 1199.17 21.66 1199.17 21.66 1199.17 35.66 1199.17 35.66 1199.17 49.66 1199.17 49.66 1199.17 126.83 1201.34 126.83 1201.34 126.83 1201.34 126.83 1201.34 126.83 1201.34 126.83 1201.34 116.26 1201.34 115.88 1201.34 115.54 1201.34 49.66 1201.34 35.66 1201.34 21.66 1201.34 8.21 1201.34 7.66 1201.34 0 1201.34 0 1201.34 0 1199.17 0 1199.17 0"/><polygon class="cls-1" points="1171.38 0 1169.22 0 1169.22 0 1169.22 0 1169.22 0 1169.22 14.17 1169.22 80.05 1169.22 94.05 1169.22 105.12 1169.22 105.12 1169.22 105.12 1169.22 105.12 1169.22 105.12 1171.39 105.12 1171.39 105.12 1171.39 105.12 1171.39 105.12 1171.39 94.4 1171.39 28.52 1171.39 14.52 1171.39 0 1171.39 0 1171.39 0 1171.39 0 1171.38 0"/><polygon class="cls-1" points="1229.17 0 1229.17 0 1229.17 0 1229.17 7.66 1229.17 8.21 1229.17 21.66 1229.17 35.66 1229.17 49.66 1229.17 115.54 1229.17 115.88 1229.17 116.26 1229.17 126.83 1229.17 126.83 1229.17 126.83 1229.17 126.83 1229.17 126.83 1231.33 126.83 1231.33 49.66 1231.33 49.66 1231.33 35.66 1231.33 35.66 1231.33 21.66 1231.33 21.66 1231.33 8.21 1231.33 8.21 1231.33 7.66 1231.33 7.66 1231.33 0 1231.33 0 1231.33 0 1231.33 0 1231.33 0 1229.17 0"/><polygon class="cls-1" points="1259.12 0 1259.12 0 1259.12 0 1259.12 0 1259.12 14.52 1259.12 28.52 1259.12 94.4 1259.12 105.12 1259.12 105.12 1259.12 105.12 1259.12 105.12 1261.28 105.12 1261.28 105.12 1261.28 105.12 1261.28 105.12 1261.28 105.12 1261.28 94.05 1261.28 80.05 1261.28 14.17 1261.28 0 1261.28 0 1261.28 0 1261.28 0 1259.12 0 1259.12 0"/><polygon class="cls-1" points="1319.09 21.77 1319.09 21.77 1319.09 21.77 1319.09 21.77 1319.09 21.77 1319.09 21.77 1319.09 21.77 1319.09 21.77 1319.09 21.77 1319.09 21.77 1319.09 35.66 1319.09 35.66 1319.09 49.66 1319.09 49.66 1319.09 126.83 1321.26 126.83 1321.26 126.83 1321.26 126.83 1321.26 126.83 1321.26 126.83 1321.26 116.26 1321.26 115.88 1321.26 115.54 1321.26 49.66 1321.26 35.66 1321.26 21.77 1321.26 21.77 1321.26 21.77 1321.26 21.77 1321.26 21.77 1321.26 21.77 1319.09 21.77 1319.09 21.77"/><polygon class="cls-1" points="1291.3 0 1289.14 0 1289.14 0 1289.14 0 1289.14 0 1289.14 14.17 1289.14 80.05 1289.14 94.05 1289.14 105.12 1289.14 105.12 1289.14 105.12 1289.14 105.12 1289.14 105.12 1291.3 105.12 1291.3 105.12 1291.3 105.12 1291.3 105.12 1291.3 94.4 1291.3 28.52 1291.3 14.52 1291.3 0 1291.3 0 1291.3 0 1291.3 0 1291.3 0"/><polygon class="cls-1" points="1349.08 21.77 1349.08 21.77 1349.08 21.77 1349.08 21.77 1349.08 21.77 1349.08 21.77 1349.08 35.66 1349.08 49.66 1349.08 115.54 1349.08 115.88 1349.08 116.26 1349.08 126.83 1349.08 126.83 1349.08 126.83 1349.08 126.83 1349.08 126.83 1351.25 126.83 1351.25 49.66 1351.25 49.66 1351.25 35.66 1351.25 35.66 1351.25 21.77 1351.25 21.77 1351.25 21.77 1351.25 21.77 1351.25 21.77 1351.25 21.77 1351.25 21.77 1351.25 21.77 1351.25 21.77 1351.25 21.77 1351.25 21.77 1349.08 21.77"/><polygon class="cls-1" points="1379.04 0 1379.03 0 1379.03 0 1379.03 0 1379.03 14.52 1379.03 28.52 1379.03 94.4 1379.03 105.12 1379.03 105.12 1379.03 105.12 1379.03 105.12 1381.2 105.12 1381.2 105.12 1381.2 105.12 1381.2 105.12 1381.2 105.12 1381.2 94.05 1381.2 80.05 1381.2 14.17 1381.2 0 1381.2 0 1381.2 0 1381.2 0 1379.04 0 1379.04 0"/><polygon class="cls-1" points="1439.01 21.77 1439.01 21.77 1439.01 21.77 1439.01 21.77 1439.01 21.77 1439.01 21.77 1439.01 21.77 1439.01 21.77 1439.01 21.77 1439.01 21.77 1439.01 35.66 1439.01 35.66 1439.01 49.66 1439.01 49.66 1439.01 126.83 1441.17 126.83 1441.17 126.83 1441.17 126.83 1441.17 126.83 1441.17 126.83 1441.17 116.26 1441.17 115.88 1441.17 115.54 1441.17 49.66 1441.17 35.66 1441.17 21.77 1441.17 21.77 1441.17 21.77 1441.17 21.77 1441.17 21.77 1441.17 21.77 1439.01 21.77 1439.01 21.77"/><polygon class="cls-1" points="1411.22 0 1409.06 0 1409.06 0 1409.06 0 1409.06 0 1409.06 14.17 1409.06 80.05 1409.06 94.05 1409.06 105.12 1409.06 105.12 1409.06 105.12 1409.06 105.12 1409.06 105.12 1411.22 105.12 1411.22 105.12 1411.22 105.12 1411.22 105.12 1411.22 94.4 1411.22 28.52 1411.22 14.52 1411.22 0 1411.22 0 1411.22 0 1411.22 0 1411.22 0"/><polygon class="cls-1" points="1469 21.77 1469 21.77 1469 21.77 1469 21.77 1469 21.77 1469 21.77 1469 35.66 1469 49.66 1469 115.54 1469 115.88 1469 116.26 1469 126.83 1469 126.83 1469 126.83 1469 126.83 1469 126.83 1471.16 126.83 1471.17 49.66 1471.17 49.66 1471.17 35.66 1471.17 35.66 1471.17 21.77 1471.17 21.77 1471.17 21.77 1471.17 21.77 1471.17 21.77 1471.17 21.77 1471.17 21.77 1471.17 21.77 1471.17 21.77 1471.17 21.77 1471.17 21.77 1469 21.77"/><polygon class="cls-1" points="1498.95 0 1498.95 0 1498.95 0 1498.95 0 1498.95 14.52 1498.95 28.52 1498.95 94.4 1498.95 105.12 1498.95 105.12 1498.95 105.12 1498.95 105.12 1501.12 105.12 1501.12 105.12 1501.12 105.12 1501.12 105.12 1501.12 105.12 1501.12 94.05 1501.12 80.05 1501.12 14.17 1501.12 0 1501.12 0 1501.12 0 1501.12 0 1498.95 0 1498.95 0"/><polygon class="cls-1" points="1558.92 21.77 1558.92 21.77 1558.92 21.77 1558.92 21.77 1558.92 21.77 1558.92 21.77 1558.92 21.77 1558.92 21.77 1558.92 21.77 1558.92 21.77 1558.92 35.66 1558.92 35.66 1558.92 49.66 1558.92 49.66 1558.93 126.83 1561.09 126.83 1561.09 126.83 1561.09 126.83 1561.09 126.83 1561.09 126.83 1561.09 116.26 1561.09 115.88 1561.09 115.54 1561.09 49.66 1561.09 35.66 1561.09 21.77 1561.09 21.77 1561.09 21.77 1561.09 21.77 1561.09 21.77 1561.09 21.77 1558.92 21.77 1558.92 21.77"/><polygon class="cls-1" points="1531.14 0 1528.97 0 1528.97 0 1528.97 0 1528.97 0 1528.97 14.17 1528.97 80.05 1528.97 94.05 1528.97 105.12 1528.97 105.12 1528.97 105.12 1528.97 105.12 1528.97 105.12 1531.14 105.12 1531.14 105.12 1531.14 105.12 1531.14 105.12 1531.14 94.4 1531.14 28.52 1531.14 14.52 1531.14 0 1531.14 0 1531.14 0 1531.14 0 1531.14 0"/><polygon class="cls-1" points="1588.92 21.77 1588.92 21.77 1588.92 21.77 1588.92 21.77 1588.92 21.77 1588.92 21.77 1588.92 35.66 1588.92 49.66 1588.92 115.54 1588.92 115.88 1588.92 116.26 1588.92 126.83 1588.92 126.83 1588.92 126.83 1588.92 126.83 1588.92 126.83 1591.08 126.83 1591.08 49.66 1591.08 49.66 1591.08 35.66 1591.08 35.66 1591.08 21.77 1591.08 21.77 1591.08 21.77 1591.08 21.77 1591.08 21.77 1591.08 21.77 1591.08 21.77 1591.08 21.77 1591.08 21.77 1591.08 21.77 1591.08 21.77 1588.92 21.77"/><polygon class="cls-1" points="1618.87 0 1618.87 0 1618.87 0 1618.87 0 1618.87 14.52 1618.87 28.52 1618.87 94.4 1618.87 105.12 1618.87 105.12 1618.87 105.12 1618.87 105.12 1621.03 105.12 1621.03 105.12 1621.04 105.12 1621.04 105.12 1621.04 105.12 1621.04 94.05 1621.04 80.05 1621.04 14.17 1621.04 0 1621.04 0 1621.04 0 1621.04 0 1618.87 0 1618.87 0"/><polygon class="cls-1" points="1678.84 21.77 1678.84 21.77 1678.84 21.77 1678.84 21.77 1678.84 21.77 1678.84 21.77 1678.84 21.77 1678.84 21.77 1678.84 21.77 1678.84 21.77 1678.84 35.66 1678.84 35.66 1678.84 49.66 1678.84 49.66 1678.84 126.83 1681.01 126.83 1681.01 126.83 1681.01 126.83 1681.01 126.83 1681.01 126.83 1681.01 116.26 1681.01 115.88 1681.01 115.54 1681.01 49.66 1681.01 35.66 1681.01 21.77 1681.01 21.77 1681.01 21.77 1681.01 21.77 1681.01 21.77 1681.01 21.77 1678.84 21.77 1678.84 21.77"/><polygon class="cls-1" points="1651.05 0 1648.89 0 1648.89 0 1648.89 0 1648.89 0 1648.89 14.17 1648.89 80.05 1648.89 94.05 1648.89 105.12 1648.89 105.12 1648.89 105.12 1648.89 105.12 1648.89 105.12 1651.06 105.12 1651.06 105.12 1651.06 105.12 1651.06 105.12 1651.06 94.4 1651.06 28.52 1651.06 14.52 1651.06 0 1651.06 0 1651.06 0 1651.06 0 1651.05 0"/><polygon class="cls-1" points="1708.84 21.77 1708.84 21.77 1708.84 21.77 1708.84 21.77 1708.84 21.77 1708.84 21.77 1708.84 35.66 1708.84 49.66 1708.84 115.54 1708.84 115.88 1708.84 116.26 1708.84 126.83 1708.84 126.83 1708.84 126.83 1708.84 126.83 1708.84 126.83 1711 126.83 1711 49.66 1711 49.66 1711 35.66 1711 35.66 1711 21.77 1711 21.77 1711 21.77 1711 21.77 1711 21.77 1711 21.77 1711 21.77 1711 21.77 1711 21.77 1711 21.77 1711 21.77 1708.84 21.77"/><polygon class="cls-1" points="1738.79 0 1738.79 0 1738.79 0 1738.79 0 1738.79 14.52 1738.79 28.52 1738.79 94.4 1738.79 105.12 1738.79 105.12 1738.79 105.12 1738.79 105.12 1740.95 105.12 1740.95 105.12 1740.95 105.12 1740.95 105.12 1740.95 105.12 1740.95 94.05 1740.95 80.05 1740.95 14.17 1740.95 0 1740.95 0 1740.95 0 1740.95 0 1738.79 0 1738.79 0"/><polygon class="cls-1" points="1798.76 21.77 1798.76 21.77 1798.76 21.77 1798.76 21.77 1798.76 21.77 1798.76 21.77 1798.76 21.77 1798.76 21.77 1798.76 21.77 1798.76 21.77 1798.76 35.66 1798.76 35.66 1798.76 49.66 1798.76 49.66 1798.76 126.83 1800.92 126.83 1800.92 126.83 1800.92 126.83 1800.92 126.83 1800.92 126.83 1800.92 116.26 1800.92 115.88 1800.92 115.54 1800.92 49.66 1800.92 35.66 1800.92 21.77 1800.92 21.77 1800.92 21.77 1800.92 21.77 1800.92 21.77 1800.92 21.77 1798.76 21.77 1798.76 21.77"/><polygon class="cls-1" points="1770.97 0 1768.81 0 1768.81 0 1768.81 0 1768.81 0 1768.81 14.17 1768.81 80.05 1768.81 94.05 1768.81 105.12 1768.81 105.12 1768.81 105.12 1768.81 105.12 1768.81 105.12 1770.97 105.12 1770.97 105.12 1770.97 105.12 1770.97 105.12 1770.97 94.4 1770.97 28.52 1770.97 14.52 1770.97 0 1770.97 0 1770.97 0 1770.97 0 1770.97 0"/><polygon class="cls-1" points="1828.75 21.77 1828.75 21.77 1828.75 21.77 1828.75 21.77 1828.75 21.77 1828.75 21.77 1828.75 35.66 1828.75 49.66 1828.75 115.54 1828.75 115.88 1828.75 116.26 1828.75 126.83 1828.75 126.83 1828.75 126.83 1828.75 126.83 1828.75 126.83 1830.92 126.83 1830.92 49.66 1830.92 49.66 1830.92 35.66 1830.92 35.66 1830.92 21.77 1830.92 21.77 1830.92 21.77 1830.92 21.77 1830.92 21.77 1830.92 21.77 1830.92 21.77 1830.92 21.77 1830.92 21.77 1830.92 21.77 1830.92 21.77 1828.75 21.77"/><polygon class="cls-1" points="1858.7 0 1858.7 0 1858.7 0 1858.7 0 1858.7 14.52 1858.7 28.52 1858.7 94.4 1858.7 105.12 1858.7 105.12 1858.7 105.12 1858.7 105.12 1860.87 105.12 1860.87 105.12 1860.87 105.12 1860.87 105.12 1860.87 105.12 1860.87 94.05 1860.87 80.05 1860.87 14.17 1860.87 0 1860.87 0 1860.87 0 1860.87 0 1858.7 0 1858.7 0"/><polygon class="cls-1" points="1918.68 21.77 1918.68 21.77 1918.68 21.77 1918.68 21.77 1918.68 21.77 1918.68 21.77 1918.68 35.66 1918.68 35.66 1918.68 49.66 1918.68 49.66 1918.68 126.83 1920.84 126.83 1920.84 126.83 1920.84 126.83 1920.84 126.83 1920.84 116.26 1920.84 115.54 1920.84 49.66 1920.84 35.66 1920.84 21.77 1920.84 21.77 1920.84 21.77 1920.84 21.77 1918.68 21.77 1918.68 21.77"/><polygon class="cls-1" points="1890.89 0 1888.72 0 1888.72 0 1888.72 0 1888.72 0 1888.72 14.17 1888.72 80.05 1888.72 94.05 1888.72 105.12 1888.72 105.12 1888.72 105.12 1888.73 105.12 1888.73 105.12 1890.89 105.12 1890.89 105.12 1890.89 105.12 1890.89 105.12 1890.89 94.4 1890.89 28.52 1890.89 14.52 1890.89 0 1890.89 0 1890.89 0 1890.89 0 1890.89 0"/></g></g></svg>
