<svg xmlns="http://www.w3.org/2000/svg" viewBox="0 0 1442.83 421.32"><defs><style>.cls-1{fill:#294b60;}</style></defs><title>Asset 1</title><g id="Layer_2" data-name="Layer 2"><g id="Layer_1-2" data-name="Layer 1"><polygon class="cls-1" points="189.16 1.19 162.2 76.08 135.24 1.19 92.78 1.19 65.82 76.07 38.75 1.19 0 1.19 44.48 124.59 87.05 124.59 114.01 49.92 140.86 124.59 183.54 124.59 228.01 1.19 189.16 1.19"/><path class="cls-1" d="M292.58,90.32A25.58,25.58,0,0,1,270.67,79l-2.57-3.64h87.81v-12A61,61,0,0,0,337.31,18.6a63.2,63.2,0,0,0-89.56,0,61,61,0,0,0-18.6,44.72,61.38,61.38,0,0,0,18.6,44.83,63.34,63.34,0,0,0,88.12,1.5L310.09,83.76A25.71,25.71,0,0,1,292.58,90.32ZM270.68,47.68a26.85,26.85,0,0,1,43.71,0L317,51.33H268.07Z"/><path class="cls-1" d="M140.37,310.06c7.2-6.63,10.39-15.18,9.7-26.11-.73-12.61-7.1-21-20-26.37l-16.22-4.48c-13-2.6-19.87-8.23-20.33-16.67A17.36,17.36,0,0,1,98,223.71a17.72,17.72,0,0,1,12.15-5.89c.91-.08,1.62-.09,2.33-.09a31.41,31.41,0,0,1,16.22,4.42l11.67-11a48.67,48.67,0,0,0-16.59-7.47,46.47,46.47,0,0,0-14.69-1.41A33.34,33.34,0,0,0,77.93,237.4c.73,12.35,6.62,20.76,18.52,26.43l15.6,4.83c7.78,1.5,13.08,3.35,16.66,5.78a13.79,13.79,0,0,1,5.81,10.21c.37,7.62-2.42,11.73-4.84,13.9-3.28,3-8,4.82-14,5.19-.23,0-.75.06-1.32.06a31.61,31.61,0,0,1-7.75-1.16,34.74,34.74,0,0,1-8.54-3.38L86.34,310.46c8.3,5.92,18,8.86,29.52,8.91C126.32,318.61,134.33,315.57,140.37,310.06Z"/><path class="cls-1" d="M311.68,204h-15.6v71.1a27.66,27.66,0,0,1-55.32,0V204H225.17v71.1a43.42,43.42,0,0,0,43.25,43.26,43.45,43.45,0,0,0,43.26-43.26Z"/><polygon class="cls-1" points="608.73 219.6 608.73 204.01 546.32 204.01 546.32 317.49 608.73 317.49 608.73 301.89 561.9 301.89 561.9 268.55 605.66 268.55 605.66 252.94 561.9 252.94 561.9 219.6 608.73 219.6"/><path class="cls-1" d="M757.2,317.49h18.14l-16.83-28.59a54.58,54.58,0,0,0,7.27-3.69,53.68,53.68,0,0,0,4.76-3.78c9.56-9,13.24-17.35,13.24-30.83A46.56,46.56,0,0,0,737.19,204H689.65V317.49h15.6V291.31h31.94c.45,0,4.54-.25,4.54-.25Zm-20-40.47H705.24V219.6h31.94a33.43,33.43,0,0,1,21.91,9.06c4.75,4.76,9,10.71,9,19.41s-3.06,13.93-9,19.86A30.33,30.33,0,0,1,737.19,277Z"/><path class="cls-1" d="M912.36,310.05c7.21-6.65,10.4-15.2,9.73-26.12-.76-12.61-7.13-21-20-26.37l-16.19-4.48c-13-2.59-19.86-8.18-20.33-16.69a17.32,17.32,0,0,1,4.38-12.63,17.67,17.67,0,0,1,12.25-6c.87-.06,1.59-.09,2.27-.09a31.46,31.46,0,0,1,16.24,4.45l11.65-11a50.4,50.4,0,0,0-31.25-8.89,33.35,33.35,0,0,0-31.15,35.17c.75,12.33,6.64,20.76,18.52,26.42l15.63,4.83c7.73,1.5,13,3.35,16.61,5.73a14,14,0,0,1,5.87,10.26c.32,7.68-2.5,11.78-4.9,13.94-3.28,3-7.87,4.76-14,5.14a8.91,8.91,0,0,1-1.32.06,32.22,32.22,0,0,1-7.72-1.15,36,36,0,0,1-8.57-3.38l-11.74,11.14c8.3,5.93,18,8.89,29.49,8.94C898.3,318.59,906.31,315.55,912.36,310.05Z"/><polygon class="cls-1" points="1059.5 219.59 1059.5 204 997.08 204 997.08 317.48 1059.5 317.48 1059.5 301.88 1012.68 301.88 1012.68 268.55 1056.45 268.55 1056.45 252.95 1012.68 252.95 1012.68 219.59 1059.5 219.59"/><polygon class="cls-1" points="1199.59 219.59 1199.59 204 1137.16 204 1137.16 317.48 1199.59 317.48 1199.59 301.88 1152.77 301.88 1152.77 268.55 1196.52 268.55 1196.52 252.95 1152.77 252.95 1152.77 219.59 1199.59 219.59"/><polygon class="cls-1" points="0 400 0 421.32 1199.59 421.32 1199.59 400.01 0 400"/><polygon class="cls-1" points="546.33 103.27 546.33 124.59 1442.84 124.59 1442.84 103.28 546.33 103.27"/><path class="cls-1" d="M441.55,363.88l-1.13-1.72,1-1.78c13.89-24.73,30.4-62.05,30.4-99.5,0-66.58-37.26-109-46.91-118.89-9.63,9.85-46.9,52.31-46.9,118.89,0,63.57,46.83,125.8,48.82,128.4a307.59,307.59,0,0,0,25.39,29.87h41.4C474.27,405.7,456.72,387.11,441.55,363.88ZM424.91,334,422,328.89a136.18,136.18,0,0,1,0-136l2.94-5.13,3,5.13a136.23,136.23,0,0,1,0,136Z"/><path class="cls-1" d="M1301.44,158.52l1.13,1.72-1,1.8c-13.89,24.71-30.39,62-30.39,99.5,0,66.56,37.25,109,46.9,118.87,9.63-9.85,46.91-52.29,46.91-118.87,0-63.59-46.83-125.8-48.82-128.41a307.73,307.73,0,0,0-25.39-29.86h-41.4C1268.72,116.69,1286.27,135.29,1301.44,158.52Zm19.57,35a136.09,136.09,0,0,1,0,136l-2.94,5.13-3-5.13a136.21,136.21,0,0,1,0-136l2.94-5.1Z"/></g></g></svg>