<svg xmlns="http://www.w3.org/2000/svg" viewBox="0 0 1444 422"><defs><style>.cls-1{fill:#2a4b60;}.cls-2{fill:none;}</style></defs><title>Asset 3</title><g id="Layer_2" data-name="Layer 2"><g id="Layer_1-2" data-name="Layer 1"><polygon class="cls-1" points="189.31 1.36 162.33 76.32 135.34 1.36 92.85 1.36 65.87 76.31 38.78 1.36 0 1.36 44.51 124.86 87.12 124.86 114.1 50.13 140.97 124.86 183.68 124.86 228.19 1.36 189.31 1.36"/><path class="cls-1" d="M292.82,90.56a25.6,25.6,0,0,1-21.93-11.38l-2.58-3.64h87.88v-12a61.07,61.07,0,0,0-18.61-44.75,63.25,63.25,0,0,0-89.63,0,61.06,61.06,0,0,0-18.61,44.76A61.43,61.43,0,0,0,248,108.41a63.39,63.39,0,0,0,88.19,1.5L310.34,84A25.73,25.73,0,0,1,292.82,90.56ZM270.9,47.89a26.87,26.87,0,0,1,43.74,0l2.61,3.65h-49Z"/><rect class="cls-2" width="1444" height="422"/></g></g></svg>