<svg xmlns="http://www.w3.org/2000/svg" viewBox="0 0 1444 422"><defs><style>.cls-1{fill:#2a4b60;}.cls-2{fill:none;}</style></defs><title>Asset 2</title><g id="Layer_2" data-name="Layer 2"><g id="Layer_1-2" data-name="Layer 1"><path class="cls-1" d="M140.49,310.48c7.21-6.64,10.4-15.2,9.7-26.13-.73-12.62-7.11-21-20-26.39L114,253.48c-13-2.6-19.88-8.23-20.34-16.68A17.38,17.38,0,0,1,98,224.06a17.74,17.74,0,0,1,12.16-5.89c.91-.08,1.62-.09,2.33-.09a31.44,31.44,0,0,1,16.23,4.42l11.68-11a48.71,48.71,0,0,0-16.6-7.47,46.51,46.51,0,0,0-14.7-1.41A33.36,33.36,0,0,0,78,237.77c.73,12.36,6.63,20.78,18.54,26.45l15.62,4.84c7.79,1.5,13.09,3.35,16.67,5.78a13.8,13.8,0,0,1,5.82,10.22c.37,7.63-2.42,11.74-4.85,13.91-3.29,3-8,4.82-14,5.19-.23,0-.75.06-1.33.06a31.63,31.63,0,0,1-7.76-1.16,34.77,34.77,0,0,1-8.54-3.38l-11.77,11.2c8.31,5.92,18.06,8.87,29.54,8.92C126.43,319,134.44,316,140.49,310.48Z"/><path class="cls-1" d="M311.93,204.35H296.32v71.16a27.68,27.68,0,0,1-55.37,0V204.35h-15.6v71.16a43.45,43.45,0,0,0,43.29,43.29,43.49,43.49,0,0,0,43.29-43.29Z"/><polygon class="cls-1" points="609.22 219.95 609.22 204.35 546.76 204.35 546.76 317.92 609.22 317.92 609.22 302.31 562.35 302.31 562.35 268.94 606.15 268.94 606.15 253.32 562.35 253.32 562.35 219.95 609.22 219.95"/><path class="cls-1" d="M757.81,317.92H776l-16.85-28.61a54.62,54.62,0,0,0,7.28-3.69,53.73,53.73,0,0,0,4.76-3.78c9.57-9,13.25-17.37,13.25-30.86a46.6,46.6,0,0,0-46.62-46.63H690.2V317.92h15.61V291.72h32c.45,0,4.55-.25,4.55-.25Zm-20-40.5h-32V220h32A33.45,33.45,0,0,1,759.71,229c4.75,4.76,9,10.71,9,19.43s-3.07,13.94-9,19.88A30.36,30.36,0,0,1,737.78,277.42Z"/><path class="cls-1" d="M913.1,310.48c7.21-6.65,10.41-15.21,9.73-26.14-.76-12.62-7.14-21-20.06-26.39l-16.2-4.48c-13-2.59-19.87-8.19-20.35-16.7a17.33,17.33,0,0,1,4.38-12.64,17.68,17.68,0,0,1,12.26-6c.87-.06,1.59-.09,2.28-.09a31.48,31.48,0,0,1,16.25,4.45l11.66-11a50.45,50.45,0,0,0-31.28-8.9,33.37,33.37,0,0,0-31.18,35.2c.75,12.34,6.65,20.78,18.54,26.44L884.78,269c7.74,1.5,13,3.35,16.62,5.74A14,14,0,0,1,907.27,285c.32,7.69-2.5,11.79-4.9,14-3.28,3-7.88,4.76-14,5.15a8.91,8.91,0,0,1-1.32.06,32.25,32.25,0,0,1-7.73-1.15,36,36,0,0,1-8.58-3.38L859,310.83c8.3,5.94,18.06,8.9,29.51,8.95C899,319,907,316,913.1,310.48Z"/><polygon class="cls-1" points="1060.36 219.94 1060.36 204.34 997.88 204.34 997.88 317.91 1060.36 317.91 1060.36 302.29 1013.5 302.29 1013.5 268.94 1057.3 268.94 1057.3 253.32 1013.5 253.32 1013.5 219.94 1060.36 219.94"/><polygon class="cls-1" points="1200.56 219.94 1200.56 204.34 1138.08 204.34 1138.08 317.91 1200.56 317.91 1200.56 302.29 1153.7 302.29 1153.7 268.94 1197.49 268.94 1197.49 253.32 1153.7 253.32 1153.7 219.94 1200.56 219.94"/><path class="cls-1" d="M441.91,366.52l-1.13-1.72,1-1.78c13.9-24.75,30.42-62.1,30.42-99.58,0-66.63-37.29-109.09-46.95-119-9.64,9.86-46.94,52.35-46.94,119,0,63.62,46.87,125.9,48.86,128.5a307.84,307.84,0,0,0,25.42,29.9H494C474.66,408.37,457.09,389.76,441.91,366.52Zm-16.65-29.93-2.94-5.09a136.29,136.29,0,0,1,0-136.09l2.94-5.13,3,5.13a136.34,136.34,0,0,1,0,136.09Z"/><path class="cls-1" d="M1302.49,158.82l1.13,1.72-1,1.8c-13.9,24.73-30.42,62.09-30.42,99.58,0,66.62,37.28,109.09,46.94,119,9.64-9.86,46.95-52.33,46.95-119,0-63.64-46.87-125.9-48.86-128.52a308,308,0,0,0-25.42-29.88h-41.44C1269.74,117,1287.31,135.58,1302.49,158.82Zm19.58,35a136.2,136.2,0,0,1,0,136.07l-2.94,5.13-3-5.13a136.32,136.32,0,0,1,0-136.07l2.94-5.1Z"/><rect class="cls-2" width="1444" height="422"/></g></g></svg>